%TF.GenerationSoftware,KiCad,Pcbnew,10.0.3*%
%TF.CreationDate,2026-07-15T11:41:37-04:00*%
%TF.ProjectId,ESP32-S3_Audio_Control_Board,45535033-322d-4533-935f-417564696f5f,A*%
%TF.SameCoordinates,Original*%
%TF.FileFunction,Legend,Top*%
%TF.FilePolarity,Positive*%
%FSLAX46Y46*%
G04 Gerber Fmt 4.6, Leading zero omitted, Abs format (unit mm)*
G04 Created by KiCad (PCBNEW 10.0.3) date 2026-07-15 11:41:37*
%MOMM*%
%LPD*%
G01*
G04 APERTURE LIST*
%ADD10C,0.150000*%
%ADD11C,0.120000*%
G04 APERTURE END LIST*
D10*
X118583942Y-73458219D02*
X118250609Y-72982028D01*
X118012514Y-73458219D02*
X118012514Y-72458219D01*
X118012514Y-72458219D02*
X118393466Y-72458219D01*
X118393466Y-72458219D02*
X118488704Y-72505838D01*
X118488704Y-72505838D02*
X118536323Y-72553457D01*
X118536323Y-72553457D02*
X118583942Y-72648695D01*
X118583942Y-72648695D02*
X118583942Y-72791552D01*
X118583942Y-72791552D02*
X118536323Y-72886790D01*
X118536323Y-72886790D02*
X118488704Y-72934409D01*
X118488704Y-72934409D02*
X118393466Y-72982028D01*
X118393466Y-72982028D02*
X118012514Y-72982028D01*
X119536323Y-73458219D02*
X118964895Y-73458219D01*
X119250609Y-73458219D02*
X119250609Y-72458219D01*
X119250609Y-72458219D02*
X119155371Y-72601076D01*
X119155371Y-72601076D02*
X119060133Y-72696314D01*
X119060133Y-72696314D02*
X118964895Y-72743933D01*
X119869657Y-72458219D02*
X120488704Y-72458219D01*
X120488704Y-72458219D02*
X120155371Y-72839171D01*
X120155371Y-72839171D02*
X120298228Y-72839171D01*
X120298228Y-72839171D02*
X120393466Y-72886790D01*
X120393466Y-72886790D02*
X120441085Y-72934409D01*
X120441085Y-72934409D02*
X120488704Y-73029647D01*
X120488704Y-73029647D02*
X120488704Y-73267742D01*
X120488704Y-73267742D02*
X120441085Y-73362980D01*
X120441085Y-73362980D02*
X120393466Y-73410600D01*
X120393466Y-73410600D02*
X120298228Y-73458219D01*
X120298228Y-73458219D02*
X120012514Y-73458219D01*
X120012514Y-73458219D02*
X119917276Y-73410600D01*
X119917276Y-73410600D02*
X119869657Y-73362980D01*
X106730095Y-73448819D02*
X106730095Y-74258342D01*
X106730095Y-74258342D02*
X106777714Y-74353580D01*
X106777714Y-74353580D02*
X106825333Y-74401200D01*
X106825333Y-74401200D02*
X106920571Y-74448819D01*
X106920571Y-74448819D02*
X107111047Y-74448819D01*
X107111047Y-74448819D02*
X107206285Y-74401200D01*
X107206285Y-74401200D02*
X107253904Y-74353580D01*
X107253904Y-74353580D02*
X107301523Y-74258342D01*
X107301523Y-74258342D02*
X107301523Y-73448819D01*
X107730095Y-73544057D02*
X107777714Y-73496438D01*
X107777714Y-73496438D02*
X107872952Y-73448819D01*
X107872952Y-73448819D02*
X108111047Y-73448819D01*
X108111047Y-73448819D02*
X108206285Y-73496438D01*
X108206285Y-73496438D02*
X108253904Y-73544057D01*
X108253904Y-73544057D02*
X108301523Y-73639295D01*
X108301523Y-73639295D02*
X108301523Y-73734533D01*
X108301523Y-73734533D02*
X108253904Y-73877390D01*
X108253904Y-73877390D02*
X107682476Y-74448819D01*
X107682476Y-74448819D02*
X108301523Y-74448819D01*
X135347942Y-72931180D02*
X135300323Y-72978800D01*
X135300323Y-72978800D02*
X135157466Y-73026419D01*
X135157466Y-73026419D02*
X135062228Y-73026419D01*
X135062228Y-73026419D02*
X134919371Y-72978800D01*
X134919371Y-72978800D02*
X134824133Y-72883561D01*
X134824133Y-72883561D02*
X134776514Y-72788323D01*
X134776514Y-72788323D02*
X134728895Y-72597847D01*
X134728895Y-72597847D02*
X134728895Y-72454990D01*
X134728895Y-72454990D02*
X134776514Y-72264514D01*
X134776514Y-72264514D02*
X134824133Y-72169276D01*
X134824133Y-72169276D02*
X134919371Y-72074038D01*
X134919371Y-72074038D02*
X135062228Y-72026419D01*
X135062228Y-72026419D02*
X135157466Y-72026419D01*
X135157466Y-72026419D02*
X135300323Y-72074038D01*
X135300323Y-72074038D02*
X135347942Y-72121657D01*
X135728895Y-72121657D02*
X135776514Y-72074038D01*
X135776514Y-72074038D02*
X135871752Y-72026419D01*
X135871752Y-72026419D02*
X136109847Y-72026419D01*
X136109847Y-72026419D02*
X136205085Y-72074038D01*
X136205085Y-72074038D02*
X136252704Y-72121657D01*
X136252704Y-72121657D02*
X136300323Y-72216895D01*
X136300323Y-72216895D02*
X136300323Y-72312133D01*
X136300323Y-72312133D02*
X136252704Y-72454990D01*
X136252704Y-72454990D02*
X135681276Y-73026419D01*
X135681276Y-73026419D02*
X136300323Y-73026419D01*
X136633657Y-72026419D02*
X137252704Y-72026419D01*
X137252704Y-72026419D02*
X136919371Y-72407371D01*
X136919371Y-72407371D02*
X137062228Y-72407371D01*
X137062228Y-72407371D02*
X137157466Y-72454990D01*
X137157466Y-72454990D02*
X137205085Y-72502609D01*
X137205085Y-72502609D02*
X137252704Y-72597847D01*
X137252704Y-72597847D02*
X137252704Y-72835942D01*
X137252704Y-72835942D02*
X137205085Y-72931180D01*
X137205085Y-72931180D02*
X137157466Y-72978800D01*
X137157466Y-72978800D02*
X137062228Y-73026419D01*
X137062228Y-73026419D02*
X136776514Y-73026419D01*
X136776514Y-73026419D02*
X136681276Y-72978800D01*
X136681276Y-72978800D02*
X136633657Y-72931180D01*
X119764180Y-68185257D02*
X119811800Y-68232876D01*
X119811800Y-68232876D02*
X119859419Y-68375733D01*
X119859419Y-68375733D02*
X119859419Y-68470971D01*
X119859419Y-68470971D02*
X119811800Y-68613828D01*
X119811800Y-68613828D02*
X119716561Y-68709066D01*
X119716561Y-68709066D02*
X119621323Y-68756685D01*
X119621323Y-68756685D02*
X119430847Y-68804304D01*
X119430847Y-68804304D02*
X119287990Y-68804304D01*
X119287990Y-68804304D02*
X119097514Y-68756685D01*
X119097514Y-68756685D02*
X119002276Y-68709066D01*
X119002276Y-68709066D02*
X118907038Y-68613828D01*
X118907038Y-68613828D02*
X118859419Y-68470971D01*
X118859419Y-68470971D02*
X118859419Y-68375733D01*
X118859419Y-68375733D02*
X118907038Y-68232876D01*
X118907038Y-68232876D02*
X118954657Y-68185257D01*
X119859419Y-67232876D02*
X119859419Y-67804304D01*
X119859419Y-67518590D02*
X118859419Y-67518590D01*
X118859419Y-67518590D02*
X119002276Y-67613828D01*
X119002276Y-67613828D02*
X119097514Y-67709066D01*
X119097514Y-67709066D02*
X119145133Y-67804304D01*
X119287990Y-66661447D02*
X119240371Y-66756685D01*
X119240371Y-66756685D02*
X119192752Y-66804304D01*
X119192752Y-66804304D02*
X119097514Y-66851923D01*
X119097514Y-66851923D02*
X119049895Y-66851923D01*
X119049895Y-66851923D02*
X118954657Y-66804304D01*
X118954657Y-66804304D02*
X118907038Y-66756685D01*
X118907038Y-66756685D02*
X118859419Y-66661447D01*
X118859419Y-66661447D02*
X118859419Y-66470971D01*
X118859419Y-66470971D02*
X118907038Y-66375733D01*
X118907038Y-66375733D02*
X118954657Y-66328114D01*
X118954657Y-66328114D02*
X119049895Y-66280495D01*
X119049895Y-66280495D02*
X119097514Y-66280495D01*
X119097514Y-66280495D02*
X119192752Y-66328114D01*
X119192752Y-66328114D02*
X119240371Y-66375733D01*
X119240371Y-66375733D02*
X119287990Y-66470971D01*
X119287990Y-66470971D02*
X119287990Y-66661447D01*
X119287990Y-66661447D02*
X119335609Y-66756685D01*
X119335609Y-66756685D02*
X119383228Y-66804304D01*
X119383228Y-66804304D02*
X119478466Y-66851923D01*
X119478466Y-66851923D02*
X119668942Y-66851923D01*
X119668942Y-66851923D02*
X119764180Y-66804304D01*
X119764180Y-66804304D02*
X119811800Y-66756685D01*
X119811800Y-66756685D02*
X119859419Y-66661447D01*
X119859419Y-66661447D02*
X119859419Y-66470971D01*
X119859419Y-66470971D02*
X119811800Y-66375733D01*
X119811800Y-66375733D02*
X119764180Y-66328114D01*
X119764180Y-66328114D02*
X119668942Y-66280495D01*
X119668942Y-66280495D02*
X119478466Y-66280495D01*
X119478466Y-66280495D02*
X119383228Y-66328114D01*
X119383228Y-66328114D02*
X119335609Y-66375733D01*
X119335609Y-66375733D02*
X119287990Y-66470971D01*
X155704476Y-107611819D02*
X155704476Y-108326104D01*
X155704476Y-108326104D02*
X155656857Y-108468961D01*
X155656857Y-108468961D02*
X155561619Y-108564200D01*
X155561619Y-108564200D02*
X155418762Y-108611819D01*
X155418762Y-108611819D02*
X155323524Y-108611819D01*
X156704476Y-108611819D02*
X156133048Y-108611819D01*
X156418762Y-108611819D02*
X156418762Y-107611819D01*
X156418762Y-107611819D02*
X156323524Y-107754676D01*
X156323524Y-107754676D02*
X156228286Y-107849914D01*
X156228286Y-107849914D02*
X156133048Y-107897533D01*
X157323524Y-107611819D02*
X157418762Y-107611819D01*
X157418762Y-107611819D02*
X157514000Y-107659438D01*
X157514000Y-107659438D02*
X157561619Y-107707057D01*
X157561619Y-107707057D02*
X157609238Y-107802295D01*
X157609238Y-107802295D02*
X157656857Y-107992771D01*
X157656857Y-107992771D02*
X157656857Y-108230866D01*
X157656857Y-108230866D02*
X157609238Y-108421342D01*
X157609238Y-108421342D02*
X157561619Y-108516580D01*
X157561619Y-108516580D02*
X157514000Y-108564200D01*
X157514000Y-108564200D02*
X157418762Y-108611819D01*
X157418762Y-108611819D02*
X157323524Y-108611819D01*
X157323524Y-108611819D02*
X157228286Y-108564200D01*
X157228286Y-108564200D02*
X157180667Y-108516580D01*
X157180667Y-108516580D02*
X157133048Y-108421342D01*
X157133048Y-108421342D02*
X157085429Y-108230866D01*
X157085429Y-108230866D02*
X157085429Y-107992771D01*
X157085429Y-107992771D02*
X157133048Y-107802295D01*
X157133048Y-107802295D02*
X157180667Y-107707057D01*
X157180667Y-107707057D02*
X157228286Y-107659438D01*
X157228286Y-107659438D02*
X157323524Y-107611819D01*
X112112419Y-88073457D02*
X111636228Y-88406790D01*
X112112419Y-88644885D02*
X111112419Y-88644885D01*
X111112419Y-88644885D02*
X111112419Y-88263933D01*
X111112419Y-88263933D02*
X111160038Y-88168695D01*
X111160038Y-88168695D02*
X111207657Y-88121076D01*
X111207657Y-88121076D02*
X111302895Y-88073457D01*
X111302895Y-88073457D02*
X111445752Y-88073457D01*
X111445752Y-88073457D02*
X111540990Y-88121076D01*
X111540990Y-88121076D02*
X111588609Y-88168695D01*
X111588609Y-88168695D02*
X111636228Y-88263933D01*
X111636228Y-88263933D02*
X111636228Y-88644885D01*
X112112419Y-87121076D02*
X112112419Y-87692504D01*
X112112419Y-87406790D02*
X111112419Y-87406790D01*
X111112419Y-87406790D02*
X111255276Y-87502028D01*
X111255276Y-87502028D02*
X111350514Y-87597266D01*
X111350514Y-87597266D02*
X111398133Y-87692504D01*
X112112419Y-86168695D02*
X112112419Y-86740123D01*
X112112419Y-86454409D02*
X111112419Y-86454409D01*
X111112419Y-86454409D02*
X111255276Y-86549647D01*
X111255276Y-86549647D02*
X111350514Y-86644885D01*
X111350514Y-86644885D02*
X111398133Y-86740123D01*
X109230333Y-71908819D02*
X108897000Y-71432628D01*
X108658905Y-71908819D02*
X108658905Y-70908819D01*
X108658905Y-70908819D02*
X109039857Y-70908819D01*
X109039857Y-70908819D02*
X109135095Y-70956438D01*
X109135095Y-70956438D02*
X109182714Y-71004057D01*
X109182714Y-71004057D02*
X109230333Y-71099295D01*
X109230333Y-71099295D02*
X109230333Y-71242152D01*
X109230333Y-71242152D02*
X109182714Y-71337390D01*
X109182714Y-71337390D02*
X109135095Y-71385009D01*
X109135095Y-71385009D02*
X109039857Y-71432628D01*
X109039857Y-71432628D02*
X108658905Y-71432628D01*
X109563667Y-70908819D02*
X110230333Y-70908819D01*
X110230333Y-70908819D02*
X109801762Y-71908819D01*
X130852142Y-94800580D02*
X130804523Y-94848200D01*
X130804523Y-94848200D02*
X130661666Y-94895819D01*
X130661666Y-94895819D02*
X130566428Y-94895819D01*
X130566428Y-94895819D02*
X130423571Y-94848200D01*
X130423571Y-94848200D02*
X130328333Y-94752961D01*
X130328333Y-94752961D02*
X130280714Y-94657723D01*
X130280714Y-94657723D02*
X130233095Y-94467247D01*
X130233095Y-94467247D02*
X130233095Y-94324390D01*
X130233095Y-94324390D02*
X130280714Y-94133914D01*
X130280714Y-94133914D02*
X130328333Y-94038676D01*
X130328333Y-94038676D02*
X130423571Y-93943438D01*
X130423571Y-93943438D02*
X130566428Y-93895819D01*
X130566428Y-93895819D02*
X130661666Y-93895819D01*
X130661666Y-93895819D02*
X130804523Y-93943438D01*
X130804523Y-93943438D02*
X130852142Y-93991057D01*
X131185476Y-93895819D02*
X131804523Y-93895819D01*
X131804523Y-93895819D02*
X131471190Y-94276771D01*
X131471190Y-94276771D02*
X131614047Y-94276771D01*
X131614047Y-94276771D02*
X131709285Y-94324390D01*
X131709285Y-94324390D02*
X131756904Y-94372009D01*
X131756904Y-94372009D02*
X131804523Y-94467247D01*
X131804523Y-94467247D02*
X131804523Y-94705342D01*
X131804523Y-94705342D02*
X131756904Y-94800580D01*
X131756904Y-94800580D02*
X131709285Y-94848200D01*
X131709285Y-94848200D02*
X131614047Y-94895819D01*
X131614047Y-94895819D02*
X131328333Y-94895819D01*
X131328333Y-94895819D02*
X131233095Y-94848200D01*
X131233095Y-94848200D02*
X131185476Y-94800580D01*
X132423571Y-93895819D02*
X132518809Y-93895819D01*
X132518809Y-93895819D02*
X132614047Y-93943438D01*
X132614047Y-93943438D02*
X132661666Y-93991057D01*
X132661666Y-93991057D02*
X132709285Y-94086295D01*
X132709285Y-94086295D02*
X132756904Y-94276771D01*
X132756904Y-94276771D02*
X132756904Y-94514866D01*
X132756904Y-94514866D02*
X132709285Y-94705342D01*
X132709285Y-94705342D02*
X132661666Y-94800580D01*
X132661666Y-94800580D02*
X132614047Y-94848200D01*
X132614047Y-94848200D02*
X132518809Y-94895819D01*
X132518809Y-94895819D02*
X132423571Y-94895819D01*
X132423571Y-94895819D02*
X132328333Y-94848200D01*
X132328333Y-94848200D02*
X132280714Y-94800580D01*
X132280714Y-94800580D02*
X132233095Y-94705342D01*
X132233095Y-94705342D02*
X132185476Y-94514866D01*
X132185476Y-94514866D02*
X132185476Y-94276771D01*
X132185476Y-94276771D02*
X132233095Y-94086295D01*
X132233095Y-94086295D02*
X132280714Y-93991057D01*
X132280714Y-93991057D02*
X132328333Y-93943438D01*
X132328333Y-93943438D02*
X132423571Y-93895819D01*
X114734980Y-71417466D02*
X114782600Y-71465085D01*
X114782600Y-71465085D02*
X114830219Y-71607942D01*
X114830219Y-71607942D02*
X114830219Y-71703180D01*
X114830219Y-71703180D02*
X114782600Y-71846037D01*
X114782600Y-71846037D02*
X114687361Y-71941275D01*
X114687361Y-71941275D02*
X114592123Y-71988894D01*
X114592123Y-71988894D02*
X114401647Y-72036513D01*
X114401647Y-72036513D02*
X114258790Y-72036513D01*
X114258790Y-72036513D02*
X114068314Y-71988894D01*
X114068314Y-71988894D02*
X113973076Y-71941275D01*
X113973076Y-71941275D02*
X113877838Y-71846037D01*
X113877838Y-71846037D02*
X113830219Y-71703180D01*
X113830219Y-71703180D02*
X113830219Y-71607942D01*
X113830219Y-71607942D02*
X113877838Y-71465085D01*
X113877838Y-71465085D02*
X113925457Y-71417466D01*
X113830219Y-71084132D02*
X113830219Y-70417466D01*
X113830219Y-70417466D02*
X114830219Y-70846037D01*
X135347942Y-71629419D02*
X135014609Y-71153228D01*
X134776514Y-71629419D02*
X134776514Y-70629419D01*
X134776514Y-70629419D02*
X135157466Y-70629419D01*
X135157466Y-70629419D02*
X135252704Y-70677038D01*
X135252704Y-70677038D02*
X135300323Y-70724657D01*
X135300323Y-70724657D02*
X135347942Y-70819895D01*
X135347942Y-70819895D02*
X135347942Y-70962752D01*
X135347942Y-70962752D02*
X135300323Y-71057990D01*
X135300323Y-71057990D02*
X135252704Y-71105609D01*
X135252704Y-71105609D02*
X135157466Y-71153228D01*
X135157466Y-71153228D02*
X134776514Y-71153228D01*
X136300323Y-71629419D02*
X135728895Y-71629419D01*
X136014609Y-71629419D02*
X136014609Y-70629419D01*
X136014609Y-70629419D02*
X135919371Y-70772276D01*
X135919371Y-70772276D02*
X135824133Y-70867514D01*
X135824133Y-70867514D02*
X135728895Y-70915133D01*
X137157466Y-70629419D02*
X136966990Y-70629419D01*
X136966990Y-70629419D02*
X136871752Y-70677038D01*
X136871752Y-70677038D02*
X136824133Y-70724657D01*
X136824133Y-70724657D02*
X136728895Y-70867514D01*
X136728895Y-70867514D02*
X136681276Y-71057990D01*
X136681276Y-71057990D02*
X136681276Y-71438942D01*
X136681276Y-71438942D02*
X136728895Y-71534180D01*
X136728895Y-71534180D02*
X136776514Y-71581800D01*
X136776514Y-71581800D02*
X136871752Y-71629419D01*
X136871752Y-71629419D02*
X137062228Y-71629419D01*
X137062228Y-71629419D02*
X137157466Y-71581800D01*
X137157466Y-71581800D02*
X137205085Y-71534180D01*
X137205085Y-71534180D02*
X137252704Y-71438942D01*
X137252704Y-71438942D02*
X137252704Y-71200847D01*
X137252704Y-71200847D02*
X137205085Y-71105609D01*
X137205085Y-71105609D02*
X137157466Y-71057990D01*
X137157466Y-71057990D02*
X137062228Y-71010371D01*
X137062228Y-71010371D02*
X136871752Y-71010371D01*
X136871752Y-71010371D02*
X136776514Y-71057990D01*
X136776514Y-71057990D02*
X136728895Y-71105609D01*
X136728895Y-71105609D02*
X136681276Y-71200847D01*
X159115933Y-74023380D02*
X159068314Y-74071000D01*
X159068314Y-74071000D02*
X158925457Y-74118619D01*
X158925457Y-74118619D02*
X158830219Y-74118619D01*
X158830219Y-74118619D02*
X158687362Y-74071000D01*
X158687362Y-74071000D02*
X158592124Y-73975761D01*
X158592124Y-73975761D02*
X158544505Y-73880523D01*
X158544505Y-73880523D02*
X158496886Y-73690047D01*
X158496886Y-73690047D02*
X158496886Y-73547190D01*
X158496886Y-73547190D02*
X158544505Y-73356714D01*
X158544505Y-73356714D02*
X158592124Y-73261476D01*
X158592124Y-73261476D02*
X158687362Y-73166238D01*
X158687362Y-73166238D02*
X158830219Y-73118619D01*
X158830219Y-73118619D02*
X158925457Y-73118619D01*
X158925457Y-73118619D02*
X159068314Y-73166238D01*
X159068314Y-73166238D02*
X159115933Y-73213857D01*
X159496886Y-73213857D02*
X159544505Y-73166238D01*
X159544505Y-73166238D02*
X159639743Y-73118619D01*
X159639743Y-73118619D02*
X159877838Y-73118619D01*
X159877838Y-73118619D02*
X159973076Y-73166238D01*
X159973076Y-73166238D02*
X160020695Y-73213857D01*
X160020695Y-73213857D02*
X160068314Y-73309095D01*
X160068314Y-73309095D02*
X160068314Y-73404333D01*
X160068314Y-73404333D02*
X160020695Y-73547190D01*
X160020695Y-73547190D02*
X159449267Y-74118619D01*
X159449267Y-74118619D02*
X160068314Y-74118619D01*
X136408333Y-61494819D02*
X135932143Y-61494819D01*
X135932143Y-61494819D02*
X135932143Y-60494819D01*
X136694048Y-60590057D02*
X136741667Y-60542438D01*
X136741667Y-60542438D02*
X136836905Y-60494819D01*
X136836905Y-60494819D02*
X137075000Y-60494819D01*
X137075000Y-60494819D02*
X137170238Y-60542438D01*
X137170238Y-60542438D02*
X137217857Y-60590057D01*
X137217857Y-60590057D02*
X137265476Y-60685295D01*
X137265476Y-60685295D02*
X137265476Y-60780533D01*
X137265476Y-60780533D02*
X137217857Y-60923390D01*
X137217857Y-60923390D02*
X136646429Y-61494819D01*
X136646429Y-61494819D02*
X137265476Y-61494819D01*
X161238095Y-108004819D02*
X161238095Y-107004819D01*
X161238095Y-107481009D02*
X161809523Y-107481009D01*
X161809523Y-108004819D02*
X161809523Y-107004819D01*
X162190476Y-107004819D02*
X162809523Y-107004819D01*
X162809523Y-107004819D02*
X162476190Y-107385771D01*
X162476190Y-107385771D02*
X162619047Y-107385771D01*
X162619047Y-107385771D02*
X162714285Y-107433390D01*
X162714285Y-107433390D02*
X162761904Y-107481009D01*
X162761904Y-107481009D02*
X162809523Y-107576247D01*
X162809523Y-107576247D02*
X162809523Y-107814342D01*
X162809523Y-107814342D02*
X162761904Y-107909580D01*
X162761904Y-107909580D02*
X162714285Y-107957200D01*
X162714285Y-107957200D02*
X162619047Y-108004819D01*
X162619047Y-108004819D02*
X162333333Y-108004819D01*
X162333333Y-108004819D02*
X162238095Y-107957200D01*
X162238095Y-107957200D02*
X162190476Y-107909580D01*
X129201142Y-110929580D02*
X129153523Y-110977200D01*
X129153523Y-110977200D02*
X129010666Y-111024819D01*
X129010666Y-111024819D02*
X128915428Y-111024819D01*
X128915428Y-111024819D02*
X128772571Y-110977200D01*
X128772571Y-110977200D02*
X128677333Y-110881961D01*
X128677333Y-110881961D02*
X128629714Y-110786723D01*
X128629714Y-110786723D02*
X128582095Y-110596247D01*
X128582095Y-110596247D02*
X128582095Y-110453390D01*
X128582095Y-110453390D02*
X128629714Y-110262914D01*
X128629714Y-110262914D02*
X128677333Y-110167676D01*
X128677333Y-110167676D02*
X128772571Y-110072438D01*
X128772571Y-110072438D02*
X128915428Y-110024819D01*
X128915428Y-110024819D02*
X129010666Y-110024819D01*
X129010666Y-110024819D02*
X129153523Y-110072438D01*
X129153523Y-110072438D02*
X129201142Y-110120057D01*
X129534476Y-110024819D02*
X130153523Y-110024819D01*
X130153523Y-110024819D02*
X129820190Y-110405771D01*
X129820190Y-110405771D02*
X129963047Y-110405771D01*
X129963047Y-110405771D02*
X130058285Y-110453390D01*
X130058285Y-110453390D02*
X130105904Y-110501009D01*
X130105904Y-110501009D02*
X130153523Y-110596247D01*
X130153523Y-110596247D02*
X130153523Y-110834342D01*
X130153523Y-110834342D02*
X130105904Y-110929580D01*
X130105904Y-110929580D02*
X130058285Y-110977200D01*
X130058285Y-110977200D02*
X129963047Y-111024819D01*
X129963047Y-111024819D02*
X129677333Y-111024819D01*
X129677333Y-111024819D02*
X129582095Y-110977200D01*
X129582095Y-110977200D02*
X129534476Y-110929580D01*
X131105904Y-111024819D02*
X130534476Y-111024819D01*
X130820190Y-111024819D02*
X130820190Y-110024819D01*
X130820190Y-110024819D02*
X130724952Y-110167676D01*
X130724952Y-110167676D02*
X130629714Y-110262914D01*
X130629714Y-110262914D02*
X130534476Y-110310533D01*
X130552819Y-77049857D02*
X130076628Y-77383190D01*
X130552819Y-77621285D02*
X129552819Y-77621285D01*
X129552819Y-77621285D02*
X129552819Y-77240333D01*
X129552819Y-77240333D02*
X129600438Y-77145095D01*
X129600438Y-77145095D02*
X129648057Y-77097476D01*
X129648057Y-77097476D02*
X129743295Y-77049857D01*
X129743295Y-77049857D02*
X129886152Y-77049857D01*
X129886152Y-77049857D02*
X129981390Y-77097476D01*
X129981390Y-77097476D02*
X130029009Y-77145095D01*
X130029009Y-77145095D02*
X130076628Y-77240333D01*
X130076628Y-77240333D02*
X130076628Y-77621285D01*
X130552819Y-76097476D02*
X130552819Y-76668904D01*
X130552819Y-76383190D02*
X129552819Y-76383190D01*
X129552819Y-76383190D02*
X129695676Y-76478428D01*
X129695676Y-76478428D02*
X129790914Y-76573666D01*
X129790914Y-76573666D02*
X129838533Y-76668904D01*
X129886152Y-75240333D02*
X130552819Y-75240333D01*
X129505200Y-75478428D02*
X130219485Y-75716523D01*
X130219485Y-75716523D02*
X130219485Y-75097476D01*
X132782542Y-88571219D02*
X132449209Y-88095028D01*
X132211114Y-88571219D02*
X132211114Y-87571219D01*
X132211114Y-87571219D02*
X132592066Y-87571219D01*
X132592066Y-87571219D02*
X132687304Y-87618838D01*
X132687304Y-87618838D02*
X132734923Y-87666457D01*
X132734923Y-87666457D02*
X132782542Y-87761695D01*
X132782542Y-87761695D02*
X132782542Y-87904552D01*
X132782542Y-87904552D02*
X132734923Y-87999790D01*
X132734923Y-87999790D02*
X132687304Y-88047409D01*
X132687304Y-88047409D02*
X132592066Y-88095028D01*
X132592066Y-88095028D02*
X132211114Y-88095028D01*
X133734923Y-88571219D02*
X133163495Y-88571219D01*
X133449209Y-88571219D02*
X133449209Y-87571219D01*
X133449209Y-87571219D02*
X133353971Y-87714076D01*
X133353971Y-87714076D02*
X133258733Y-87809314D01*
X133258733Y-87809314D02*
X133163495Y-87856933D01*
X134306352Y-87999790D02*
X134211114Y-87952171D01*
X134211114Y-87952171D02*
X134163495Y-87904552D01*
X134163495Y-87904552D02*
X134115876Y-87809314D01*
X134115876Y-87809314D02*
X134115876Y-87761695D01*
X134115876Y-87761695D02*
X134163495Y-87666457D01*
X134163495Y-87666457D02*
X134211114Y-87618838D01*
X134211114Y-87618838D02*
X134306352Y-87571219D01*
X134306352Y-87571219D02*
X134496828Y-87571219D01*
X134496828Y-87571219D02*
X134592066Y-87618838D01*
X134592066Y-87618838D02*
X134639685Y-87666457D01*
X134639685Y-87666457D02*
X134687304Y-87761695D01*
X134687304Y-87761695D02*
X134687304Y-87809314D01*
X134687304Y-87809314D02*
X134639685Y-87904552D01*
X134639685Y-87904552D02*
X134592066Y-87952171D01*
X134592066Y-87952171D02*
X134496828Y-87999790D01*
X134496828Y-87999790D02*
X134306352Y-87999790D01*
X134306352Y-87999790D02*
X134211114Y-88047409D01*
X134211114Y-88047409D02*
X134163495Y-88095028D01*
X134163495Y-88095028D02*
X134115876Y-88190266D01*
X134115876Y-88190266D02*
X134115876Y-88380742D01*
X134115876Y-88380742D02*
X134163495Y-88475980D01*
X134163495Y-88475980D02*
X134211114Y-88523600D01*
X134211114Y-88523600D02*
X134306352Y-88571219D01*
X134306352Y-88571219D02*
X134496828Y-88571219D01*
X134496828Y-88571219D02*
X134592066Y-88523600D01*
X134592066Y-88523600D02*
X134639685Y-88475980D01*
X134639685Y-88475980D02*
X134687304Y-88380742D01*
X134687304Y-88380742D02*
X134687304Y-88190266D01*
X134687304Y-88190266D02*
X134639685Y-88095028D01*
X134639685Y-88095028D02*
X134592066Y-88047409D01*
X134592066Y-88047409D02*
X134496828Y-87999790D01*
X152555580Y-71207857D02*
X152603200Y-71255476D01*
X152603200Y-71255476D02*
X152650819Y-71398333D01*
X152650819Y-71398333D02*
X152650819Y-71493571D01*
X152650819Y-71493571D02*
X152603200Y-71636428D01*
X152603200Y-71636428D02*
X152507961Y-71731666D01*
X152507961Y-71731666D02*
X152412723Y-71779285D01*
X152412723Y-71779285D02*
X152222247Y-71826904D01*
X152222247Y-71826904D02*
X152079390Y-71826904D01*
X152079390Y-71826904D02*
X151888914Y-71779285D01*
X151888914Y-71779285D02*
X151793676Y-71731666D01*
X151793676Y-71731666D02*
X151698438Y-71636428D01*
X151698438Y-71636428D02*
X151650819Y-71493571D01*
X151650819Y-71493571D02*
X151650819Y-71398333D01*
X151650819Y-71398333D02*
X151698438Y-71255476D01*
X151698438Y-71255476D02*
X151746057Y-71207857D01*
X151984152Y-70350714D02*
X152650819Y-70350714D01*
X151603200Y-70588809D02*
X152317485Y-70826904D01*
X152317485Y-70826904D02*
X152317485Y-70207857D01*
X151650819Y-69398333D02*
X151650819Y-69588809D01*
X151650819Y-69588809D02*
X151698438Y-69684047D01*
X151698438Y-69684047D02*
X151746057Y-69731666D01*
X151746057Y-69731666D02*
X151888914Y-69826904D01*
X151888914Y-69826904D02*
X152079390Y-69874523D01*
X152079390Y-69874523D02*
X152460342Y-69874523D01*
X152460342Y-69874523D02*
X152555580Y-69826904D01*
X152555580Y-69826904D02*
X152603200Y-69779285D01*
X152603200Y-69779285D02*
X152650819Y-69684047D01*
X152650819Y-69684047D02*
X152650819Y-69493571D01*
X152650819Y-69493571D02*
X152603200Y-69398333D01*
X152603200Y-69398333D02*
X152555580Y-69350714D01*
X152555580Y-69350714D02*
X152460342Y-69303095D01*
X152460342Y-69303095D02*
X152222247Y-69303095D01*
X152222247Y-69303095D02*
X152127009Y-69350714D01*
X152127009Y-69350714D02*
X152079390Y-69398333D01*
X152079390Y-69398333D02*
X152031771Y-69493571D01*
X152031771Y-69493571D02*
X152031771Y-69684047D01*
X152031771Y-69684047D02*
X152079390Y-69779285D01*
X152079390Y-69779285D02*
X152127009Y-69826904D01*
X152127009Y-69826904D02*
X152222247Y-69874523D01*
X122097095Y-67479819D02*
X122097095Y-68289342D01*
X122097095Y-68289342D02*
X122144714Y-68384580D01*
X122144714Y-68384580D02*
X122192333Y-68432200D01*
X122192333Y-68432200D02*
X122287571Y-68479819D01*
X122287571Y-68479819D02*
X122478047Y-68479819D01*
X122478047Y-68479819D02*
X122573285Y-68432200D01*
X122573285Y-68432200D02*
X122620904Y-68384580D01*
X122620904Y-68384580D02*
X122668523Y-68289342D01*
X122668523Y-68289342D02*
X122668523Y-67479819D01*
X123049476Y-67479819D02*
X123668523Y-67479819D01*
X123668523Y-67479819D02*
X123335190Y-67860771D01*
X123335190Y-67860771D02*
X123478047Y-67860771D01*
X123478047Y-67860771D02*
X123573285Y-67908390D01*
X123573285Y-67908390D02*
X123620904Y-67956009D01*
X123620904Y-67956009D02*
X123668523Y-68051247D01*
X123668523Y-68051247D02*
X123668523Y-68289342D01*
X123668523Y-68289342D02*
X123620904Y-68384580D01*
X123620904Y-68384580D02*
X123573285Y-68432200D01*
X123573285Y-68432200D02*
X123478047Y-68479819D01*
X123478047Y-68479819D02*
X123192333Y-68479819D01*
X123192333Y-68479819D02*
X123097095Y-68432200D01*
X123097095Y-68432200D02*
X123049476Y-68384580D01*
X148255866Y-61231419D02*
X148255866Y-61945704D01*
X148255866Y-61945704D02*
X148208247Y-62088561D01*
X148208247Y-62088561D02*
X148113009Y-62183800D01*
X148113009Y-62183800D02*
X147970152Y-62231419D01*
X147970152Y-62231419D02*
X147874914Y-62231419D01*
X148636819Y-61231419D02*
X149255866Y-61231419D01*
X149255866Y-61231419D02*
X148922533Y-61612371D01*
X148922533Y-61612371D02*
X149065390Y-61612371D01*
X149065390Y-61612371D02*
X149160628Y-61659990D01*
X149160628Y-61659990D02*
X149208247Y-61707609D01*
X149208247Y-61707609D02*
X149255866Y-61802847D01*
X149255866Y-61802847D02*
X149255866Y-62040942D01*
X149255866Y-62040942D02*
X149208247Y-62136180D01*
X149208247Y-62136180D02*
X149160628Y-62183800D01*
X149160628Y-62183800D02*
X149065390Y-62231419D01*
X149065390Y-62231419D02*
X148779676Y-62231419D01*
X148779676Y-62231419D02*
X148684438Y-62183800D01*
X148684438Y-62183800D02*
X148636819Y-62136180D01*
X124615580Y-62825857D02*
X124663200Y-62873476D01*
X124663200Y-62873476D02*
X124710819Y-63016333D01*
X124710819Y-63016333D02*
X124710819Y-63111571D01*
X124710819Y-63111571D02*
X124663200Y-63254428D01*
X124663200Y-63254428D02*
X124567961Y-63349666D01*
X124567961Y-63349666D02*
X124472723Y-63397285D01*
X124472723Y-63397285D02*
X124282247Y-63444904D01*
X124282247Y-63444904D02*
X124139390Y-63444904D01*
X124139390Y-63444904D02*
X123948914Y-63397285D01*
X123948914Y-63397285D02*
X123853676Y-63349666D01*
X123853676Y-63349666D02*
X123758438Y-63254428D01*
X123758438Y-63254428D02*
X123710819Y-63111571D01*
X123710819Y-63111571D02*
X123710819Y-63016333D01*
X123710819Y-63016333D02*
X123758438Y-62873476D01*
X123758438Y-62873476D02*
X123806057Y-62825857D01*
X123806057Y-62444904D02*
X123758438Y-62397285D01*
X123758438Y-62397285D02*
X123710819Y-62302047D01*
X123710819Y-62302047D02*
X123710819Y-62063952D01*
X123710819Y-62063952D02*
X123758438Y-61968714D01*
X123758438Y-61968714D02*
X123806057Y-61921095D01*
X123806057Y-61921095D02*
X123901295Y-61873476D01*
X123901295Y-61873476D02*
X123996533Y-61873476D01*
X123996533Y-61873476D02*
X124139390Y-61921095D01*
X124139390Y-61921095D02*
X124710819Y-62492523D01*
X124710819Y-62492523D02*
X124710819Y-61873476D01*
X123806057Y-61492523D02*
X123758438Y-61444904D01*
X123758438Y-61444904D02*
X123710819Y-61349666D01*
X123710819Y-61349666D02*
X123710819Y-61111571D01*
X123710819Y-61111571D02*
X123758438Y-61016333D01*
X123758438Y-61016333D02*
X123806057Y-60968714D01*
X123806057Y-60968714D02*
X123901295Y-60921095D01*
X123901295Y-60921095D02*
X123996533Y-60921095D01*
X123996533Y-60921095D02*
X124139390Y-60968714D01*
X124139390Y-60968714D02*
X124710819Y-61540142D01*
X124710819Y-61540142D02*
X124710819Y-60921095D01*
X156410019Y-99992466D02*
X155933828Y-100325799D01*
X156410019Y-100563894D02*
X155410019Y-100563894D01*
X155410019Y-100563894D02*
X155410019Y-100182942D01*
X155410019Y-100182942D02*
X155457638Y-100087704D01*
X155457638Y-100087704D02*
X155505257Y-100040085D01*
X155505257Y-100040085D02*
X155600495Y-99992466D01*
X155600495Y-99992466D02*
X155743352Y-99992466D01*
X155743352Y-99992466D02*
X155838590Y-100040085D01*
X155838590Y-100040085D02*
X155886209Y-100087704D01*
X155886209Y-100087704D02*
X155933828Y-100182942D01*
X155933828Y-100182942D02*
X155933828Y-100563894D01*
X156410019Y-99040085D02*
X156410019Y-99611513D01*
X156410019Y-99325799D02*
X155410019Y-99325799D01*
X155410019Y-99325799D02*
X155552876Y-99421037D01*
X155552876Y-99421037D02*
X155648114Y-99516275D01*
X155648114Y-99516275D02*
X155695733Y-99611513D01*
X113788066Y-58513619D02*
X113788066Y-59227904D01*
X113788066Y-59227904D02*
X113740447Y-59370761D01*
X113740447Y-59370761D02*
X113645209Y-59466000D01*
X113645209Y-59466000D02*
X113502352Y-59513619D01*
X113502352Y-59513619D02*
X113407114Y-59513619D01*
X114788066Y-59513619D02*
X114216638Y-59513619D01*
X114502352Y-59513619D02*
X114502352Y-58513619D01*
X114502352Y-58513619D02*
X114407114Y-58656476D01*
X114407114Y-58656476D02*
X114311876Y-58751714D01*
X114311876Y-58751714D02*
X114216638Y-58799333D01*
X106962580Y-76795857D02*
X107010200Y-76843476D01*
X107010200Y-76843476D02*
X107057819Y-76986333D01*
X107057819Y-76986333D02*
X107057819Y-77081571D01*
X107057819Y-77081571D02*
X107010200Y-77224428D01*
X107010200Y-77224428D02*
X106914961Y-77319666D01*
X106914961Y-77319666D02*
X106819723Y-77367285D01*
X106819723Y-77367285D02*
X106629247Y-77414904D01*
X106629247Y-77414904D02*
X106486390Y-77414904D01*
X106486390Y-77414904D02*
X106295914Y-77367285D01*
X106295914Y-77367285D02*
X106200676Y-77319666D01*
X106200676Y-77319666D02*
X106105438Y-77224428D01*
X106105438Y-77224428D02*
X106057819Y-77081571D01*
X106057819Y-77081571D02*
X106057819Y-76986333D01*
X106057819Y-76986333D02*
X106105438Y-76843476D01*
X106105438Y-76843476D02*
X106153057Y-76795857D01*
X106391152Y-75938714D02*
X107057819Y-75938714D01*
X106010200Y-76176809D02*
X106724485Y-76414904D01*
X106724485Y-76414904D02*
X106724485Y-75795857D01*
X106153057Y-75462523D02*
X106105438Y-75414904D01*
X106105438Y-75414904D02*
X106057819Y-75319666D01*
X106057819Y-75319666D02*
X106057819Y-75081571D01*
X106057819Y-75081571D02*
X106105438Y-74986333D01*
X106105438Y-74986333D02*
X106153057Y-74938714D01*
X106153057Y-74938714D02*
X106248295Y-74891095D01*
X106248295Y-74891095D02*
X106343533Y-74891095D01*
X106343533Y-74891095D02*
X106486390Y-74938714D01*
X106486390Y-74938714D02*
X107057819Y-75510142D01*
X107057819Y-75510142D02*
X107057819Y-74891095D01*
X107198333Y-71908819D02*
X106865000Y-71432628D01*
X106626905Y-71908819D02*
X106626905Y-70908819D01*
X106626905Y-70908819D02*
X107007857Y-70908819D01*
X107007857Y-70908819D02*
X107103095Y-70956438D01*
X107103095Y-70956438D02*
X107150714Y-71004057D01*
X107150714Y-71004057D02*
X107198333Y-71099295D01*
X107198333Y-71099295D02*
X107198333Y-71242152D01*
X107198333Y-71242152D02*
X107150714Y-71337390D01*
X107150714Y-71337390D02*
X107103095Y-71385009D01*
X107103095Y-71385009D02*
X107007857Y-71432628D01*
X107007857Y-71432628D02*
X106626905Y-71432628D01*
X107674524Y-71908819D02*
X107865000Y-71908819D01*
X107865000Y-71908819D02*
X107960238Y-71861200D01*
X107960238Y-71861200D02*
X108007857Y-71813580D01*
X108007857Y-71813580D02*
X108103095Y-71670723D01*
X108103095Y-71670723D02*
X108150714Y-71480247D01*
X108150714Y-71480247D02*
X108150714Y-71099295D01*
X108150714Y-71099295D02*
X108103095Y-71004057D01*
X108103095Y-71004057D02*
X108055476Y-70956438D01*
X108055476Y-70956438D02*
X107960238Y-70908819D01*
X107960238Y-70908819D02*
X107769762Y-70908819D01*
X107769762Y-70908819D02*
X107674524Y-70956438D01*
X107674524Y-70956438D02*
X107626905Y-71004057D01*
X107626905Y-71004057D02*
X107579286Y-71099295D01*
X107579286Y-71099295D02*
X107579286Y-71337390D01*
X107579286Y-71337390D02*
X107626905Y-71432628D01*
X107626905Y-71432628D02*
X107674524Y-71480247D01*
X107674524Y-71480247D02*
X107769762Y-71527866D01*
X107769762Y-71527866D02*
X107960238Y-71527866D01*
X107960238Y-71527866D02*
X108055476Y-71480247D01*
X108055476Y-71480247D02*
X108103095Y-71432628D01*
X108103095Y-71432628D02*
X108150714Y-71337390D01*
X120158742Y-76328419D02*
X119825409Y-75852228D01*
X119587314Y-76328419D02*
X119587314Y-75328419D01*
X119587314Y-75328419D02*
X119968266Y-75328419D01*
X119968266Y-75328419D02*
X120063504Y-75376038D01*
X120063504Y-75376038D02*
X120111123Y-75423657D01*
X120111123Y-75423657D02*
X120158742Y-75518895D01*
X120158742Y-75518895D02*
X120158742Y-75661752D01*
X120158742Y-75661752D02*
X120111123Y-75756990D01*
X120111123Y-75756990D02*
X120063504Y-75804609D01*
X120063504Y-75804609D02*
X119968266Y-75852228D01*
X119968266Y-75852228D02*
X119587314Y-75852228D01*
X121111123Y-76328419D02*
X120539695Y-76328419D01*
X120825409Y-76328419D02*
X120825409Y-75328419D01*
X120825409Y-75328419D02*
X120730171Y-75471276D01*
X120730171Y-75471276D02*
X120634933Y-75566514D01*
X120634933Y-75566514D02*
X120539695Y-75614133D01*
X122015885Y-75328419D02*
X121539695Y-75328419D01*
X121539695Y-75328419D02*
X121492076Y-75804609D01*
X121492076Y-75804609D02*
X121539695Y-75756990D01*
X121539695Y-75756990D02*
X121634933Y-75709371D01*
X121634933Y-75709371D02*
X121873028Y-75709371D01*
X121873028Y-75709371D02*
X121968266Y-75756990D01*
X121968266Y-75756990D02*
X122015885Y-75804609D01*
X122015885Y-75804609D02*
X122063504Y-75899847D01*
X122063504Y-75899847D02*
X122063504Y-76137942D01*
X122063504Y-76137942D02*
X122015885Y-76233180D01*
X122015885Y-76233180D02*
X121968266Y-76280800D01*
X121968266Y-76280800D02*
X121873028Y-76328419D01*
X121873028Y-76328419D02*
X121634933Y-76328419D01*
X121634933Y-76328419D02*
X121539695Y-76280800D01*
X121539695Y-76280800D02*
X121492076Y-76233180D01*
X140034819Y-95877666D02*
X139558628Y-96210999D01*
X140034819Y-96449094D02*
X139034819Y-96449094D01*
X139034819Y-96449094D02*
X139034819Y-96068142D01*
X139034819Y-96068142D02*
X139082438Y-95972904D01*
X139082438Y-95972904D02*
X139130057Y-95925285D01*
X139130057Y-95925285D02*
X139225295Y-95877666D01*
X139225295Y-95877666D02*
X139368152Y-95877666D01*
X139368152Y-95877666D02*
X139463390Y-95925285D01*
X139463390Y-95925285D02*
X139511009Y-95972904D01*
X139511009Y-95972904D02*
X139558628Y-96068142D01*
X139558628Y-96068142D02*
X139558628Y-96449094D01*
X139368152Y-95020523D02*
X140034819Y-95020523D01*
X138987200Y-95258618D02*
X139701485Y-95496713D01*
X139701485Y-95496713D02*
X139701485Y-94877666D01*
X133556380Y-112736857D02*
X133604000Y-112784476D01*
X133604000Y-112784476D02*
X133651619Y-112927333D01*
X133651619Y-112927333D02*
X133651619Y-113022571D01*
X133651619Y-113022571D02*
X133604000Y-113165428D01*
X133604000Y-113165428D02*
X133508761Y-113260666D01*
X133508761Y-113260666D02*
X133413523Y-113308285D01*
X133413523Y-113308285D02*
X133223047Y-113355904D01*
X133223047Y-113355904D02*
X133080190Y-113355904D01*
X133080190Y-113355904D02*
X132889714Y-113308285D01*
X132889714Y-113308285D02*
X132794476Y-113260666D01*
X132794476Y-113260666D02*
X132699238Y-113165428D01*
X132699238Y-113165428D02*
X132651619Y-113022571D01*
X132651619Y-113022571D02*
X132651619Y-112927333D01*
X132651619Y-112927333D02*
X132699238Y-112784476D01*
X132699238Y-112784476D02*
X132746857Y-112736857D01*
X132746857Y-112355904D02*
X132699238Y-112308285D01*
X132699238Y-112308285D02*
X132651619Y-112213047D01*
X132651619Y-112213047D02*
X132651619Y-111974952D01*
X132651619Y-111974952D02*
X132699238Y-111879714D01*
X132699238Y-111879714D02*
X132746857Y-111832095D01*
X132746857Y-111832095D02*
X132842095Y-111784476D01*
X132842095Y-111784476D02*
X132937333Y-111784476D01*
X132937333Y-111784476D02*
X133080190Y-111832095D01*
X133080190Y-111832095D02*
X133651619Y-112403523D01*
X133651619Y-112403523D02*
X133651619Y-111784476D01*
X132651619Y-110927333D02*
X132651619Y-111117809D01*
X132651619Y-111117809D02*
X132699238Y-111213047D01*
X132699238Y-111213047D02*
X132746857Y-111260666D01*
X132746857Y-111260666D02*
X132889714Y-111355904D01*
X132889714Y-111355904D02*
X133080190Y-111403523D01*
X133080190Y-111403523D02*
X133461142Y-111403523D01*
X133461142Y-111403523D02*
X133556380Y-111355904D01*
X133556380Y-111355904D02*
X133604000Y-111308285D01*
X133604000Y-111308285D02*
X133651619Y-111213047D01*
X133651619Y-111213047D02*
X133651619Y-111022571D01*
X133651619Y-111022571D02*
X133604000Y-110927333D01*
X133604000Y-110927333D02*
X133556380Y-110879714D01*
X133556380Y-110879714D02*
X133461142Y-110832095D01*
X133461142Y-110832095D02*
X133223047Y-110832095D01*
X133223047Y-110832095D02*
X133127809Y-110879714D01*
X133127809Y-110879714D02*
X133080190Y-110927333D01*
X133080190Y-110927333D02*
X133032571Y-111022571D01*
X133032571Y-111022571D02*
X133032571Y-111213047D01*
X133032571Y-111213047D02*
X133080190Y-111308285D01*
X133080190Y-111308285D02*
X133127809Y-111355904D01*
X133127809Y-111355904D02*
X133223047Y-111403523D01*
X113014933Y-107697419D02*
X112538743Y-107697419D01*
X112538743Y-107697419D02*
X112538743Y-106697419D01*
X113253029Y-106697419D02*
X113872076Y-106697419D01*
X113872076Y-106697419D02*
X113538743Y-107078371D01*
X113538743Y-107078371D02*
X113681600Y-107078371D01*
X113681600Y-107078371D02*
X113776838Y-107125990D01*
X113776838Y-107125990D02*
X113824457Y-107173609D01*
X113824457Y-107173609D02*
X113872076Y-107268847D01*
X113872076Y-107268847D02*
X113872076Y-107506942D01*
X113872076Y-107506942D02*
X113824457Y-107602180D01*
X113824457Y-107602180D02*
X113776838Y-107649800D01*
X113776838Y-107649800D02*
X113681600Y-107697419D01*
X113681600Y-107697419D02*
X113395886Y-107697419D01*
X113395886Y-107697419D02*
X113300648Y-107649800D01*
X113300648Y-107649800D02*
X113253029Y-107602180D01*
X106955466Y-110075619D02*
X106955466Y-110789904D01*
X106955466Y-110789904D02*
X106907847Y-110932761D01*
X106907847Y-110932761D02*
X106812609Y-111028000D01*
X106812609Y-111028000D02*
X106669752Y-111075619D01*
X106669752Y-111075619D02*
X106574514Y-111075619D01*
X107384038Y-110170857D02*
X107431657Y-110123238D01*
X107431657Y-110123238D02*
X107526895Y-110075619D01*
X107526895Y-110075619D02*
X107764990Y-110075619D01*
X107764990Y-110075619D02*
X107860228Y-110123238D01*
X107860228Y-110123238D02*
X107907847Y-110170857D01*
X107907847Y-110170857D02*
X107955466Y-110266095D01*
X107955466Y-110266095D02*
X107955466Y-110361333D01*
X107955466Y-110361333D02*
X107907847Y-110504190D01*
X107907847Y-110504190D02*
X107336419Y-111075619D01*
X107336419Y-111075619D02*
X107955466Y-111075619D01*
X153825580Y-71239666D02*
X153873200Y-71287285D01*
X153873200Y-71287285D02*
X153920819Y-71430142D01*
X153920819Y-71430142D02*
X153920819Y-71525380D01*
X153920819Y-71525380D02*
X153873200Y-71668237D01*
X153873200Y-71668237D02*
X153777961Y-71763475D01*
X153777961Y-71763475D02*
X153682723Y-71811094D01*
X153682723Y-71811094D02*
X153492247Y-71858713D01*
X153492247Y-71858713D02*
X153349390Y-71858713D01*
X153349390Y-71858713D02*
X153158914Y-71811094D01*
X153158914Y-71811094D02*
X153063676Y-71763475D01*
X153063676Y-71763475D02*
X152968438Y-71668237D01*
X152968438Y-71668237D02*
X152920819Y-71525380D01*
X152920819Y-71525380D02*
X152920819Y-71430142D01*
X152920819Y-71430142D02*
X152968438Y-71287285D01*
X152968438Y-71287285D02*
X153016057Y-71239666D01*
X152920819Y-70334904D02*
X152920819Y-70811094D01*
X152920819Y-70811094D02*
X153397009Y-70858713D01*
X153397009Y-70858713D02*
X153349390Y-70811094D01*
X153349390Y-70811094D02*
X153301771Y-70715856D01*
X153301771Y-70715856D02*
X153301771Y-70477761D01*
X153301771Y-70477761D02*
X153349390Y-70382523D01*
X153349390Y-70382523D02*
X153397009Y-70334904D01*
X153397009Y-70334904D02*
X153492247Y-70287285D01*
X153492247Y-70287285D02*
X153730342Y-70287285D01*
X153730342Y-70287285D02*
X153825580Y-70334904D01*
X153825580Y-70334904D02*
X153873200Y-70382523D01*
X153873200Y-70382523D02*
X153920819Y-70477761D01*
X153920819Y-70477761D02*
X153920819Y-70715856D01*
X153920819Y-70715856D02*
X153873200Y-70811094D01*
X153873200Y-70811094D02*
X153825580Y-70858713D01*
X153419180Y-100043266D02*
X153466800Y-100090885D01*
X153466800Y-100090885D02*
X153514419Y-100233742D01*
X153514419Y-100233742D02*
X153514419Y-100328980D01*
X153514419Y-100328980D02*
X153466800Y-100471837D01*
X153466800Y-100471837D02*
X153371561Y-100567075D01*
X153371561Y-100567075D02*
X153276323Y-100614694D01*
X153276323Y-100614694D02*
X153085847Y-100662313D01*
X153085847Y-100662313D02*
X152942990Y-100662313D01*
X152942990Y-100662313D02*
X152752514Y-100614694D01*
X152752514Y-100614694D02*
X152657276Y-100567075D01*
X152657276Y-100567075D02*
X152562038Y-100471837D01*
X152562038Y-100471837D02*
X152514419Y-100328980D01*
X152514419Y-100328980D02*
X152514419Y-100233742D01*
X152514419Y-100233742D02*
X152562038Y-100090885D01*
X152562038Y-100090885D02*
X152609657Y-100043266D01*
X152514419Y-99186123D02*
X152514419Y-99376599D01*
X152514419Y-99376599D02*
X152562038Y-99471837D01*
X152562038Y-99471837D02*
X152609657Y-99519456D01*
X152609657Y-99519456D02*
X152752514Y-99614694D01*
X152752514Y-99614694D02*
X152942990Y-99662313D01*
X152942990Y-99662313D02*
X153323942Y-99662313D01*
X153323942Y-99662313D02*
X153419180Y-99614694D01*
X153419180Y-99614694D02*
X153466800Y-99567075D01*
X153466800Y-99567075D02*
X153514419Y-99471837D01*
X153514419Y-99471837D02*
X153514419Y-99281361D01*
X153514419Y-99281361D02*
X153466800Y-99186123D01*
X153466800Y-99186123D02*
X153419180Y-99138504D01*
X153419180Y-99138504D02*
X153323942Y-99090885D01*
X153323942Y-99090885D02*
X153085847Y-99090885D01*
X153085847Y-99090885D02*
X152990609Y-99138504D01*
X152990609Y-99138504D02*
X152942990Y-99186123D01*
X152942990Y-99186123D02*
X152895371Y-99281361D01*
X152895371Y-99281361D02*
X152895371Y-99471837D01*
X152895371Y-99471837D02*
X152942990Y-99567075D01*
X152942990Y-99567075D02*
X152990609Y-99614694D01*
X152990609Y-99614694D02*
X153085847Y-99662313D01*
X118183905Y-74956819D02*
X118183905Y-73956819D01*
X118183905Y-73956819D02*
X118422000Y-73956819D01*
X118422000Y-73956819D02*
X118564857Y-74004438D01*
X118564857Y-74004438D02*
X118660095Y-74099676D01*
X118660095Y-74099676D02*
X118707714Y-74194914D01*
X118707714Y-74194914D02*
X118755333Y-74385390D01*
X118755333Y-74385390D02*
X118755333Y-74528247D01*
X118755333Y-74528247D02*
X118707714Y-74718723D01*
X118707714Y-74718723D02*
X118660095Y-74813961D01*
X118660095Y-74813961D02*
X118564857Y-74909200D01*
X118564857Y-74909200D02*
X118422000Y-74956819D01*
X118422000Y-74956819D02*
X118183905Y-74956819D01*
X119707714Y-74956819D02*
X119136286Y-74956819D01*
X119422000Y-74956819D02*
X119422000Y-73956819D01*
X119422000Y-73956819D02*
X119326762Y-74099676D01*
X119326762Y-74099676D02*
X119231524Y-74194914D01*
X119231524Y-74194914D02*
X119136286Y-74242533D01*
X110303542Y-85681980D02*
X110255923Y-85729600D01*
X110255923Y-85729600D02*
X110113066Y-85777219D01*
X110113066Y-85777219D02*
X110017828Y-85777219D01*
X110017828Y-85777219D02*
X109874971Y-85729600D01*
X109874971Y-85729600D02*
X109779733Y-85634361D01*
X109779733Y-85634361D02*
X109732114Y-85539123D01*
X109732114Y-85539123D02*
X109684495Y-85348647D01*
X109684495Y-85348647D02*
X109684495Y-85205790D01*
X109684495Y-85205790D02*
X109732114Y-85015314D01*
X109732114Y-85015314D02*
X109779733Y-84920076D01*
X109779733Y-84920076D02*
X109874971Y-84824838D01*
X109874971Y-84824838D02*
X110017828Y-84777219D01*
X110017828Y-84777219D02*
X110113066Y-84777219D01*
X110113066Y-84777219D02*
X110255923Y-84824838D01*
X110255923Y-84824838D02*
X110303542Y-84872457D01*
X111255923Y-85777219D02*
X110684495Y-85777219D01*
X110970209Y-85777219D02*
X110970209Y-84777219D01*
X110970209Y-84777219D02*
X110874971Y-84920076D01*
X110874971Y-84920076D02*
X110779733Y-85015314D01*
X110779733Y-85015314D02*
X110684495Y-85062933D01*
X112113066Y-84777219D02*
X111922590Y-84777219D01*
X111922590Y-84777219D02*
X111827352Y-84824838D01*
X111827352Y-84824838D02*
X111779733Y-84872457D01*
X111779733Y-84872457D02*
X111684495Y-85015314D01*
X111684495Y-85015314D02*
X111636876Y-85205790D01*
X111636876Y-85205790D02*
X111636876Y-85586742D01*
X111636876Y-85586742D02*
X111684495Y-85681980D01*
X111684495Y-85681980D02*
X111732114Y-85729600D01*
X111732114Y-85729600D02*
X111827352Y-85777219D01*
X111827352Y-85777219D02*
X112017828Y-85777219D01*
X112017828Y-85777219D02*
X112113066Y-85729600D01*
X112113066Y-85729600D02*
X112160685Y-85681980D01*
X112160685Y-85681980D02*
X112208304Y-85586742D01*
X112208304Y-85586742D02*
X112208304Y-85348647D01*
X112208304Y-85348647D02*
X112160685Y-85253409D01*
X112160685Y-85253409D02*
X112113066Y-85205790D01*
X112113066Y-85205790D02*
X112017828Y-85158171D01*
X112017828Y-85158171D02*
X111827352Y-85158171D01*
X111827352Y-85158171D02*
X111732114Y-85205790D01*
X111732114Y-85205790D02*
X111684495Y-85253409D01*
X111684495Y-85253409D02*
X111636876Y-85348647D01*
X132782542Y-87174219D02*
X132449209Y-86698028D01*
X132211114Y-87174219D02*
X132211114Y-86174219D01*
X132211114Y-86174219D02*
X132592066Y-86174219D01*
X132592066Y-86174219D02*
X132687304Y-86221838D01*
X132687304Y-86221838D02*
X132734923Y-86269457D01*
X132734923Y-86269457D02*
X132782542Y-86364695D01*
X132782542Y-86364695D02*
X132782542Y-86507552D01*
X132782542Y-86507552D02*
X132734923Y-86602790D01*
X132734923Y-86602790D02*
X132687304Y-86650409D01*
X132687304Y-86650409D02*
X132592066Y-86698028D01*
X132592066Y-86698028D02*
X132211114Y-86698028D01*
X133734923Y-87174219D02*
X133163495Y-87174219D01*
X133449209Y-87174219D02*
X133449209Y-86174219D01*
X133449209Y-86174219D02*
X133353971Y-86317076D01*
X133353971Y-86317076D02*
X133258733Y-86412314D01*
X133258733Y-86412314D02*
X133163495Y-86459933D01*
X134211114Y-87174219D02*
X134401590Y-87174219D01*
X134401590Y-87174219D02*
X134496828Y-87126600D01*
X134496828Y-87126600D02*
X134544447Y-87078980D01*
X134544447Y-87078980D02*
X134639685Y-86936123D01*
X134639685Y-86936123D02*
X134687304Y-86745647D01*
X134687304Y-86745647D02*
X134687304Y-86364695D01*
X134687304Y-86364695D02*
X134639685Y-86269457D01*
X134639685Y-86269457D02*
X134592066Y-86221838D01*
X134592066Y-86221838D02*
X134496828Y-86174219D01*
X134496828Y-86174219D02*
X134306352Y-86174219D01*
X134306352Y-86174219D02*
X134211114Y-86221838D01*
X134211114Y-86221838D02*
X134163495Y-86269457D01*
X134163495Y-86269457D02*
X134115876Y-86364695D01*
X134115876Y-86364695D02*
X134115876Y-86602790D01*
X134115876Y-86602790D02*
X134163495Y-86698028D01*
X134163495Y-86698028D02*
X134211114Y-86745647D01*
X134211114Y-86745647D02*
X134306352Y-86793266D01*
X134306352Y-86793266D02*
X134496828Y-86793266D01*
X134496828Y-86793266D02*
X134592066Y-86745647D01*
X134592066Y-86745647D02*
X134639685Y-86698028D01*
X134639685Y-86698028D02*
X134687304Y-86602790D01*
X140410495Y-100855419D02*
X140410495Y-101664942D01*
X140410495Y-101664942D02*
X140458114Y-101760180D01*
X140458114Y-101760180D02*
X140505733Y-101807800D01*
X140505733Y-101807800D02*
X140600971Y-101855419D01*
X140600971Y-101855419D02*
X140791447Y-101855419D01*
X140791447Y-101855419D02*
X140886685Y-101807800D01*
X140886685Y-101807800D02*
X140934304Y-101760180D01*
X140934304Y-101760180D02*
X140981923Y-101664942D01*
X140981923Y-101664942D02*
X140981923Y-100855419D01*
X141886685Y-100855419D02*
X141696209Y-100855419D01*
X141696209Y-100855419D02*
X141600971Y-100903038D01*
X141600971Y-100903038D02*
X141553352Y-100950657D01*
X141553352Y-100950657D02*
X141458114Y-101093514D01*
X141458114Y-101093514D02*
X141410495Y-101283990D01*
X141410495Y-101283990D02*
X141410495Y-101664942D01*
X141410495Y-101664942D02*
X141458114Y-101760180D01*
X141458114Y-101760180D02*
X141505733Y-101807800D01*
X141505733Y-101807800D02*
X141600971Y-101855419D01*
X141600971Y-101855419D02*
X141791447Y-101855419D01*
X141791447Y-101855419D02*
X141886685Y-101807800D01*
X141886685Y-101807800D02*
X141934304Y-101760180D01*
X141934304Y-101760180D02*
X141981923Y-101664942D01*
X141981923Y-101664942D02*
X141981923Y-101426847D01*
X141981923Y-101426847D02*
X141934304Y-101331609D01*
X141934304Y-101331609D02*
X141886685Y-101283990D01*
X141886685Y-101283990D02*
X141791447Y-101236371D01*
X141791447Y-101236371D02*
X141600971Y-101236371D01*
X141600971Y-101236371D02*
X141505733Y-101283990D01*
X141505733Y-101283990D02*
X141458114Y-101331609D01*
X141458114Y-101331609D02*
X141410495Y-101426847D01*
X107140380Y-67270857D02*
X107188000Y-67318476D01*
X107188000Y-67318476D02*
X107235619Y-67461333D01*
X107235619Y-67461333D02*
X107235619Y-67556571D01*
X107235619Y-67556571D02*
X107188000Y-67699428D01*
X107188000Y-67699428D02*
X107092761Y-67794666D01*
X107092761Y-67794666D02*
X106997523Y-67842285D01*
X106997523Y-67842285D02*
X106807047Y-67889904D01*
X106807047Y-67889904D02*
X106664190Y-67889904D01*
X106664190Y-67889904D02*
X106473714Y-67842285D01*
X106473714Y-67842285D02*
X106378476Y-67794666D01*
X106378476Y-67794666D02*
X106283238Y-67699428D01*
X106283238Y-67699428D02*
X106235619Y-67556571D01*
X106235619Y-67556571D02*
X106235619Y-67461333D01*
X106235619Y-67461333D02*
X106283238Y-67318476D01*
X106283238Y-67318476D02*
X106330857Y-67270857D01*
X106568952Y-66413714D02*
X107235619Y-66413714D01*
X106188000Y-66651809D02*
X106902285Y-66889904D01*
X106902285Y-66889904D02*
X106902285Y-66270857D01*
X107235619Y-65366095D02*
X107235619Y-65937523D01*
X107235619Y-65651809D02*
X106235619Y-65651809D01*
X106235619Y-65651809D02*
X106378476Y-65747047D01*
X106378476Y-65747047D02*
X106473714Y-65842285D01*
X106473714Y-65842285D02*
X106521333Y-65937523D01*
X126418980Y-79640657D02*
X126466600Y-79688276D01*
X126466600Y-79688276D02*
X126514219Y-79831133D01*
X126514219Y-79831133D02*
X126514219Y-79926371D01*
X126514219Y-79926371D02*
X126466600Y-80069228D01*
X126466600Y-80069228D02*
X126371361Y-80164466D01*
X126371361Y-80164466D02*
X126276123Y-80212085D01*
X126276123Y-80212085D02*
X126085647Y-80259704D01*
X126085647Y-80259704D02*
X125942790Y-80259704D01*
X125942790Y-80259704D02*
X125752314Y-80212085D01*
X125752314Y-80212085D02*
X125657076Y-80164466D01*
X125657076Y-80164466D02*
X125561838Y-80069228D01*
X125561838Y-80069228D02*
X125514219Y-79926371D01*
X125514219Y-79926371D02*
X125514219Y-79831133D01*
X125514219Y-79831133D02*
X125561838Y-79688276D01*
X125561838Y-79688276D02*
X125609457Y-79640657D01*
X126514219Y-78688276D02*
X126514219Y-79259704D01*
X126514219Y-78973990D02*
X125514219Y-78973990D01*
X125514219Y-78973990D02*
X125657076Y-79069228D01*
X125657076Y-79069228D02*
X125752314Y-79164466D01*
X125752314Y-79164466D02*
X125799933Y-79259704D01*
X126514219Y-77735895D02*
X126514219Y-78307323D01*
X126514219Y-78021609D02*
X125514219Y-78021609D01*
X125514219Y-78021609D02*
X125657076Y-78116847D01*
X125657076Y-78116847D02*
X125752314Y-78212085D01*
X125752314Y-78212085D02*
X125799933Y-78307323D01*
X123511542Y-76258580D02*
X123463923Y-76306200D01*
X123463923Y-76306200D02*
X123321066Y-76353819D01*
X123321066Y-76353819D02*
X123225828Y-76353819D01*
X123225828Y-76353819D02*
X123082971Y-76306200D01*
X123082971Y-76306200D02*
X122987733Y-76210961D01*
X122987733Y-76210961D02*
X122940114Y-76115723D01*
X122940114Y-76115723D02*
X122892495Y-75925247D01*
X122892495Y-75925247D02*
X122892495Y-75782390D01*
X122892495Y-75782390D02*
X122940114Y-75591914D01*
X122940114Y-75591914D02*
X122987733Y-75496676D01*
X122987733Y-75496676D02*
X123082971Y-75401438D01*
X123082971Y-75401438D02*
X123225828Y-75353819D01*
X123225828Y-75353819D02*
X123321066Y-75353819D01*
X123321066Y-75353819D02*
X123463923Y-75401438D01*
X123463923Y-75401438D02*
X123511542Y-75449057D01*
X124368685Y-75687152D02*
X124368685Y-76353819D01*
X124130590Y-75306200D02*
X123892495Y-76020485D01*
X123892495Y-76020485D02*
X124511542Y-76020485D01*
X124797257Y-75353819D02*
X125416304Y-75353819D01*
X125416304Y-75353819D02*
X125082971Y-75734771D01*
X125082971Y-75734771D02*
X125225828Y-75734771D01*
X125225828Y-75734771D02*
X125321066Y-75782390D01*
X125321066Y-75782390D02*
X125368685Y-75830009D01*
X125368685Y-75830009D02*
X125416304Y-75925247D01*
X125416304Y-75925247D02*
X125416304Y-76163342D01*
X125416304Y-76163342D02*
X125368685Y-76258580D01*
X125368685Y-76258580D02*
X125321066Y-76306200D01*
X125321066Y-76306200D02*
X125225828Y-76353819D01*
X125225828Y-76353819D02*
X124940114Y-76353819D01*
X124940114Y-76353819D02*
X124844876Y-76306200D01*
X124844876Y-76306200D02*
X124797257Y-76258580D01*
X121073142Y-63558580D02*
X121025523Y-63606200D01*
X121025523Y-63606200D02*
X120882666Y-63653819D01*
X120882666Y-63653819D02*
X120787428Y-63653819D01*
X120787428Y-63653819D02*
X120644571Y-63606200D01*
X120644571Y-63606200D02*
X120549333Y-63510961D01*
X120549333Y-63510961D02*
X120501714Y-63415723D01*
X120501714Y-63415723D02*
X120454095Y-63225247D01*
X120454095Y-63225247D02*
X120454095Y-63082390D01*
X120454095Y-63082390D02*
X120501714Y-62891914D01*
X120501714Y-62891914D02*
X120549333Y-62796676D01*
X120549333Y-62796676D02*
X120644571Y-62701438D01*
X120644571Y-62701438D02*
X120787428Y-62653819D01*
X120787428Y-62653819D02*
X120882666Y-62653819D01*
X120882666Y-62653819D02*
X121025523Y-62701438D01*
X121025523Y-62701438D02*
X121073142Y-62749057D01*
X122025523Y-63653819D02*
X121454095Y-63653819D01*
X121739809Y-63653819D02*
X121739809Y-62653819D01*
X121739809Y-62653819D02*
X121644571Y-62796676D01*
X121644571Y-62796676D02*
X121549333Y-62891914D01*
X121549333Y-62891914D02*
X121454095Y-62939533D01*
X122358857Y-62653819D02*
X122977904Y-62653819D01*
X122977904Y-62653819D02*
X122644571Y-63034771D01*
X122644571Y-63034771D02*
X122787428Y-63034771D01*
X122787428Y-63034771D02*
X122882666Y-63082390D01*
X122882666Y-63082390D02*
X122930285Y-63130009D01*
X122930285Y-63130009D02*
X122977904Y-63225247D01*
X122977904Y-63225247D02*
X122977904Y-63463342D01*
X122977904Y-63463342D02*
X122930285Y-63558580D01*
X122930285Y-63558580D02*
X122882666Y-63606200D01*
X122882666Y-63606200D02*
X122787428Y-63653819D01*
X122787428Y-63653819D02*
X122501714Y-63653819D01*
X122501714Y-63653819D02*
X122406476Y-63606200D01*
X122406476Y-63606200D02*
X122358857Y-63558580D01*
X120901705Y-66320819D02*
X120901705Y-65320819D01*
X120901705Y-65320819D02*
X121139800Y-65320819D01*
X121139800Y-65320819D02*
X121282657Y-65368438D01*
X121282657Y-65368438D02*
X121377895Y-65463676D01*
X121377895Y-65463676D02*
X121425514Y-65558914D01*
X121425514Y-65558914D02*
X121473133Y-65749390D01*
X121473133Y-65749390D02*
X121473133Y-65892247D01*
X121473133Y-65892247D02*
X121425514Y-66082723D01*
X121425514Y-66082723D02*
X121377895Y-66177961D01*
X121377895Y-66177961D02*
X121282657Y-66273200D01*
X121282657Y-66273200D02*
X121139800Y-66320819D01*
X121139800Y-66320819D02*
X120901705Y-66320819D01*
X121806467Y-65320819D02*
X122425514Y-65320819D01*
X122425514Y-65320819D02*
X122092181Y-65701771D01*
X122092181Y-65701771D02*
X122235038Y-65701771D01*
X122235038Y-65701771D02*
X122330276Y-65749390D01*
X122330276Y-65749390D02*
X122377895Y-65797009D01*
X122377895Y-65797009D02*
X122425514Y-65892247D01*
X122425514Y-65892247D02*
X122425514Y-66130342D01*
X122425514Y-66130342D02*
X122377895Y-66225580D01*
X122377895Y-66225580D02*
X122330276Y-66273200D01*
X122330276Y-66273200D02*
X122235038Y-66320819D01*
X122235038Y-66320819D02*
X121949324Y-66320819D01*
X121949324Y-66320819D02*
X121854086Y-66273200D01*
X121854086Y-66273200D02*
X121806467Y-66225580D01*
X143201266Y-107611819D02*
X143201266Y-108326104D01*
X143201266Y-108326104D02*
X143153647Y-108468961D01*
X143153647Y-108468961D02*
X143058409Y-108564200D01*
X143058409Y-108564200D02*
X142915552Y-108611819D01*
X142915552Y-108611819D02*
X142820314Y-108611819D01*
X143725076Y-108611819D02*
X143915552Y-108611819D01*
X143915552Y-108611819D02*
X144010790Y-108564200D01*
X144010790Y-108564200D02*
X144058409Y-108516580D01*
X144058409Y-108516580D02*
X144153647Y-108373723D01*
X144153647Y-108373723D02*
X144201266Y-108183247D01*
X144201266Y-108183247D02*
X144201266Y-107802295D01*
X144201266Y-107802295D02*
X144153647Y-107707057D01*
X144153647Y-107707057D02*
X144106028Y-107659438D01*
X144106028Y-107659438D02*
X144010790Y-107611819D01*
X144010790Y-107611819D02*
X143820314Y-107611819D01*
X143820314Y-107611819D02*
X143725076Y-107659438D01*
X143725076Y-107659438D02*
X143677457Y-107707057D01*
X143677457Y-107707057D02*
X143629838Y-107802295D01*
X143629838Y-107802295D02*
X143629838Y-108040390D01*
X143629838Y-108040390D02*
X143677457Y-108135628D01*
X143677457Y-108135628D02*
X143725076Y-108183247D01*
X143725076Y-108183247D02*
X143820314Y-108230866D01*
X143820314Y-108230866D02*
X144010790Y-108230866D01*
X144010790Y-108230866D02*
X144106028Y-108183247D01*
X144106028Y-108183247D02*
X144153647Y-108135628D01*
X144153647Y-108135628D02*
X144201266Y-108040390D01*
X131016380Y-116445257D02*
X131064000Y-116492876D01*
X131064000Y-116492876D02*
X131111619Y-116635733D01*
X131111619Y-116635733D02*
X131111619Y-116730971D01*
X131111619Y-116730971D02*
X131064000Y-116873828D01*
X131064000Y-116873828D02*
X130968761Y-116969066D01*
X130968761Y-116969066D02*
X130873523Y-117016685D01*
X130873523Y-117016685D02*
X130683047Y-117064304D01*
X130683047Y-117064304D02*
X130540190Y-117064304D01*
X130540190Y-117064304D02*
X130349714Y-117016685D01*
X130349714Y-117016685D02*
X130254476Y-116969066D01*
X130254476Y-116969066D02*
X130159238Y-116873828D01*
X130159238Y-116873828D02*
X130111619Y-116730971D01*
X130111619Y-116730971D02*
X130111619Y-116635733D01*
X130111619Y-116635733D02*
X130159238Y-116492876D01*
X130159238Y-116492876D02*
X130206857Y-116445257D01*
X130444952Y-115588114D02*
X131111619Y-115588114D01*
X130064000Y-115826209D02*
X130778285Y-116064304D01*
X130778285Y-116064304D02*
X130778285Y-115445257D01*
X130444952Y-114635733D02*
X131111619Y-114635733D01*
X130064000Y-114873828D02*
X130778285Y-115111923D01*
X130778285Y-115111923D02*
X130778285Y-114492876D01*
X116937666Y-61606009D02*
X116604333Y-61606009D01*
X116604333Y-62129819D02*
X116604333Y-61129819D01*
X116604333Y-61129819D02*
X117080523Y-61129819D01*
X117985285Y-62129819D02*
X117413857Y-62129819D01*
X117699571Y-62129819D02*
X117699571Y-61129819D01*
X117699571Y-61129819D02*
X117604333Y-61272676D01*
X117604333Y-61272676D02*
X117509095Y-61367914D01*
X117509095Y-61367914D02*
X117413857Y-61415533D01*
X121567580Y-68540857D02*
X121615200Y-68588476D01*
X121615200Y-68588476D02*
X121662819Y-68731333D01*
X121662819Y-68731333D02*
X121662819Y-68826571D01*
X121662819Y-68826571D02*
X121615200Y-68969428D01*
X121615200Y-68969428D02*
X121519961Y-69064666D01*
X121519961Y-69064666D02*
X121424723Y-69112285D01*
X121424723Y-69112285D02*
X121234247Y-69159904D01*
X121234247Y-69159904D02*
X121091390Y-69159904D01*
X121091390Y-69159904D02*
X120900914Y-69112285D01*
X120900914Y-69112285D02*
X120805676Y-69064666D01*
X120805676Y-69064666D02*
X120710438Y-68969428D01*
X120710438Y-68969428D02*
X120662819Y-68826571D01*
X120662819Y-68826571D02*
X120662819Y-68731333D01*
X120662819Y-68731333D02*
X120710438Y-68588476D01*
X120710438Y-68588476D02*
X120758057Y-68540857D01*
X121662819Y-67588476D02*
X121662819Y-68159904D01*
X121662819Y-67874190D02*
X120662819Y-67874190D01*
X120662819Y-67874190D02*
X120805676Y-67969428D01*
X120805676Y-67969428D02*
X120900914Y-68064666D01*
X120900914Y-68064666D02*
X120948533Y-68159904D01*
X121662819Y-67112285D02*
X121662819Y-66921809D01*
X121662819Y-66921809D02*
X121615200Y-66826571D01*
X121615200Y-66826571D02*
X121567580Y-66778952D01*
X121567580Y-66778952D02*
X121424723Y-66683714D01*
X121424723Y-66683714D02*
X121234247Y-66636095D01*
X121234247Y-66636095D02*
X120853295Y-66636095D01*
X120853295Y-66636095D02*
X120758057Y-66683714D01*
X120758057Y-66683714D02*
X120710438Y-66731333D01*
X120710438Y-66731333D02*
X120662819Y-66826571D01*
X120662819Y-66826571D02*
X120662819Y-67017047D01*
X120662819Y-67017047D02*
X120710438Y-67112285D01*
X120710438Y-67112285D02*
X120758057Y-67159904D01*
X120758057Y-67159904D02*
X120853295Y-67207523D01*
X120853295Y-67207523D02*
X121091390Y-67207523D01*
X121091390Y-67207523D02*
X121186628Y-67159904D01*
X121186628Y-67159904D02*
X121234247Y-67112285D01*
X121234247Y-67112285D02*
X121281866Y-67017047D01*
X121281866Y-67017047D02*
X121281866Y-66826571D01*
X121281866Y-66826571D02*
X121234247Y-66731333D01*
X121234247Y-66731333D02*
X121186628Y-66683714D01*
X121186628Y-66683714D02*
X121091390Y-66636095D01*
X138331580Y-66127857D02*
X138379200Y-66175476D01*
X138379200Y-66175476D02*
X138426819Y-66318333D01*
X138426819Y-66318333D02*
X138426819Y-66413571D01*
X138426819Y-66413571D02*
X138379200Y-66556428D01*
X138379200Y-66556428D02*
X138283961Y-66651666D01*
X138283961Y-66651666D02*
X138188723Y-66699285D01*
X138188723Y-66699285D02*
X137998247Y-66746904D01*
X137998247Y-66746904D02*
X137855390Y-66746904D01*
X137855390Y-66746904D02*
X137664914Y-66699285D01*
X137664914Y-66699285D02*
X137569676Y-66651666D01*
X137569676Y-66651666D02*
X137474438Y-66556428D01*
X137474438Y-66556428D02*
X137426819Y-66413571D01*
X137426819Y-66413571D02*
X137426819Y-66318333D01*
X137426819Y-66318333D02*
X137474438Y-66175476D01*
X137474438Y-66175476D02*
X137522057Y-66127857D01*
X137426819Y-65794523D02*
X137426819Y-65175476D01*
X137426819Y-65175476D02*
X137807771Y-65508809D01*
X137807771Y-65508809D02*
X137807771Y-65365952D01*
X137807771Y-65365952D02*
X137855390Y-65270714D01*
X137855390Y-65270714D02*
X137903009Y-65223095D01*
X137903009Y-65223095D02*
X137998247Y-65175476D01*
X137998247Y-65175476D02*
X138236342Y-65175476D01*
X138236342Y-65175476D02*
X138331580Y-65223095D01*
X138331580Y-65223095D02*
X138379200Y-65270714D01*
X138379200Y-65270714D02*
X138426819Y-65365952D01*
X138426819Y-65365952D02*
X138426819Y-65651666D01*
X138426819Y-65651666D02*
X138379200Y-65746904D01*
X138379200Y-65746904D02*
X138331580Y-65794523D01*
X138426819Y-64699285D02*
X138426819Y-64508809D01*
X138426819Y-64508809D02*
X138379200Y-64413571D01*
X138379200Y-64413571D02*
X138331580Y-64365952D01*
X138331580Y-64365952D02*
X138188723Y-64270714D01*
X138188723Y-64270714D02*
X137998247Y-64223095D01*
X137998247Y-64223095D02*
X137617295Y-64223095D01*
X137617295Y-64223095D02*
X137522057Y-64270714D01*
X137522057Y-64270714D02*
X137474438Y-64318333D01*
X137474438Y-64318333D02*
X137426819Y-64413571D01*
X137426819Y-64413571D02*
X137426819Y-64604047D01*
X137426819Y-64604047D02*
X137474438Y-64699285D01*
X137474438Y-64699285D02*
X137522057Y-64746904D01*
X137522057Y-64746904D02*
X137617295Y-64794523D01*
X137617295Y-64794523D02*
X137855390Y-64794523D01*
X137855390Y-64794523D02*
X137950628Y-64746904D01*
X137950628Y-64746904D02*
X137998247Y-64699285D01*
X137998247Y-64699285D02*
X138045866Y-64604047D01*
X138045866Y-64604047D02*
X138045866Y-64413571D01*
X138045866Y-64413571D02*
X137998247Y-64318333D01*
X137998247Y-64318333D02*
X137950628Y-64270714D01*
X137950628Y-64270714D02*
X137855390Y-64223095D01*
X159166733Y-72524780D02*
X159119114Y-72572400D01*
X159119114Y-72572400D02*
X158976257Y-72620019D01*
X158976257Y-72620019D02*
X158881019Y-72620019D01*
X158881019Y-72620019D02*
X158738162Y-72572400D01*
X158738162Y-72572400D02*
X158642924Y-72477161D01*
X158642924Y-72477161D02*
X158595305Y-72381923D01*
X158595305Y-72381923D02*
X158547686Y-72191447D01*
X158547686Y-72191447D02*
X158547686Y-72048590D01*
X158547686Y-72048590D02*
X158595305Y-71858114D01*
X158595305Y-71858114D02*
X158642924Y-71762876D01*
X158642924Y-71762876D02*
X158738162Y-71667638D01*
X158738162Y-71667638D02*
X158881019Y-71620019D01*
X158881019Y-71620019D02*
X158976257Y-71620019D01*
X158976257Y-71620019D02*
X159119114Y-71667638D01*
X159119114Y-71667638D02*
X159166733Y-71715257D01*
X160119114Y-72620019D02*
X159547686Y-72620019D01*
X159833400Y-72620019D02*
X159833400Y-71620019D01*
X159833400Y-71620019D02*
X159738162Y-71762876D01*
X159738162Y-71762876D02*
X159642924Y-71858114D01*
X159642924Y-71858114D02*
X159547686Y-71905733D01*
X122692333Y-99848819D02*
X122216143Y-99848819D01*
X122216143Y-99848819D02*
X122216143Y-98848819D01*
X123454238Y-99182152D02*
X123454238Y-99848819D01*
X123216143Y-98801200D02*
X122978048Y-99515485D01*
X122978048Y-99515485D02*
X123597095Y-99515485D01*
X155190819Y-71239666D02*
X154714628Y-71572999D01*
X155190819Y-71811094D02*
X154190819Y-71811094D01*
X154190819Y-71811094D02*
X154190819Y-71430142D01*
X154190819Y-71430142D02*
X154238438Y-71334904D01*
X154238438Y-71334904D02*
X154286057Y-71287285D01*
X154286057Y-71287285D02*
X154381295Y-71239666D01*
X154381295Y-71239666D02*
X154524152Y-71239666D01*
X154524152Y-71239666D02*
X154619390Y-71287285D01*
X154619390Y-71287285D02*
X154667009Y-71334904D01*
X154667009Y-71334904D02*
X154714628Y-71430142D01*
X154714628Y-71430142D02*
X154714628Y-71811094D01*
X154286057Y-70858713D02*
X154238438Y-70811094D01*
X154238438Y-70811094D02*
X154190819Y-70715856D01*
X154190819Y-70715856D02*
X154190819Y-70477761D01*
X154190819Y-70477761D02*
X154238438Y-70382523D01*
X154238438Y-70382523D02*
X154286057Y-70334904D01*
X154286057Y-70334904D02*
X154381295Y-70287285D01*
X154381295Y-70287285D02*
X154476533Y-70287285D01*
X154476533Y-70287285D02*
X154619390Y-70334904D01*
X154619390Y-70334904D02*
X155190819Y-70906332D01*
X155190819Y-70906332D02*
X155190819Y-70287285D01*
X138937295Y-73398019D02*
X138937295Y-74207542D01*
X138937295Y-74207542D02*
X138984914Y-74302780D01*
X138984914Y-74302780D02*
X139032533Y-74350400D01*
X139032533Y-74350400D02*
X139127771Y-74398019D01*
X139127771Y-74398019D02*
X139318247Y-74398019D01*
X139318247Y-74398019D02*
X139413485Y-74350400D01*
X139413485Y-74350400D02*
X139461104Y-74302780D01*
X139461104Y-74302780D02*
X139508723Y-74207542D01*
X139508723Y-74207542D02*
X139508723Y-73398019D01*
X140508723Y-74398019D02*
X139937295Y-74398019D01*
X140223009Y-74398019D02*
X140223009Y-73398019D01*
X140223009Y-73398019D02*
X140127771Y-73540876D01*
X140127771Y-73540876D02*
X140032533Y-73636114D01*
X140032533Y-73636114D02*
X139937295Y-73683733D01*
X135105780Y-112762257D02*
X135153400Y-112809876D01*
X135153400Y-112809876D02*
X135201019Y-112952733D01*
X135201019Y-112952733D02*
X135201019Y-113047971D01*
X135201019Y-113047971D02*
X135153400Y-113190828D01*
X135153400Y-113190828D02*
X135058161Y-113286066D01*
X135058161Y-113286066D02*
X134962923Y-113333685D01*
X134962923Y-113333685D02*
X134772447Y-113381304D01*
X134772447Y-113381304D02*
X134629590Y-113381304D01*
X134629590Y-113381304D02*
X134439114Y-113333685D01*
X134439114Y-113333685D02*
X134343876Y-113286066D01*
X134343876Y-113286066D02*
X134248638Y-113190828D01*
X134248638Y-113190828D02*
X134201019Y-113047971D01*
X134201019Y-113047971D02*
X134201019Y-112952733D01*
X134201019Y-112952733D02*
X134248638Y-112809876D01*
X134248638Y-112809876D02*
X134296257Y-112762257D01*
X134296257Y-112381304D02*
X134248638Y-112333685D01*
X134248638Y-112333685D02*
X134201019Y-112238447D01*
X134201019Y-112238447D02*
X134201019Y-112000352D01*
X134201019Y-112000352D02*
X134248638Y-111905114D01*
X134248638Y-111905114D02*
X134296257Y-111857495D01*
X134296257Y-111857495D02*
X134391495Y-111809876D01*
X134391495Y-111809876D02*
X134486733Y-111809876D01*
X134486733Y-111809876D02*
X134629590Y-111857495D01*
X134629590Y-111857495D02*
X135201019Y-112428923D01*
X135201019Y-112428923D02*
X135201019Y-111809876D01*
X134201019Y-110905114D02*
X134201019Y-111381304D01*
X134201019Y-111381304D02*
X134677209Y-111428923D01*
X134677209Y-111428923D02*
X134629590Y-111381304D01*
X134629590Y-111381304D02*
X134581971Y-111286066D01*
X134581971Y-111286066D02*
X134581971Y-111047971D01*
X134581971Y-111047971D02*
X134629590Y-110952733D01*
X134629590Y-110952733D02*
X134677209Y-110905114D01*
X134677209Y-110905114D02*
X134772447Y-110857495D01*
X134772447Y-110857495D02*
X135010542Y-110857495D01*
X135010542Y-110857495D02*
X135105780Y-110905114D01*
X135105780Y-110905114D02*
X135153400Y-110952733D01*
X135153400Y-110952733D02*
X135201019Y-111047971D01*
X135201019Y-111047971D02*
X135201019Y-111286066D01*
X135201019Y-111286066D02*
X135153400Y-111381304D01*
X135153400Y-111381304D02*
X135105780Y-111428923D01*
X124832342Y-68562380D02*
X124784723Y-68610000D01*
X124784723Y-68610000D02*
X124641866Y-68657619D01*
X124641866Y-68657619D02*
X124546628Y-68657619D01*
X124546628Y-68657619D02*
X124403771Y-68610000D01*
X124403771Y-68610000D02*
X124308533Y-68514761D01*
X124308533Y-68514761D02*
X124260914Y-68419523D01*
X124260914Y-68419523D02*
X124213295Y-68229047D01*
X124213295Y-68229047D02*
X124213295Y-68086190D01*
X124213295Y-68086190D02*
X124260914Y-67895714D01*
X124260914Y-67895714D02*
X124308533Y-67800476D01*
X124308533Y-67800476D02*
X124403771Y-67705238D01*
X124403771Y-67705238D02*
X124546628Y-67657619D01*
X124546628Y-67657619D02*
X124641866Y-67657619D01*
X124641866Y-67657619D02*
X124784723Y-67705238D01*
X124784723Y-67705238D02*
X124832342Y-67752857D01*
X125213295Y-67752857D02*
X125260914Y-67705238D01*
X125260914Y-67705238D02*
X125356152Y-67657619D01*
X125356152Y-67657619D02*
X125594247Y-67657619D01*
X125594247Y-67657619D02*
X125689485Y-67705238D01*
X125689485Y-67705238D02*
X125737104Y-67752857D01*
X125737104Y-67752857D02*
X125784723Y-67848095D01*
X125784723Y-67848095D02*
X125784723Y-67943333D01*
X125784723Y-67943333D02*
X125737104Y-68086190D01*
X125737104Y-68086190D02*
X125165676Y-68657619D01*
X125165676Y-68657619D02*
X125784723Y-68657619D01*
X126403771Y-67657619D02*
X126499009Y-67657619D01*
X126499009Y-67657619D02*
X126594247Y-67705238D01*
X126594247Y-67705238D02*
X126641866Y-67752857D01*
X126641866Y-67752857D02*
X126689485Y-67848095D01*
X126689485Y-67848095D02*
X126737104Y-68038571D01*
X126737104Y-68038571D02*
X126737104Y-68276666D01*
X126737104Y-68276666D02*
X126689485Y-68467142D01*
X126689485Y-68467142D02*
X126641866Y-68562380D01*
X126641866Y-68562380D02*
X126594247Y-68610000D01*
X126594247Y-68610000D02*
X126499009Y-68657619D01*
X126499009Y-68657619D02*
X126403771Y-68657619D01*
X126403771Y-68657619D02*
X126308533Y-68610000D01*
X126308533Y-68610000D02*
X126260914Y-68562380D01*
X126260914Y-68562380D02*
X126213295Y-68467142D01*
X126213295Y-68467142D02*
X126165676Y-68276666D01*
X126165676Y-68276666D02*
X126165676Y-68038571D01*
X126165676Y-68038571D02*
X126213295Y-67848095D01*
X126213295Y-67848095D02*
X126260914Y-67752857D01*
X126260914Y-67752857D02*
X126308533Y-67705238D01*
X126308533Y-67705238D02*
X126403771Y-67657619D01*
X116106580Y-71284057D02*
X116154200Y-71331676D01*
X116154200Y-71331676D02*
X116201819Y-71474533D01*
X116201819Y-71474533D02*
X116201819Y-71569771D01*
X116201819Y-71569771D02*
X116154200Y-71712628D01*
X116154200Y-71712628D02*
X116058961Y-71807866D01*
X116058961Y-71807866D02*
X115963723Y-71855485D01*
X115963723Y-71855485D02*
X115773247Y-71903104D01*
X115773247Y-71903104D02*
X115630390Y-71903104D01*
X115630390Y-71903104D02*
X115439914Y-71855485D01*
X115439914Y-71855485D02*
X115344676Y-71807866D01*
X115344676Y-71807866D02*
X115249438Y-71712628D01*
X115249438Y-71712628D02*
X115201819Y-71569771D01*
X115201819Y-71569771D02*
X115201819Y-71474533D01*
X115201819Y-71474533D02*
X115249438Y-71331676D01*
X115249438Y-71331676D02*
X115297057Y-71284057D01*
X116201819Y-70331676D02*
X116201819Y-70903104D01*
X116201819Y-70617390D02*
X115201819Y-70617390D01*
X115201819Y-70617390D02*
X115344676Y-70712628D01*
X115344676Y-70712628D02*
X115439914Y-70807866D01*
X115439914Y-70807866D02*
X115487533Y-70903104D01*
X115201819Y-69998342D02*
X115201819Y-69331676D01*
X115201819Y-69331676D02*
X116201819Y-69760247D01*
X134013580Y-72401657D02*
X134061200Y-72449276D01*
X134061200Y-72449276D02*
X134108819Y-72592133D01*
X134108819Y-72592133D02*
X134108819Y-72687371D01*
X134108819Y-72687371D02*
X134061200Y-72830228D01*
X134061200Y-72830228D02*
X133965961Y-72925466D01*
X133965961Y-72925466D02*
X133870723Y-72973085D01*
X133870723Y-72973085D02*
X133680247Y-73020704D01*
X133680247Y-73020704D02*
X133537390Y-73020704D01*
X133537390Y-73020704D02*
X133346914Y-72973085D01*
X133346914Y-72973085D02*
X133251676Y-72925466D01*
X133251676Y-72925466D02*
X133156438Y-72830228D01*
X133156438Y-72830228D02*
X133108819Y-72687371D01*
X133108819Y-72687371D02*
X133108819Y-72592133D01*
X133108819Y-72592133D02*
X133156438Y-72449276D01*
X133156438Y-72449276D02*
X133204057Y-72401657D01*
X133204057Y-72020704D02*
X133156438Y-71973085D01*
X133156438Y-71973085D02*
X133108819Y-71877847D01*
X133108819Y-71877847D02*
X133108819Y-71639752D01*
X133108819Y-71639752D02*
X133156438Y-71544514D01*
X133156438Y-71544514D02*
X133204057Y-71496895D01*
X133204057Y-71496895D02*
X133299295Y-71449276D01*
X133299295Y-71449276D02*
X133394533Y-71449276D01*
X133394533Y-71449276D02*
X133537390Y-71496895D01*
X133537390Y-71496895D02*
X134108819Y-72068323D01*
X134108819Y-72068323D02*
X134108819Y-71449276D01*
X133442152Y-70592133D02*
X134108819Y-70592133D01*
X133061200Y-70830228D02*
X133775485Y-71068323D01*
X133775485Y-71068323D02*
X133775485Y-70449276D01*
X153226819Y-63460857D02*
X152750628Y-63794190D01*
X153226819Y-64032285D02*
X152226819Y-64032285D01*
X152226819Y-64032285D02*
X152226819Y-63651333D01*
X152226819Y-63651333D02*
X152274438Y-63556095D01*
X152274438Y-63556095D02*
X152322057Y-63508476D01*
X152322057Y-63508476D02*
X152417295Y-63460857D01*
X152417295Y-63460857D02*
X152560152Y-63460857D01*
X152560152Y-63460857D02*
X152655390Y-63508476D01*
X152655390Y-63508476D02*
X152703009Y-63556095D01*
X152703009Y-63556095D02*
X152750628Y-63651333D01*
X152750628Y-63651333D02*
X152750628Y-64032285D01*
X152322057Y-63079904D02*
X152274438Y-63032285D01*
X152274438Y-63032285D02*
X152226819Y-62937047D01*
X152226819Y-62937047D02*
X152226819Y-62698952D01*
X152226819Y-62698952D02*
X152274438Y-62603714D01*
X152274438Y-62603714D02*
X152322057Y-62556095D01*
X152322057Y-62556095D02*
X152417295Y-62508476D01*
X152417295Y-62508476D02*
X152512533Y-62508476D01*
X152512533Y-62508476D02*
X152655390Y-62556095D01*
X152655390Y-62556095D02*
X153226819Y-63127523D01*
X153226819Y-63127523D02*
X153226819Y-62508476D01*
X152322057Y-62127523D02*
X152274438Y-62079904D01*
X152274438Y-62079904D02*
X152226819Y-61984666D01*
X152226819Y-61984666D02*
X152226819Y-61746571D01*
X152226819Y-61746571D02*
X152274438Y-61651333D01*
X152274438Y-61651333D02*
X152322057Y-61603714D01*
X152322057Y-61603714D02*
X152417295Y-61556095D01*
X152417295Y-61556095D02*
X152512533Y-61556095D01*
X152512533Y-61556095D02*
X152655390Y-61603714D01*
X152655390Y-61603714D02*
X153226819Y-62175142D01*
X153226819Y-62175142D02*
X153226819Y-61556095D01*
X118990342Y-89568180D02*
X118942723Y-89615800D01*
X118942723Y-89615800D02*
X118799866Y-89663419D01*
X118799866Y-89663419D02*
X118704628Y-89663419D01*
X118704628Y-89663419D02*
X118561771Y-89615800D01*
X118561771Y-89615800D02*
X118466533Y-89520561D01*
X118466533Y-89520561D02*
X118418914Y-89425323D01*
X118418914Y-89425323D02*
X118371295Y-89234847D01*
X118371295Y-89234847D02*
X118371295Y-89091990D01*
X118371295Y-89091990D02*
X118418914Y-88901514D01*
X118418914Y-88901514D02*
X118466533Y-88806276D01*
X118466533Y-88806276D02*
X118561771Y-88711038D01*
X118561771Y-88711038D02*
X118704628Y-88663419D01*
X118704628Y-88663419D02*
X118799866Y-88663419D01*
X118799866Y-88663419D02*
X118942723Y-88711038D01*
X118942723Y-88711038D02*
X118990342Y-88758657D01*
X119371295Y-88758657D02*
X119418914Y-88711038D01*
X119418914Y-88711038D02*
X119514152Y-88663419D01*
X119514152Y-88663419D02*
X119752247Y-88663419D01*
X119752247Y-88663419D02*
X119847485Y-88711038D01*
X119847485Y-88711038D02*
X119895104Y-88758657D01*
X119895104Y-88758657D02*
X119942723Y-88853895D01*
X119942723Y-88853895D02*
X119942723Y-88949133D01*
X119942723Y-88949133D02*
X119895104Y-89091990D01*
X119895104Y-89091990D02*
X119323676Y-89663419D01*
X119323676Y-89663419D02*
X119942723Y-89663419D01*
X120276057Y-88663419D02*
X120942723Y-88663419D01*
X120942723Y-88663419D02*
X120514152Y-89663419D01*
X128955095Y-98213819D02*
X128955095Y-99023342D01*
X128955095Y-99023342D02*
X129002714Y-99118580D01*
X129002714Y-99118580D02*
X129050333Y-99166200D01*
X129050333Y-99166200D02*
X129145571Y-99213819D01*
X129145571Y-99213819D02*
X129336047Y-99213819D01*
X129336047Y-99213819D02*
X129431285Y-99166200D01*
X129431285Y-99166200D02*
X129478904Y-99118580D01*
X129478904Y-99118580D02*
X129526523Y-99023342D01*
X129526523Y-99023342D02*
X129526523Y-98213819D01*
X130431285Y-98547152D02*
X130431285Y-99213819D01*
X130193190Y-98166200D02*
X129955095Y-98880485D01*
X129955095Y-98880485D02*
X130574142Y-98880485D01*
X110620180Y-88225857D02*
X110667800Y-88273476D01*
X110667800Y-88273476D02*
X110715419Y-88416333D01*
X110715419Y-88416333D02*
X110715419Y-88511571D01*
X110715419Y-88511571D02*
X110667800Y-88654428D01*
X110667800Y-88654428D02*
X110572561Y-88749666D01*
X110572561Y-88749666D02*
X110477323Y-88797285D01*
X110477323Y-88797285D02*
X110286847Y-88844904D01*
X110286847Y-88844904D02*
X110143990Y-88844904D01*
X110143990Y-88844904D02*
X109953514Y-88797285D01*
X109953514Y-88797285D02*
X109858276Y-88749666D01*
X109858276Y-88749666D02*
X109763038Y-88654428D01*
X109763038Y-88654428D02*
X109715419Y-88511571D01*
X109715419Y-88511571D02*
X109715419Y-88416333D01*
X109715419Y-88416333D02*
X109763038Y-88273476D01*
X109763038Y-88273476D02*
X109810657Y-88225857D01*
X110715419Y-87273476D02*
X110715419Y-87844904D01*
X110715419Y-87559190D02*
X109715419Y-87559190D01*
X109715419Y-87559190D02*
X109858276Y-87654428D01*
X109858276Y-87654428D02*
X109953514Y-87749666D01*
X109953514Y-87749666D02*
X110001133Y-87844904D01*
X109715419Y-86368714D02*
X109715419Y-86844904D01*
X109715419Y-86844904D02*
X110191609Y-86892523D01*
X110191609Y-86892523D02*
X110143990Y-86844904D01*
X110143990Y-86844904D02*
X110096371Y-86749666D01*
X110096371Y-86749666D02*
X110096371Y-86511571D01*
X110096371Y-86511571D02*
X110143990Y-86416333D01*
X110143990Y-86416333D02*
X110191609Y-86368714D01*
X110191609Y-86368714D02*
X110286847Y-86321095D01*
X110286847Y-86321095D02*
X110524942Y-86321095D01*
X110524942Y-86321095D02*
X110620180Y-86368714D01*
X110620180Y-86368714D02*
X110667800Y-86416333D01*
X110667800Y-86416333D02*
X110715419Y-86511571D01*
X110715419Y-86511571D02*
X110715419Y-86749666D01*
X110715419Y-86749666D02*
X110667800Y-86844904D01*
X110667800Y-86844904D02*
X110620180Y-86892523D01*
X114310333Y-73337580D02*
X114262714Y-73385200D01*
X114262714Y-73385200D02*
X114119857Y-73432819D01*
X114119857Y-73432819D02*
X114024619Y-73432819D01*
X114024619Y-73432819D02*
X113881762Y-73385200D01*
X113881762Y-73385200D02*
X113786524Y-73289961D01*
X113786524Y-73289961D02*
X113738905Y-73194723D01*
X113738905Y-73194723D02*
X113691286Y-73004247D01*
X113691286Y-73004247D02*
X113691286Y-72861390D01*
X113691286Y-72861390D02*
X113738905Y-72670914D01*
X113738905Y-72670914D02*
X113786524Y-72575676D01*
X113786524Y-72575676D02*
X113881762Y-72480438D01*
X113881762Y-72480438D02*
X114024619Y-72432819D01*
X114024619Y-72432819D02*
X114119857Y-72432819D01*
X114119857Y-72432819D02*
X114262714Y-72480438D01*
X114262714Y-72480438D02*
X114310333Y-72528057D01*
X114786524Y-73432819D02*
X114977000Y-73432819D01*
X114977000Y-73432819D02*
X115072238Y-73385200D01*
X115072238Y-73385200D02*
X115119857Y-73337580D01*
X115119857Y-73337580D02*
X115215095Y-73194723D01*
X115215095Y-73194723D02*
X115262714Y-73004247D01*
X115262714Y-73004247D02*
X115262714Y-72623295D01*
X115262714Y-72623295D02*
X115215095Y-72528057D01*
X115215095Y-72528057D02*
X115167476Y-72480438D01*
X115167476Y-72480438D02*
X115072238Y-72432819D01*
X115072238Y-72432819D02*
X114881762Y-72432819D01*
X114881762Y-72432819D02*
X114786524Y-72480438D01*
X114786524Y-72480438D02*
X114738905Y-72528057D01*
X114738905Y-72528057D02*
X114691286Y-72623295D01*
X114691286Y-72623295D02*
X114691286Y-72861390D01*
X114691286Y-72861390D02*
X114738905Y-72956628D01*
X114738905Y-72956628D02*
X114786524Y-73004247D01*
X114786524Y-73004247D02*
X114881762Y-73051866D01*
X114881762Y-73051866D02*
X115072238Y-73051866D01*
X115072238Y-73051866D02*
X115167476Y-73004247D01*
X115167476Y-73004247D02*
X115215095Y-72956628D01*
X115215095Y-72956628D02*
X115262714Y-72861390D01*
X124869580Y-99147857D02*
X124917200Y-99195476D01*
X124917200Y-99195476D02*
X124964819Y-99338333D01*
X124964819Y-99338333D02*
X124964819Y-99433571D01*
X124964819Y-99433571D02*
X124917200Y-99576428D01*
X124917200Y-99576428D02*
X124821961Y-99671666D01*
X124821961Y-99671666D02*
X124726723Y-99719285D01*
X124726723Y-99719285D02*
X124536247Y-99766904D01*
X124536247Y-99766904D02*
X124393390Y-99766904D01*
X124393390Y-99766904D02*
X124202914Y-99719285D01*
X124202914Y-99719285D02*
X124107676Y-99671666D01*
X124107676Y-99671666D02*
X124012438Y-99576428D01*
X124012438Y-99576428D02*
X123964819Y-99433571D01*
X123964819Y-99433571D02*
X123964819Y-99338333D01*
X123964819Y-99338333D02*
X124012438Y-99195476D01*
X124012438Y-99195476D02*
X124060057Y-99147857D01*
X123964819Y-98814523D02*
X123964819Y-98195476D01*
X123964819Y-98195476D02*
X124345771Y-98528809D01*
X124345771Y-98528809D02*
X124345771Y-98385952D01*
X124345771Y-98385952D02*
X124393390Y-98290714D01*
X124393390Y-98290714D02*
X124441009Y-98243095D01*
X124441009Y-98243095D02*
X124536247Y-98195476D01*
X124536247Y-98195476D02*
X124774342Y-98195476D01*
X124774342Y-98195476D02*
X124869580Y-98243095D01*
X124869580Y-98243095D02*
X124917200Y-98290714D01*
X124917200Y-98290714D02*
X124964819Y-98385952D01*
X124964819Y-98385952D02*
X124964819Y-98671666D01*
X124964819Y-98671666D02*
X124917200Y-98766904D01*
X124917200Y-98766904D02*
X124869580Y-98814523D01*
X124060057Y-97814523D02*
X124012438Y-97766904D01*
X124012438Y-97766904D02*
X123964819Y-97671666D01*
X123964819Y-97671666D02*
X123964819Y-97433571D01*
X123964819Y-97433571D02*
X124012438Y-97338333D01*
X124012438Y-97338333D02*
X124060057Y-97290714D01*
X124060057Y-97290714D02*
X124155295Y-97243095D01*
X124155295Y-97243095D02*
X124250533Y-97243095D01*
X124250533Y-97243095D02*
X124393390Y-97290714D01*
X124393390Y-97290714D02*
X124964819Y-97862142D01*
X124964819Y-97862142D02*
X124964819Y-97243095D01*
X132503142Y-99245580D02*
X132455523Y-99293200D01*
X132455523Y-99293200D02*
X132312666Y-99340819D01*
X132312666Y-99340819D02*
X132217428Y-99340819D01*
X132217428Y-99340819D02*
X132074571Y-99293200D01*
X132074571Y-99293200D02*
X131979333Y-99197961D01*
X131979333Y-99197961D02*
X131931714Y-99102723D01*
X131931714Y-99102723D02*
X131884095Y-98912247D01*
X131884095Y-98912247D02*
X131884095Y-98769390D01*
X131884095Y-98769390D02*
X131931714Y-98578914D01*
X131931714Y-98578914D02*
X131979333Y-98483676D01*
X131979333Y-98483676D02*
X132074571Y-98388438D01*
X132074571Y-98388438D02*
X132217428Y-98340819D01*
X132217428Y-98340819D02*
X132312666Y-98340819D01*
X132312666Y-98340819D02*
X132455523Y-98388438D01*
X132455523Y-98388438D02*
X132503142Y-98436057D01*
X132836476Y-98340819D02*
X133455523Y-98340819D01*
X133455523Y-98340819D02*
X133122190Y-98721771D01*
X133122190Y-98721771D02*
X133265047Y-98721771D01*
X133265047Y-98721771D02*
X133360285Y-98769390D01*
X133360285Y-98769390D02*
X133407904Y-98817009D01*
X133407904Y-98817009D02*
X133455523Y-98912247D01*
X133455523Y-98912247D02*
X133455523Y-99150342D01*
X133455523Y-99150342D02*
X133407904Y-99245580D01*
X133407904Y-99245580D02*
X133360285Y-99293200D01*
X133360285Y-99293200D02*
X133265047Y-99340819D01*
X133265047Y-99340819D02*
X132979333Y-99340819D01*
X132979333Y-99340819D02*
X132884095Y-99293200D01*
X132884095Y-99293200D02*
X132836476Y-99245580D01*
X134026952Y-98769390D02*
X133931714Y-98721771D01*
X133931714Y-98721771D02*
X133884095Y-98674152D01*
X133884095Y-98674152D02*
X133836476Y-98578914D01*
X133836476Y-98578914D02*
X133836476Y-98531295D01*
X133836476Y-98531295D02*
X133884095Y-98436057D01*
X133884095Y-98436057D02*
X133931714Y-98388438D01*
X133931714Y-98388438D02*
X134026952Y-98340819D01*
X134026952Y-98340819D02*
X134217428Y-98340819D01*
X134217428Y-98340819D02*
X134312666Y-98388438D01*
X134312666Y-98388438D02*
X134360285Y-98436057D01*
X134360285Y-98436057D02*
X134407904Y-98531295D01*
X134407904Y-98531295D02*
X134407904Y-98578914D01*
X134407904Y-98578914D02*
X134360285Y-98674152D01*
X134360285Y-98674152D02*
X134312666Y-98721771D01*
X134312666Y-98721771D02*
X134217428Y-98769390D01*
X134217428Y-98769390D02*
X134026952Y-98769390D01*
X134026952Y-98769390D02*
X133931714Y-98817009D01*
X133931714Y-98817009D02*
X133884095Y-98864628D01*
X133884095Y-98864628D02*
X133836476Y-98959866D01*
X133836476Y-98959866D02*
X133836476Y-99150342D01*
X133836476Y-99150342D02*
X133884095Y-99245580D01*
X133884095Y-99245580D02*
X133931714Y-99293200D01*
X133931714Y-99293200D02*
X134026952Y-99340819D01*
X134026952Y-99340819D02*
X134217428Y-99340819D01*
X134217428Y-99340819D02*
X134312666Y-99293200D01*
X134312666Y-99293200D02*
X134360285Y-99245580D01*
X134360285Y-99245580D02*
X134407904Y-99150342D01*
X134407904Y-99150342D02*
X134407904Y-98959866D01*
X134407904Y-98959866D02*
X134360285Y-98864628D01*
X134360285Y-98864628D02*
X134312666Y-98817009D01*
X134312666Y-98817009D02*
X134217428Y-98769390D01*
X107238095Y-44004819D02*
X107238095Y-43004819D01*
X107238095Y-43481009D02*
X107809523Y-43481009D01*
X107809523Y-44004819D02*
X107809523Y-43004819D01*
X108809523Y-44004819D02*
X108238095Y-44004819D01*
X108523809Y-44004819D02*
X108523809Y-43004819D01*
X108523809Y-43004819D02*
X108428571Y-43147676D01*
X108428571Y-43147676D02*
X108333333Y-43242914D01*
X108333333Y-43242914D02*
X108238095Y-43290533D01*
X138756266Y-61333019D02*
X138756266Y-62047304D01*
X138756266Y-62047304D02*
X138708647Y-62190161D01*
X138708647Y-62190161D02*
X138613409Y-62285400D01*
X138613409Y-62285400D02*
X138470552Y-62333019D01*
X138470552Y-62333019D02*
X138375314Y-62333019D01*
X139708647Y-61333019D02*
X139232457Y-61333019D01*
X139232457Y-61333019D02*
X139184838Y-61809209D01*
X139184838Y-61809209D02*
X139232457Y-61761590D01*
X139232457Y-61761590D02*
X139327695Y-61713971D01*
X139327695Y-61713971D02*
X139565790Y-61713971D01*
X139565790Y-61713971D02*
X139661028Y-61761590D01*
X139661028Y-61761590D02*
X139708647Y-61809209D01*
X139708647Y-61809209D02*
X139756266Y-61904447D01*
X139756266Y-61904447D02*
X139756266Y-62142542D01*
X139756266Y-62142542D02*
X139708647Y-62237780D01*
X139708647Y-62237780D02*
X139661028Y-62285400D01*
X139661028Y-62285400D02*
X139565790Y-62333019D01*
X139565790Y-62333019D02*
X139327695Y-62333019D01*
X139327695Y-62333019D02*
X139232457Y-62285400D01*
X139232457Y-62285400D02*
X139184838Y-62237780D01*
X108454819Y-84796857D02*
X107978628Y-85130190D01*
X108454819Y-85368285D02*
X107454819Y-85368285D01*
X107454819Y-85368285D02*
X107454819Y-84987333D01*
X107454819Y-84987333D02*
X107502438Y-84892095D01*
X107502438Y-84892095D02*
X107550057Y-84844476D01*
X107550057Y-84844476D02*
X107645295Y-84796857D01*
X107645295Y-84796857D02*
X107788152Y-84796857D01*
X107788152Y-84796857D02*
X107883390Y-84844476D01*
X107883390Y-84844476D02*
X107931009Y-84892095D01*
X107931009Y-84892095D02*
X107978628Y-84987333D01*
X107978628Y-84987333D02*
X107978628Y-85368285D01*
X108454819Y-83844476D02*
X108454819Y-84415904D01*
X108454819Y-84130190D02*
X107454819Y-84130190D01*
X107454819Y-84130190D02*
X107597676Y-84225428D01*
X107597676Y-84225428D02*
X107692914Y-84320666D01*
X107692914Y-84320666D02*
X107740533Y-84415904D01*
X107550057Y-83463523D02*
X107502438Y-83415904D01*
X107502438Y-83415904D02*
X107454819Y-83320666D01*
X107454819Y-83320666D02*
X107454819Y-83082571D01*
X107454819Y-83082571D02*
X107502438Y-82987333D01*
X107502438Y-82987333D02*
X107550057Y-82939714D01*
X107550057Y-82939714D02*
X107645295Y-82892095D01*
X107645295Y-82892095D02*
X107740533Y-82892095D01*
X107740533Y-82892095D02*
X107883390Y-82939714D01*
X107883390Y-82939714D02*
X108454819Y-83511142D01*
X108454819Y-83511142D02*
X108454819Y-82892095D01*
X161238095Y-54004819D02*
X161238095Y-53004819D01*
X161238095Y-53481009D02*
X161809523Y-53481009D01*
X161809523Y-54004819D02*
X161809523Y-53004819D01*
X162714285Y-53338152D02*
X162714285Y-54004819D01*
X162476190Y-52957200D02*
X162238095Y-53671485D01*
X162238095Y-53671485D02*
X162857142Y-53671485D01*
X113611905Y-61875819D02*
X113611905Y-60875819D01*
X113611905Y-60875819D02*
X113850000Y-60875819D01*
X113850000Y-60875819D02*
X113992857Y-60923438D01*
X113992857Y-60923438D02*
X114088095Y-61018676D01*
X114088095Y-61018676D02*
X114135714Y-61113914D01*
X114135714Y-61113914D02*
X114183333Y-61304390D01*
X114183333Y-61304390D02*
X114183333Y-61447247D01*
X114183333Y-61447247D02*
X114135714Y-61637723D01*
X114135714Y-61637723D02*
X114088095Y-61732961D01*
X114088095Y-61732961D02*
X113992857Y-61828200D01*
X113992857Y-61828200D02*
X113850000Y-61875819D01*
X113850000Y-61875819D02*
X113611905Y-61875819D01*
X114564286Y-60971057D02*
X114611905Y-60923438D01*
X114611905Y-60923438D02*
X114707143Y-60875819D01*
X114707143Y-60875819D02*
X114945238Y-60875819D01*
X114945238Y-60875819D02*
X115040476Y-60923438D01*
X115040476Y-60923438D02*
X115088095Y-60971057D01*
X115088095Y-60971057D02*
X115135714Y-61066295D01*
X115135714Y-61066295D02*
X115135714Y-61161533D01*
X115135714Y-61161533D02*
X115088095Y-61304390D01*
X115088095Y-61304390D02*
X114516667Y-61875819D01*
X114516667Y-61875819D02*
X115135714Y-61875819D01*
X109121580Y-67296257D02*
X109169200Y-67343876D01*
X109169200Y-67343876D02*
X109216819Y-67486733D01*
X109216819Y-67486733D02*
X109216819Y-67581971D01*
X109216819Y-67581971D02*
X109169200Y-67724828D01*
X109169200Y-67724828D02*
X109073961Y-67820066D01*
X109073961Y-67820066D02*
X108978723Y-67867685D01*
X108978723Y-67867685D02*
X108788247Y-67915304D01*
X108788247Y-67915304D02*
X108645390Y-67915304D01*
X108645390Y-67915304D02*
X108454914Y-67867685D01*
X108454914Y-67867685D02*
X108359676Y-67820066D01*
X108359676Y-67820066D02*
X108264438Y-67724828D01*
X108264438Y-67724828D02*
X108216819Y-67581971D01*
X108216819Y-67581971D02*
X108216819Y-67486733D01*
X108216819Y-67486733D02*
X108264438Y-67343876D01*
X108264438Y-67343876D02*
X108312057Y-67296257D01*
X109216819Y-66343876D02*
X109216819Y-66915304D01*
X109216819Y-66629590D02*
X108216819Y-66629590D01*
X108216819Y-66629590D02*
X108359676Y-66724828D01*
X108359676Y-66724828D02*
X108454914Y-66820066D01*
X108454914Y-66820066D02*
X108502533Y-66915304D01*
X108550152Y-65486733D02*
X109216819Y-65486733D01*
X108169200Y-65724828D02*
X108883485Y-65962923D01*
X108883485Y-65962923D02*
X108883485Y-65343876D01*
X135551142Y-106992580D02*
X135503523Y-107040200D01*
X135503523Y-107040200D02*
X135360666Y-107087819D01*
X135360666Y-107087819D02*
X135265428Y-107087819D01*
X135265428Y-107087819D02*
X135122571Y-107040200D01*
X135122571Y-107040200D02*
X135027333Y-106944961D01*
X135027333Y-106944961D02*
X134979714Y-106849723D01*
X134979714Y-106849723D02*
X134932095Y-106659247D01*
X134932095Y-106659247D02*
X134932095Y-106516390D01*
X134932095Y-106516390D02*
X134979714Y-106325914D01*
X134979714Y-106325914D02*
X135027333Y-106230676D01*
X135027333Y-106230676D02*
X135122571Y-106135438D01*
X135122571Y-106135438D02*
X135265428Y-106087819D01*
X135265428Y-106087819D02*
X135360666Y-106087819D01*
X135360666Y-106087819D02*
X135503523Y-106135438D01*
X135503523Y-106135438D02*
X135551142Y-106183057D01*
X135884476Y-106087819D02*
X136503523Y-106087819D01*
X136503523Y-106087819D02*
X136170190Y-106468771D01*
X136170190Y-106468771D02*
X136313047Y-106468771D01*
X136313047Y-106468771D02*
X136408285Y-106516390D01*
X136408285Y-106516390D02*
X136455904Y-106564009D01*
X136455904Y-106564009D02*
X136503523Y-106659247D01*
X136503523Y-106659247D02*
X136503523Y-106897342D01*
X136503523Y-106897342D02*
X136455904Y-106992580D01*
X136455904Y-106992580D02*
X136408285Y-107040200D01*
X136408285Y-107040200D02*
X136313047Y-107087819D01*
X136313047Y-107087819D02*
X136027333Y-107087819D01*
X136027333Y-107087819D02*
X135932095Y-107040200D01*
X135932095Y-107040200D02*
X135884476Y-106992580D01*
X136836857Y-106087819D02*
X137503523Y-106087819D01*
X137503523Y-106087819D02*
X137074952Y-107087819D01*
X127993780Y-79640657D02*
X128041400Y-79688276D01*
X128041400Y-79688276D02*
X128089019Y-79831133D01*
X128089019Y-79831133D02*
X128089019Y-79926371D01*
X128089019Y-79926371D02*
X128041400Y-80069228D01*
X128041400Y-80069228D02*
X127946161Y-80164466D01*
X127946161Y-80164466D02*
X127850923Y-80212085D01*
X127850923Y-80212085D02*
X127660447Y-80259704D01*
X127660447Y-80259704D02*
X127517590Y-80259704D01*
X127517590Y-80259704D02*
X127327114Y-80212085D01*
X127327114Y-80212085D02*
X127231876Y-80164466D01*
X127231876Y-80164466D02*
X127136638Y-80069228D01*
X127136638Y-80069228D02*
X127089019Y-79926371D01*
X127089019Y-79926371D02*
X127089019Y-79831133D01*
X127089019Y-79831133D02*
X127136638Y-79688276D01*
X127136638Y-79688276D02*
X127184257Y-79640657D01*
X128089019Y-78688276D02*
X128089019Y-79259704D01*
X128089019Y-78973990D02*
X127089019Y-78973990D01*
X127089019Y-78973990D02*
X127231876Y-79069228D01*
X127231876Y-79069228D02*
X127327114Y-79164466D01*
X127327114Y-79164466D02*
X127374733Y-79259704D01*
X127184257Y-78307323D02*
X127136638Y-78259704D01*
X127136638Y-78259704D02*
X127089019Y-78164466D01*
X127089019Y-78164466D02*
X127089019Y-77926371D01*
X127089019Y-77926371D02*
X127136638Y-77831133D01*
X127136638Y-77831133D02*
X127184257Y-77783514D01*
X127184257Y-77783514D02*
X127279495Y-77735895D01*
X127279495Y-77735895D02*
X127374733Y-77735895D01*
X127374733Y-77735895D02*
X127517590Y-77783514D01*
X127517590Y-77783514D02*
X128089019Y-78354942D01*
X128089019Y-78354942D02*
X128089019Y-77735895D01*
X110954580Y-111925857D02*
X111002200Y-111973476D01*
X111002200Y-111973476D02*
X111049819Y-112116333D01*
X111049819Y-112116333D02*
X111049819Y-112211571D01*
X111049819Y-112211571D02*
X111002200Y-112354428D01*
X111002200Y-112354428D02*
X110906961Y-112449666D01*
X110906961Y-112449666D02*
X110811723Y-112497285D01*
X110811723Y-112497285D02*
X110621247Y-112544904D01*
X110621247Y-112544904D02*
X110478390Y-112544904D01*
X110478390Y-112544904D02*
X110287914Y-112497285D01*
X110287914Y-112497285D02*
X110192676Y-112449666D01*
X110192676Y-112449666D02*
X110097438Y-112354428D01*
X110097438Y-112354428D02*
X110049819Y-112211571D01*
X110049819Y-112211571D02*
X110049819Y-112116333D01*
X110049819Y-112116333D02*
X110097438Y-111973476D01*
X110097438Y-111973476D02*
X110145057Y-111925857D01*
X110049819Y-111592523D02*
X110049819Y-110973476D01*
X110049819Y-110973476D02*
X110430771Y-111306809D01*
X110430771Y-111306809D02*
X110430771Y-111163952D01*
X110430771Y-111163952D02*
X110478390Y-111068714D01*
X110478390Y-111068714D02*
X110526009Y-111021095D01*
X110526009Y-111021095D02*
X110621247Y-110973476D01*
X110621247Y-110973476D02*
X110859342Y-110973476D01*
X110859342Y-110973476D02*
X110954580Y-111021095D01*
X110954580Y-111021095D02*
X111002200Y-111068714D01*
X111002200Y-111068714D02*
X111049819Y-111163952D01*
X111049819Y-111163952D02*
X111049819Y-111449666D01*
X111049819Y-111449666D02*
X111002200Y-111544904D01*
X111002200Y-111544904D02*
X110954580Y-111592523D01*
X110383152Y-110116333D02*
X111049819Y-110116333D01*
X110002200Y-110354428D02*
X110716485Y-110592523D01*
X110716485Y-110592523D02*
X110716485Y-109973476D01*
X125899142Y-119057580D02*
X125851523Y-119105200D01*
X125851523Y-119105200D02*
X125708666Y-119152819D01*
X125708666Y-119152819D02*
X125613428Y-119152819D01*
X125613428Y-119152819D02*
X125470571Y-119105200D01*
X125470571Y-119105200D02*
X125375333Y-119009961D01*
X125375333Y-119009961D02*
X125327714Y-118914723D01*
X125327714Y-118914723D02*
X125280095Y-118724247D01*
X125280095Y-118724247D02*
X125280095Y-118581390D01*
X125280095Y-118581390D02*
X125327714Y-118390914D01*
X125327714Y-118390914D02*
X125375333Y-118295676D01*
X125375333Y-118295676D02*
X125470571Y-118200438D01*
X125470571Y-118200438D02*
X125613428Y-118152819D01*
X125613428Y-118152819D02*
X125708666Y-118152819D01*
X125708666Y-118152819D02*
X125851523Y-118200438D01*
X125851523Y-118200438D02*
X125899142Y-118248057D01*
X126280095Y-118248057D02*
X126327714Y-118200438D01*
X126327714Y-118200438D02*
X126422952Y-118152819D01*
X126422952Y-118152819D02*
X126661047Y-118152819D01*
X126661047Y-118152819D02*
X126756285Y-118200438D01*
X126756285Y-118200438D02*
X126803904Y-118248057D01*
X126803904Y-118248057D02*
X126851523Y-118343295D01*
X126851523Y-118343295D02*
X126851523Y-118438533D01*
X126851523Y-118438533D02*
X126803904Y-118581390D01*
X126803904Y-118581390D02*
X126232476Y-119152819D01*
X126232476Y-119152819D02*
X126851523Y-119152819D01*
X127327714Y-119152819D02*
X127518190Y-119152819D01*
X127518190Y-119152819D02*
X127613428Y-119105200D01*
X127613428Y-119105200D02*
X127661047Y-119057580D01*
X127661047Y-119057580D02*
X127756285Y-118914723D01*
X127756285Y-118914723D02*
X127803904Y-118724247D01*
X127803904Y-118724247D02*
X127803904Y-118343295D01*
X127803904Y-118343295D02*
X127756285Y-118248057D01*
X127756285Y-118248057D02*
X127708666Y-118200438D01*
X127708666Y-118200438D02*
X127613428Y-118152819D01*
X127613428Y-118152819D02*
X127422952Y-118152819D01*
X127422952Y-118152819D02*
X127327714Y-118200438D01*
X127327714Y-118200438D02*
X127280095Y-118248057D01*
X127280095Y-118248057D02*
X127232476Y-118343295D01*
X127232476Y-118343295D02*
X127232476Y-118581390D01*
X127232476Y-118581390D02*
X127280095Y-118676628D01*
X127280095Y-118676628D02*
X127327714Y-118724247D01*
X127327714Y-118724247D02*
X127422952Y-118771866D01*
X127422952Y-118771866D02*
X127613428Y-118771866D01*
X127613428Y-118771866D02*
X127708666Y-118724247D01*
X127708666Y-118724247D02*
X127756285Y-118676628D01*
X127756285Y-118676628D02*
X127803904Y-118581390D01*
X141855819Y-108215657D02*
X141379628Y-108548990D01*
X141855819Y-108787085D02*
X140855819Y-108787085D01*
X140855819Y-108787085D02*
X140855819Y-108406133D01*
X140855819Y-108406133D02*
X140903438Y-108310895D01*
X140903438Y-108310895D02*
X140951057Y-108263276D01*
X140951057Y-108263276D02*
X141046295Y-108215657D01*
X141046295Y-108215657D02*
X141189152Y-108215657D01*
X141189152Y-108215657D02*
X141284390Y-108263276D01*
X141284390Y-108263276D02*
X141332009Y-108310895D01*
X141332009Y-108310895D02*
X141379628Y-108406133D01*
X141379628Y-108406133D02*
X141379628Y-108787085D01*
X140951057Y-107834704D02*
X140903438Y-107787085D01*
X140903438Y-107787085D02*
X140855819Y-107691847D01*
X140855819Y-107691847D02*
X140855819Y-107453752D01*
X140855819Y-107453752D02*
X140903438Y-107358514D01*
X140903438Y-107358514D02*
X140951057Y-107310895D01*
X140951057Y-107310895D02*
X141046295Y-107263276D01*
X141046295Y-107263276D02*
X141141533Y-107263276D01*
X141141533Y-107263276D02*
X141284390Y-107310895D01*
X141284390Y-107310895D02*
X141855819Y-107882323D01*
X141855819Y-107882323D02*
X141855819Y-107263276D01*
X141855819Y-106310895D02*
X141855819Y-106882323D01*
X141855819Y-106596609D02*
X140855819Y-106596609D01*
X140855819Y-106596609D02*
X140998676Y-106691847D01*
X140998676Y-106691847D02*
X141093914Y-106787085D01*
X141093914Y-106787085D02*
X141141533Y-106882323D01*
X133258733Y-91416019D02*
X132925400Y-90939828D01*
X132687305Y-91416019D02*
X132687305Y-90416019D01*
X132687305Y-90416019D02*
X133068257Y-90416019D01*
X133068257Y-90416019D02*
X133163495Y-90463638D01*
X133163495Y-90463638D02*
X133211114Y-90511257D01*
X133211114Y-90511257D02*
X133258733Y-90606495D01*
X133258733Y-90606495D02*
X133258733Y-90749352D01*
X133258733Y-90749352D02*
X133211114Y-90844590D01*
X133211114Y-90844590D02*
X133163495Y-90892209D01*
X133163495Y-90892209D02*
X133068257Y-90939828D01*
X133068257Y-90939828D02*
X132687305Y-90939828D01*
X134163495Y-90416019D02*
X133687305Y-90416019D01*
X133687305Y-90416019D02*
X133639686Y-90892209D01*
X133639686Y-90892209D02*
X133687305Y-90844590D01*
X133687305Y-90844590D02*
X133782543Y-90796971D01*
X133782543Y-90796971D02*
X134020638Y-90796971D01*
X134020638Y-90796971D02*
X134115876Y-90844590D01*
X134115876Y-90844590D02*
X134163495Y-90892209D01*
X134163495Y-90892209D02*
X134211114Y-90987447D01*
X134211114Y-90987447D02*
X134211114Y-91225542D01*
X134211114Y-91225542D02*
X134163495Y-91320780D01*
X134163495Y-91320780D02*
X134115876Y-91368400D01*
X134115876Y-91368400D02*
X134020638Y-91416019D01*
X134020638Y-91416019D02*
X133782543Y-91416019D01*
X133782543Y-91416019D02*
X133687305Y-91368400D01*
X133687305Y-91368400D02*
X133639686Y-91320780D01*
X111770333Y-67876580D02*
X111722714Y-67924200D01*
X111722714Y-67924200D02*
X111579857Y-67971819D01*
X111579857Y-67971819D02*
X111484619Y-67971819D01*
X111484619Y-67971819D02*
X111341762Y-67924200D01*
X111341762Y-67924200D02*
X111246524Y-67828961D01*
X111246524Y-67828961D02*
X111198905Y-67733723D01*
X111198905Y-67733723D02*
X111151286Y-67543247D01*
X111151286Y-67543247D02*
X111151286Y-67400390D01*
X111151286Y-67400390D02*
X111198905Y-67209914D01*
X111198905Y-67209914D02*
X111246524Y-67114676D01*
X111246524Y-67114676D02*
X111341762Y-67019438D01*
X111341762Y-67019438D02*
X111484619Y-66971819D01*
X111484619Y-66971819D02*
X111579857Y-66971819D01*
X111579857Y-66971819D02*
X111722714Y-67019438D01*
X111722714Y-67019438D02*
X111770333Y-67067057D01*
X112341762Y-67400390D02*
X112246524Y-67352771D01*
X112246524Y-67352771D02*
X112198905Y-67305152D01*
X112198905Y-67305152D02*
X112151286Y-67209914D01*
X112151286Y-67209914D02*
X112151286Y-67162295D01*
X112151286Y-67162295D02*
X112198905Y-67067057D01*
X112198905Y-67067057D02*
X112246524Y-67019438D01*
X112246524Y-67019438D02*
X112341762Y-66971819D01*
X112341762Y-66971819D02*
X112532238Y-66971819D01*
X112532238Y-66971819D02*
X112627476Y-67019438D01*
X112627476Y-67019438D02*
X112675095Y-67067057D01*
X112675095Y-67067057D02*
X112722714Y-67162295D01*
X112722714Y-67162295D02*
X112722714Y-67209914D01*
X112722714Y-67209914D02*
X112675095Y-67305152D01*
X112675095Y-67305152D02*
X112627476Y-67352771D01*
X112627476Y-67352771D02*
X112532238Y-67400390D01*
X112532238Y-67400390D02*
X112341762Y-67400390D01*
X112341762Y-67400390D02*
X112246524Y-67448009D01*
X112246524Y-67448009D02*
X112198905Y-67495628D01*
X112198905Y-67495628D02*
X112151286Y-67590866D01*
X112151286Y-67590866D02*
X112151286Y-67781342D01*
X112151286Y-67781342D02*
X112198905Y-67876580D01*
X112198905Y-67876580D02*
X112246524Y-67924200D01*
X112246524Y-67924200D02*
X112341762Y-67971819D01*
X112341762Y-67971819D02*
X112532238Y-67971819D01*
X112532238Y-67971819D02*
X112627476Y-67924200D01*
X112627476Y-67924200D02*
X112675095Y-67876580D01*
X112675095Y-67876580D02*
X112722714Y-67781342D01*
X112722714Y-67781342D02*
X112722714Y-67590866D01*
X112722714Y-67590866D02*
X112675095Y-67495628D01*
X112675095Y-67495628D02*
X112627476Y-67448009D01*
X112627476Y-67448009D02*
X112532238Y-67400390D01*
X143933142Y-62510819D02*
X143599809Y-62034628D01*
X143361714Y-62510819D02*
X143361714Y-61510819D01*
X143361714Y-61510819D02*
X143742666Y-61510819D01*
X143742666Y-61510819D02*
X143837904Y-61558438D01*
X143837904Y-61558438D02*
X143885523Y-61606057D01*
X143885523Y-61606057D02*
X143933142Y-61701295D01*
X143933142Y-61701295D02*
X143933142Y-61844152D01*
X143933142Y-61844152D02*
X143885523Y-61939390D01*
X143885523Y-61939390D02*
X143837904Y-61987009D01*
X143837904Y-61987009D02*
X143742666Y-62034628D01*
X143742666Y-62034628D02*
X143361714Y-62034628D01*
X144314095Y-61606057D02*
X144361714Y-61558438D01*
X144361714Y-61558438D02*
X144456952Y-61510819D01*
X144456952Y-61510819D02*
X144695047Y-61510819D01*
X144695047Y-61510819D02*
X144790285Y-61558438D01*
X144790285Y-61558438D02*
X144837904Y-61606057D01*
X144837904Y-61606057D02*
X144885523Y-61701295D01*
X144885523Y-61701295D02*
X144885523Y-61796533D01*
X144885523Y-61796533D02*
X144837904Y-61939390D01*
X144837904Y-61939390D02*
X144266476Y-62510819D01*
X144266476Y-62510819D02*
X144885523Y-62510819D01*
X145504571Y-61510819D02*
X145599809Y-61510819D01*
X145599809Y-61510819D02*
X145695047Y-61558438D01*
X145695047Y-61558438D02*
X145742666Y-61606057D01*
X145742666Y-61606057D02*
X145790285Y-61701295D01*
X145790285Y-61701295D02*
X145837904Y-61891771D01*
X145837904Y-61891771D02*
X145837904Y-62129866D01*
X145837904Y-62129866D02*
X145790285Y-62320342D01*
X145790285Y-62320342D02*
X145742666Y-62415580D01*
X145742666Y-62415580D02*
X145695047Y-62463200D01*
X145695047Y-62463200D02*
X145599809Y-62510819D01*
X145599809Y-62510819D02*
X145504571Y-62510819D01*
X145504571Y-62510819D02*
X145409333Y-62463200D01*
X145409333Y-62463200D02*
X145361714Y-62415580D01*
X145361714Y-62415580D02*
X145314095Y-62320342D01*
X145314095Y-62320342D02*
X145266476Y-62129866D01*
X145266476Y-62129866D02*
X145266476Y-61891771D01*
X145266476Y-61891771D02*
X145314095Y-61701295D01*
X145314095Y-61701295D02*
X145361714Y-61606057D01*
X145361714Y-61606057D02*
X145409333Y-61558438D01*
X145409333Y-61558438D02*
X145504571Y-61510819D01*
X133258733Y-90019019D02*
X132925400Y-89542828D01*
X132687305Y-90019019D02*
X132687305Y-89019019D01*
X132687305Y-89019019D02*
X133068257Y-89019019D01*
X133068257Y-89019019D02*
X133163495Y-89066638D01*
X133163495Y-89066638D02*
X133211114Y-89114257D01*
X133211114Y-89114257D02*
X133258733Y-89209495D01*
X133258733Y-89209495D02*
X133258733Y-89352352D01*
X133258733Y-89352352D02*
X133211114Y-89447590D01*
X133211114Y-89447590D02*
X133163495Y-89495209D01*
X133163495Y-89495209D02*
X133068257Y-89542828D01*
X133068257Y-89542828D02*
X132687305Y-89542828D01*
X134115876Y-89019019D02*
X133925400Y-89019019D01*
X133925400Y-89019019D02*
X133830162Y-89066638D01*
X133830162Y-89066638D02*
X133782543Y-89114257D01*
X133782543Y-89114257D02*
X133687305Y-89257114D01*
X133687305Y-89257114D02*
X133639686Y-89447590D01*
X133639686Y-89447590D02*
X133639686Y-89828542D01*
X133639686Y-89828542D02*
X133687305Y-89923780D01*
X133687305Y-89923780D02*
X133734924Y-89971400D01*
X133734924Y-89971400D02*
X133830162Y-90019019D01*
X133830162Y-90019019D02*
X134020638Y-90019019D01*
X134020638Y-90019019D02*
X134115876Y-89971400D01*
X134115876Y-89971400D02*
X134163495Y-89923780D01*
X134163495Y-89923780D02*
X134211114Y-89828542D01*
X134211114Y-89828542D02*
X134211114Y-89590447D01*
X134211114Y-89590447D02*
X134163495Y-89495209D01*
X134163495Y-89495209D02*
X134115876Y-89447590D01*
X134115876Y-89447590D02*
X134020638Y-89399971D01*
X134020638Y-89399971D02*
X133830162Y-89399971D01*
X133830162Y-89399971D02*
X133734924Y-89447590D01*
X133734924Y-89447590D02*
X133687305Y-89495209D01*
X133687305Y-89495209D02*
X133639686Y-89590447D01*
X127602009Y-91337333D02*
X127602009Y-91670666D01*
X128125819Y-91670666D02*
X127125819Y-91670666D01*
X127125819Y-91670666D02*
X127125819Y-91194476D01*
X127602009Y-90480190D02*
X127649628Y-90337333D01*
X127649628Y-90337333D02*
X127697247Y-90289714D01*
X127697247Y-90289714D02*
X127792485Y-90242095D01*
X127792485Y-90242095D02*
X127935342Y-90242095D01*
X127935342Y-90242095D02*
X128030580Y-90289714D01*
X128030580Y-90289714D02*
X128078200Y-90337333D01*
X128078200Y-90337333D02*
X128125819Y-90432571D01*
X128125819Y-90432571D02*
X128125819Y-90813523D01*
X128125819Y-90813523D02*
X127125819Y-90813523D01*
X127125819Y-90813523D02*
X127125819Y-90480190D01*
X127125819Y-90480190D02*
X127173438Y-90384952D01*
X127173438Y-90384952D02*
X127221057Y-90337333D01*
X127221057Y-90337333D02*
X127316295Y-90289714D01*
X127316295Y-90289714D02*
X127411533Y-90289714D01*
X127411533Y-90289714D02*
X127506771Y-90337333D01*
X127506771Y-90337333D02*
X127554390Y-90384952D01*
X127554390Y-90384952D02*
X127602009Y-90480190D01*
X127602009Y-90480190D02*
X127602009Y-90813523D01*
X128125819Y-89289714D02*
X128125819Y-89861142D01*
X128125819Y-89575428D02*
X127125819Y-89575428D01*
X127125819Y-89575428D02*
X127268676Y-89670666D01*
X127268676Y-89670666D02*
X127363914Y-89765904D01*
X127363914Y-89765904D02*
X127411533Y-89861142D01*
X123955180Y-111441457D02*
X124002800Y-111489076D01*
X124002800Y-111489076D02*
X124050419Y-111631933D01*
X124050419Y-111631933D02*
X124050419Y-111727171D01*
X124050419Y-111727171D02*
X124002800Y-111870028D01*
X124002800Y-111870028D02*
X123907561Y-111965266D01*
X123907561Y-111965266D02*
X123812323Y-112012885D01*
X123812323Y-112012885D02*
X123621847Y-112060504D01*
X123621847Y-112060504D02*
X123478990Y-112060504D01*
X123478990Y-112060504D02*
X123288514Y-112012885D01*
X123288514Y-112012885D02*
X123193276Y-111965266D01*
X123193276Y-111965266D02*
X123098038Y-111870028D01*
X123098038Y-111870028D02*
X123050419Y-111727171D01*
X123050419Y-111727171D02*
X123050419Y-111631933D01*
X123050419Y-111631933D02*
X123098038Y-111489076D01*
X123098038Y-111489076D02*
X123145657Y-111441457D01*
X123050419Y-111108123D02*
X123050419Y-110489076D01*
X123050419Y-110489076D02*
X123431371Y-110822409D01*
X123431371Y-110822409D02*
X123431371Y-110679552D01*
X123431371Y-110679552D02*
X123478990Y-110584314D01*
X123478990Y-110584314D02*
X123526609Y-110536695D01*
X123526609Y-110536695D02*
X123621847Y-110489076D01*
X123621847Y-110489076D02*
X123859942Y-110489076D01*
X123859942Y-110489076D02*
X123955180Y-110536695D01*
X123955180Y-110536695D02*
X124002800Y-110584314D01*
X124002800Y-110584314D02*
X124050419Y-110679552D01*
X124050419Y-110679552D02*
X124050419Y-110965266D01*
X124050419Y-110965266D02*
X124002800Y-111060504D01*
X124002800Y-111060504D02*
X123955180Y-111108123D01*
X123050419Y-110155742D02*
X123050419Y-109536695D01*
X123050419Y-109536695D02*
X123431371Y-109870028D01*
X123431371Y-109870028D02*
X123431371Y-109727171D01*
X123431371Y-109727171D02*
X123478990Y-109631933D01*
X123478990Y-109631933D02*
X123526609Y-109584314D01*
X123526609Y-109584314D02*
X123621847Y-109536695D01*
X123621847Y-109536695D02*
X123859942Y-109536695D01*
X123859942Y-109536695D02*
X123955180Y-109584314D01*
X123955180Y-109584314D02*
X124002800Y-109631933D01*
X124002800Y-109631933D02*
X124050419Y-109727171D01*
X124050419Y-109727171D02*
X124050419Y-110012885D01*
X124050419Y-110012885D02*
X124002800Y-110108123D01*
X124002800Y-110108123D02*
X123955180Y-110155742D01*
X126610342Y-56827580D02*
X126562723Y-56875200D01*
X126562723Y-56875200D02*
X126419866Y-56922819D01*
X126419866Y-56922819D02*
X126324628Y-56922819D01*
X126324628Y-56922819D02*
X126181771Y-56875200D01*
X126181771Y-56875200D02*
X126086533Y-56779961D01*
X126086533Y-56779961D02*
X126038914Y-56684723D01*
X126038914Y-56684723D02*
X125991295Y-56494247D01*
X125991295Y-56494247D02*
X125991295Y-56351390D01*
X125991295Y-56351390D02*
X126038914Y-56160914D01*
X126038914Y-56160914D02*
X126086533Y-56065676D01*
X126086533Y-56065676D02*
X126181771Y-55970438D01*
X126181771Y-55970438D02*
X126324628Y-55922819D01*
X126324628Y-55922819D02*
X126419866Y-55922819D01*
X126419866Y-55922819D02*
X126562723Y-55970438D01*
X126562723Y-55970438D02*
X126610342Y-56018057D01*
X126991295Y-56018057D02*
X127038914Y-55970438D01*
X127038914Y-55970438D02*
X127134152Y-55922819D01*
X127134152Y-55922819D02*
X127372247Y-55922819D01*
X127372247Y-55922819D02*
X127467485Y-55970438D01*
X127467485Y-55970438D02*
X127515104Y-56018057D01*
X127515104Y-56018057D02*
X127562723Y-56113295D01*
X127562723Y-56113295D02*
X127562723Y-56208533D01*
X127562723Y-56208533D02*
X127515104Y-56351390D01*
X127515104Y-56351390D02*
X126943676Y-56922819D01*
X126943676Y-56922819D02*
X127562723Y-56922819D01*
X128515104Y-56922819D02*
X127943676Y-56922819D01*
X128229390Y-56922819D02*
X128229390Y-55922819D01*
X128229390Y-55922819D02*
X128134152Y-56065676D01*
X128134152Y-56065676D02*
X128038914Y-56160914D01*
X128038914Y-56160914D02*
X127943676Y-56208533D01*
X114709580Y-77430857D02*
X114757200Y-77478476D01*
X114757200Y-77478476D02*
X114804819Y-77621333D01*
X114804819Y-77621333D02*
X114804819Y-77716571D01*
X114804819Y-77716571D02*
X114757200Y-77859428D01*
X114757200Y-77859428D02*
X114661961Y-77954666D01*
X114661961Y-77954666D02*
X114566723Y-78002285D01*
X114566723Y-78002285D02*
X114376247Y-78049904D01*
X114376247Y-78049904D02*
X114233390Y-78049904D01*
X114233390Y-78049904D02*
X114042914Y-78002285D01*
X114042914Y-78002285D02*
X113947676Y-77954666D01*
X113947676Y-77954666D02*
X113852438Y-77859428D01*
X113852438Y-77859428D02*
X113804819Y-77716571D01*
X113804819Y-77716571D02*
X113804819Y-77621333D01*
X113804819Y-77621333D02*
X113852438Y-77478476D01*
X113852438Y-77478476D02*
X113900057Y-77430857D01*
X114804819Y-76478476D02*
X114804819Y-77049904D01*
X114804819Y-76764190D02*
X113804819Y-76764190D01*
X113804819Y-76764190D02*
X113947676Y-76859428D01*
X113947676Y-76859428D02*
X114042914Y-76954666D01*
X114042914Y-76954666D02*
X114090533Y-77049904D01*
X113804819Y-75859428D02*
X113804819Y-75764190D01*
X113804819Y-75764190D02*
X113852438Y-75668952D01*
X113852438Y-75668952D02*
X113900057Y-75621333D01*
X113900057Y-75621333D02*
X113995295Y-75573714D01*
X113995295Y-75573714D02*
X114185771Y-75526095D01*
X114185771Y-75526095D02*
X114423866Y-75526095D01*
X114423866Y-75526095D02*
X114614342Y-75573714D01*
X114614342Y-75573714D02*
X114709580Y-75621333D01*
X114709580Y-75621333D02*
X114757200Y-75668952D01*
X114757200Y-75668952D02*
X114804819Y-75764190D01*
X114804819Y-75764190D02*
X114804819Y-75859428D01*
X114804819Y-75859428D02*
X114757200Y-75954666D01*
X114757200Y-75954666D02*
X114709580Y-76002285D01*
X114709580Y-76002285D02*
X114614342Y-76049904D01*
X114614342Y-76049904D02*
X114423866Y-76097523D01*
X114423866Y-76097523D02*
X114185771Y-76097523D01*
X114185771Y-76097523D02*
X113995295Y-76049904D01*
X113995295Y-76049904D02*
X113900057Y-76002285D01*
X113900057Y-76002285D02*
X113852438Y-75954666D01*
X113852438Y-75954666D02*
X113804819Y-75859428D01*
X131041780Y-113346457D02*
X131089400Y-113394076D01*
X131089400Y-113394076D02*
X131137019Y-113536933D01*
X131137019Y-113536933D02*
X131137019Y-113632171D01*
X131137019Y-113632171D02*
X131089400Y-113775028D01*
X131089400Y-113775028D02*
X130994161Y-113870266D01*
X130994161Y-113870266D02*
X130898923Y-113917885D01*
X130898923Y-113917885D02*
X130708447Y-113965504D01*
X130708447Y-113965504D02*
X130565590Y-113965504D01*
X130565590Y-113965504D02*
X130375114Y-113917885D01*
X130375114Y-113917885D02*
X130279876Y-113870266D01*
X130279876Y-113870266D02*
X130184638Y-113775028D01*
X130184638Y-113775028D02*
X130137019Y-113632171D01*
X130137019Y-113632171D02*
X130137019Y-113536933D01*
X130137019Y-113536933D02*
X130184638Y-113394076D01*
X130184638Y-113394076D02*
X130232257Y-113346457D01*
X130232257Y-112965504D02*
X130184638Y-112917885D01*
X130184638Y-112917885D02*
X130137019Y-112822647D01*
X130137019Y-112822647D02*
X130137019Y-112584552D01*
X130137019Y-112584552D02*
X130184638Y-112489314D01*
X130184638Y-112489314D02*
X130232257Y-112441695D01*
X130232257Y-112441695D02*
X130327495Y-112394076D01*
X130327495Y-112394076D02*
X130422733Y-112394076D01*
X130422733Y-112394076D02*
X130565590Y-112441695D01*
X130565590Y-112441695D02*
X131137019Y-113013123D01*
X131137019Y-113013123D02*
X131137019Y-112394076D01*
X130565590Y-111822647D02*
X130517971Y-111917885D01*
X130517971Y-111917885D02*
X130470352Y-111965504D01*
X130470352Y-111965504D02*
X130375114Y-112013123D01*
X130375114Y-112013123D02*
X130327495Y-112013123D01*
X130327495Y-112013123D02*
X130232257Y-111965504D01*
X130232257Y-111965504D02*
X130184638Y-111917885D01*
X130184638Y-111917885D02*
X130137019Y-111822647D01*
X130137019Y-111822647D02*
X130137019Y-111632171D01*
X130137019Y-111632171D02*
X130184638Y-111536933D01*
X130184638Y-111536933D02*
X130232257Y-111489314D01*
X130232257Y-111489314D02*
X130327495Y-111441695D01*
X130327495Y-111441695D02*
X130375114Y-111441695D01*
X130375114Y-111441695D02*
X130470352Y-111489314D01*
X130470352Y-111489314D02*
X130517971Y-111536933D01*
X130517971Y-111536933D02*
X130565590Y-111632171D01*
X130565590Y-111632171D02*
X130565590Y-111822647D01*
X130565590Y-111822647D02*
X130613209Y-111917885D01*
X130613209Y-111917885D02*
X130660828Y-111965504D01*
X130660828Y-111965504D02*
X130756066Y-112013123D01*
X130756066Y-112013123D02*
X130946542Y-112013123D01*
X130946542Y-112013123D02*
X131041780Y-111965504D01*
X131041780Y-111965504D02*
X131089400Y-111917885D01*
X131089400Y-111917885D02*
X131137019Y-111822647D01*
X131137019Y-111822647D02*
X131137019Y-111632171D01*
X131137019Y-111632171D02*
X131089400Y-111536933D01*
X131089400Y-111536933D02*
X131041780Y-111489314D01*
X131041780Y-111489314D02*
X130946542Y-111441695D01*
X130946542Y-111441695D02*
X130756066Y-111441695D01*
X130756066Y-111441695D02*
X130660828Y-111489314D01*
X130660828Y-111489314D02*
X130613209Y-111536933D01*
X130613209Y-111536933D02*
X130565590Y-111632171D01*
X143560095Y-63415819D02*
X143560095Y-64225342D01*
X143560095Y-64225342D02*
X143607714Y-64320580D01*
X143607714Y-64320580D02*
X143655333Y-64368200D01*
X143655333Y-64368200D02*
X143750571Y-64415819D01*
X143750571Y-64415819D02*
X143941047Y-64415819D01*
X143941047Y-64415819D02*
X144036285Y-64368200D01*
X144036285Y-64368200D02*
X144083904Y-64320580D01*
X144083904Y-64320580D02*
X144131523Y-64225342D01*
X144131523Y-64225342D02*
X144131523Y-63415819D01*
X145083904Y-63415819D02*
X144607714Y-63415819D01*
X144607714Y-63415819D02*
X144560095Y-63892009D01*
X144560095Y-63892009D02*
X144607714Y-63844390D01*
X144607714Y-63844390D02*
X144702952Y-63796771D01*
X144702952Y-63796771D02*
X144941047Y-63796771D01*
X144941047Y-63796771D02*
X145036285Y-63844390D01*
X145036285Y-63844390D02*
X145083904Y-63892009D01*
X145083904Y-63892009D02*
X145131523Y-63987247D01*
X145131523Y-63987247D02*
X145131523Y-64225342D01*
X145131523Y-64225342D02*
X145083904Y-64320580D01*
X145083904Y-64320580D02*
X145036285Y-64368200D01*
X145036285Y-64368200D02*
X144941047Y-64415819D01*
X144941047Y-64415819D02*
X144702952Y-64415819D01*
X144702952Y-64415819D02*
X144607714Y-64368200D01*
X144607714Y-64368200D02*
X144560095Y-64320580D01*
X110772580Y-101306857D02*
X110820200Y-101354476D01*
X110820200Y-101354476D02*
X110867819Y-101497333D01*
X110867819Y-101497333D02*
X110867819Y-101592571D01*
X110867819Y-101592571D02*
X110820200Y-101735428D01*
X110820200Y-101735428D02*
X110724961Y-101830666D01*
X110724961Y-101830666D02*
X110629723Y-101878285D01*
X110629723Y-101878285D02*
X110439247Y-101925904D01*
X110439247Y-101925904D02*
X110296390Y-101925904D01*
X110296390Y-101925904D02*
X110105914Y-101878285D01*
X110105914Y-101878285D02*
X110010676Y-101830666D01*
X110010676Y-101830666D02*
X109915438Y-101735428D01*
X109915438Y-101735428D02*
X109867819Y-101592571D01*
X109867819Y-101592571D02*
X109867819Y-101497333D01*
X109867819Y-101497333D02*
X109915438Y-101354476D01*
X109915438Y-101354476D02*
X109963057Y-101306857D01*
X109867819Y-100973523D02*
X109867819Y-100354476D01*
X109867819Y-100354476D02*
X110248771Y-100687809D01*
X110248771Y-100687809D02*
X110248771Y-100544952D01*
X110248771Y-100544952D02*
X110296390Y-100449714D01*
X110296390Y-100449714D02*
X110344009Y-100402095D01*
X110344009Y-100402095D02*
X110439247Y-100354476D01*
X110439247Y-100354476D02*
X110677342Y-100354476D01*
X110677342Y-100354476D02*
X110772580Y-100402095D01*
X110772580Y-100402095D02*
X110820200Y-100449714D01*
X110820200Y-100449714D02*
X110867819Y-100544952D01*
X110867819Y-100544952D02*
X110867819Y-100830666D01*
X110867819Y-100830666D02*
X110820200Y-100925904D01*
X110820200Y-100925904D02*
X110772580Y-100973523D01*
X109867819Y-99497333D02*
X109867819Y-99687809D01*
X109867819Y-99687809D02*
X109915438Y-99783047D01*
X109915438Y-99783047D02*
X109963057Y-99830666D01*
X109963057Y-99830666D02*
X110105914Y-99925904D01*
X110105914Y-99925904D02*
X110296390Y-99973523D01*
X110296390Y-99973523D02*
X110677342Y-99973523D01*
X110677342Y-99973523D02*
X110772580Y-99925904D01*
X110772580Y-99925904D02*
X110820200Y-99878285D01*
X110820200Y-99878285D02*
X110867819Y-99783047D01*
X110867819Y-99783047D02*
X110867819Y-99592571D01*
X110867819Y-99592571D02*
X110820200Y-99497333D01*
X110820200Y-99497333D02*
X110772580Y-99449714D01*
X110772580Y-99449714D02*
X110677342Y-99402095D01*
X110677342Y-99402095D02*
X110439247Y-99402095D01*
X110439247Y-99402095D02*
X110344009Y-99449714D01*
X110344009Y-99449714D02*
X110296390Y-99497333D01*
X110296390Y-99497333D02*
X110248771Y-99592571D01*
X110248771Y-99592571D02*
X110248771Y-99783047D01*
X110248771Y-99783047D02*
X110296390Y-99878285D01*
X110296390Y-99878285D02*
X110344009Y-99925904D01*
X110344009Y-99925904D02*
X110439247Y-99973523D01*
X131918942Y-75185419D02*
X131585609Y-74709228D01*
X131347514Y-75185419D02*
X131347514Y-74185419D01*
X131347514Y-74185419D02*
X131728466Y-74185419D01*
X131728466Y-74185419D02*
X131823704Y-74233038D01*
X131823704Y-74233038D02*
X131871323Y-74280657D01*
X131871323Y-74280657D02*
X131918942Y-74375895D01*
X131918942Y-74375895D02*
X131918942Y-74518752D01*
X131918942Y-74518752D02*
X131871323Y-74613990D01*
X131871323Y-74613990D02*
X131823704Y-74661609D01*
X131823704Y-74661609D02*
X131728466Y-74709228D01*
X131728466Y-74709228D02*
X131347514Y-74709228D01*
X132871323Y-75185419D02*
X132299895Y-75185419D01*
X132585609Y-75185419D02*
X132585609Y-74185419D01*
X132585609Y-74185419D02*
X132490371Y-74328276D01*
X132490371Y-74328276D02*
X132395133Y-74423514D01*
X132395133Y-74423514D02*
X132299895Y-74471133D01*
X133204657Y-74185419D02*
X133871323Y-74185419D01*
X133871323Y-74185419D02*
X133442752Y-75185419D01*
X107238095Y-118004819D02*
X107238095Y-117004819D01*
X107238095Y-117481009D02*
X107809523Y-117481009D01*
X107809523Y-118004819D02*
X107809523Y-117004819D01*
X108238095Y-117100057D02*
X108285714Y-117052438D01*
X108285714Y-117052438D02*
X108380952Y-117004819D01*
X108380952Y-117004819D02*
X108619047Y-117004819D01*
X108619047Y-117004819D02*
X108714285Y-117052438D01*
X108714285Y-117052438D02*
X108761904Y-117100057D01*
X108761904Y-117100057D02*
X108809523Y-117195295D01*
X108809523Y-117195295D02*
X108809523Y-117290533D01*
X108809523Y-117290533D02*
X108761904Y-117433390D01*
X108761904Y-117433390D02*
X108190476Y-118004819D01*
X108190476Y-118004819D02*
X108809523Y-118004819D01*
X145291180Y-104786657D02*
X145338800Y-104834276D01*
X145338800Y-104834276D02*
X145386419Y-104977133D01*
X145386419Y-104977133D02*
X145386419Y-105072371D01*
X145386419Y-105072371D02*
X145338800Y-105215228D01*
X145338800Y-105215228D02*
X145243561Y-105310466D01*
X145243561Y-105310466D02*
X145148323Y-105358085D01*
X145148323Y-105358085D02*
X144957847Y-105405704D01*
X144957847Y-105405704D02*
X144814990Y-105405704D01*
X144814990Y-105405704D02*
X144624514Y-105358085D01*
X144624514Y-105358085D02*
X144529276Y-105310466D01*
X144529276Y-105310466D02*
X144434038Y-105215228D01*
X144434038Y-105215228D02*
X144386419Y-105072371D01*
X144386419Y-105072371D02*
X144386419Y-104977133D01*
X144386419Y-104977133D02*
X144434038Y-104834276D01*
X144434038Y-104834276D02*
X144481657Y-104786657D01*
X144719752Y-103929514D02*
X145386419Y-103929514D01*
X144338800Y-104167609D02*
X145053085Y-104405704D01*
X145053085Y-104405704D02*
X145053085Y-103786657D01*
X144386419Y-103215228D02*
X144386419Y-103119990D01*
X144386419Y-103119990D02*
X144434038Y-103024752D01*
X144434038Y-103024752D02*
X144481657Y-102977133D01*
X144481657Y-102977133D02*
X144576895Y-102929514D01*
X144576895Y-102929514D02*
X144767371Y-102881895D01*
X144767371Y-102881895D02*
X145005466Y-102881895D01*
X145005466Y-102881895D02*
X145195942Y-102929514D01*
X145195942Y-102929514D02*
X145291180Y-102977133D01*
X145291180Y-102977133D02*
X145338800Y-103024752D01*
X145338800Y-103024752D02*
X145386419Y-103119990D01*
X145386419Y-103119990D02*
X145386419Y-103215228D01*
X145386419Y-103215228D02*
X145338800Y-103310466D01*
X145338800Y-103310466D02*
X145291180Y-103358085D01*
X145291180Y-103358085D02*
X145195942Y-103405704D01*
X145195942Y-103405704D02*
X145005466Y-103453323D01*
X145005466Y-103453323D02*
X144767371Y-103453323D01*
X144767371Y-103453323D02*
X144576895Y-103405704D01*
X144576895Y-103405704D02*
X144481657Y-103358085D01*
X144481657Y-103358085D02*
X144434038Y-103310466D01*
X144434038Y-103310466D02*
X144386419Y-103215228D01*
X154962219Y-100068666D02*
X154486028Y-100401999D01*
X154962219Y-100640094D02*
X153962219Y-100640094D01*
X153962219Y-100640094D02*
X153962219Y-100259142D01*
X153962219Y-100259142D02*
X154009838Y-100163904D01*
X154009838Y-100163904D02*
X154057457Y-100116285D01*
X154057457Y-100116285D02*
X154152695Y-100068666D01*
X154152695Y-100068666D02*
X154295552Y-100068666D01*
X154295552Y-100068666D02*
X154390790Y-100116285D01*
X154390790Y-100116285D02*
X154438409Y-100163904D01*
X154438409Y-100163904D02*
X154486028Y-100259142D01*
X154486028Y-100259142D02*
X154486028Y-100640094D01*
X153962219Y-99735332D02*
X153962219Y-99116285D01*
X153962219Y-99116285D02*
X154343171Y-99449618D01*
X154343171Y-99449618D02*
X154343171Y-99306761D01*
X154343171Y-99306761D02*
X154390790Y-99211523D01*
X154390790Y-99211523D02*
X154438409Y-99163904D01*
X154438409Y-99163904D02*
X154533647Y-99116285D01*
X154533647Y-99116285D02*
X154771742Y-99116285D01*
X154771742Y-99116285D02*
X154866980Y-99163904D01*
X154866980Y-99163904D02*
X154914600Y-99211523D01*
X154914600Y-99211523D02*
X154962219Y-99306761D01*
X154962219Y-99306761D02*
X154962219Y-99592475D01*
X154962219Y-99592475D02*
X154914600Y-99687713D01*
X154914600Y-99687713D02*
X154866980Y-99735332D01*
X113726133Y-89561819D02*
X113249943Y-89561819D01*
X113249943Y-89561819D02*
X113249943Y-88561819D01*
X114583276Y-89561819D02*
X114011848Y-89561819D01*
X114297562Y-89561819D02*
X114297562Y-88561819D01*
X114297562Y-88561819D02*
X114202324Y-88704676D01*
X114202324Y-88704676D02*
X114107086Y-88799914D01*
X114107086Y-88799914D02*
X114011848Y-88847533D01*
X130852142Y-97467580D02*
X130804523Y-97515200D01*
X130804523Y-97515200D02*
X130661666Y-97562819D01*
X130661666Y-97562819D02*
X130566428Y-97562819D01*
X130566428Y-97562819D02*
X130423571Y-97515200D01*
X130423571Y-97515200D02*
X130328333Y-97419961D01*
X130328333Y-97419961D02*
X130280714Y-97324723D01*
X130280714Y-97324723D02*
X130233095Y-97134247D01*
X130233095Y-97134247D02*
X130233095Y-96991390D01*
X130233095Y-96991390D02*
X130280714Y-96800914D01*
X130280714Y-96800914D02*
X130328333Y-96705676D01*
X130328333Y-96705676D02*
X130423571Y-96610438D01*
X130423571Y-96610438D02*
X130566428Y-96562819D01*
X130566428Y-96562819D02*
X130661666Y-96562819D01*
X130661666Y-96562819D02*
X130804523Y-96610438D01*
X130804523Y-96610438D02*
X130852142Y-96658057D01*
X131709285Y-96896152D02*
X131709285Y-97562819D01*
X131471190Y-96515200D02*
X131233095Y-97229485D01*
X131233095Y-97229485D02*
X131852142Y-97229485D01*
X132709285Y-96562819D02*
X132233095Y-96562819D01*
X132233095Y-96562819D02*
X132185476Y-97039009D01*
X132185476Y-97039009D02*
X132233095Y-96991390D01*
X132233095Y-96991390D02*
X132328333Y-96943771D01*
X132328333Y-96943771D02*
X132566428Y-96943771D01*
X132566428Y-96943771D02*
X132661666Y-96991390D01*
X132661666Y-96991390D02*
X132709285Y-97039009D01*
X132709285Y-97039009D02*
X132756904Y-97134247D01*
X132756904Y-97134247D02*
X132756904Y-97372342D01*
X132756904Y-97372342D02*
X132709285Y-97467580D01*
X132709285Y-97467580D02*
X132661666Y-97515200D01*
X132661666Y-97515200D02*
X132566428Y-97562819D01*
X132566428Y-97562819D02*
X132328333Y-97562819D01*
X132328333Y-97562819D02*
X132233095Y-97515200D01*
X132233095Y-97515200D02*
X132185476Y-97467580D01*
X159090533Y-75394980D02*
X159042914Y-75442600D01*
X159042914Y-75442600D02*
X158900057Y-75490219D01*
X158900057Y-75490219D02*
X158804819Y-75490219D01*
X158804819Y-75490219D02*
X158661962Y-75442600D01*
X158661962Y-75442600D02*
X158566724Y-75347361D01*
X158566724Y-75347361D02*
X158519105Y-75252123D01*
X158519105Y-75252123D02*
X158471486Y-75061647D01*
X158471486Y-75061647D02*
X158471486Y-74918790D01*
X158471486Y-74918790D02*
X158519105Y-74728314D01*
X158519105Y-74728314D02*
X158566724Y-74633076D01*
X158566724Y-74633076D02*
X158661962Y-74537838D01*
X158661962Y-74537838D02*
X158804819Y-74490219D01*
X158804819Y-74490219D02*
X158900057Y-74490219D01*
X158900057Y-74490219D02*
X159042914Y-74537838D01*
X159042914Y-74537838D02*
X159090533Y-74585457D01*
X159423867Y-74490219D02*
X160042914Y-74490219D01*
X160042914Y-74490219D02*
X159709581Y-74871171D01*
X159709581Y-74871171D02*
X159852438Y-74871171D01*
X159852438Y-74871171D02*
X159947676Y-74918790D01*
X159947676Y-74918790D02*
X159995295Y-74966409D01*
X159995295Y-74966409D02*
X160042914Y-75061647D01*
X160042914Y-75061647D02*
X160042914Y-75299742D01*
X160042914Y-75299742D02*
X159995295Y-75394980D01*
X159995295Y-75394980D02*
X159947676Y-75442600D01*
X159947676Y-75442600D02*
X159852438Y-75490219D01*
X159852438Y-75490219D02*
X159566724Y-75490219D01*
X159566724Y-75490219D02*
X159471486Y-75442600D01*
X159471486Y-75442600D02*
X159423867Y-75394980D01*
X123853580Y-102449857D02*
X123901200Y-102497476D01*
X123901200Y-102497476D02*
X123948819Y-102640333D01*
X123948819Y-102640333D02*
X123948819Y-102735571D01*
X123948819Y-102735571D02*
X123901200Y-102878428D01*
X123901200Y-102878428D02*
X123805961Y-102973666D01*
X123805961Y-102973666D02*
X123710723Y-103021285D01*
X123710723Y-103021285D02*
X123520247Y-103068904D01*
X123520247Y-103068904D02*
X123377390Y-103068904D01*
X123377390Y-103068904D02*
X123186914Y-103021285D01*
X123186914Y-103021285D02*
X123091676Y-102973666D01*
X123091676Y-102973666D02*
X122996438Y-102878428D01*
X122996438Y-102878428D02*
X122948819Y-102735571D01*
X122948819Y-102735571D02*
X122948819Y-102640333D01*
X122948819Y-102640333D02*
X122996438Y-102497476D01*
X122996438Y-102497476D02*
X123044057Y-102449857D01*
X122948819Y-102116523D02*
X122948819Y-101497476D01*
X122948819Y-101497476D02*
X123329771Y-101830809D01*
X123329771Y-101830809D02*
X123329771Y-101687952D01*
X123329771Y-101687952D02*
X123377390Y-101592714D01*
X123377390Y-101592714D02*
X123425009Y-101545095D01*
X123425009Y-101545095D02*
X123520247Y-101497476D01*
X123520247Y-101497476D02*
X123758342Y-101497476D01*
X123758342Y-101497476D02*
X123853580Y-101545095D01*
X123853580Y-101545095D02*
X123901200Y-101592714D01*
X123901200Y-101592714D02*
X123948819Y-101687952D01*
X123948819Y-101687952D02*
X123948819Y-101973666D01*
X123948819Y-101973666D02*
X123901200Y-102068904D01*
X123901200Y-102068904D02*
X123853580Y-102116523D01*
X122948819Y-100592714D02*
X122948819Y-101068904D01*
X122948819Y-101068904D02*
X123425009Y-101116523D01*
X123425009Y-101116523D02*
X123377390Y-101068904D01*
X123377390Y-101068904D02*
X123329771Y-100973666D01*
X123329771Y-100973666D02*
X123329771Y-100735571D01*
X123329771Y-100735571D02*
X123377390Y-100640333D01*
X123377390Y-100640333D02*
X123425009Y-100592714D01*
X123425009Y-100592714D02*
X123520247Y-100545095D01*
X123520247Y-100545095D02*
X123758342Y-100545095D01*
X123758342Y-100545095D02*
X123853580Y-100592714D01*
X123853580Y-100592714D02*
X123901200Y-100640333D01*
X123901200Y-100640333D02*
X123948819Y-100735571D01*
X123948819Y-100735571D02*
X123948819Y-100973666D01*
X123948819Y-100973666D02*
X123901200Y-101068904D01*
X123901200Y-101068904D02*
X123853580Y-101116523D01*
X157762580Y-100017866D02*
X157810200Y-100065485D01*
X157810200Y-100065485D02*
X157857819Y-100208342D01*
X157857819Y-100208342D02*
X157857819Y-100303580D01*
X157857819Y-100303580D02*
X157810200Y-100446437D01*
X157810200Y-100446437D02*
X157714961Y-100541675D01*
X157714961Y-100541675D02*
X157619723Y-100589294D01*
X157619723Y-100589294D02*
X157429247Y-100636913D01*
X157429247Y-100636913D02*
X157286390Y-100636913D01*
X157286390Y-100636913D02*
X157095914Y-100589294D01*
X157095914Y-100589294D02*
X157000676Y-100541675D01*
X157000676Y-100541675D02*
X156905438Y-100446437D01*
X156905438Y-100446437D02*
X156857819Y-100303580D01*
X156857819Y-100303580D02*
X156857819Y-100208342D01*
X156857819Y-100208342D02*
X156905438Y-100065485D01*
X156905438Y-100065485D02*
X156953057Y-100017866D01*
X157191152Y-99160723D02*
X157857819Y-99160723D01*
X156810200Y-99398818D02*
X157524485Y-99636913D01*
X157524485Y-99636913D02*
X157524485Y-99017866D01*
X106410933Y-82195819D02*
X106077600Y-81719628D01*
X105839505Y-82195819D02*
X105839505Y-81195819D01*
X105839505Y-81195819D02*
X106220457Y-81195819D01*
X106220457Y-81195819D02*
X106315695Y-81243438D01*
X106315695Y-81243438D02*
X106363314Y-81291057D01*
X106363314Y-81291057D02*
X106410933Y-81386295D01*
X106410933Y-81386295D02*
X106410933Y-81529152D01*
X106410933Y-81529152D02*
X106363314Y-81624390D01*
X106363314Y-81624390D02*
X106315695Y-81672009D01*
X106315695Y-81672009D02*
X106220457Y-81719628D01*
X106220457Y-81719628D02*
X105839505Y-81719628D01*
X106982362Y-81624390D02*
X106887124Y-81576771D01*
X106887124Y-81576771D02*
X106839505Y-81529152D01*
X106839505Y-81529152D02*
X106791886Y-81433914D01*
X106791886Y-81433914D02*
X106791886Y-81386295D01*
X106791886Y-81386295D02*
X106839505Y-81291057D01*
X106839505Y-81291057D02*
X106887124Y-81243438D01*
X106887124Y-81243438D02*
X106982362Y-81195819D01*
X106982362Y-81195819D02*
X107172838Y-81195819D01*
X107172838Y-81195819D02*
X107268076Y-81243438D01*
X107268076Y-81243438D02*
X107315695Y-81291057D01*
X107315695Y-81291057D02*
X107363314Y-81386295D01*
X107363314Y-81386295D02*
X107363314Y-81433914D01*
X107363314Y-81433914D02*
X107315695Y-81529152D01*
X107315695Y-81529152D02*
X107268076Y-81576771D01*
X107268076Y-81576771D02*
X107172838Y-81624390D01*
X107172838Y-81624390D02*
X106982362Y-81624390D01*
X106982362Y-81624390D02*
X106887124Y-81672009D01*
X106887124Y-81672009D02*
X106839505Y-81719628D01*
X106839505Y-81719628D02*
X106791886Y-81814866D01*
X106791886Y-81814866D02*
X106791886Y-82005342D01*
X106791886Y-82005342D02*
X106839505Y-82100580D01*
X106839505Y-82100580D02*
X106887124Y-82148200D01*
X106887124Y-82148200D02*
X106982362Y-82195819D01*
X106982362Y-82195819D02*
X107172838Y-82195819D01*
X107172838Y-82195819D02*
X107268076Y-82148200D01*
X107268076Y-82148200D02*
X107315695Y-82100580D01*
X107315695Y-82100580D02*
X107363314Y-82005342D01*
X107363314Y-82005342D02*
X107363314Y-81814866D01*
X107363314Y-81814866D02*
X107315695Y-81719628D01*
X107315695Y-81719628D02*
X107268076Y-81672009D01*
X107268076Y-81672009D02*
X107172838Y-81624390D01*
%TO.C,R13*%
D11*
X120828000Y-72062359D02*
X120828000Y-72369641D01*
X121588000Y-72062359D02*
X121588000Y-72369641D01*
%TO.C,U2*%
X108498000Y-75113000D02*
X108593000Y-75113000D01*
X108498000Y-79233000D02*
X108498000Y-75113000D01*
X108593000Y-79233000D02*
X108498000Y-79233000D01*
X113523000Y-75113000D02*
X113618000Y-75113000D01*
X113618000Y-75113000D02*
X113618000Y-79233000D01*
X113618000Y-79233000D02*
X113523000Y-79233000D01*
X113528000Y-74573000D02*
X113858000Y-74333000D01*
X113858000Y-74813000D01*
X113528000Y-74573000D01*
G36*
X113858000Y-74813000D02*
G01*
X113528000Y-74573000D01*
X113858000Y-74333000D01*
X113858000Y-74813000D01*
G37*
%TO.C,C23*%
X132085436Y-71797000D02*
X131869764Y-71797000D01*
X132085436Y-72517000D02*
X131869764Y-72517000D01*
%TO.C,C18*%
X118695000Y-70826252D02*
X118695000Y-70303748D01*
X120165000Y-70826252D02*
X120165000Y-70303748D01*
%TO.C,J10*%
X145120000Y-111336000D02*
X145730000Y-111336000D01*
X145120000Y-112636000D02*
X145730000Y-112636000D01*
X145730000Y-109836000D02*
X145730000Y-113336000D01*
X145730000Y-113336000D02*
X147680000Y-113336000D01*
X147680000Y-113336000D02*
X147680000Y-113946000D01*
X148080000Y-110336000D02*
X148080000Y-109836000D01*
X148180000Y-109836000D02*
X148180000Y-110336000D01*
X148280000Y-109836000D02*
X148280000Y-110336000D01*
X148280000Y-110336000D02*
X148080000Y-110336000D01*
X150080000Y-110336000D02*
X150080000Y-109836000D01*
X150180000Y-109836000D02*
X150180000Y-110336000D01*
X150280000Y-109836000D02*
X150280000Y-110336000D01*
X150280000Y-110336000D02*
X150080000Y-110336000D01*
X152080000Y-110336000D02*
X152080000Y-109836000D01*
X152180000Y-109836000D02*
X152180000Y-110336000D01*
X152280000Y-109836000D02*
X152280000Y-110336000D01*
X152280000Y-110336000D02*
X152080000Y-110336000D01*
X154080000Y-110336000D02*
X154080000Y-109836000D01*
X154180000Y-109836000D02*
X154180000Y-110336000D01*
X154280000Y-109836000D02*
X154280000Y-110336000D01*
X154280000Y-110336000D02*
X154080000Y-110336000D01*
X154680000Y-113336000D02*
X156630000Y-113336000D01*
X154680000Y-113946000D02*
X154680000Y-113336000D01*
X155480000Y-113946000D02*
X155480000Y-114146000D01*
X155480000Y-114046000D02*
X155780000Y-114046000D01*
X155480000Y-114146000D02*
X155780000Y-114146000D01*
X155780000Y-114146000D02*
X155780000Y-113946000D01*
X156290000Y-114246000D02*
X157540000Y-114246000D01*
X156630000Y-109836000D02*
X145730000Y-109836000D01*
X156630000Y-113336000D02*
X156630000Y-109836000D01*
X157240000Y-111336000D02*
X156630000Y-111336000D01*
X157240000Y-112636000D02*
X156630000Y-112636000D01*
X157540000Y-114246000D02*
X157540000Y-112996000D01*
X145120000Y-109226000D02*
X157240000Y-109226000D01*
X157240000Y-113946000D01*
X145120000Y-113946000D01*
X145120000Y-109226000D01*
%TO.C,R11*%
X111003000Y-83670641D02*
X111003000Y-83363359D01*
X111763000Y-83670641D02*
X111763000Y-83363359D01*
%TO.C,R7*%
X110566641Y-72344000D02*
X110259359Y-72344000D01*
X110566641Y-73104000D02*
X110259359Y-73104000D01*
%TO.C,C30*%
X126784748Y-93548000D02*
X128207252Y-93548000D01*
X126784748Y-95368000D02*
X128207252Y-95368000D01*
%TO.C,C7*%
X111675748Y-70465000D02*
X112198252Y-70465000D01*
X111675748Y-71935000D02*
X112198252Y-71935000D01*
%TO.C,R16*%
X132101241Y-70507000D02*
X131793959Y-70507000D01*
X132101241Y-71267000D02*
X131793959Y-71267000D01*
%TO.C,C2*%
X156362164Y-73380000D02*
X156577836Y-73380000D01*
X156362164Y-74100000D02*
X156577836Y-74100000D01*
%TO.C,L2*%
X130230000Y-62070000D02*
X131630000Y-62070000D01*
X130230000Y-69290000D02*
X130230000Y-62070000D01*
X131630000Y-69290000D02*
X130230000Y-69290000D01*
X135650000Y-62070000D02*
X137050000Y-62070000D01*
X137050000Y-62070000D02*
X137050000Y-69290000D01*
X137050000Y-69290000D02*
X135650000Y-69290000D01*
%TO.C,C31*%
X126655420Y-110060000D02*
X126936580Y-110060000D01*
X126655420Y-111080000D02*
X126936580Y-111080000D01*
%TO.C,R14*%
X129718000Y-74090641D02*
X129718000Y-73783359D01*
X130478000Y-74090641D02*
X130478000Y-73783359D01*
%TO.C,R18*%
X135786359Y-87795000D02*
X136093641Y-87795000D01*
X135786359Y-88555000D02*
X136093641Y-88555000D01*
%TO.C,C46*%
X152328000Y-73085836D02*
X152328000Y-72870164D01*
X153048000Y-73085836D02*
X153048000Y-72870164D01*
%TO.C,U3*%
X123833000Y-68962000D02*
X127953000Y-68962000D01*
X123833000Y-69057000D02*
X123833000Y-68962000D01*
X123833000Y-74082000D02*
X123833000Y-73987000D01*
X127953000Y-68962000D02*
X127953000Y-69057000D01*
X127953000Y-73987000D02*
X127953000Y-74082000D01*
X127953000Y-74082000D02*
X123833000Y-74082000D01*
X123293000Y-69052000D02*
X123053000Y-68722000D01*
X123533000Y-68722000D01*
X123293000Y-69052000D01*
G36*
X123293000Y-69052000D02*
G01*
X123053000Y-68722000D01*
X123533000Y-68722000D01*
X123293000Y-69052000D01*
G37*
%TO.C,J3*%
X147582000Y-55755000D02*
X147582000Y-57005000D01*
X147882000Y-57365000D02*
X148492000Y-57365000D01*
X147882000Y-58665000D02*
X148492000Y-58665000D01*
X148492000Y-56665000D02*
X148492000Y-60165000D01*
X148492000Y-60165000D02*
X157392000Y-60165000D01*
X148832000Y-55755000D02*
X147582000Y-55755000D01*
X149342000Y-55855000D02*
X149342000Y-56055000D01*
X149642000Y-55855000D02*
X149342000Y-55855000D01*
X149642000Y-55955000D02*
X149342000Y-55955000D01*
X149642000Y-56055000D02*
X149642000Y-55855000D01*
X150442000Y-56055000D02*
X150442000Y-56665000D01*
X150442000Y-56665000D02*
X148492000Y-56665000D01*
X150842000Y-59665000D02*
X151042000Y-59665000D01*
X150842000Y-60165000D02*
X150842000Y-59665000D01*
X150942000Y-60165000D02*
X150942000Y-59665000D01*
X151042000Y-59665000D02*
X151042000Y-60165000D01*
X152842000Y-59665000D02*
X153042000Y-59665000D01*
X152842000Y-60165000D02*
X152842000Y-59665000D01*
X152942000Y-60165000D02*
X152942000Y-59665000D01*
X153042000Y-59665000D02*
X153042000Y-60165000D01*
X154842000Y-59665000D02*
X155042000Y-59665000D01*
X154842000Y-60165000D02*
X154842000Y-59665000D01*
X154942000Y-60165000D02*
X154942000Y-59665000D01*
X155042000Y-59665000D02*
X155042000Y-60165000D01*
X155442000Y-56665000D02*
X155442000Y-56055000D01*
X157392000Y-56665000D02*
X155442000Y-56665000D01*
X157392000Y-60165000D02*
X157392000Y-56665000D01*
X158002000Y-57365000D02*
X157392000Y-57365000D01*
X158002000Y-58665000D02*
X157392000Y-58665000D01*
X147882000Y-56055000D02*
X158002000Y-56055000D01*
X158002000Y-60775000D01*
X147882000Y-60775000D01*
X147882000Y-56055000D01*
%TO.C,C22*%
X126705748Y-60891000D02*
X128128252Y-60891000D01*
X126705748Y-63611000D02*
X128128252Y-63611000D01*
%TO.C,R1*%
X155610000Y-97769641D02*
X155610000Y-97462359D01*
X156370000Y-97769641D02*
X156370000Y-97462359D01*
%TO.C,J1*%
X115266000Y-45239000D02*
X124466000Y-45239000D01*
X115266000Y-54239000D02*
X115266000Y-45239000D01*
X115266000Y-59839000D02*
X115266000Y-57839000D01*
X118066000Y-59839000D02*
X115266000Y-59839000D01*
X124466000Y-45239000D02*
X124466000Y-59839000D01*
X124466000Y-59839000D02*
X121666000Y-59839000D01*
X124706000Y-58339000D02*
X124706000Y-60079000D01*
X124706000Y-60079000D02*
X122966000Y-60079000D01*
%TO.C,C42*%
X107386000Y-76006836D02*
X107386000Y-75791164D01*
X108106000Y-76006836D02*
X108106000Y-75791164D01*
%TO.C,R9*%
X108661641Y-72344000D02*
X108354359Y-72344000D01*
X108661641Y-73104000D02*
X108354359Y-73104000D01*
%TO.C,R15*%
X120828000Y-74094359D02*
X120828000Y-74401641D01*
X121588000Y-74094359D02*
X121588000Y-74401641D01*
%TO.C,R4*%
X140370000Y-95864641D02*
X140370000Y-95557359D01*
X141130000Y-95864641D02*
X141130000Y-95557359D01*
%TO.C,C26*%
X132913000Y-108596164D02*
X132913000Y-108811836D01*
X133633000Y-108596164D02*
X133633000Y-108811836D01*
%TO.C,L3*%
X114500000Y-106398000D02*
X121820000Y-106398000D01*
X114500000Y-107848000D02*
X114500000Y-106398000D01*
X114500000Y-113218000D02*
X114500000Y-111768000D01*
X121820000Y-106398000D02*
X121820000Y-107848000D01*
X121820000Y-111768000D02*
X121820000Y-113218000D01*
X121820000Y-113218000D02*
X114500000Y-113218000D01*
%TO.C,J2*%
X105213000Y-108362000D02*
X105213000Y-109612000D01*
X105213000Y-109612000D02*
X106463000Y-109612000D01*
X105313000Y-107552000D02*
X105313000Y-107852000D01*
X105313000Y-107852000D02*
X105513000Y-107852000D01*
X105413000Y-107552000D02*
X105413000Y-107852000D01*
X105513000Y-106752000D02*
X106123000Y-106752000D01*
X105513000Y-107552000D02*
X105313000Y-107552000D01*
X106123000Y-103802000D02*
X106123000Y-105752000D01*
X106123000Y-105752000D02*
X105513000Y-105752000D01*
X106123000Y-106752000D02*
X106123000Y-108702000D01*
X106123000Y-108702000D02*
X109623000Y-108702000D01*
X106823000Y-103192000D02*
X106823000Y-103802000D01*
X106823000Y-109312000D02*
X106823000Y-108702000D01*
X108123000Y-103192000D02*
X108123000Y-103802000D01*
X108123000Y-109312000D02*
X108123000Y-108702000D01*
X109123000Y-106152000D02*
X109623000Y-106152000D01*
X109123000Y-106352000D02*
X109123000Y-106152000D01*
X109623000Y-103802000D02*
X106123000Y-103802000D01*
X109623000Y-106252000D02*
X109123000Y-106252000D01*
X109623000Y-106352000D02*
X109123000Y-106352000D01*
X109623000Y-108702000D02*
X109623000Y-103802000D01*
X105513000Y-103192000D02*
X110233000Y-103192000D01*
X110233000Y-109312000D01*
X105513000Y-109312000D01*
X105513000Y-103192000D01*
%TO.C,C5*%
X153344000Y-73085836D02*
X153344000Y-72870164D01*
X154064000Y-73085836D02*
X154064000Y-72870164D01*
%TO.C,C6*%
X153360000Y-97478164D02*
X153360000Y-97693836D01*
X154080000Y-97478164D02*
X154080000Y-97693836D01*
%TO.C,D1*%
X114986000Y-81158000D02*
X114986000Y-75648000D01*
X114986000Y-81158000D02*
X118286000Y-81158000D01*
X118286000Y-81158000D02*
X118286000Y-75648000D01*
%TO.C,C16*%
X111010836Y-81381000D02*
X110795164Y-81381000D01*
X111010836Y-82101000D02*
X110795164Y-82101000D01*
%TO.C,R19*%
X135786359Y-86525000D02*
X136093641Y-86525000D01*
X135786359Y-87285000D02*
X136093641Y-87285000D01*
%TO.C,U6*%
X139553000Y-103293500D02*
X139603000Y-103293500D01*
X139553000Y-105113500D02*
X139553000Y-103293500D01*
X139603000Y-105113500D02*
X139553000Y-105113500D01*
X141503000Y-105113500D02*
X140723000Y-105113500D01*
X142623000Y-103293500D02*
X142673000Y-103293500D01*
X142673000Y-103293500D02*
X142673000Y-105113500D01*
X142673000Y-105113500D02*
X142623000Y-105113500D01*
X142623000Y-102753500D02*
X142953000Y-102513500D01*
X142953000Y-102993500D01*
X142623000Y-102753500D01*
G36*
X142953000Y-102993500D02*
G01*
X142623000Y-102753500D01*
X142953000Y-102513500D01*
X142953000Y-102993500D01*
G37*
%TO.C,C41*%
X105995000Y-63780252D02*
X105995000Y-63257748D01*
X107465000Y-63780252D02*
X107465000Y-63257748D01*
%TO.C,C11*%
X118959000Y-78108748D02*
X118959000Y-79531252D01*
X121679000Y-78108748D02*
X121679000Y-79531252D01*
%TO.C,C43*%
X124005836Y-74337000D02*
X123790164Y-74337000D01*
X124005836Y-75057000D02*
X123790164Y-75057000D01*
%TO.C,C13*%
X121354164Y-64109000D02*
X121569836Y-64109000D01*
X121354164Y-64829000D02*
X121569836Y-64829000D01*
%TO.C,D3*%
X129878000Y-64030000D02*
X124368000Y-64030000D01*
X129878000Y-67330000D02*
X124368000Y-67330000D01*
X129878000Y-67330000D02*
X129878000Y-64030000D01*
%TO.C,J9*%
X136103000Y-111294000D02*
X136713000Y-111294000D01*
X136103000Y-112594000D02*
X136713000Y-112594000D01*
X136713000Y-109794000D02*
X136713000Y-113294000D01*
X136713000Y-113294000D02*
X138663000Y-113294000D01*
X138663000Y-113294000D02*
X138663000Y-113904000D01*
X139063000Y-110294000D02*
X139063000Y-109794000D01*
X139163000Y-109794000D02*
X139163000Y-110294000D01*
X139263000Y-109794000D02*
X139263000Y-110294000D01*
X139263000Y-110294000D02*
X139063000Y-110294000D01*
X141063000Y-110294000D02*
X141063000Y-109794000D01*
X141163000Y-109794000D02*
X141163000Y-110294000D01*
X141263000Y-109794000D02*
X141263000Y-110294000D01*
X141263000Y-110294000D02*
X141063000Y-110294000D01*
X141663000Y-113294000D02*
X143613000Y-113294000D01*
X141663000Y-113904000D02*
X141663000Y-113294000D01*
X142463000Y-113904000D02*
X142463000Y-114104000D01*
X142463000Y-114004000D02*
X142763000Y-114004000D01*
X142463000Y-114104000D02*
X142763000Y-114104000D01*
X142763000Y-114104000D02*
X142763000Y-113904000D01*
X143273000Y-114204000D02*
X144523000Y-114204000D01*
X143613000Y-109794000D02*
X136713000Y-109794000D01*
X143613000Y-113294000D02*
X143613000Y-109794000D01*
X144223000Y-111294000D02*
X143613000Y-111294000D01*
X144223000Y-112594000D02*
X143613000Y-112594000D01*
X144523000Y-114204000D02*
X144523000Y-112954000D01*
X136103000Y-109184000D02*
X144223000Y-109184000D01*
X144223000Y-113904000D01*
X136103000Y-113904000D01*
X136103000Y-109184000D01*
%TO.C,C44*%
X126784748Y-113978000D02*
X128207252Y-113978000D01*
X126784748Y-115798000D02*
X128207252Y-115798000D01*
%TO.C,F1*%
X118784252Y-62759000D02*
X116011748Y-62759000D01*
X118784252Y-66179000D02*
X116011748Y-66179000D01*
%TO.C,C19*%
X120848000Y-70291836D02*
X120848000Y-70076164D01*
X121568000Y-70291836D02*
X121568000Y-70076164D01*
%TO.C,C39*%
X138882000Y-65377164D02*
X138882000Y-65592836D01*
X139602000Y-65377164D02*
X139602000Y-65592836D01*
%TO.C,C1*%
X156624420Y-71807600D02*
X156905580Y-71807600D01*
X156624420Y-72827600D02*
X156905580Y-72827600D01*
%TO.C,L4*%
X114500000Y-99286000D02*
X121820000Y-99286000D01*
X114500000Y-100736000D02*
X114500000Y-99286000D01*
X114500000Y-106106000D02*
X114500000Y-104656000D01*
X121820000Y-99286000D02*
X121820000Y-100736000D01*
X121820000Y-104656000D02*
X121820000Y-106106000D01*
X121820000Y-106106000D02*
X114500000Y-106106000D01*
%TO.C,R2*%
X154340000Y-72824359D02*
X154340000Y-73131641D01*
X155100000Y-72824359D02*
X155100000Y-73131641D01*
%TO.C,U1*%
X139050000Y-75800000D02*
X139050000Y-77300000D01*
X139050000Y-94200000D02*
X139050000Y-92700000D01*
X139050000Y-94200000D02*
X140050000Y-94200000D01*
X140050000Y-75800000D02*
X139050000Y-75800000D01*
X164900000Y-75800000D02*
X158700000Y-75800000D01*
X164900000Y-75800000D02*
X164900000Y-94200000D01*
X164900000Y-94200000D02*
X158700000Y-94200000D01*
X158025000Y-75800000D02*
X158025000Y-75300000D01*
X158525000Y-75800000D01*
X158025000Y-75800000D01*
G36*
X158525000Y-75800000D02*
G01*
X158025000Y-75800000D01*
X158025000Y-75300000D01*
X158525000Y-75800000D01*
G37*
%TO.C,C25*%
X134033000Y-109032420D02*
X134033000Y-109313580D01*
X135053000Y-109032420D02*
X135053000Y-109313580D01*
%TO.C,C20*%
X127780164Y-67919000D02*
X127995836Y-67919000D01*
X127780164Y-68639000D02*
X127995836Y-68639000D01*
%TO.C,C17*%
X116663000Y-70826252D02*
X116663000Y-70303748D01*
X118133000Y-70826252D02*
X118133000Y-70303748D01*
%TO.C,C24*%
X129788800Y-71569164D02*
X129788800Y-71784836D01*
X130508800Y-71569164D02*
X130508800Y-71784836D01*
%TO.C,R22*%
X153562000Y-62971641D02*
X153562000Y-62664359D01*
X154322000Y-62971641D02*
X154322000Y-62664359D01*
%TO.C,C27*%
X114054000Y-90098000D02*
X114054000Y-92948000D01*
X114054000Y-98818000D02*
X114054000Y-95968000D01*
X121709563Y-90098000D02*
X114054000Y-90098000D01*
X121709563Y-98818000D02*
X114054000Y-98818000D01*
X122774000Y-91162437D02*
X121709563Y-90098000D01*
X122774000Y-91162437D02*
X122774000Y-92948000D01*
X122774000Y-97753563D02*
X121709563Y-98818000D01*
X122774000Y-97753563D02*
X122774000Y-95968000D01*
X123514000Y-97468000D02*
X123514000Y-96468000D01*
X124014000Y-96968000D02*
X123014000Y-96968000D01*
%TO.C,U4*%
X126573500Y-99689000D02*
X126923500Y-99689000D01*
X126573500Y-99964000D02*
X126573500Y-99689000D01*
X126573500Y-109609000D02*
X126573500Y-109334000D01*
X126923500Y-109609000D02*
X126573500Y-109609000D01*
X130843500Y-99689000D02*
X131193500Y-99689000D01*
X131193500Y-99689000D02*
X131193500Y-99964000D01*
X131193500Y-109334000D02*
X131193500Y-109609000D01*
X131193500Y-109609000D02*
X130843500Y-109609000D01*
X131833500Y-109339000D02*
X132173500Y-109809000D01*
X131493500Y-109809000D01*
X131833500Y-109339000D01*
G36*
X132173500Y-109809000D02*
G01*
X131493500Y-109809000D01*
X131833500Y-109339000D01*
X132173500Y-109809000D01*
G37*
%TO.C,C15*%
X110063000Y-83644836D02*
X110063000Y-83429164D01*
X110783000Y-83644836D02*
X110783000Y-83429164D01*
%TO.C,C9*%
X112210164Y-72364000D02*
X112425836Y-72364000D01*
X112210164Y-73084000D02*
X112425836Y-73084000D01*
%TO.C,C32*%
X126655420Y-98249000D02*
X126936580Y-98249000D01*
X126655420Y-99269000D02*
X126936580Y-99269000D01*
%TO.C,C38*%
X132913000Y-100701836D02*
X132913000Y-100486164D01*
X133633000Y-100701836D02*
X133633000Y-100486164D01*
%TO.C,J5*%
X138184000Y-55755000D02*
X138184000Y-57005000D01*
X138484000Y-57365000D02*
X139094000Y-57365000D01*
X138484000Y-58665000D02*
X139094000Y-58665000D01*
X139094000Y-56665000D02*
X139094000Y-60165000D01*
X139094000Y-60165000D02*
X145994000Y-60165000D01*
X139434000Y-55755000D02*
X138184000Y-55755000D01*
X139944000Y-55855000D02*
X139944000Y-56055000D01*
X140244000Y-55855000D02*
X139944000Y-55855000D01*
X140244000Y-55955000D02*
X139944000Y-55955000D01*
X140244000Y-56055000D02*
X140244000Y-55855000D01*
X141044000Y-56055000D02*
X141044000Y-56665000D01*
X141044000Y-56665000D02*
X139094000Y-56665000D01*
X141444000Y-59665000D02*
X141644000Y-59665000D01*
X141444000Y-60165000D02*
X141444000Y-59665000D01*
X141544000Y-60165000D02*
X141544000Y-59665000D01*
X141644000Y-59665000D02*
X141644000Y-60165000D01*
X143444000Y-59665000D02*
X143644000Y-59665000D01*
X143444000Y-60165000D02*
X143444000Y-59665000D01*
X143544000Y-60165000D02*
X143544000Y-59665000D01*
X143644000Y-59665000D02*
X143644000Y-60165000D01*
X144044000Y-56665000D02*
X144044000Y-56055000D01*
X145994000Y-56665000D02*
X144044000Y-56665000D01*
X145994000Y-60165000D02*
X145994000Y-56665000D01*
X146604000Y-57365000D02*
X145994000Y-57365000D01*
X146604000Y-58665000D02*
X145994000Y-58665000D01*
X138484000Y-56055000D02*
X146604000Y-56055000D01*
X146604000Y-60775000D01*
X138484000Y-60775000D01*
X138484000Y-56055000D01*
%TO.C,R12*%
X108765000Y-83363359D02*
X108765000Y-83670641D01*
X109525000Y-83363359D02*
X109525000Y-83670641D01*
%TO.C,D2*%
X109906000Y-65979000D02*
X109906000Y-60469000D01*
X109906000Y-65979000D02*
X113206000Y-65979000D01*
X113206000Y-65979000D02*
X113206000Y-60469000D01*
%TO.C,C14*%
X108275000Y-64096836D02*
X108275000Y-63881164D01*
X108995000Y-64096836D02*
X108995000Y-63881164D01*
%TO.C,C37*%
X133673164Y-106564000D02*
X133888836Y-106564000D01*
X133673164Y-107284000D02*
X133888836Y-107284000D01*
%TO.C,C12*%
X122261000Y-78108748D02*
X122261000Y-79531252D01*
X124981000Y-78108748D02*
X124981000Y-79531252D01*
%TO.C,C34*%
X111535000Y-111994252D02*
X111535000Y-110571748D01*
X113355000Y-111994252D02*
X113355000Y-110571748D01*
%TO.C,C29*%
X114435000Y-114101000D02*
X114435000Y-116951000D01*
X114435000Y-122821000D02*
X114435000Y-119971000D01*
X122090563Y-114101000D02*
X114435000Y-114101000D01*
X122090563Y-122821000D02*
X114435000Y-122821000D01*
X123155000Y-115165437D02*
X122090563Y-114101000D01*
X123155000Y-115165437D02*
X123155000Y-116951000D01*
X123155000Y-121756563D02*
X122090563Y-122821000D01*
X123155000Y-121756563D02*
X123155000Y-119971000D01*
X123895000Y-121471000D02*
X123895000Y-120471000D01*
X124395000Y-120971000D02*
X123395000Y-120971000D01*
%TO.C,R21*%
X139783000Y-107495359D02*
X139783000Y-107802641D01*
X140543000Y-107495359D02*
X140543000Y-107802641D01*
%TO.C,R5*%
X135786359Y-90335000D02*
X136093641Y-90335000D01*
X135786359Y-91095000D02*
X136093641Y-91095000D01*
%TO.C,C8*%
X111675748Y-68433000D02*
X112198252Y-68433000D01*
X111675748Y-69903000D02*
X112198252Y-69903000D01*
%TO.C,R20*%
X142164000Y-62082641D02*
X142164000Y-61775359D01*
X142924000Y-62082641D02*
X142924000Y-61775359D01*
%TO.C,R6*%
X135786359Y-89065000D02*
X136093641Y-89065000D01*
X135786359Y-89825000D02*
X136093641Y-89825000D01*
%TO.C,FB1*%
X125311000Y-90245422D02*
X125311000Y-90762578D01*
X126731000Y-90245422D02*
X126731000Y-90762578D01*
%TO.C,C33*%
X122984000Y-107558420D02*
X122984000Y-107839580D01*
X124004000Y-107558420D02*
X124004000Y-107839580D01*
%TO.C,C21*%
X126705748Y-57589000D02*
X128128252Y-57589000D01*
X126705748Y-60309000D02*
X128128252Y-60309000D01*
%TO.C,C10*%
X113990000Y-79060164D02*
X113990000Y-79275836D01*
X114710000Y-79060164D02*
X114710000Y-79275836D01*
%TO.C,C28*%
X126784748Y-111565000D02*
X128207252Y-111565000D01*
X126784748Y-113385000D02*
X128207252Y-113385000D01*
%TO.C,U5*%
X139968000Y-64575000D02*
X140018000Y-64575000D01*
X139968000Y-66395000D02*
X139968000Y-64575000D01*
X140018000Y-66395000D02*
X139968000Y-66395000D01*
X141138000Y-64575000D02*
X141918000Y-64575000D01*
X143038000Y-64575000D02*
X143088000Y-64575000D01*
X143088000Y-64575000D02*
X143088000Y-66395000D01*
X143088000Y-66395000D02*
X143038000Y-66395000D01*
X140018000Y-66935000D02*
X139688000Y-67175000D01*
X139688000Y-66695000D01*
X140018000Y-66935000D01*
G36*
X140018000Y-66935000D02*
G01*
X139688000Y-67175000D01*
X139688000Y-66695000D01*
X140018000Y-66935000D01*
G37*
%TO.C,C36*%
X111535000Y-100509748D02*
X111535000Y-101932252D01*
X113355000Y-100509748D02*
X113355000Y-101932252D01*
%TO.C,R17*%
X131793959Y-73047000D02*
X132101241Y-73047000D01*
X131793959Y-73807000D02*
X132101241Y-73807000D01*
%TO.C,C40*%
X143073000Y-104311336D02*
X143073000Y-104095664D01*
X143793000Y-104311336D02*
X143793000Y-104095664D01*
%TO.C,R3*%
X154340000Y-97769641D02*
X154340000Y-97462359D01*
X155100000Y-97769641D02*
X155100000Y-97462359D01*
%TO.C,L1*%
X113153000Y-81404400D02*
X120373000Y-81404400D01*
X113153000Y-82804400D02*
X113153000Y-81404400D01*
X113153000Y-88224400D02*
X113153000Y-86824400D01*
X120373000Y-81404400D02*
X120373000Y-82804400D01*
X120373000Y-86824400D02*
X120373000Y-88224400D01*
X120373000Y-88224400D02*
X113153000Y-88224400D01*
%TO.C,C45*%
X126784748Y-95961000D02*
X128207252Y-95961000D01*
X126784748Y-97781000D02*
X128207252Y-97781000D01*
%TO.C,C3*%
X156362164Y-74396000D02*
X156577836Y-74396000D01*
X156362164Y-75116000D02*
X156577836Y-75116000D01*
%TO.C,C35*%
X122984000Y-104708420D02*
X122984000Y-104989580D01*
X124004000Y-104708420D02*
X124004000Y-104989580D01*
%TO.C,C4*%
X156662000Y-97508164D02*
X156662000Y-97723836D01*
X157382000Y-97508164D02*
X157382000Y-97723836D01*
%TO.C,R8*%
X108481359Y-81361000D02*
X108788641Y-81361000D01*
X108481359Y-82121000D02*
X108788641Y-82121000D01*
%TD*%
M02*
