M48
; DRILL file KiCad 10.0.3 date 2026-07-15T11:41:43
; FORMAT={-:-/ absolute / metric / decimal}
; #@! TF.CreationDate,2026-07-15T11:41:43-04:00
; #@! TF.GenerationSoftware,Kicad,Pcbnew,10.0.3
; #@! TF.FileFunction,MixedPlating,1,4
FMAT,2
METRIC
; #@! TA.AperFunction,Plated,PTH,ComponentDrill
T1C0.200
; #@! TA.AperFunction,Plated,PTH,ViaDrill
T2C0.305
; #@! TA.AperFunction,Plated,PTH,ComponentDrill
T3C0.750
; #@! TA.AperFunction,Plated,PTH,ComponentDrill
T4C1.600
; #@! TA.AperFunction,NonPlated,NPTH,ComponentDrill
T5C3.500
%
G90
G05
T1
X127.683Y-100.449
X127.683Y-101.649
X127.683Y-102.849
X127.683Y-104.049
X127.683Y-105.249
X127.683Y-106.449
X127.683Y-107.649
X127.683Y-108.849
X128.883Y-100.449
X128.883Y-101.649
X128.883Y-102.849
X128.883Y-104.049
X128.883Y-105.249
X128.883Y-106.449
X128.883Y-107.649
X128.883Y-108.849
X130.083Y-100.449
X130.083Y-101.649
X130.083Y-102.849
X130.083Y-104.049
X130.083Y-105.249
X130.083Y-106.449
X130.083Y-107.649
X130.083Y-108.849
X148.14Y-82.8
X148.14Y-84.2
X148.84Y-82.1
X148.84Y-83.5
X148.84Y-84.9
X149.54Y-82.8
X149.54Y-84.2
X150.24Y-82.1
X150.24Y-83.5
X150.24Y-84.9
X150.94Y-82.8
X150.94Y-84.2
T2
X105.968Y-50.626
X105.968Y-53.928
X105.968Y-57.23
X105.968Y-60.024
X105.968Y-68.66
X105.968Y-71.708
X105.968Y-74.756
X105.968Y-77.804
X105.968Y-80.852
X105.968Y-85.932
X105.968Y-88.98
X105.968Y-91.52
X105.968Y-94.314
X105.968Y-97.108
X105.968Y-99.902
X105.968Y-102.95
X105.968Y-105.998
X105.968Y-109.3
X105.968Y-112.348
X105.968Y-115.904
X105.968Y-119.206
X106.476Y-65.612
X106.476Y-67.136
X106.73Y-61.675
X107.365Y-72.724
X107.746Y-77.042
X108.254Y-65.612
X108.254Y-67.136
X108.508Y-99.902
X108.508Y-102.95
X108.635Y-62.818
X108.762Y-90.504
X108.762Y-92.663
X108.762Y-94.822
X108.762Y-97.108
X108.762Y-109.427
X109.016Y-58.5
X109.016Y-106.252
X109.27Y-84.595
X110.032Y-65.612
X110.032Y-67.136
X110.159Y-76.534
X110.159Y-77.804
X110.54Y-46.054
X110.54Y-101.426
X110.794Y-104.474
X110.794Y-110.951
X110.794Y-124.032
X111.048Y-54.944
X111.048Y-77.169
X111.048Y-108.284
X111.429Y-82.376
X111.556Y-51.388
X111.556Y-58.5
X111.683Y-80.979
X111.746Y-73.422
X111.81Y-106.252
X112.064Y-67.136
X112.064Y-76.534
X112.064Y-77.804
X112.191Y-94.441
X112.445Y-98.759
X112.445Y-114.126
X112.572Y-118.444
X112.826Y-100.791
X112.826Y-104.728
X112.826Y-108.03
X112.826Y-111.459
X113.08Y-92.536
X113.08Y-96.346
X113.334Y-116.412
X113.334Y-120.476
X113.461Y-72.724
X113.588Y-63.326
X113.588Y-65.104
X113.715Y-69.168
X113.715Y-71.2
X113.842Y-46.054
X113.842Y-67.136
X114.096Y-124.032
X114.477Y-107.141
X114.604Y-100.029
X114.604Y-105.363
X114.604Y-112.475
X115.366Y-49.356
X115.62Y-52.658
X115.62Y-67.136
X115.935Y-71.515
X116.382Y-92.536
X116.382Y-96.346
X116.382Y-107.141
X116.636Y-73.994
X116.636Y-100.029
X116.636Y-112.475
X116.89Y-116.412
X116.89Y-120.476
X117.144Y-46.054
X117.398Y-68.787
X117.398Y-124.032
X117.449Y-105.744
X117.525Y-101.553
X117.525Y-103.966
X117.525Y-108.792
X117.525Y-111.078
X118.033Y-99.165
X118.414Y-61.04
X118.414Y-62.564
X118.414Y-64.342
X118.414Y-66.12
X118.77Y-110.672
X119.074Y-102.671
X119.074Y-104.982
X119.1Y-100.715
X119.1Y-107.014
X119.43Y-68.787
X119.608Y-112.602
X119.938Y-98.454
X120.192Y-91.266
X120.192Y-92.79
X120.192Y-114.38
X120.192Y-116.412
X120.319Y-76.407
X120.446Y-46.054
X120.446Y-49.356
X120.446Y-81.36
X120.573Y-71.515
X120.7Y-61.04
X120.7Y-62.564
X120.7Y-66.12
X120.7Y-124.032
X120.827Y-100.156
X120.852Y-107.014
X121.208Y-69.041
X121.208Y-75.391
X121.64Y-112.577
X121.792Y-98.454
X121.97Y-70.887
X122.224Y-121.238
X122.376Y-107.039
X122.478Y-91.266
X122.478Y-92.79
X122.478Y-114.38
X122.478Y-116.412
X122.605Y-64.469
X122.732Y-56.976
X122.732Y-65.739
X122.732Y-81.36
X122.732Y-83.392
X122.732Y-85.678
X122.859Y-100.156
X123.316Y-111.332
X123.367Y-101.807
X123.621Y-76.407
X123.977Y-98.886
X124.002Y-46.054
X124.256Y-124.032
X124.586Y-109.833
X124.764Y-91.266
X124.764Y-92.79
X124.764Y-114.38
X124.764Y-116.412
X125.018Y-59.008
X125.018Y-62.31
X125.018Y-74.756
X125.018Y-81.36
X125.018Y-83.392
X125.018Y-85.678
X125.272Y-50.118
X125.272Y-53.928
X125.272Y-70.565
X125.272Y-72.47
X125.907Y-71.581
X126.021Y-88.485
X126.288Y-121.238
X126.542Y-70.565
X126.542Y-72.47
X127.304Y-46.054
X128.32Y-98.759
X128.32Y-124.032
X128.447Y-110.57
X129.692Y-70.692
X129.717Y-50.118
X129.844Y-53.928
X129.844Y-94.441
X129.971Y-96.854
X129.971Y-112.475
X129.971Y-114.888
X130.098Y-117.682
X130.098Y-121.238
X130.606Y-46.054
X130.606Y-57.992
X130.606Y-60.278
X130.606Y-62.655
X130.755Y-79.455
X130.809Y-70.895
X130.947Y-74.447
X131.622Y-124.032
X131.749Y-99.902
X131.749Y-109.427
X132.511Y-99.648
X133.146Y-57.992
X133.146Y-72.888
X133.146Y-88.218
X133.273Y-60.278
X133.273Y-109.808
X133.908Y-48.086
X133.908Y-51.388
X133.908Y-118.698
X133.908Y-122.0
X134.162Y-84.154
X134.289Y-106.303
X134.543Y-104.974
X134.543Y-110.697
X134.67Y-54.436
X134.924Y-115.396
X135.238Y-80.3
X135.238Y-81.15
X135.43Y-87.456
X135.546Y-108.398
X135.686Y-57.992
X135.686Y-60.278
X135.686Y-62.655
X135.789Y-99.497
X136.956Y-99.521
X137.337Y-88.175
X137.464Y-84.154
X137.845Y-86.948
X137.845Y-104.22
X137.972Y-99.521
X138.099Y-89.445
X138.226Y-57.992
X138.226Y-60.278
X138.226Y-62.655
X138.226Y-92.917
X139.242Y-66.628
X139.242Y-74.883
X139.242Y-75.899
X139.744Y-64.347
X140.131Y-96.219
X140.163Y-102.061
X140.512Y-67.644
X140.766Y-60.278
X140.766Y-62.655
X142.063Y-102.061
X142.544Y-69.676
X142.925Y-105.236
X143.179Y-66.628
X143.433Y-103.077
X143.625Y-70.5
X144.576Y-70.565
X144.703Y-71.581
X145.211Y-73.613
X146.354Y-67.771
X146.862Y-55.96
X150.418Y-114.126
X151.351Y-73.149
X152.069Y-95.33
X152.577Y-98.632
X152.704Y-71.835
X153.275Y-95.393
X153.72Y-71.835
X153.72Y-98.657
X153.974Y-74.375
X154.736Y-75.01
X155.988Y-71.472
X157.022Y-98.759
X157.276Y-94.822
X158.292Y-63.58
X158.292Y-65.866
X158.292Y-67.898
X158.292Y-70.438
X158.292Y-72.978
X158.292Y-75.01
X158.292Y-77.296
X158.292Y-79.582
X158.292Y-81.868
X158.292Y-84.154
X158.292Y-86.44
X158.292Y-88.726
X158.292Y-91.012
X158.292Y-93.298
X158.292Y-95.584
X158.292Y-97.87
X158.292Y-100.41
X158.292Y-102.95
X158.292Y-105.49
X158.8Y-61.294
X158.8Y-108.538
X158.8Y-114.126
X159.816Y-55.96
X161.34Y-61.294
X161.594Y-108.538
X163.88Y-61.294
X164.134Y-108.538
T3
X107.323Y-105.252
X107.323Y-107.252
X138.163Y-112.094
X140.163Y-112.094
X140.544Y-57.865
X142.163Y-112.094
X142.544Y-57.865
X144.544Y-57.865
X147.18Y-112.136
X149.18Y-112.136
X149.942Y-57.865
X151.18Y-112.136
X151.942Y-57.865
X153.18Y-112.136
X153.942Y-57.865
X155.18Y-112.136
X155.942Y-57.865
T4
X115.166Y-56.039
X119.866Y-53.039
X119.866Y-59.039
T5
X108.0Y-48.0
X108.0Y-122.0
X162.0Y-58.0
X162.0Y-112.0
M30
