%TF.GenerationSoftware,KiCad,Pcbnew,10.0.3*%
%TF.CreationDate,2026-07-15T11:41:37-04:00*%
%TF.ProjectId,ESP32-S3_Audio_Control_Board,45535033-322d-4533-935f-417564696f5f,A*%
%TF.SameCoordinates,Original*%
%TF.FileFunction,Legend,Bot*%
%TF.FilePolarity,Positive*%
%FSLAX46Y46*%
G04 Gerber Fmt 4.6, Leading zero omitted, Abs format (unit mm)*
G04 Created by KiCad (PCBNEW 10.0.3) date 2026-07-15 11:41:37*
%MOMM*%
%LPD*%
G01*
G04 APERTURE LIST*
%ADD10C,0.200000*%
%ADD11C,0.254000*%
%ADD12C,0.120000*%
G04 APERTURE END LIST*
D10*
X119942964Y-84240419D02*
X119323917Y-84240419D01*
X119323917Y-84240419D02*
X119657250Y-84621371D01*
X119657250Y-84621371D02*
X119514393Y-84621371D01*
X119514393Y-84621371D02*
X119419155Y-84668990D01*
X119419155Y-84668990D02*
X119371536Y-84716609D01*
X119371536Y-84716609D02*
X119323917Y-84811847D01*
X119323917Y-84811847D02*
X119323917Y-85049942D01*
X119323917Y-85049942D02*
X119371536Y-85145180D01*
X119371536Y-85145180D02*
X119419155Y-85192800D01*
X119419155Y-85192800D02*
X119514393Y-85240419D01*
X119514393Y-85240419D02*
X119800107Y-85240419D01*
X119800107Y-85240419D02*
X119895345Y-85192800D01*
X119895345Y-85192800D02*
X119942964Y-85145180D01*
X119038202Y-84240419D02*
X118704869Y-85240419D01*
X118704869Y-85240419D02*
X118371536Y-84240419D01*
X118133440Y-84240419D02*
X117514393Y-84240419D01*
X117514393Y-84240419D02*
X117847726Y-84621371D01*
X117847726Y-84621371D02*
X117704869Y-84621371D01*
X117704869Y-84621371D02*
X117609631Y-84668990D01*
X117609631Y-84668990D02*
X117562012Y-84716609D01*
X117562012Y-84716609D02*
X117514393Y-84811847D01*
X117514393Y-84811847D02*
X117514393Y-85049942D01*
X117514393Y-85049942D02*
X117562012Y-85145180D01*
X117562012Y-85145180D02*
X117609631Y-85192800D01*
X117609631Y-85192800D02*
X117704869Y-85240419D01*
X117704869Y-85240419D02*
X117990583Y-85240419D01*
X117990583Y-85240419D02*
X118085821Y-85192800D01*
X118085821Y-85192800D02*
X118133440Y-85145180D01*
X129671164Y-78931819D02*
X129052117Y-78931819D01*
X129052117Y-78931819D02*
X129385450Y-79312771D01*
X129385450Y-79312771D02*
X129242593Y-79312771D01*
X129242593Y-79312771D02*
X129147355Y-79360390D01*
X129147355Y-79360390D02*
X129099736Y-79408009D01*
X129099736Y-79408009D02*
X129052117Y-79503247D01*
X129052117Y-79503247D02*
X129052117Y-79741342D01*
X129052117Y-79741342D02*
X129099736Y-79836580D01*
X129099736Y-79836580D02*
X129147355Y-79884200D01*
X129147355Y-79884200D02*
X129242593Y-79931819D01*
X129242593Y-79931819D02*
X129528307Y-79931819D01*
X129528307Y-79931819D02*
X129623545Y-79884200D01*
X129623545Y-79884200D02*
X129671164Y-79836580D01*
X128766402Y-78931819D02*
X128433069Y-79931819D01*
X128433069Y-79931819D02*
X128099736Y-78931819D01*
X127861640Y-78931819D02*
X127242593Y-78931819D01*
X127242593Y-78931819D02*
X127575926Y-79312771D01*
X127575926Y-79312771D02*
X127433069Y-79312771D01*
X127433069Y-79312771D02*
X127337831Y-79360390D01*
X127337831Y-79360390D02*
X127290212Y-79408009D01*
X127290212Y-79408009D02*
X127242593Y-79503247D01*
X127242593Y-79503247D02*
X127242593Y-79741342D01*
X127242593Y-79741342D02*
X127290212Y-79836580D01*
X127290212Y-79836580D02*
X127337831Y-79884200D01*
X127337831Y-79884200D02*
X127433069Y-79931819D01*
X127433069Y-79931819D02*
X127718783Y-79931819D01*
X127718783Y-79931819D02*
X127814021Y-79884200D01*
X127814021Y-79884200D02*
X127861640Y-79836580D01*
X129575926Y-84589609D02*
X129242593Y-84589609D01*
X129099736Y-85113419D02*
X129575926Y-85113419D01*
X129575926Y-85113419D02*
X129575926Y-84113419D01*
X129575926Y-84113419D02*
X129099736Y-84113419D01*
X128671164Y-85113419D02*
X128671164Y-84113419D01*
X128671164Y-84113419D02*
X128099736Y-85113419D01*
X128099736Y-85113419D02*
X128099736Y-84113419D01*
X129626726Y-87526419D02*
X129626726Y-86526419D01*
X128960060Y-86526419D02*
X128769584Y-86526419D01*
X128769584Y-86526419D02*
X128674346Y-86574038D01*
X128674346Y-86574038D02*
X128579108Y-86669276D01*
X128579108Y-86669276D02*
X128531489Y-86859752D01*
X128531489Y-86859752D02*
X128531489Y-87193085D01*
X128531489Y-87193085D02*
X128579108Y-87383561D01*
X128579108Y-87383561D02*
X128674346Y-87478800D01*
X128674346Y-87478800D02*
X128769584Y-87526419D01*
X128769584Y-87526419D02*
X128960060Y-87526419D01*
X128960060Y-87526419D02*
X129055298Y-87478800D01*
X129055298Y-87478800D02*
X129150536Y-87383561D01*
X129150536Y-87383561D02*
X129198155Y-87193085D01*
X129198155Y-87193085D02*
X129198155Y-86859752D01*
X129198155Y-86859752D02*
X129150536Y-86669276D01*
X129150536Y-86669276D02*
X129055298Y-86574038D01*
X129055298Y-86574038D02*
X128960060Y-86526419D01*
X127912441Y-86526419D02*
X127817203Y-86526419D01*
X127817203Y-86526419D02*
X127721965Y-86574038D01*
X127721965Y-86574038D02*
X127674346Y-86621657D01*
X127674346Y-86621657D02*
X127626727Y-86716895D01*
X127626727Y-86716895D02*
X127579108Y-86907371D01*
X127579108Y-86907371D02*
X127579108Y-87145466D01*
X127579108Y-87145466D02*
X127626727Y-87335942D01*
X127626727Y-87335942D02*
X127674346Y-87431180D01*
X127674346Y-87431180D02*
X127721965Y-87478800D01*
X127721965Y-87478800D02*
X127817203Y-87526419D01*
X127817203Y-87526419D02*
X127912441Y-87526419D01*
X127912441Y-87526419D02*
X128007679Y-87478800D01*
X128007679Y-87478800D02*
X128055298Y-87431180D01*
X128055298Y-87431180D02*
X128102917Y-87335942D01*
X128102917Y-87335942D02*
X128150536Y-87145466D01*
X128150536Y-87145466D02*
X128150536Y-86907371D01*
X128150536Y-86907371D02*
X128102917Y-86716895D01*
X128102917Y-86716895D02*
X128055298Y-86621657D01*
X128055298Y-86621657D02*
X128007679Y-86574038D01*
X128007679Y-86574038D02*
X127912441Y-86526419D01*
X129769583Y-89142619D02*
X129198155Y-89142619D01*
X129483869Y-90142619D02*
X129483869Y-89142619D01*
X128960059Y-89142619D02*
X128293393Y-90142619D01*
X128293393Y-89142619D02*
X128960059Y-90142619D01*
X127912440Y-90142619D02*
X127912440Y-89142619D01*
X127912440Y-89142619D02*
X127674345Y-89142619D01*
X127674345Y-89142619D02*
X127531488Y-89190238D01*
X127531488Y-89190238D02*
X127436250Y-89285476D01*
X127436250Y-89285476D02*
X127388631Y-89380714D01*
X127388631Y-89380714D02*
X127341012Y-89571190D01*
X127341012Y-89571190D02*
X127341012Y-89714047D01*
X127341012Y-89714047D02*
X127388631Y-89904523D01*
X127388631Y-89904523D02*
X127436250Y-89999761D01*
X127436250Y-89999761D02*
X127531488Y-90095000D01*
X127531488Y-90095000D02*
X127674345Y-90142619D01*
X127674345Y-90142619D02*
X127912440Y-90142619D01*
X129153717Y-81570238D02*
X129248955Y-81522619D01*
X129248955Y-81522619D02*
X129391812Y-81522619D01*
X129391812Y-81522619D02*
X129534669Y-81570238D01*
X129534669Y-81570238D02*
X129629907Y-81665476D01*
X129629907Y-81665476D02*
X129677526Y-81760714D01*
X129677526Y-81760714D02*
X129725145Y-81951190D01*
X129725145Y-81951190D02*
X129725145Y-82094047D01*
X129725145Y-82094047D02*
X129677526Y-82284523D01*
X129677526Y-82284523D02*
X129629907Y-82379761D01*
X129629907Y-82379761D02*
X129534669Y-82475000D01*
X129534669Y-82475000D02*
X129391812Y-82522619D01*
X129391812Y-82522619D02*
X129296574Y-82522619D01*
X129296574Y-82522619D02*
X129153717Y-82475000D01*
X129153717Y-82475000D02*
X129106098Y-82427380D01*
X129106098Y-82427380D02*
X129106098Y-82094047D01*
X129106098Y-82094047D02*
X129296574Y-82094047D01*
X128677526Y-82522619D02*
X128677526Y-81522619D01*
X128677526Y-81522619D02*
X128106098Y-82522619D01*
X128106098Y-82522619D02*
X128106098Y-81522619D01*
X127629907Y-82522619D02*
X127629907Y-81522619D01*
X127629907Y-81522619D02*
X127391812Y-81522619D01*
X127391812Y-81522619D02*
X127248955Y-81570238D01*
X127248955Y-81570238D02*
X127153717Y-81665476D01*
X127153717Y-81665476D02*
X127106098Y-81760714D01*
X127106098Y-81760714D02*
X127058479Y-81951190D01*
X127058479Y-81951190D02*
X127058479Y-82094047D01*
X127058479Y-82094047D02*
X127106098Y-82284523D01*
X127106098Y-82284523D02*
X127153717Y-82379761D01*
X127153717Y-82379761D02*
X127248955Y-82475000D01*
X127248955Y-82475000D02*
X127391812Y-82522619D01*
X127391812Y-82522619D02*
X127629907Y-82522619D01*
X129106098Y-92708019D02*
X129439431Y-92231828D01*
X129677526Y-92708019D02*
X129677526Y-91708019D01*
X129677526Y-91708019D02*
X129296574Y-91708019D01*
X129296574Y-91708019D02*
X129201336Y-91755638D01*
X129201336Y-91755638D02*
X129153717Y-91803257D01*
X129153717Y-91803257D02*
X129106098Y-91898495D01*
X129106098Y-91898495D02*
X129106098Y-92041352D01*
X129106098Y-92041352D02*
X129153717Y-92136590D01*
X129153717Y-92136590D02*
X129201336Y-92184209D01*
X129201336Y-92184209D02*
X129296574Y-92231828D01*
X129296574Y-92231828D02*
X129677526Y-92231828D01*
X128772764Y-91708019D02*
X128106098Y-92708019D01*
X128106098Y-91708019D02*
X128772764Y-92708019D01*
X127725145Y-92708019D02*
X127725145Y-91708019D01*
X127725145Y-91708019D02*
X127487050Y-91708019D01*
X127487050Y-91708019D02*
X127344193Y-91755638D01*
X127344193Y-91755638D02*
X127248955Y-91850876D01*
X127248955Y-91850876D02*
X127201336Y-91946114D01*
X127201336Y-91946114D02*
X127153717Y-92136590D01*
X127153717Y-92136590D02*
X127153717Y-92279447D01*
X127153717Y-92279447D02*
X127201336Y-92469923D01*
X127201336Y-92469923D02*
X127248955Y-92565161D01*
X127248955Y-92565161D02*
X127344193Y-92660400D01*
X127344193Y-92660400D02*
X127487050Y-92708019D01*
X127487050Y-92708019D02*
X127725145Y-92708019D01*
X130877736Y-59958019D02*
X131353926Y-59958019D01*
X131353926Y-59958019D02*
X131401545Y-60434209D01*
X131401545Y-60434209D02*
X131353926Y-60386590D01*
X131353926Y-60386590D02*
X131258688Y-60338971D01*
X131258688Y-60338971D02*
X131020593Y-60338971D01*
X131020593Y-60338971D02*
X130925355Y-60386590D01*
X130925355Y-60386590D02*
X130877736Y-60434209D01*
X130877736Y-60434209D02*
X130830117Y-60529447D01*
X130830117Y-60529447D02*
X130830117Y-60767542D01*
X130830117Y-60767542D02*
X130877736Y-60862780D01*
X130877736Y-60862780D02*
X130925355Y-60910400D01*
X130925355Y-60910400D02*
X131020593Y-60958019D01*
X131020593Y-60958019D02*
X131258688Y-60958019D01*
X131258688Y-60958019D02*
X131353926Y-60910400D01*
X131353926Y-60910400D02*
X131401545Y-60862780D01*
X130544402Y-59958019D02*
X130211069Y-60958019D01*
X130211069Y-60958019D02*
X129877736Y-59958019D01*
X143850726Y-78906419D02*
X143850726Y-79715942D01*
X143850726Y-79715942D02*
X143803107Y-79811180D01*
X143803107Y-79811180D02*
X143755488Y-79858800D01*
X143755488Y-79858800D02*
X143660250Y-79906419D01*
X143660250Y-79906419D02*
X143469774Y-79906419D01*
X143469774Y-79906419D02*
X143374536Y-79858800D01*
X143374536Y-79858800D02*
X143326917Y-79811180D01*
X143326917Y-79811180D02*
X143279298Y-79715942D01*
X143279298Y-79715942D02*
X143279298Y-78906419D01*
X142850726Y-79858800D02*
X142707869Y-79906419D01*
X142707869Y-79906419D02*
X142469774Y-79906419D01*
X142469774Y-79906419D02*
X142374536Y-79858800D01*
X142374536Y-79858800D02*
X142326917Y-79811180D01*
X142326917Y-79811180D02*
X142279298Y-79715942D01*
X142279298Y-79715942D02*
X142279298Y-79620704D01*
X142279298Y-79620704D02*
X142326917Y-79525466D01*
X142326917Y-79525466D02*
X142374536Y-79477847D01*
X142374536Y-79477847D02*
X142469774Y-79430228D01*
X142469774Y-79430228D02*
X142660250Y-79382609D01*
X142660250Y-79382609D02*
X142755488Y-79334990D01*
X142755488Y-79334990D02*
X142803107Y-79287371D01*
X142803107Y-79287371D02*
X142850726Y-79192133D01*
X142850726Y-79192133D02*
X142850726Y-79096895D01*
X142850726Y-79096895D02*
X142803107Y-79001657D01*
X142803107Y-79001657D02*
X142755488Y-78954038D01*
X142755488Y-78954038D02*
X142660250Y-78906419D01*
X142660250Y-78906419D02*
X142422155Y-78906419D01*
X142422155Y-78906419D02*
X142279298Y-78954038D01*
X141517393Y-79382609D02*
X141374536Y-79430228D01*
X141374536Y-79430228D02*
X141326917Y-79477847D01*
X141326917Y-79477847D02*
X141279298Y-79573085D01*
X141279298Y-79573085D02*
X141279298Y-79715942D01*
X141279298Y-79715942D02*
X141326917Y-79811180D01*
X141326917Y-79811180D02*
X141374536Y-79858800D01*
X141374536Y-79858800D02*
X141469774Y-79906419D01*
X141469774Y-79906419D02*
X141850726Y-79906419D01*
X141850726Y-79906419D02*
X141850726Y-78906419D01*
X141850726Y-78906419D02*
X141517393Y-78906419D01*
X141517393Y-78906419D02*
X141422155Y-78954038D01*
X141422155Y-78954038D02*
X141374536Y-79001657D01*
X141374536Y-79001657D02*
X141326917Y-79096895D01*
X141326917Y-79096895D02*
X141326917Y-79192133D01*
X141326917Y-79192133D02*
X141374536Y-79287371D01*
X141374536Y-79287371D02*
X141422155Y-79334990D01*
X141422155Y-79334990D02*
X141517393Y-79382609D01*
X141517393Y-79382609D02*
X141850726Y-79382609D01*
X141088822Y-80001657D02*
X140326917Y-80001657D01*
X140088821Y-79906419D02*
X140088821Y-78906419D01*
X140088821Y-78906419D02*
X139850726Y-78906419D01*
X139850726Y-78906419D02*
X139707869Y-78954038D01*
X139707869Y-78954038D02*
X139612631Y-79049276D01*
X139612631Y-79049276D02*
X139565012Y-79144514D01*
X139565012Y-79144514D02*
X139517393Y-79334990D01*
X139517393Y-79334990D02*
X139517393Y-79477847D01*
X139517393Y-79477847D02*
X139565012Y-79668323D01*
X139565012Y-79668323D02*
X139612631Y-79763561D01*
X139612631Y-79763561D02*
X139707869Y-79858800D01*
X139707869Y-79858800D02*
X139850726Y-79906419D01*
X139850726Y-79906419D02*
X140088821Y-79906419D01*
X139088821Y-79906419D02*
X139088821Y-78906419D01*
X139088821Y-78906419D02*
X138707869Y-78906419D01*
X138707869Y-78906419D02*
X138612631Y-78954038D01*
X138612631Y-78954038D02*
X138565012Y-79001657D01*
X138565012Y-79001657D02*
X138517393Y-79096895D01*
X138517393Y-79096895D02*
X138517393Y-79239752D01*
X138517393Y-79239752D02*
X138565012Y-79334990D01*
X138565012Y-79334990D02*
X138612631Y-79382609D01*
X138612631Y-79382609D02*
X138707869Y-79430228D01*
X138707869Y-79430228D02*
X139088821Y-79430228D01*
X143876126Y-81446419D02*
X143876126Y-82255942D01*
X143876126Y-82255942D02*
X143828507Y-82351180D01*
X143828507Y-82351180D02*
X143780888Y-82398800D01*
X143780888Y-82398800D02*
X143685650Y-82446419D01*
X143685650Y-82446419D02*
X143495174Y-82446419D01*
X143495174Y-82446419D02*
X143399936Y-82398800D01*
X143399936Y-82398800D02*
X143352317Y-82351180D01*
X143352317Y-82351180D02*
X143304698Y-82255942D01*
X143304698Y-82255942D02*
X143304698Y-81446419D01*
X142876126Y-82398800D02*
X142733269Y-82446419D01*
X142733269Y-82446419D02*
X142495174Y-82446419D01*
X142495174Y-82446419D02*
X142399936Y-82398800D01*
X142399936Y-82398800D02*
X142352317Y-82351180D01*
X142352317Y-82351180D02*
X142304698Y-82255942D01*
X142304698Y-82255942D02*
X142304698Y-82160704D01*
X142304698Y-82160704D02*
X142352317Y-82065466D01*
X142352317Y-82065466D02*
X142399936Y-82017847D01*
X142399936Y-82017847D02*
X142495174Y-81970228D01*
X142495174Y-81970228D02*
X142685650Y-81922609D01*
X142685650Y-81922609D02*
X142780888Y-81874990D01*
X142780888Y-81874990D02*
X142828507Y-81827371D01*
X142828507Y-81827371D02*
X142876126Y-81732133D01*
X142876126Y-81732133D02*
X142876126Y-81636895D01*
X142876126Y-81636895D02*
X142828507Y-81541657D01*
X142828507Y-81541657D02*
X142780888Y-81494038D01*
X142780888Y-81494038D02*
X142685650Y-81446419D01*
X142685650Y-81446419D02*
X142447555Y-81446419D01*
X142447555Y-81446419D02*
X142304698Y-81494038D01*
X141542793Y-81922609D02*
X141399936Y-81970228D01*
X141399936Y-81970228D02*
X141352317Y-82017847D01*
X141352317Y-82017847D02*
X141304698Y-82113085D01*
X141304698Y-82113085D02*
X141304698Y-82255942D01*
X141304698Y-82255942D02*
X141352317Y-82351180D01*
X141352317Y-82351180D02*
X141399936Y-82398800D01*
X141399936Y-82398800D02*
X141495174Y-82446419D01*
X141495174Y-82446419D02*
X141876126Y-82446419D01*
X141876126Y-82446419D02*
X141876126Y-81446419D01*
X141876126Y-81446419D02*
X141542793Y-81446419D01*
X141542793Y-81446419D02*
X141447555Y-81494038D01*
X141447555Y-81494038D02*
X141399936Y-81541657D01*
X141399936Y-81541657D02*
X141352317Y-81636895D01*
X141352317Y-81636895D02*
X141352317Y-81732133D01*
X141352317Y-81732133D02*
X141399936Y-81827371D01*
X141399936Y-81827371D02*
X141447555Y-81874990D01*
X141447555Y-81874990D02*
X141542793Y-81922609D01*
X141542793Y-81922609D02*
X141876126Y-81922609D01*
X141114222Y-82541657D02*
X140352317Y-82541657D01*
X140114221Y-82446419D02*
X140114221Y-81446419D01*
X140114221Y-81446419D02*
X139876126Y-81446419D01*
X139876126Y-81446419D02*
X139733269Y-81494038D01*
X139733269Y-81494038D02*
X139638031Y-81589276D01*
X139638031Y-81589276D02*
X139590412Y-81684514D01*
X139590412Y-81684514D02*
X139542793Y-81874990D01*
X139542793Y-81874990D02*
X139542793Y-82017847D01*
X139542793Y-82017847D02*
X139590412Y-82208323D01*
X139590412Y-82208323D02*
X139638031Y-82303561D01*
X139638031Y-82303561D02*
X139733269Y-82398800D01*
X139733269Y-82398800D02*
X139876126Y-82446419D01*
X139876126Y-82446419D02*
X140114221Y-82446419D01*
X139114221Y-82446419D02*
X139114221Y-81446419D01*
X139114221Y-81446419D02*
X138542793Y-82446419D01*
X138542793Y-82446419D02*
X138542793Y-81446419D01*
X148048136Y-72769019D02*
X148524326Y-72769019D01*
X148524326Y-72769019D02*
X148524326Y-71769019D01*
X147714802Y-72245209D02*
X147381469Y-72245209D01*
X147238612Y-72769019D02*
X147714802Y-72769019D01*
X147714802Y-72769019D02*
X147714802Y-71769019D01*
X147714802Y-71769019D02*
X147238612Y-71769019D01*
X146810040Y-72769019D02*
X146810040Y-71769019D01*
X146810040Y-71769019D02*
X146571945Y-71769019D01*
X146571945Y-71769019D02*
X146429088Y-71816638D01*
X146429088Y-71816638D02*
X146333850Y-71911876D01*
X146333850Y-71911876D02*
X146286231Y-72007114D01*
X146286231Y-72007114D02*
X146238612Y-72197590D01*
X146238612Y-72197590D02*
X146238612Y-72340447D01*
X146238612Y-72340447D02*
X146286231Y-72530923D01*
X146286231Y-72530923D02*
X146333850Y-72626161D01*
X146333850Y-72626161D02*
X146429088Y-72721400D01*
X146429088Y-72721400D02*
X146571945Y-72769019D01*
X146571945Y-72769019D02*
X146810040Y-72769019D01*
X146048136Y-72864257D02*
X145286231Y-72864257D01*
X144476707Y-72673780D02*
X144524326Y-72721400D01*
X144524326Y-72721400D02*
X144667183Y-72769019D01*
X144667183Y-72769019D02*
X144762421Y-72769019D01*
X144762421Y-72769019D02*
X144905278Y-72721400D01*
X144905278Y-72721400D02*
X145000516Y-72626161D01*
X145000516Y-72626161D02*
X145048135Y-72530923D01*
X145048135Y-72530923D02*
X145095754Y-72340447D01*
X145095754Y-72340447D02*
X145095754Y-72197590D01*
X145095754Y-72197590D02*
X145048135Y-72007114D01*
X145048135Y-72007114D02*
X145000516Y-71911876D01*
X145000516Y-71911876D02*
X144905278Y-71816638D01*
X144905278Y-71816638D02*
X144762421Y-71769019D01*
X144762421Y-71769019D02*
X144667183Y-71769019D01*
X144667183Y-71769019D02*
X144524326Y-71816638D01*
X144524326Y-71816638D02*
X144476707Y-71864257D01*
X143857659Y-71769019D02*
X143667183Y-71769019D01*
X143667183Y-71769019D02*
X143571945Y-71816638D01*
X143571945Y-71816638D02*
X143476707Y-71911876D01*
X143476707Y-71911876D02*
X143429088Y-72102352D01*
X143429088Y-72102352D02*
X143429088Y-72435685D01*
X143429088Y-72435685D02*
X143476707Y-72626161D01*
X143476707Y-72626161D02*
X143571945Y-72721400D01*
X143571945Y-72721400D02*
X143667183Y-72769019D01*
X143667183Y-72769019D02*
X143857659Y-72769019D01*
X143857659Y-72769019D02*
X143952897Y-72721400D01*
X143952897Y-72721400D02*
X144048135Y-72626161D01*
X144048135Y-72626161D02*
X144095754Y-72435685D01*
X144095754Y-72435685D02*
X144095754Y-72102352D01*
X144095754Y-72102352D02*
X144048135Y-71911876D01*
X144048135Y-71911876D02*
X143952897Y-71816638D01*
X143952897Y-71816638D02*
X143857659Y-71769019D01*
X142667183Y-72245209D02*
X142524326Y-72292828D01*
X142524326Y-72292828D02*
X142476707Y-72340447D01*
X142476707Y-72340447D02*
X142429088Y-72435685D01*
X142429088Y-72435685D02*
X142429088Y-72578542D01*
X142429088Y-72578542D02*
X142476707Y-72673780D01*
X142476707Y-72673780D02*
X142524326Y-72721400D01*
X142524326Y-72721400D02*
X142619564Y-72769019D01*
X142619564Y-72769019D02*
X143000516Y-72769019D01*
X143000516Y-72769019D02*
X143000516Y-71769019D01*
X143000516Y-71769019D02*
X142667183Y-71769019D01*
X142667183Y-71769019D02*
X142571945Y-71816638D01*
X142571945Y-71816638D02*
X142524326Y-71864257D01*
X142524326Y-71864257D02*
X142476707Y-71959495D01*
X142476707Y-71959495D02*
X142476707Y-72054733D01*
X142476707Y-72054733D02*
X142524326Y-72149971D01*
X142524326Y-72149971D02*
X142571945Y-72197590D01*
X142571945Y-72197590D02*
X142667183Y-72245209D01*
X142667183Y-72245209D02*
X143000516Y-72245209D01*
X148025917Y-65288838D02*
X148121155Y-65241219D01*
X148121155Y-65241219D02*
X148264012Y-65241219D01*
X148264012Y-65241219D02*
X148406869Y-65288838D01*
X148406869Y-65288838D02*
X148502107Y-65384076D01*
X148502107Y-65384076D02*
X148549726Y-65479314D01*
X148549726Y-65479314D02*
X148597345Y-65669790D01*
X148597345Y-65669790D02*
X148597345Y-65812647D01*
X148597345Y-65812647D02*
X148549726Y-66003123D01*
X148549726Y-66003123D02*
X148502107Y-66098361D01*
X148502107Y-66098361D02*
X148406869Y-66193600D01*
X148406869Y-66193600D02*
X148264012Y-66241219D01*
X148264012Y-66241219D02*
X148168774Y-66241219D01*
X148168774Y-66241219D02*
X148025917Y-66193600D01*
X148025917Y-66193600D02*
X147978298Y-66145980D01*
X147978298Y-66145980D02*
X147978298Y-65812647D01*
X147978298Y-65812647D02*
X148168774Y-65812647D01*
X147549726Y-66241219D02*
X147549726Y-65241219D01*
X147549726Y-65241219D02*
X146978298Y-66241219D01*
X146978298Y-66241219D02*
X146978298Y-65241219D01*
X146502107Y-66241219D02*
X146502107Y-65241219D01*
X146502107Y-65241219D02*
X146264012Y-65241219D01*
X146264012Y-65241219D02*
X146121155Y-65288838D01*
X146121155Y-65288838D02*
X146025917Y-65384076D01*
X146025917Y-65384076D02*
X145978298Y-65479314D01*
X145978298Y-65479314D02*
X145930679Y-65669790D01*
X145930679Y-65669790D02*
X145930679Y-65812647D01*
X145930679Y-65812647D02*
X145978298Y-66003123D01*
X145978298Y-66003123D02*
X146025917Y-66098361D01*
X146025917Y-66098361D02*
X146121155Y-66193600D01*
X146121155Y-66193600D02*
X146264012Y-66241219D01*
X146264012Y-66241219D02*
X146502107Y-66241219D01*
X148575126Y-69197209D02*
X148241793Y-69197209D01*
X148098936Y-69721019D02*
X148575126Y-69721019D01*
X148575126Y-69721019D02*
X148575126Y-68721019D01*
X148575126Y-68721019D02*
X148098936Y-68721019D01*
X147670364Y-69721019D02*
X147670364Y-68721019D01*
X147670364Y-68721019D02*
X147098936Y-69721019D01*
X147098936Y-69721019D02*
X147098936Y-68721019D01*
X154036126Y-63193219D02*
X154036126Y-62193219D01*
X154036126Y-62193219D02*
X153655174Y-62193219D01*
X153655174Y-62193219D02*
X153559936Y-62240838D01*
X153559936Y-62240838D02*
X153512317Y-62288457D01*
X153512317Y-62288457D02*
X153464698Y-62383695D01*
X153464698Y-62383695D02*
X153464698Y-62526552D01*
X153464698Y-62526552D02*
X153512317Y-62621790D01*
X153512317Y-62621790D02*
X153559936Y-62669409D01*
X153559936Y-62669409D02*
X153655174Y-62717028D01*
X153655174Y-62717028D02*
X154036126Y-62717028D01*
X153036126Y-63193219D02*
X153036126Y-62193219D01*
X153036126Y-62193219D02*
X152798031Y-62193219D01*
X152798031Y-62193219D02*
X152655174Y-62240838D01*
X152655174Y-62240838D02*
X152559936Y-62336076D01*
X152559936Y-62336076D02*
X152512317Y-62431314D01*
X152512317Y-62431314D02*
X152464698Y-62621790D01*
X152464698Y-62621790D02*
X152464698Y-62764647D01*
X152464698Y-62764647D02*
X152512317Y-62955123D01*
X152512317Y-62955123D02*
X152559936Y-63050361D01*
X152559936Y-63050361D02*
X152655174Y-63145600D01*
X152655174Y-63145600D02*
X152798031Y-63193219D01*
X152798031Y-63193219D02*
X153036126Y-63193219D01*
X152036126Y-63193219D02*
X152036126Y-62193219D01*
X152036126Y-62193219D02*
X151702793Y-62907504D01*
X151702793Y-62907504D02*
X151369460Y-62193219D01*
X151369460Y-62193219D02*
X151369460Y-63193219D01*
X151131365Y-63288457D02*
X150369460Y-63288457D01*
X150131364Y-63193219D02*
X150131364Y-62193219D01*
X150131364Y-62193219D02*
X149893269Y-62193219D01*
X149893269Y-62193219D02*
X149750412Y-62240838D01*
X149750412Y-62240838D02*
X149655174Y-62336076D01*
X149655174Y-62336076D02*
X149607555Y-62431314D01*
X149607555Y-62431314D02*
X149559936Y-62621790D01*
X149559936Y-62621790D02*
X149559936Y-62764647D01*
X149559936Y-62764647D02*
X149607555Y-62955123D01*
X149607555Y-62955123D02*
X149655174Y-63050361D01*
X149655174Y-63050361D02*
X149750412Y-63145600D01*
X149750412Y-63145600D02*
X149893269Y-63193219D01*
X149893269Y-63193219D02*
X150131364Y-63193219D01*
X149178983Y-62907504D02*
X148702793Y-62907504D01*
X149274221Y-63193219D02*
X148940888Y-62193219D01*
X148940888Y-62193219D02*
X148607555Y-63193219D01*
X148417078Y-62193219D02*
X147845650Y-62193219D01*
X148131364Y-63193219D02*
X148131364Y-62193219D01*
X147559935Y-62907504D02*
X147083745Y-62907504D01*
X147655173Y-63193219D02*
X147321840Y-62193219D01*
X147321840Y-62193219D02*
X146988507Y-63193219D01*
D11*
X133624780Y-104325930D02*
X133443352Y-104386406D01*
X133443352Y-104386406D02*
X133382875Y-104446882D01*
X133382875Y-104446882D02*
X133322399Y-104567834D01*
X133322399Y-104567834D02*
X133322399Y-104749263D01*
X133322399Y-104749263D02*
X133382875Y-104870215D01*
X133382875Y-104870215D02*
X133443352Y-104930692D01*
X133443352Y-104930692D02*
X133564304Y-104991168D01*
X133564304Y-104991168D02*
X134048114Y-104991168D01*
X134048114Y-104991168D02*
X134048114Y-103721168D01*
X134048114Y-103721168D02*
X133624780Y-103721168D01*
X133624780Y-103721168D02*
X133503828Y-103781644D01*
X133503828Y-103781644D02*
X133443352Y-103842120D01*
X133443352Y-103842120D02*
X133382875Y-103963072D01*
X133382875Y-103963072D02*
X133382875Y-104084025D01*
X133382875Y-104084025D02*
X133443352Y-104204977D01*
X133443352Y-104204977D02*
X133503828Y-104265453D01*
X133503828Y-104265453D02*
X133624780Y-104325930D01*
X133624780Y-104325930D02*
X134048114Y-104325930D01*
X132052399Y-104870215D02*
X132112875Y-104930692D01*
X132112875Y-104930692D02*
X132294304Y-104991168D01*
X132294304Y-104991168D02*
X132415256Y-104991168D01*
X132415256Y-104991168D02*
X132596685Y-104930692D01*
X132596685Y-104930692D02*
X132717637Y-104809739D01*
X132717637Y-104809739D02*
X132778114Y-104688787D01*
X132778114Y-104688787D02*
X132838590Y-104446882D01*
X132838590Y-104446882D02*
X132838590Y-104265453D01*
X132838590Y-104265453D02*
X132778114Y-104023549D01*
X132778114Y-104023549D02*
X132717637Y-103902596D01*
X132717637Y-103902596D02*
X132596685Y-103781644D01*
X132596685Y-103781644D02*
X132415256Y-103721168D01*
X132415256Y-103721168D02*
X132294304Y-103721168D01*
X132294304Y-103721168D02*
X132112875Y-103781644D01*
X132112875Y-103781644D02*
X132052399Y-103842120D01*
X130903352Y-104991168D02*
X131508114Y-104991168D01*
X131508114Y-104991168D02*
X131508114Y-103721168D01*
X130480019Y-104991168D02*
X130480019Y-103721168D01*
X129754304Y-104991168D02*
X130298590Y-104265453D01*
X129754304Y-103721168D02*
X130480019Y-104446882D01*
%TO.C,TP2*%
D12*
X132953000Y-89615000D02*
G75*
G02*
X131053000Y-89615000I-950000J0D01*
G01*
X131053000Y-89615000D02*
G75*
G02*
X132953000Y-89615000I950000J0D01*
G01*
%TO.C,TP11*%
X156892000Y-62818000D02*
G75*
G02*
X154992000Y-62818000I-950000J0D01*
G01*
X154992000Y-62818000D02*
G75*
G02*
X156892000Y-62818000I950000J0D01*
G01*
%TO.C,TP14*%
X151495000Y-69168000D02*
G75*
G02*
X149595000Y-69168000I-950000J0D01*
G01*
X149595000Y-69168000D02*
G75*
G02*
X151495000Y-69168000I950000J0D01*
G01*
%TO.C,TP12*%
X151495000Y-72343000D02*
G75*
G02*
X149595000Y-72343000I-950000J0D01*
G01*
X149595000Y-72343000D02*
G75*
G02*
X151495000Y-72343000I950000J0D01*
G01*
%TO.C,TP10*%
X134223000Y-60405000D02*
G75*
G02*
X132323000Y-60405000I-950000J0D01*
G01*
X132323000Y-60405000D02*
G75*
G02*
X134223000Y-60405000I950000J0D01*
G01*
%TO.C,TP1*%
X132953000Y-79455000D02*
G75*
G02*
X131053000Y-79455000I-950000J0D01*
G01*
X131053000Y-79455000D02*
G75*
G02*
X132953000Y-79455000I950000J0D01*
G01*
%TO.C,TP4*%
X132953000Y-92155000D02*
G75*
G02*
X131053000Y-92155000I-950000J0D01*
G01*
X131053000Y-92155000D02*
G75*
G02*
X132953000Y-92155000I950000J0D01*
G01*
%TO.C,TP8*%
X110347000Y-69168000D02*
G75*
G02*
X108447000Y-69168000I-950000J0D01*
G01*
X108447000Y-69168000D02*
G75*
G02*
X110347000Y-69168000I950000J0D01*
G01*
%TO.C,TP5*%
X132953000Y-84535000D02*
G75*
G02*
X131053000Y-84535000I-950000J0D01*
G01*
X131053000Y-84535000D02*
G75*
G02*
X132953000Y-84535000I950000J0D01*
G01*
%TO.C,TP7*%
X136636000Y-104474000D02*
G75*
G02*
X134736000Y-104474000I-950000J0D01*
G01*
X134736000Y-104474000D02*
G75*
G02*
X136636000Y-104474000I950000J0D01*
G01*
%TO.C,TP15*%
X151495000Y-65866000D02*
G75*
G02*
X149595000Y-65866000I-950000J0D01*
G01*
X149595000Y-65866000D02*
G75*
G02*
X151495000Y-65866000I950000J0D01*
G01*
%TO.C,TP3*%
X132953000Y-81995000D02*
G75*
G02*
X131053000Y-81995000I-950000J0D01*
G01*
X131053000Y-81995000D02*
G75*
G02*
X132953000Y-81995000I950000J0D01*
G01*
%TO.C,TP16*%
X137652000Y-81995000D02*
G75*
G02*
X135752000Y-81995000I-950000J0D01*
G01*
X135752000Y-81995000D02*
G75*
G02*
X137652000Y-81995000I950000J0D01*
G01*
%TO.C,TP9*%
X122793000Y-84662000D02*
G75*
G02*
X120893000Y-84662000I-950000J0D01*
G01*
X120893000Y-84662000D02*
G75*
G02*
X122793000Y-84662000I950000J0D01*
G01*
%TO.C,TP6*%
X132953000Y-87075000D02*
G75*
G02*
X131053000Y-87075000I-950000J0D01*
G01*
X131053000Y-87075000D02*
G75*
G02*
X132953000Y-87075000I950000J0D01*
G01*
%TO.C,TP17*%
X137652000Y-79455000D02*
G75*
G02*
X135752000Y-79455000I-950000J0D01*
G01*
X135752000Y-79455000D02*
G75*
G02*
X137652000Y-79455000I950000J0D01*
G01*
%TD*%
M02*
