%TF.GenerationSoftware,KiCad,Pcbnew,10.0.3*%
%TF.CreationDate,2026-07-15T11:41:37-04:00*%
%TF.ProjectId,ESP32-S3_Audio_Control_Board,45535033-322d-4533-935f-417564696f5f,A*%
%TF.SameCoordinates,Original*%
%TF.FileFunction,Copper,L4,Bot*%
%TF.FilePolarity,Positive*%
%FSLAX46Y46*%
G04 Gerber Fmt 4.6, Leading zero omitted, Abs format (unit mm)*
G04 Created by KiCad (PCBNEW 10.0.3) date 2026-07-15 11:41:37*
%MOMM*%
%LPD*%
G01*
G04 APERTURE LIST*
G04 Aperture macros list*
%AMRoundRect*
0 Rectangle with rounded corners*
0 $1 Rounding radius*
0 $2 $3 $4 $5 $6 $7 $8 $9 X,Y pos of 4 corners*
0 Add a 4 corners polygon primitive as box body*
4,1,4,$2,$3,$4,$5,$6,$7,$8,$9,$2,$3,0*
0 Add four circle primitives for the rounded corners*
1,1,$1+$1,$2,$3*
1,1,$1+$1,$4,$5*
1,1,$1+$1,$6,$7*
1,1,$1+$1,$8,$9*
0 Add four rect primitives between the rounded corners*
20,1,$1+$1,$2,$3,$4,$5,0*
20,1,$1+$1,$4,$5,$6,$7,0*
20,1,$1+$1,$6,$7,$8,$9,0*
20,1,$1+$1,$8,$9,$2,$3,0*%
G04 Aperture macros list end*
%ADD10C,0.400000*%
%TA.AperFunction,NonConductor*%
%ADD11C,0.400000*%
%TD*%
%TA.AperFunction,ComponentPad*%
%ADD12RoundRect,0.250000X0.350000X0.625000X-0.350000X0.625000X-0.350000X-0.625000X0.350000X-0.625000X0*%
%TD*%
%TA.AperFunction,ComponentPad*%
%ADD13O,1.200000X1.750000*%
%TD*%
%TA.AperFunction,ComponentPad*%
%ADD14RoundRect,0.250000X-0.350000X-0.625000X0.350000X-0.625000X0.350000X0.625000X-0.350000X0.625000X0*%
%TD*%
%TA.AperFunction,ComponentPad*%
%ADD15R,2.600000X2.600000*%
%TD*%
%TA.AperFunction,ComponentPad*%
%ADD16C,2.600000*%
%TD*%
%TA.AperFunction,ComponentPad*%
%ADD17RoundRect,0.250000X0.625000X-0.350000X0.625000X0.350000X-0.625000X0.350000X-0.625000X-0.350000X0*%
%TD*%
%TA.AperFunction,ComponentPad*%
%ADD18O,1.750000X1.200000*%
%TD*%
%TA.AperFunction,HeatsinkPad*%
%ADD19C,0.600000*%
%TD*%
%TA.AperFunction,HeatsinkPad*%
%ADD20C,0.500000*%
%TD*%
%TA.AperFunction,HeatsinkPad*%
%ADD21R,2.900000X8.900000*%
%TD*%
%TA.AperFunction,SMDPad,CuDef*%
%ADD22C,1.500000*%
%TD*%
%TA.AperFunction,SMDPad,CuDef*%
%ADD23C,1.000000*%
%TD*%
%TA.AperFunction,ViaPad*%
%ADD24C,0.609600*%
%TD*%
%TA.AperFunction,Conductor*%
%ADD25C,0.508000*%
%TD*%
%TA.AperFunction,Conductor*%
%ADD26C,1.016000*%
%TD*%
%TA.AperFunction,Conductor*%
%ADD27C,0.203200*%
%TD*%
%TA.AperFunction,Conductor*%
%ADD28C,0.149352*%
%TD*%
G04 APERTURE END LIST*
D10*
D11*
X146170063Y-135291819D02*
X145884349Y-135387057D01*
X145884349Y-135387057D02*
X145789111Y-135482295D01*
X145789111Y-135482295D02*
X145693873Y-135672771D01*
X145693873Y-135672771D02*
X145693873Y-135958485D01*
X145693873Y-135958485D02*
X145789111Y-136148961D01*
X145789111Y-136148961D02*
X145884349Y-136244200D01*
X145884349Y-136244200D02*
X146074825Y-136339438D01*
X146074825Y-136339438D02*
X146836730Y-136339438D01*
X146836730Y-136339438D02*
X146836730Y-134339438D01*
X146836730Y-134339438D02*
X146170063Y-134339438D01*
X146170063Y-134339438D02*
X145979587Y-134434676D01*
X145979587Y-134434676D02*
X145884349Y-134529914D01*
X145884349Y-134529914D02*
X145789111Y-134720390D01*
X145789111Y-134720390D02*
X145789111Y-134910866D01*
X145789111Y-134910866D02*
X145884349Y-135101342D01*
X145884349Y-135101342D02*
X145979587Y-135196580D01*
X145979587Y-135196580D02*
X146170063Y-135291819D01*
X146170063Y-135291819D02*
X146836730Y-135291819D01*
X144455778Y-134339438D02*
X144074825Y-134339438D01*
X144074825Y-134339438D02*
X143884349Y-134434676D01*
X143884349Y-134434676D02*
X143693873Y-134625152D01*
X143693873Y-134625152D02*
X143598635Y-135006104D01*
X143598635Y-135006104D02*
X143598635Y-135672771D01*
X143598635Y-135672771D02*
X143693873Y-136053723D01*
X143693873Y-136053723D02*
X143884349Y-136244200D01*
X143884349Y-136244200D02*
X144074825Y-136339438D01*
X144074825Y-136339438D02*
X144455778Y-136339438D01*
X144455778Y-136339438D02*
X144646254Y-136244200D01*
X144646254Y-136244200D02*
X144836730Y-136053723D01*
X144836730Y-136053723D02*
X144931968Y-135672771D01*
X144931968Y-135672771D02*
X144931968Y-135006104D01*
X144931968Y-135006104D02*
X144836730Y-134625152D01*
X144836730Y-134625152D02*
X144646254Y-134434676D01*
X144646254Y-134434676D02*
X144455778Y-134339438D01*
X143027206Y-134339438D02*
X141884349Y-134339438D01*
X142455778Y-136339438D02*
X142455778Y-134339438D01*
X141503396Y-134339438D02*
X140360539Y-134339438D01*
X140931968Y-136339438D02*
X140931968Y-134339438D01*
X139312920Y-134339438D02*
X138931967Y-134339438D01*
X138931967Y-134339438D02*
X138741491Y-134434676D01*
X138741491Y-134434676D02*
X138551015Y-134625152D01*
X138551015Y-134625152D02*
X138455777Y-135006104D01*
X138455777Y-135006104D02*
X138455777Y-135672771D01*
X138455777Y-135672771D02*
X138551015Y-136053723D01*
X138551015Y-136053723D02*
X138741491Y-136244200D01*
X138741491Y-136244200D02*
X138931967Y-136339438D01*
X138931967Y-136339438D02*
X139312920Y-136339438D01*
X139312920Y-136339438D02*
X139503396Y-136244200D01*
X139503396Y-136244200D02*
X139693872Y-136053723D01*
X139693872Y-136053723D02*
X139789110Y-135672771D01*
X139789110Y-135672771D02*
X139789110Y-135006104D01*
X139789110Y-135006104D02*
X139693872Y-134625152D01*
X139693872Y-134625152D02*
X139503396Y-134434676D01*
X139503396Y-134434676D02*
X139312920Y-134339438D01*
X137598634Y-136339438D02*
X137598634Y-134339438D01*
X137598634Y-134339438D02*
X136931967Y-135768009D01*
X136931967Y-135768009D02*
X136265301Y-134339438D01*
X136265301Y-134339438D02*
X136265301Y-136339438D01*
X132836729Y-136339438D02*
X133789110Y-136339438D01*
X133789110Y-136339438D02*
X133789110Y-134339438D01*
X132265300Y-135768009D02*
X131312919Y-135768009D01*
X132455776Y-136339438D02*
X131789110Y-134339438D01*
X131789110Y-134339438D02*
X131122443Y-136339438D01*
X130074824Y-135387057D02*
X130074824Y-136339438D01*
X130741490Y-134339438D02*
X130074824Y-135387057D01*
X130074824Y-135387057D02*
X129408157Y-134339438D01*
X128741490Y-135291819D02*
X128074823Y-135291819D01*
X127789109Y-136339438D02*
X128741490Y-136339438D01*
X128741490Y-136339438D02*
X128741490Y-134339438D01*
X128741490Y-134339438D02*
X127789109Y-134339438D01*
X125789109Y-136339438D02*
X126455776Y-135387057D01*
X126931966Y-136339438D02*
X126931966Y-134339438D01*
X126931966Y-134339438D02*
X126170061Y-134339438D01*
X126170061Y-134339438D02*
X125979585Y-134434676D01*
X125979585Y-134434676D02*
X125884347Y-134529914D01*
X125884347Y-134529914D02*
X125789109Y-134720390D01*
X125789109Y-134720390D02*
X125789109Y-135006104D01*
X125789109Y-135006104D02*
X125884347Y-135196580D01*
X125884347Y-135196580D02*
X125979585Y-135291819D01*
X125979585Y-135291819D02*
X126170061Y-135387057D01*
X126170061Y-135387057D02*
X126931966Y-135387057D01*
D12*
%TO.P,J10,1,Pin_1_1*%
%TO.N,3V3*%
X155180000Y-112136000D03*
D13*
%TO.P,J10,2,Pin_2_2*%
%TO.N,GND*%
X153180000Y-112136000D03*
%TO.P,J10,3,Pin_3_3*%
%TO.N,POT1_ADC*%
X151180000Y-112136000D03*
%TO.P,J10,4,Pin_4_4*%
%TO.N,POT2_ADC*%
X149180000Y-112136000D03*
%TO.P,J10,5,Pin_5_5*%
%TO.N,BTN*%
X147180000Y-112136000D03*
%TD*%
D14*
%TO.P,J3,1,Pin_1_1*%
%TO.N,3V3*%
X149942000Y-57865000D03*
D13*
%TO.P,J3,2,Pin_2_2*%
%TO.N,GND*%
X151942000Y-57865000D03*
%TO.P,J3,3,Pin_3_3*%
%TO.N,Net-(J3-Pin_3)*%
X153942000Y-57865000D03*
%TO.P,J3,4,Pin_4_4*%
%TO.N,PDM_DATA*%
X155942000Y-57865000D03*
%TD*%
D15*
%TO.P,J1,1*%
%TO.N,Net-(C13-Pad1)*%
X119866000Y-59039000D03*
D16*
%TO.P,J1,2*%
%TO.N,GND*%
X119866000Y-53039000D03*
%TO.P,J1,3*%
X115166000Y-56039000D03*
%TD*%
D17*
%TO.P,J2,1,Pin_1_1*%
%TO.N,SPK_P*%
X107323000Y-107252000D03*
D18*
%TO.P,J2,2,Pin_2_2*%
%TO.N,SPK_N*%
X107323000Y-105252000D03*
%TD*%
D12*
%TO.P,J9,1,Pin_1_1*%
%TO.N,5V*%
X142163000Y-112094000D03*
D13*
%TO.P,J9,2,Pin_2_2*%
%TO.N,/Peripheral/WS_LED*%
X140163000Y-112094000D03*
%TO.P,J9,3,Pin_3_3*%
%TO.N,GND*%
X138163000Y-112094000D03*
%TD*%
D19*
%TO.P,U1,41,GND_41*%
%TO.N,GND*%
X150240000Y-82100000D03*
X148840000Y-82100000D03*
X150940000Y-82800000D03*
X149540000Y-82800000D03*
X148140000Y-82800000D03*
X150240000Y-83500000D03*
X148840000Y-83500000D03*
X150940000Y-84200000D03*
X149540000Y-84200000D03*
X148140000Y-84200000D03*
X150240000Y-84900000D03*
X148840000Y-84900000D03*
%TD*%
D20*
%TO.P,U4,29,EP_29*%
%TO.N,GND*%
X130083500Y-108849000D03*
X130083500Y-107649000D03*
X130083500Y-106449000D03*
X130083500Y-105249000D03*
X130083500Y-104049000D03*
X130083500Y-102849000D03*
X130083500Y-101649000D03*
X130083500Y-100449000D03*
X128883500Y-108849000D03*
X128883500Y-107649000D03*
X128883500Y-106449000D03*
X128883500Y-105249000D03*
D21*
X128883500Y-104649000D03*
D20*
X128883500Y-104049000D03*
X128883500Y-102849000D03*
X128883500Y-101649000D03*
X128883500Y-100449000D03*
X127683500Y-108849000D03*
X127683500Y-107649000D03*
X127683500Y-106449000D03*
X127683500Y-105249000D03*
X127683500Y-104049000D03*
X127683500Y-102849000D03*
X127683500Y-101649000D03*
X127683500Y-100449000D03*
%TD*%
D14*
%TO.P,J5,1,Pin_1_1*%
%TO.N,5V*%
X140544000Y-57865000D03*
D13*
%TO.P,J5,2,Pin_2_2*%
%TO.N,/Peripheral/COB_LED*%
X142544000Y-57865000D03*
%TO.P,J5,3,Pin_3_3*%
%TO.N,GND*%
X144544000Y-57865000D03*
%TD*%
D22*
%TO.P,TP2,1,1_1*%
%TO.N,/ESP32-S3/TXD*%
X132003000Y-89615000D03*
%TD*%
%TO.P,TP11,1,1_1*%
%TO.N,PDM_DATA*%
X155942000Y-62818000D03*
%TD*%
%TO.P,TP14,1,1_1*%
%TO.N,/ESP32-S3/EN*%
X150545000Y-69168000D03*
%TD*%
D23*
%TO.P,FID4,*%
%TO.N,*%
X108000000Y-115000000D03*
%TD*%
%TO.P,FID6,*%
%TO.N,*%
X155000000Y-105000000D03*
%TD*%
D22*
%TO.P,TP12,1,1_1*%
%TO.N,LED_COB*%
X150545000Y-72343000D03*
%TD*%
%TO.P,TP10,1,1_1*%
%TO.N,5V*%
X133273000Y-60405000D03*
%TD*%
%TO.P,TP1,1,1_1*%
%TO.N,3V3*%
X132003000Y-79455000D03*
%TD*%
%TO.P,TP4,1,1_1*%
%TO.N,/ESP32-S3/RXD*%
X132003000Y-92155000D03*
%TD*%
%TO.P,TP8,1,1_1*%
%TO.N,12V*%
X109397000Y-69168000D03*
%TD*%
%TO.P,TP5,1,1_1*%
%TO.N,/ESP32-S3/EN*%
X132003000Y-84535000D03*
%TD*%
%TO.P,TP7,1,1_1*%
%TO.N,BCLK*%
X135686000Y-104474000D03*
%TD*%
%TO.P,TP15,1,1_1*%
%TO.N,GND*%
X150545000Y-65866000D03*
%TD*%
%TO.P,TP3,1,1_1*%
%TO.N,GND*%
X132003000Y-81995000D03*
%TD*%
D23*
%TO.P,FID2,*%
%TO.N,*%
X108000000Y-55000000D03*
%TD*%
D22*
%TO.P,TP16,1,1_1*%
%TO.N,/ESP32-S3/USB_D_N*%
X136702000Y-81995000D03*
%TD*%
%TO.P,TP9,1,1_1*%
%TO.N,3V3*%
X121843000Y-84662000D03*
%TD*%
%TO.P,TP6,1,1_1*%
%TO.N,/ESP32-S3/IO0*%
X132003000Y-87075000D03*
%TD*%
%TO.P,TP17,1,1_1*%
%TO.N,/ESP32-S3/USB_D_P*%
X136702000Y-79455000D03*
%TD*%
D24*
%TO.N,12V*%
X110032000Y-65612000D03*
X126021000Y-88485000D03*
X120573000Y-71515000D03*
X113588000Y-65104000D03*
X110032000Y-67136000D03*
X108254000Y-65612000D03*
X108254000Y-67136000D03*
X115620000Y-67136000D03*
X106476000Y-67136000D03*
X112064000Y-67136000D03*
X115935000Y-71515000D03*
X121970000Y-70887000D03*
X111746500Y-73422500D03*
X113842000Y-67136000D03*
X106476000Y-65612000D03*
X113588000Y-63326000D03*
%TO.N,GND*%
X112826000Y-111459000D03*
X111683000Y-80979000D03*
X158292000Y-84154000D03*
X105968000Y-74756000D03*
X120827000Y-100156000D03*
X109016000Y-106252000D03*
X133146000Y-72887804D03*
X105968000Y-88980000D03*
X133908000Y-51388000D03*
X134670000Y-54436000D03*
X123367000Y-101807000D03*
X119074400Y-102670600D03*
X120700000Y-124032000D03*
X127304000Y-46054000D03*
X143433000Y-103077000D03*
X117448800Y-105744000D03*
X109016000Y-58500000D03*
X131749000Y-99902000D03*
X120446000Y-46054000D03*
X158292000Y-75010000D03*
X140163000Y-102061000D03*
X113715000Y-71200000D03*
X133908000Y-48086000D03*
X129971000Y-114888000D03*
X116382000Y-96346000D03*
X105968000Y-80852000D03*
X116890000Y-116412000D03*
X134162000Y-84154000D03*
X125018000Y-62310000D03*
X130809200Y-70895200D03*
X129691600Y-70692000D03*
X119430000Y-68787000D03*
X111556000Y-51388000D03*
X105968000Y-112348000D03*
X110540000Y-46054000D03*
X159816000Y-55960000D03*
X108762000Y-97108000D03*
X157022000Y-98759000D03*
X120319000Y-76407000D03*
X110540000Y-101426000D03*
X113334000Y-120476000D03*
X137464000Y-84154000D03*
X111048000Y-54944000D03*
X158800000Y-114126000D03*
X115620000Y-52658000D03*
X105968000Y-97108000D03*
X130606000Y-46054000D03*
X129844000Y-53928000D03*
X107365000Y-72724000D03*
X152704000Y-71835000D03*
X158292000Y-93298000D03*
X112191000Y-94441000D03*
X111048000Y-77169000D03*
X117398000Y-124032000D03*
X123316200Y-111332000D03*
X112572000Y-118444000D03*
X105968000Y-115904000D03*
X108508000Y-102950000D03*
X105968000Y-94314000D03*
X130098000Y-121238000D03*
X116382000Y-92536000D03*
X105968000Y-85932000D03*
X119607800Y-112602000D03*
X119099800Y-107014000D03*
X111810000Y-106252000D03*
X105968000Y-50626000D03*
X112826000Y-100791000D03*
X153720000Y-71835000D03*
X105968000Y-60024000D03*
X117144000Y-46054000D03*
X122376400Y-107039400D03*
X110159000Y-76534000D03*
X122224000Y-121238000D03*
X118769600Y-110671600D03*
X158292000Y-70438000D03*
X105968000Y-91520000D03*
X123976600Y-98886000D03*
X114477000Y-107141000D03*
X116382000Y-107141000D03*
X158292000Y-65866000D03*
X158292000Y-105490000D03*
X105968000Y-53928000D03*
X112064000Y-76534000D03*
X158292000Y-95584000D03*
X105968000Y-99902000D03*
X120852400Y-107014000D03*
X106730000Y-61675000D03*
X111429000Y-82376000D03*
X119099800Y-100714800D03*
X129844000Y-94441000D03*
X109270000Y-84595131D03*
X111048000Y-108284000D03*
X131749000Y-109427000D03*
X124256000Y-124032000D03*
X158292000Y-97870000D03*
X134289000Y-106302800D03*
X158800000Y-108538000D03*
X117525000Y-108792000D03*
X125272000Y-53928000D03*
X133908000Y-122000000D03*
X116636000Y-112475000D03*
X158292000Y-102950000D03*
X129971000Y-96854000D03*
X112826000Y-104728000D03*
X134543000Y-110697000D03*
X122605000Y-64469000D03*
X158292000Y-72978000D03*
X142063000Y-102061000D03*
X133908000Y-118698000D03*
X132511000Y-99648000D03*
X116636000Y-100029000D03*
X134924000Y-115396000D03*
X116636000Y-73994000D03*
X113715000Y-69168000D03*
X112064000Y-77804000D03*
X158292000Y-67898000D03*
X108762000Y-94822000D03*
X112826000Y-108030000D03*
X124002000Y-46054000D03*
X117525000Y-101553000D03*
X129971000Y-112475000D03*
X116890000Y-120476000D03*
X114604000Y-112475000D03*
X108762000Y-109427000D03*
X112445000Y-98759000D03*
X113334000Y-116412000D03*
X158292000Y-100410000D03*
X120446000Y-49356000D03*
X117525000Y-111078000D03*
X125018000Y-74756000D03*
X126288000Y-121238000D03*
X161340000Y-61294000D03*
X125272000Y-72470000D03*
X125272000Y-70565000D03*
X113461000Y-72724000D03*
X105968000Y-109300000D03*
X164134000Y-108538000D03*
X133273000Y-109808000D03*
X158292000Y-81868000D03*
X117525000Y-103966000D03*
X119074400Y-104982000D03*
X113842000Y-46054000D03*
X125018000Y-59008000D03*
X110159000Y-77804000D03*
X139242000Y-66628000D03*
X114096000Y-124032000D03*
X122732000Y-65739000D03*
X158292000Y-91012000D03*
X128447000Y-110570000D03*
X105968000Y-71708000D03*
X125272000Y-50118000D03*
X126542000Y-72470000D03*
X158292000Y-79582000D03*
X105968000Y-102950000D03*
X117398000Y-68787000D03*
X108508000Y-99902000D03*
X108635000Y-62818000D03*
X121639800Y-112576600D03*
X110794000Y-124032000D03*
X158292000Y-86440000D03*
X108762000Y-92663000D03*
X157276000Y-94822000D03*
X122859000Y-100156000D03*
X131622000Y-124032000D03*
X108762000Y-90504000D03*
X121208000Y-75391000D03*
X105968000Y-119206000D03*
X114604000Y-105363000D03*
X118033000Y-99165400D03*
X119938000Y-98454200D03*
X161594000Y-108538000D03*
X158292000Y-77296000D03*
X128320000Y-98759000D03*
X143179000Y-66628000D03*
X128320000Y-124032000D03*
X105968000Y-77804000D03*
X158800000Y-61294000D03*
X111556000Y-58500000D03*
X123621000Y-76407000D03*
X150418000Y-114126000D03*
X122732000Y-56976000D03*
X112445000Y-114126000D03*
X153720000Y-98657400D03*
X105968000Y-68660000D03*
X146862000Y-55960000D03*
X105968000Y-105998000D03*
X130098000Y-117682000D03*
X105968000Y-57230000D03*
X125907000Y-71581000D03*
X124586200Y-109833400D03*
X107746000Y-77042000D03*
X163880000Y-61294000D03*
X129717000Y-50118000D03*
X126542000Y-70565000D03*
X158292000Y-63580000D03*
X121792200Y-98454200D03*
X110794000Y-110951000D03*
X114604000Y-100029000D03*
X158292000Y-88726000D03*
X113080000Y-96346000D03*
X115366000Y-49356000D03*
X140512000Y-67644000D03*
X121208000Y-69041000D03*
X113080000Y-92536000D03*
X110794000Y-104474000D03*
%TO.N,3V3*%
X125018000Y-83392000D03*
X155988000Y-71472000D03*
X125018000Y-81360000D03*
X125018000Y-85678000D03*
X130755389Y-79455000D03*
X135430000Y-87456000D03*
X135546000Y-108398000D03*
X122732000Y-83392000D03*
X122732000Y-85678000D03*
X120446000Y-81360000D03*
X140131000Y-96219000D03*
X122732000Y-81360000D03*
%TO.N,BTN*%
X153974000Y-74375000D03*
X152577000Y-98632000D03*
%TO.N,PVDD*%
X124764000Y-114380000D03*
X120192000Y-116412000D03*
X124764000Y-116412000D03*
X120192000Y-92790000D03*
X120192000Y-91266000D03*
X120192000Y-114380000D03*
X122478000Y-116412000D03*
X124764000Y-92790000D03*
X122478000Y-91266000D03*
X122478000Y-114380000D03*
X122478000Y-92790000D03*
X124764000Y-91266000D03*
%TO.N,5V*%
X135686000Y-60278000D03*
X130606000Y-57992000D03*
X133273000Y-60278000D03*
X130606000Y-62655000D03*
X130606000Y-60278000D03*
X133146000Y-57992000D03*
X142925000Y-105236000D03*
X139744500Y-64347500D03*
X138226000Y-57992000D03*
X138226000Y-62655000D03*
X135686000Y-57992000D03*
X140766000Y-60278000D03*
X130947000Y-74447000D03*
X135686000Y-62655000D03*
X138226000Y-60278000D03*
X140766000Y-62655000D03*
%TO.N,AMP_PDN*%
X137337000Y-88175000D03*
X135788698Y-99496698D03*
%TO.N,PDM_DATA*%
X139242000Y-74883000D03*
X146354000Y-67771000D03*
X143625000Y-70500000D03*
%TO.N,Net-(C13-Pad1)*%
X120700000Y-62564000D03*
X118414000Y-64342000D03*
X120700000Y-61040000D03*
X120700000Y-66120000D03*
X118414000Y-66120000D03*
X118414000Y-62564000D03*
X118414000Y-61040000D03*
%TO.N,/ESP32-S3/IO0*%
X133146000Y-88218000D03*
%TO.N,/ESP32-S3/EN*%
X154736000Y-75010000D03*
%TO.N,AMP_FAULTZ*%
X137845000Y-86948000D03*
X137845000Y-104220000D03*
%TO.N,LED_COB*%
X142544000Y-69676000D03*
X151351000Y-73149000D03*
%TO.N,BCLK*%
X134543000Y-104974000D03*
%TO.N,DOUT*%
X145211000Y-73613000D03*
X144703000Y-71581000D03*
%TO.N,/ESP32-S3/USB_D_N*%
X135237709Y-81150000D03*
%TO.N,/ESP32-S3/USB_D_P*%
X135237709Y-80300000D03*
%TO.N,PDM_CLK*%
X139242000Y-75899000D03*
X144576000Y-70565000D03*
%TO.N,SDA*%
X137972000Y-99521000D03*
X138099000Y-89445000D03*
%TO.N,SCL*%
X136956000Y-99521000D03*
X138226000Y-92917000D03*
%TO.N,/ESP32-S3/RXD*%
X152069000Y-95330000D03*
%TO.N,/ESP32-S3/TXD*%
X153275500Y-95393500D03*
%TD*%
%TO.N,12V*%
D25*
X110032000Y-68533000D02*
X109397000Y-69168000D01*
X110032000Y-66882000D02*
X110032000Y-68533000D01*
%TO.N,3V3*%
X121843000Y-84662000D02*
X121843000Y-84789000D01*
D26*
X132003000Y-79455000D02*
X130755389Y-79455000D01*
D25*
X121843000Y-84789000D02*
X122732000Y-85678000D01*
%TO.N,BTN*%
D27*
X152577000Y-98632000D02*
X153974000Y-97235000D01*
X153974000Y-97235000D02*
X153974000Y-74375000D01*
%TO.N,5V*%
D26*
X135686000Y-62655000D02*
X133436000Y-60405000D01*
X133436000Y-60405000D02*
X133273000Y-60405000D01*
%TO.N,AMP_PDN*%
D27*
X135788698Y-99496698D02*
X137337000Y-97948396D01*
X137337000Y-97948396D02*
X137337000Y-88175000D01*
%TO.N,PDM_DATA*%
X155942000Y-62818000D02*
X155942000Y-57865000D01*
X146608000Y-67517000D02*
X146354000Y-67771000D01*
X139242000Y-74883000D02*
X143625000Y-70500000D01*
X155942000Y-62818000D02*
X155942000Y-62818500D01*
X155942000Y-62818500D02*
X151243500Y-67517000D01*
X151243500Y-67517000D02*
X146608000Y-67517000D01*
%TO.N,/ESP32-S3/IO0*%
X132003000Y-87075000D02*
X133146000Y-88218000D01*
%TO.N,/ESP32-S3/EN*%
X152577000Y-69168000D02*
X150545000Y-69168000D01*
X154736000Y-71327000D02*
X154736000Y-75010000D01*
X132003000Y-84535000D02*
X133273000Y-83265000D01*
X133273000Y-77423000D02*
X141655000Y-69041000D01*
X133273000Y-83265000D02*
X133273000Y-77423000D01*
X150418000Y-69041000D02*
X150545000Y-69168000D01*
X154736000Y-71327000D02*
X152577000Y-69168000D01*
X141655000Y-69041000D02*
X150418000Y-69041000D01*
%TO.N,AMP_FAULTZ*%
X130860000Y-99394000D02*
X129082000Y-97616000D01*
X129082000Y-87837000D02*
X131114000Y-85805000D01*
X132384000Y-101807000D02*
X130860000Y-100283000D01*
X135813000Y-101807000D02*
X132384000Y-101807000D01*
X130860000Y-100283000D02*
X130860000Y-99394000D01*
X137845000Y-104220000D02*
X137845000Y-103839000D01*
X131114000Y-85805000D02*
X136702000Y-85805000D01*
X129082000Y-97616000D02*
X129082000Y-87837000D01*
X136702000Y-85805000D02*
X137845000Y-86948000D01*
X137845000Y-103839000D02*
X135813000Y-101807000D01*
%TO.N,LED_COB*%
X142544000Y-69676000D02*
X147878000Y-69676000D01*
X147878000Y-69676000D02*
X150545000Y-72343000D01*
X151351000Y-73149000D02*
X150545000Y-72343000D01*
%TO.N,BCLK*%
X134543000Y-104974000D02*
X135186000Y-104974000D01*
X135186000Y-104974000D02*
X135686000Y-104474000D01*
%TO.N,DOUT*%
X145211000Y-71835000D02*
X145211000Y-73613000D01*
X144703000Y-71581000D02*
X144957000Y-71581000D01*
X144957000Y-71581000D02*
X145211000Y-71835000D01*
%TO.N,/ESP32-S3/USB_D_N*%
D28*
X135437709Y-80950000D02*
X135237709Y-81150000D01*
X136702000Y-81995000D02*
X135657000Y-80950000D01*
X135657000Y-80950000D02*
X135437709Y-80950000D01*
%TO.N,/ESP32-S3/USB_D_P*%
X135437709Y-80500000D02*
X135237709Y-80300000D01*
X135813000Y-80344000D02*
X135657000Y-80500000D01*
X135657000Y-80500000D02*
X135437709Y-80500000D01*
X136702000Y-79455000D02*
X135813000Y-80344000D01*
%TO.N,PDM_CLK*%
D27*
X144576000Y-70565000D02*
X139242000Y-75899000D01*
%TO.N,SDA*%
X139115000Y-92790000D02*
X138099000Y-91774000D01*
X138099000Y-91774000D02*
X138099000Y-89488000D01*
X139115000Y-98378000D02*
X139115000Y-92790000D01*
X137972000Y-99521000D02*
X139115000Y-98378000D01*
%TO.N,SCL*%
X138226000Y-98251000D02*
X138226000Y-92917000D01*
X136956000Y-99521000D02*
X138226000Y-98251000D01*
%TO.N,/ESP32-S3/RXD*%
X135305000Y-100156000D02*
X131241000Y-96092000D01*
X131241000Y-92917000D02*
X132003000Y-92155000D01*
X131241000Y-96092000D02*
X131241000Y-92917000D01*
X152069000Y-95330000D02*
X147243000Y-100156000D01*
X147243000Y-100156000D02*
X135305000Y-100156000D01*
%TO.N,/ESP32-S3/TXD*%
X153275500Y-95393500D02*
X147878000Y-100791000D01*
X147878000Y-100791000D02*
X135178000Y-100791000D01*
X130606000Y-91012000D02*
X132003000Y-89615000D01*
X135178000Y-100791000D02*
X130606000Y-96219000D01*
X130606000Y-96219000D02*
X130606000Y-91012000D01*
%TD*%
%TA.AperFunction,Conductor*%
%TO.N,GND*%
G36*
X141943616Y-69417102D02*
G01*
X141990109Y-69470758D01*
X142000213Y-69541032D01*
X141997202Y-69555711D01*
X141984700Y-69602368D01*
X141984700Y-69749631D01*
X141984699Y-69749631D01*
X142022816Y-69891882D01*
X142096446Y-70019414D01*
X142096454Y-70019424D01*
X142200575Y-70123545D01*
X142200580Y-70123549D01*
X142200582Y-70123551D01*
X142200583Y-70123552D01*
X142200585Y-70123553D01*
X142250037Y-70152104D01*
X142328118Y-70197184D01*
X142470367Y-70235300D01*
X142470369Y-70235300D01*
X142617631Y-70235300D01*
X142617633Y-70235300D01*
X142759882Y-70197184D01*
X142887418Y-70123551D01*
X142941965Y-70069003D01*
X142969333Y-70054059D01*
X142995561Y-70037204D01*
X143001860Y-70036298D01*
X143004275Y-70034980D01*
X143031059Y-70032100D01*
X143031080Y-70032100D01*
X143099201Y-70052102D01*
X143145694Y-70105758D01*
X143155798Y-70176032D01*
X143140200Y-70221099D01*
X143103816Y-70284118D01*
X143065700Y-70426368D01*
X143065700Y-70503508D01*
X143045698Y-70571629D01*
X143028795Y-70592603D01*
X139334603Y-74286795D01*
X139272291Y-74320821D01*
X139245508Y-74323700D01*
X139168367Y-74323700D01*
X139073534Y-74349110D01*
X139026117Y-74361816D01*
X138898585Y-74435446D01*
X138898575Y-74435454D01*
X138794454Y-74539575D01*
X138794446Y-74539585D01*
X138720816Y-74667117D01*
X138720816Y-74667118D01*
X138687778Y-74790418D01*
X138682700Y-74809368D01*
X138682700Y-74956631D01*
X138682699Y-74956631D01*
X138720816Y-75098882D01*
X138794446Y-75226414D01*
X138794454Y-75226424D01*
X138869935Y-75301905D01*
X138903961Y-75364217D01*
X138898896Y-75435032D01*
X138869935Y-75480095D01*
X138794454Y-75555575D01*
X138794446Y-75555585D01*
X138720816Y-75683117D01*
X138682700Y-75825368D01*
X138682700Y-75972631D01*
X138682699Y-75972631D01*
X138720816Y-76114882D01*
X138794446Y-76242414D01*
X138794454Y-76242424D01*
X138898575Y-76346545D01*
X138898580Y-76346549D01*
X138898582Y-76346551D01*
X139026118Y-76420184D01*
X139168367Y-76458300D01*
X139168369Y-76458300D01*
X139315631Y-76458300D01*
X139315633Y-76458300D01*
X139457882Y-76420184D01*
X139585418Y-76346551D01*
X139689551Y-76242418D01*
X139763184Y-76114882D01*
X139801300Y-75972633D01*
X139801300Y-75895490D01*
X139821302Y-75827369D01*
X139838200Y-75806400D01*
X143956897Y-71687702D01*
X144019207Y-71653678D01*
X144090022Y-71658743D01*
X144146858Y-71701290D01*
X144167695Y-71744185D01*
X144181816Y-71796882D01*
X144255446Y-71924414D01*
X144255454Y-71924424D01*
X144359575Y-72028545D01*
X144359580Y-72028549D01*
X144359582Y-72028551D01*
X144359583Y-72028552D01*
X144359585Y-72028553D01*
X144396729Y-72049998D01*
X144487118Y-72102184D01*
X144629367Y-72140300D01*
X144629369Y-72140300D01*
X144728900Y-72140300D01*
X144797021Y-72160302D01*
X144843514Y-72213958D01*
X144854900Y-72266300D01*
X144854900Y-73125940D01*
X144834898Y-73194061D01*
X144817995Y-73215035D01*
X144763454Y-73269575D01*
X144763446Y-73269585D01*
X144689816Y-73397117D01*
X144651700Y-73539368D01*
X144651700Y-73686631D01*
X144651699Y-73686631D01*
X144689816Y-73828882D01*
X144763446Y-73956414D01*
X144763454Y-73956424D01*
X144867575Y-74060545D01*
X144867580Y-74060549D01*
X144867582Y-74060551D01*
X144995118Y-74134184D01*
X145137367Y-74172300D01*
X145137369Y-74172300D01*
X145284631Y-74172300D01*
X145284633Y-74172300D01*
X145426882Y-74134184D01*
X145554418Y-74060551D01*
X145658551Y-73956418D01*
X145732184Y-73828882D01*
X145770300Y-73686633D01*
X145770300Y-73539367D01*
X145732184Y-73397118D01*
X145658551Y-73269582D01*
X145658549Y-73269580D01*
X145658545Y-73269575D01*
X145604005Y-73215035D01*
X145569979Y-73152723D01*
X145567100Y-73125940D01*
X145567100Y-71788121D01*
X145567100Y-71788119D01*
X145542833Y-71697550D01*
X145528905Y-71673427D01*
X145495953Y-71616352D01*
X145495949Y-71616347D01*
X145468233Y-71588631D01*
X145429651Y-71550049D01*
X145429649Y-71550047D01*
X145207861Y-71328259D01*
X145187839Y-71302167D01*
X145150551Y-71237582D01*
X145150548Y-71237579D01*
X145150545Y-71237575D01*
X145046424Y-71133454D01*
X145046414Y-71133446D01*
X145031465Y-71124816D01*
X144982471Y-71073434D01*
X144969033Y-71003721D01*
X144995419Y-70937810D01*
X145005361Y-70926607D01*
X145023551Y-70908418D01*
X145097184Y-70780882D01*
X145135300Y-70638633D01*
X145135300Y-70491367D01*
X145097184Y-70349118D01*
X145023551Y-70221582D01*
X145023273Y-70221100D01*
X145006535Y-70152104D01*
X145029756Y-70085013D01*
X145085563Y-70041126D01*
X145132392Y-70032100D01*
X147678308Y-70032100D01*
X147746429Y-70052102D01*
X147767403Y-70069005D01*
X149569155Y-71870757D01*
X149603181Y-71933069D01*
X149598116Y-72003884D01*
X149596470Y-72008068D01*
X149579105Y-72049992D01*
X149579103Y-72049997D01*
X149540500Y-72244061D01*
X149540500Y-72441938D01*
X149574724Y-72613988D01*
X149579103Y-72636002D01*
X149654824Y-72818809D01*
X149764754Y-72983331D01*
X149904669Y-73123246D01*
X150069191Y-73233176D01*
X150251998Y-73308897D01*
X150446065Y-73347500D01*
X150643930Y-73347500D01*
X150643935Y-73347500D01*
X150713112Y-73333739D01*
X150783824Y-73340067D01*
X150839891Y-73383621D01*
X150846810Y-73394316D01*
X150854256Y-73407214D01*
X150903446Y-73492414D01*
X150903454Y-73492424D01*
X151007575Y-73596545D01*
X151007580Y-73596549D01*
X151007582Y-73596551D01*
X151135118Y-73670184D01*
X151277367Y-73708300D01*
X151277369Y-73708300D01*
X151424631Y-73708300D01*
X151424633Y-73708300D01*
X151566882Y-73670184D01*
X151694418Y-73596551D01*
X151798551Y-73492418D01*
X151872184Y-73364882D01*
X151910300Y-73222633D01*
X151910300Y-73075367D01*
X151872184Y-72933118D01*
X151798551Y-72805582D01*
X151798549Y-72805580D01*
X151798545Y-72805575D01*
X151694424Y-72701454D01*
X151694414Y-72701446D01*
X151596318Y-72644811D01*
X151547325Y-72593429D01*
X151533889Y-72523715D01*
X151535737Y-72511121D01*
X151549500Y-72441935D01*
X151549500Y-72244065D01*
X151510897Y-72049998D01*
X151435176Y-71867191D01*
X151325246Y-71702669D01*
X151185331Y-71562754D01*
X151020809Y-71452824D01*
X150957709Y-71426687D01*
X150838005Y-71377104D01*
X150838002Y-71377103D01*
X150643938Y-71338500D01*
X150643935Y-71338500D01*
X150446065Y-71338500D01*
X150446061Y-71338500D01*
X150251997Y-71377103D01*
X150251992Y-71377105D01*
X150210068Y-71394470D01*
X150139478Y-71402058D01*
X150075992Y-71370277D01*
X150072757Y-71367155D01*
X148317797Y-69612195D01*
X148283771Y-69549883D01*
X148288836Y-69479068D01*
X148331383Y-69422232D01*
X148397903Y-69397421D01*
X148406892Y-69397100D01*
X149468443Y-69397100D01*
X149536564Y-69417102D01*
X149583057Y-69470758D01*
X149584852Y-69474882D01*
X149654824Y-69643809D01*
X149764754Y-69808331D01*
X149904669Y-69948246D01*
X150069191Y-70058176D01*
X150251998Y-70133897D01*
X150446065Y-70172500D01*
X150643935Y-70172500D01*
X150838002Y-70133897D01*
X151020809Y-70058176D01*
X151185331Y-69948246D01*
X151325246Y-69808331D01*
X151435176Y-69643809D01*
X151436467Y-69640690D01*
X151452544Y-69601881D01*
X151497092Y-69546600D01*
X151564456Y-69524180D01*
X151568952Y-69524100D01*
X152377308Y-69524100D01*
X152445429Y-69544102D01*
X152466403Y-69561005D01*
X154342995Y-71437597D01*
X154377021Y-71499909D01*
X154379900Y-71526692D01*
X154379900Y-73745284D01*
X154359898Y-73813405D01*
X154306242Y-73859898D01*
X154235968Y-73870002D01*
X154197611Y-73856728D01*
X154197509Y-73856975D01*
X154193368Y-73855259D01*
X154190910Y-73854409D01*
X154189884Y-73853816D01*
X154096828Y-73828882D01*
X154047633Y-73815700D01*
X153900367Y-73815700D01*
X153805534Y-73841110D01*
X153758117Y-73853816D01*
X153630585Y-73927446D01*
X153630575Y-73927454D01*
X153526454Y-74031575D01*
X153526446Y-74031585D01*
X153452816Y-74159117D01*
X153414700Y-74301368D01*
X153414700Y-74448631D01*
X153414699Y-74448631D01*
X153452816Y-74590882D01*
X153526446Y-74718414D01*
X153526448Y-74718417D01*
X153526449Y-74718418D01*
X153580996Y-74772965D01*
X153615020Y-74835275D01*
X153617900Y-74862059D01*
X153617900Y-94742009D01*
X153597898Y-94810130D01*
X153544242Y-94856623D01*
X153473968Y-94866727D01*
X153459289Y-94863716D01*
X153401340Y-94848189D01*
X153349133Y-94834200D01*
X153201867Y-94834200D01*
X153107034Y-94859610D01*
X153059617Y-94872316D01*
X152932085Y-94945946D01*
X152932075Y-94945954D01*
X152827954Y-95050075D01*
X152827946Y-95050085D01*
X152799698Y-95099012D01*
X152748315Y-95148004D01*
X152678601Y-95161439D01*
X152612690Y-95135051D01*
X152581461Y-95099010D01*
X152553214Y-95050085D01*
X152516551Y-94986582D01*
X152516549Y-94986580D01*
X152516545Y-94986575D01*
X152412424Y-94882454D01*
X152412414Y-94882446D01*
X152284882Y-94808816D01*
X152142633Y-94770700D01*
X151995367Y-94770700D01*
X151900534Y-94796110D01*
X151853117Y-94808816D01*
X151725585Y-94882446D01*
X151725575Y-94882454D01*
X151621454Y-94986575D01*
X151621446Y-94986585D01*
X151547816Y-95114117D01*
X151509700Y-95256368D01*
X151509700Y-95333508D01*
X151489698Y-95401629D01*
X151472795Y-95422603D01*
X147132403Y-99762995D01*
X147070091Y-99797021D01*
X147043308Y-99799900D01*
X138640505Y-99799900D01*
X138572384Y-99779898D01*
X138525891Y-99726242D01*
X138515225Y-99660448D01*
X138516268Y-99650730D01*
X138531300Y-99594633D01*
X138531300Y-99510745D01*
X138532020Y-99504040D01*
X138543123Y-99477223D01*
X138551302Y-99449371D01*
X138558201Y-99440809D01*
X138559181Y-99438444D01*
X138561285Y-99436982D01*
X138568200Y-99428401D01*
X139399951Y-98596651D01*
X139446833Y-98515450D01*
X139471100Y-98424881D01*
X139471100Y-98331119D01*
X139471100Y-96654260D01*
X139491102Y-96586139D01*
X139544758Y-96539646D01*
X139615032Y-96529542D01*
X139679612Y-96559036D01*
X139686195Y-96565165D01*
X139787575Y-96666545D01*
X139787580Y-96666549D01*
X139787582Y-96666551D01*
X139915118Y-96740184D01*
X140057367Y-96778300D01*
X140057369Y-96778300D01*
X140204631Y-96778300D01*
X140204633Y-96778300D01*
X140346882Y-96740184D01*
X140474418Y-96666551D01*
X140578551Y-96562418D01*
X140652184Y-96434882D01*
X140690300Y-96292633D01*
X140690300Y-96145367D01*
X140652184Y-96003118D01*
X140578551Y-95875582D01*
X140578549Y-95875580D01*
X140578545Y-95875575D01*
X140474424Y-95771454D01*
X140474414Y-95771446D01*
X140346882Y-95697816D01*
X140204633Y-95659700D01*
X140057367Y-95659700D01*
X139962534Y-95685110D01*
X139915117Y-95697816D01*
X139787585Y-95771446D01*
X139787575Y-95771454D01*
X139686195Y-95872835D01*
X139623883Y-95906861D01*
X139553068Y-95901796D01*
X139496232Y-95859249D01*
X139471421Y-95792729D01*
X139471100Y-95783740D01*
X139471100Y-92743121D01*
X139471100Y-92743119D01*
X139446833Y-92652550D01*
X139399951Y-92571349D01*
X139333651Y-92505049D01*
X138492005Y-91663403D01*
X138457979Y-91601091D01*
X138455100Y-91574308D01*
X138455100Y-89932059D01*
X138475102Y-89863938D01*
X138492000Y-89842968D01*
X138546551Y-89788418D01*
X138620184Y-89660882D01*
X138658300Y-89518633D01*
X138658300Y-89371367D01*
X138620184Y-89229118D01*
X138546551Y-89101582D01*
X138546549Y-89101580D01*
X138546545Y-89101575D01*
X138442424Y-88997454D01*
X138442414Y-88997446D01*
X138314882Y-88923816D01*
X138172633Y-88885700D01*
X138025367Y-88885700D01*
X137979012Y-88898121D01*
X137883115Y-88923816D01*
X137882090Y-88924409D01*
X137881114Y-88924645D01*
X137875491Y-88926975D01*
X137875312Y-88926544D01*
X137871442Y-88929898D01*
X137841999Y-88934131D01*
X137813094Y-88941141D01*
X137807269Y-88939124D01*
X137801168Y-88940002D01*
X137774110Y-88927644D01*
X137746004Y-88917914D01*
X137742194Y-88913068D01*
X137736588Y-88910508D01*
X137720507Y-88885486D01*
X137702122Y-88862103D01*
X137700684Y-88854641D01*
X137698204Y-88850782D01*
X137693100Y-88815284D01*
X137693100Y-88662059D01*
X137713102Y-88593938D01*
X137730000Y-88572968D01*
X137784551Y-88518418D01*
X137858184Y-88390882D01*
X137896300Y-88248633D01*
X137896300Y-88101367D01*
X137858184Y-87959118D01*
X137798215Y-87855248D01*
X137784553Y-87831585D01*
X137784545Y-87831575D01*
X137675365Y-87722395D01*
X137641339Y-87660083D01*
X137646404Y-87589268D01*
X137688951Y-87532432D01*
X137755471Y-87507621D01*
X137764460Y-87507300D01*
X137918631Y-87507300D01*
X137918633Y-87507300D01*
X138060882Y-87469184D01*
X138188418Y-87395551D01*
X138292551Y-87291418D01*
X138366184Y-87163882D01*
X138404300Y-87021633D01*
X138404300Y-86874367D01*
X138366184Y-86732118D01*
X138292551Y-86604582D01*
X138292549Y-86604580D01*
X138292545Y-86604575D01*
X138188424Y-86500454D01*
X138188414Y-86500446D01*
X138060882Y-86426816D01*
X137918633Y-86388700D01*
X137918631Y-86388700D01*
X137841492Y-86388700D01*
X137773371Y-86368698D01*
X137752401Y-86351799D01*
X136920651Y-85520049D01*
X136920649Y-85520048D01*
X136920647Y-85520046D01*
X136839454Y-85473169D01*
X136839452Y-85473168D01*
X136839450Y-85473167D01*
X136748881Y-85448900D01*
X136748880Y-85448900D01*
X132813867Y-85448900D01*
X132745746Y-85428898D01*
X132699253Y-85375242D01*
X132689149Y-85304968D01*
X132718643Y-85240388D01*
X132724772Y-85233805D01*
X132728131Y-85230446D01*
X132783246Y-85175331D01*
X132893176Y-85010809D01*
X132968897Y-84828002D01*
X133007500Y-84633935D01*
X133007500Y-84436065D01*
X132968897Y-84241998D01*
X132951530Y-84200070D01*
X132943941Y-84129480D01*
X132975720Y-84065993D01*
X132978818Y-84062782D01*
X133481275Y-83560324D01*
X133481285Y-83560317D01*
X133557945Y-83483657D01*
X133557951Y-83483651D01*
X133604833Y-83402450D01*
X133629100Y-83311881D01*
X133629100Y-80373631D01*
X134678408Y-80373631D01*
X134716525Y-80515882D01*
X134790157Y-80643417D01*
X134793903Y-80648299D01*
X134819501Y-80714520D01*
X134805235Y-80784068D01*
X134793903Y-80801701D01*
X134790157Y-80806582D01*
X134716525Y-80934117D01*
X134716525Y-80934118D01*
X134681399Y-81065211D01*
X134678409Y-81076368D01*
X134678409Y-81223631D01*
X134678408Y-81223631D01*
X134716525Y-81365882D01*
X134790155Y-81493414D01*
X134790163Y-81493424D01*
X134894284Y-81597545D01*
X134894289Y-81597549D01*
X134894291Y-81597551D01*
X134894292Y-81597552D01*
X134894294Y-81597553D01*
X134936567Y-81621959D01*
X135021827Y-81671184D01*
X135164076Y-81709300D01*
X135164078Y-81709300D01*
X135311340Y-81709300D01*
X135311342Y-81709300D01*
X135453591Y-81671184D01*
X135538853Y-81621957D01*
X135607843Y-81605221D01*
X135674935Y-81628441D01*
X135718823Y-81684248D01*
X135725572Y-81754923D01*
X135725428Y-81755659D01*
X135697500Y-81896059D01*
X135697500Y-82093938D01*
X135736103Y-82288002D01*
X135811824Y-82470809D01*
X135921754Y-82635331D01*
X136061669Y-82775246D01*
X136226191Y-82885176D01*
X136408998Y-82960897D01*
X136603065Y-82999500D01*
X136800935Y-82999500D01*
X136995002Y-82960897D01*
X137177809Y-82885176D01*
X137342331Y-82775246D01*
X137482246Y-82635331D01*
X137592176Y-82470809D01*
X137667897Y-82288002D01*
X137706500Y-82093935D01*
X137706500Y-81896065D01*
X137667897Y-81701998D01*
X137592176Y-81519191D01*
X137482246Y-81354669D01*
X137342331Y-81214754D01*
X137177809Y-81104824D01*
X137005451Y-81033431D01*
X136995005Y-81029104D01*
X136995002Y-81029103D01*
X136800938Y-80990500D01*
X136800935Y-80990500D01*
X136603065Y-80990500D01*
X136603061Y-80990500D01*
X136408997Y-81029103D01*
X136408994Y-81029104D01*
X136340146Y-81057622D01*
X136269556Y-81065211D01*
X136206069Y-81033431D01*
X136202833Y-81030308D01*
X135986620Y-80814095D01*
X135982212Y-80806023D01*
X135974847Y-80800510D01*
X135965462Y-80775348D01*
X135952594Y-80751783D01*
X135953250Y-80742607D01*
X135950036Y-80733990D01*
X135955743Y-80707753D01*
X135957659Y-80680968D01*
X135963570Y-80671768D01*
X135965127Y-80664615D01*
X135986617Y-80635907D01*
X136076406Y-80546119D01*
X136076405Y-80546119D01*
X136202834Y-80419689D01*
X136265144Y-80385665D01*
X136335959Y-80390730D01*
X136340145Y-80392377D01*
X136408998Y-80420897D01*
X136603065Y-80459500D01*
X136800935Y-80459500D01*
X136995002Y-80420897D01*
X137177809Y-80345176D01*
X137342331Y-80235246D01*
X137482246Y-80095331D01*
X137592176Y-79930809D01*
X137667897Y-79748002D01*
X137706500Y-79553935D01*
X137706500Y-79356065D01*
X137667897Y-79161998D01*
X137592176Y-78979191D01*
X137482246Y-78814669D01*
X137342331Y-78674754D01*
X137177809Y-78564824D01*
X136995005Y-78489104D01*
X136995002Y-78489103D01*
X136800938Y-78450500D01*
X136800935Y-78450500D01*
X136603065Y-78450500D01*
X136603061Y-78450500D01*
X136408997Y-78489103D01*
X136408994Y-78489104D01*
X136226190Y-78564824D01*
X136061673Y-78674751D01*
X136061666Y-78674756D01*
X135921756Y-78814666D01*
X135921751Y-78814673D01*
X135811824Y-78979190D01*
X135736104Y-79161994D01*
X135736103Y-79161997D01*
X135697500Y-79356061D01*
X135697500Y-79553938D01*
X135725428Y-79694339D01*
X135719100Y-79765053D01*
X135675546Y-79821121D01*
X135608593Y-79844740D01*
X135539500Y-79828413D01*
X135538849Y-79828040D01*
X135518305Y-79816179D01*
X135453591Y-79778816D01*
X135311342Y-79740700D01*
X135164076Y-79740700D01*
X135073191Y-79765053D01*
X135021826Y-79778816D01*
X134894294Y-79852446D01*
X134894284Y-79852454D01*
X134790163Y-79956575D01*
X134790155Y-79956585D01*
X134716525Y-80084117D01*
X134678409Y-80226368D01*
X134678409Y-80373631D01*
X134678408Y-80373631D01*
X133629100Y-80373631D01*
X133629100Y-77622692D01*
X133649102Y-77554571D01*
X133666005Y-77533597D01*
X141765597Y-69434005D01*
X141792965Y-69419060D01*
X141819194Y-69402204D01*
X141825492Y-69401298D01*
X141827909Y-69399979D01*
X141854692Y-69397100D01*
X141875495Y-69397100D01*
X141943616Y-69417102D01*
G37*
%TD.AperFunction*%
%TA.AperFunction,Conductor*%
G36*
X132003801Y-45508730D02*
G01*
X132032037Y-45510437D01*
X132292720Y-45526206D01*
X132307801Y-45528037D01*
X132588767Y-45579526D01*
X132603518Y-45583162D01*
X132876229Y-45668141D01*
X132890441Y-45673531D01*
X133150906Y-45790758D01*
X133164374Y-45797827D01*
X133244356Y-45846177D01*
X133408818Y-45945597D01*
X133421325Y-45954230D01*
X133517780Y-46029798D01*
X133646175Y-46130389D01*
X133657563Y-46140479D01*
X133859520Y-46342436D01*
X133869610Y-46353824D01*
X133976071Y-46489712D01*
X134045763Y-46578666D01*
X134054407Y-46591189D01*
X134202172Y-46835625D01*
X134209242Y-46849096D01*
X134326463Y-47109547D01*
X134331859Y-47123775D01*
X134416834Y-47396470D01*
X134420475Y-47411243D01*
X134471960Y-47692186D01*
X134473794Y-47707290D01*
X134491270Y-47996197D01*
X134491500Y-48003805D01*
X134491500Y-52172368D01*
X134525287Y-52515409D01*
X134525290Y-52515430D01*
X134592537Y-52853510D01*
X134592540Y-52853521D01*
X134592541Y-52853524D01*
X134692609Y-53183403D01*
X134788678Y-53415333D01*
X134824529Y-53501886D01*
X134987032Y-53805906D01*
X135067676Y-53926598D01*
X135178548Y-54092531D01*
X135178554Y-54092538D01*
X135178561Y-54092548D01*
X135397224Y-54358990D01*
X135397250Y-54359019D01*
X135640980Y-54602749D01*
X135640989Y-54602757D01*
X135640994Y-54602762D01*
X135640999Y-54602766D01*
X135641009Y-54602775D01*
X135907451Y-54821438D01*
X135907458Y-54821443D01*
X135907469Y-54821452D01*
X136194096Y-55012969D01*
X136498114Y-55175471D01*
X136816597Y-55307391D01*
X137146476Y-55407459D01*
X137146485Y-55407460D01*
X137146489Y-55407462D01*
X137261190Y-55430277D01*
X137484575Y-55474711D01*
X137827638Y-55508500D01*
X137933055Y-55508500D01*
X161933054Y-55508500D01*
X161996194Y-55508500D01*
X162003801Y-55508730D01*
X162032037Y-55510437D01*
X162292720Y-55526206D01*
X162307801Y-55528037D01*
X162588767Y-55579526D01*
X162603518Y-55583162D01*
X162876229Y-55668141D01*
X162890441Y-55673531D01*
X163150906Y-55790758D01*
X163164374Y-55797827D01*
X163233165Y-55839412D01*
X163408818Y-55945597D01*
X163421325Y-55954230D01*
X163646175Y-56130389D01*
X163657563Y-56140479D01*
X163859520Y-56342436D01*
X163869610Y-56353824D01*
X163976071Y-56489712D01*
X164045763Y-56578666D01*
X164054407Y-56591189D01*
X164202172Y-56835625D01*
X164209242Y-56849096D01*
X164326463Y-57109547D01*
X164331859Y-57123775D01*
X164416834Y-57396470D01*
X164420475Y-57411243D01*
X164471960Y-57692186D01*
X164473794Y-57707290D01*
X164491270Y-57996197D01*
X164491500Y-58003805D01*
X164491500Y-61692575D01*
X164471498Y-61760696D01*
X164417842Y-61807189D01*
X164365500Y-61818575D01*
X158731000Y-61818575D01*
X158731000Y-108173575D01*
X164365500Y-108173575D01*
X164433621Y-108193577D01*
X164480114Y-108247233D01*
X164491500Y-108299575D01*
X164491500Y-111996194D01*
X164491270Y-112003802D01*
X164473794Y-112292709D01*
X164471960Y-112307813D01*
X164420475Y-112588756D01*
X164416834Y-112603529D01*
X164331859Y-112876224D01*
X164326463Y-112890452D01*
X164209242Y-113150903D01*
X164202172Y-113164374D01*
X164054407Y-113408810D01*
X164045763Y-113421333D01*
X163869610Y-113646175D01*
X163859520Y-113657563D01*
X163657563Y-113859520D01*
X163646175Y-113869610D01*
X163421333Y-114045763D01*
X163408810Y-114054407D01*
X163164374Y-114202172D01*
X163150903Y-114209242D01*
X162890452Y-114326463D01*
X162876224Y-114331859D01*
X162603529Y-114416834D01*
X162588756Y-114420475D01*
X162307813Y-114471960D01*
X162292709Y-114473794D01*
X162003802Y-114491270D01*
X161996194Y-114491500D01*
X137827631Y-114491500D01*
X137484590Y-114525287D01*
X137484578Y-114525288D01*
X137484575Y-114525289D01*
X137484572Y-114525289D01*
X137484569Y-114525290D01*
X137146489Y-114592537D01*
X136816603Y-114692607D01*
X136816601Y-114692607D01*
X136816597Y-114692609D01*
X136696635Y-114742299D01*
X136498113Y-114824529D01*
X136194093Y-114987032D01*
X135907476Y-115178543D01*
X135907451Y-115178561D01*
X135641009Y-115397224D01*
X135640980Y-115397250D01*
X135397250Y-115640980D01*
X135397224Y-115641009D01*
X135178561Y-115907451D01*
X135178543Y-115907476D01*
X134987032Y-116194093D01*
X134824529Y-116498113D01*
X134692607Y-116816603D01*
X134592537Y-117146489D01*
X134525290Y-117484569D01*
X134525287Y-117484590D01*
X134491500Y-117827631D01*
X134491500Y-121996194D01*
X134491270Y-122003802D01*
X134473794Y-122292709D01*
X134471960Y-122307813D01*
X134420475Y-122588756D01*
X134416834Y-122603529D01*
X134331859Y-122876224D01*
X134326463Y-122890452D01*
X134209242Y-123150903D01*
X134202172Y-123164374D01*
X134054407Y-123408810D01*
X134045763Y-123421333D01*
X133869610Y-123646175D01*
X133859520Y-123657563D01*
X133657563Y-123859520D01*
X133646175Y-123869610D01*
X133421333Y-124045763D01*
X133408810Y-124054407D01*
X133164374Y-124202172D01*
X133150903Y-124209242D01*
X132890452Y-124326463D01*
X132876224Y-124331859D01*
X132603529Y-124416834D01*
X132588756Y-124420475D01*
X132307813Y-124471960D01*
X132292709Y-124473794D01*
X132003802Y-124491270D01*
X131996194Y-124491500D01*
X108003806Y-124491500D01*
X107996198Y-124491270D01*
X107707290Y-124473794D01*
X107692186Y-124471960D01*
X107411243Y-124420475D01*
X107396470Y-124416834D01*
X107123775Y-124331859D01*
X107109547Y-124326463D01*
X106849096Y-124209242D01*
X106835625Y-124202172D01*
X106654255Y-124092531D01*
X106591185Y-124054404D01*
X106578671Y-124045766D01*
X106353824Y-123869610D01*
X106342436Y-123859520D01*
X106140479Y-123657563D01*
X106130389Y-123646175D01*
X105954230Y-123421325D01*
X105945597Y-123408818D01*
X105797827Y-123164374D01*
X105790757Y-123150903D01*
X105775060Y-123116026D01*
X105673531Y-122890441D01*
X105668140Y-122876224D01*
X105583162Y-122603518D01*
X105579526Y-122588767D01*
X105528037Y-122307801D01*
X105526206Y-122292720D01*
X105508730Y-122003801D01*
X105508500Y-121996194D01*
X105508500Y-121868615D01*
X105995500Y-121868615D01*
X105995500Y-122131384D01*
X106029796Y-122391890D01*
X106029797Y-122391896D01*
X106029798Y-122391898D01*
X106097806Y-122645708D01*
X106198361Y-122888470D01*
X106198362Y-122888471D01*
X106198367Y-122888482D01*
X106329740Y-123116026D01*
X106329742Y-123116029D01*
X106329743Y-123116030D01*
X106381440Y-123183403D01*
X106489703Y-123324495D01*
X106489712Y-123324505D01*
X106675494Y-123510287D01*
X106675504Y-123510296D01*
X106675505Y-123510297D01*
X106860398Y-123652170D01*
X106883973Y-123670259D01*
X107111517Y-123801632D01*
X107111521Y-123801633D01*
X107111530Y-123801639D01*
X107354292Y-123902194D01*
X107608102Y-123970202D01*
X107608108Y-123970202D01*
X107608109Y-123970203D01*
X107637999Y-123974138D01*
X107868618Y-124004500D01*
X107868625Y-124004500D01*
X108131375Y-124004500D01*
X108131382Y-124004500D01*
X108391898Y-123970202D01*
X108645708Y-123902194D01*
X108888470Y-123801639D01*
X109116030Y-123670257D01*
X109324495Y-123510297D01*
X109510297Y-123324495D01*
X109670257Y-123116030D01*
X109801639Y-122888470D01*
X109902194Y-122645708D01*
X109970202Y-122391898D01*
X110004500Y-122131382D01*
X110004500Y-121868618D01*
X109970202Y-121608102D01*
X109902194Y-121354292D01*
X109801639Y-121111530D01*
X109801633Y-121111521D01*
X109801632Y-121111517D01*
X109670259Y-120883973D01*
X109510296Y-120675504D01*
X109510287Y-120675494D01*
X109324505Y-120489712D01*
X109324495Y-120489703D01*
X109116026Y-120329740D01*
X108888482Y-120198367D01*
X108888474Y-120198363D01*
X108888470Y-120198361D01*
X108645708Y-120097806D01*
X108391898Y-120029798D01*
X108391896Y-120029797D01*
X108391890Y-120029796D01*
X108131384Y-119995500D01*
X108131382Y-119995500D01*
X107868618Y-119995500D01*
X107868615Y-119995500D01*
X107608109Y-120029796D01*
X107354292Y-120097806D01*
X107111528Y-120198362D01*
X107111517Y-120198367D01*
X106883973Y-120329740D01*
X106675504Y-120489703D01*
X106675494Y-120489712D01*
X106489712Y-120675494D01*
X106489703Y-120675504D01*
X106329740Y-120883973D01*
X106198367Y-121111517D01*
X106198362Y-121111528D01*
X106097806Y-121354292D01*
X106029796Y-121608109D01*
X105995500Y-121868615D01*
X105508500Y-121868615D01*
X105508500Y-116485631D01*
X119632699Y-116485631D01*
X119670816Y-116627882D01*
X119744446Y-116755414D01*
X119744454Y-116755424D01*
X119848575Y-116859545D01*
X119848580Y-116859549D01*
X119848582Y-116859551D01*
X119976118Y-116933184D01*
X120118367Y-116971300D01*
X120118369Y-116971300D01*
X120265631Y-116971300D01*
X120265633Y-116971300D01*
X120407882Y-116933184D01*
X120535418Y-116859551D01*
X120639551Y-116755418D01*
X120713184Y-116627882D01*
X120751300Y-116485633D01*
X120751300Y-116485631D01*
X121918699Y-116485631D01*
X121956816Y-116627882D01*
X122030446Y-116755414D01*
X122030454Y-116755424D01*
X122134575Y-116859545D01*
X122134580Y-116859549D01*
X122134582Y-116859551D01*
X122262118Y-116933184D01*
X122404367Y-116971300D01*
X122404369Y-116971300D01*
X122551631Y-116971300D01*
X122551633Y-116971300D01*
X122693882Y-116933184D01*
X122821418Y-116859551D01*
X122925551Y-116755418D01*
X122999184Y-116627882D01*
X123037300Y-116485633D01*
X123037300Y-116485631D01*
X124204699Y-116485631D01*
X124242816Y-116627882D01*
X124316446Y-116755414D01*
X124316454Y-116755424D01*
X124420575Y-116859545D01*
X124420580Y-116859549D01*
X124420582Y-116859551D01*
X124548118Y-116933184D01*
X124690367Y-116971300D01*
X124690369Y-116971300D01*
X124837631Y-116971300D01*
X124837633Y-116971300D01*
X124979882Y-116933184D01*
X125107418Y-116859551D01*
X125211551Y-116755418D01*
X125285184Y-116627882D01*
X125323300Y-116485633D01*
X125323300Y-116338367D01*
X125285184Y-116196118D01*
X125211551Y-116068582D01*
X125211549Y-116068580D01*
X125211545Y-116068575D01*
X125107424Y-115964454D01*
X125107414Y-115964446D01*
X124979882Y-115890816D01*
X124837633Y-115852700D01*
X124690367Y-115852700D01*
X124595534Y-115878110D01*
X124548117Y-115890816D01*
X124420585Y-115964446D01*
X124420575Y-115964454D01*
X124316454Y-116068575D01*
X124316446Y-116068585D01*
X124242816Y-116196117D01*
X124204700Y-116338368D01*
X124204700Y-116485631D01*
X124204699Y-116485631D01*
X123037300Y-116485631D01*
X123037300Y-116338367D01*
X122999184Y-116196118D01*
X122925551Y-116068582D01*
X122925549Y-116068580D01*
X122925545Y-116068575D01*
X122821424Y-115964454D01*
X122821414Y-115964446D01*
X122693882Y-115890816D01*
X122551633Y-115852700D01*
X122404367Y-115852700D01*
X122309534Y-115878110D01*
X122262117Y-115890816D01*
X122134585Y-115964446D01*
X122134575Y-115964454D01*
X122030454Y-116068575D01*
X122030446Y-116068585D01*
X121956816Y-116196117D01*
X121918700Y-116338368D01*
X121918700Y-116485631D01*
X121918699Y-116485631D01*
X120751300Y-116485631D01*
X120751300Y-116338367D01*
X120713184Y-116196118D01*
X120639551Y-116068582D01*
X120639549Y-116068580D01*
X120639545Y-116068575D01*
X120535424Y-115964454D01*
X120535414Y-115964446D01*
X120407882Y-115890816D01*
X120265633Y-115852700D01*
X120118367Y-115852700D01*
X120023534Y-115878110D01*
X119976117Y-115890816D01*
X119848585Y-115964446D01*
X119848575Y-115964454D01*
X119744454Y-116068575D01*
X119744446Y-116068585D01*
X119670816Y-116196117D01*
X119632700Y-116338368D01*
X119632700Y-116485631D01*
X119632699Y-116485631D01*
X105508500Y-116485631D01*
X105508500Y-114913389D01*
X106899500Y-114913389D01*
X106899500Y-115086611D01*
X106926598Y-115257701D01*
X106980127Y-115422445D01*
X106980128Y-115422448D01*
X106980130Y-115422452D01*
X107058768Y-115576788D01*
X107160587Y-115716930D01*
X107283069Y-115839412D01*
X107338630Y-115879779D01*
X107423212Y-115941232D01*
X107577555Y-116019873D01*
X107742299Y-116073402D01*
X107913389Y-116100500D01*
X107913392Y-116100500D01*
X108086608Y-116100500D01*
X108086611Y-116100500D01*
X108257701Y-116073402D01*
X108422445Y-116019873D01*
X108576788Y-115941232D01*
X108716928Y-115839414D01*
X108839414Y-115716928D01*
X108941232Y-115576788D01*
X109019873Y-115422445D01*
X109073402Y-115257701D01*
X109100500Y-115086611D01*
X109100500Y-114913389D01*
X109073402Y-114742299D01*
X109019873Y-114577555D01*
X108956731Y-114453631D01*
X119632699Y-114453631D01*
X119670816Y-114595882D01*
X119744446Y-114723414D01*
X119744454Y-114723424D01*
X119848575Y-114827545D01*
X119848580Y-114827549D01*
X119848582Y-114827551D01*
X119976118Y-114901184D01*
X120118367Y-114939300D01*
X120118369Y-114939300D01*
X120265631Y-114939300D01*
X120265633Y-114939300D01*
X120407882Y-114901184D01*
X120535418Y-114827551D01*
X120639551Y-114723418D01*
X120713184Y-114595882D01*
X120751300Y-114453633D01*
X120751300Y-114453631D01*
X121918699Y-114453631D01*
X121956816Y-114595882D01*
X122030446Y-114723414D01*
X122030454Y-114723424D01*
X122134575Y-114827545D01*
X122134580Y-114827549D01*
X122134582Y-114827551D01*
X122262118Y-114901184D01*
X122404367Y-114939300D01*
X122404369Y-114939300D01*
X122551631Y-114939300D01*
X122551633Y-114939300D01*
X122693882Y-114901184D01*
X122821418Y-114827551D01*
X122925551Y-114723418D01*
X122999184Y-114595882D01*
X123037300Y-114453633D01*
X123037300Y-114453631D01*
X124204699Y-114453631D01*
X124242816Y-114595882D01*
X124316446Y-114723414D01*
X124316454Y-114723424D01*
X124420575Y-114827545D01*
X124420580Y-114827549D01*
X124420582Y-114827551D01*
X124548118Y-114901184D01*
X124690367Y-114939300D01*
X124690369Y-114939300D01*
X124837631Y-114939300D01*
X124837633Y-114939300D01*
X124979882Y-114901184D01*
X125107418Y-114827551D01*
X125211551Y-114723418D01*
X125285184Y-114595882D01*
X125323300Y-114453633D01*
X125323300Y-114306367D01*
X125285184Y-114164118D01*
X125211551Y-114036582D01*
X125211549Y-114036580D01*
X125211545Y-114036575D01*
X125107424Y-113932454D01*
X125107414Y-113932446D01*
X124979882Y-113858816D01*
X124837633Y-113820700D01*
X124690367Y-113820700D01*
X124595534Y-113846110D01*
X124548117Y-113858816D01*
X124420585Y-113932446D01*
X124420575Y-113932454D01*
X124316454Y-114036575D01*
X124316446Y-114036585D01*
X124242816Y-114164117D01*
X124204700Y-114306368D01*
X124204700Y-114453631D01*
X124204699Y-114453631D01*
X123037300Y-114453631D01*
X123037300Y-114306367D01*
X122999184Y-114164118D01*
X122925551Y-114036582D01*
X122925549Y-114036580D01*
X122925545Y-114036575D01*
X122821424Y-113932454D01*
X122821414Y-113932446D01*
X122693882Y-113858816D01*
X122551633Y-113820700D01*
X122404367Y-113820700D01*
X122309534Y-113846110D01*
X122262117Y-113858816D01*
X122134585Y-113932446D01*
X122134575Y-113932454D01*
X122030454Y-114036575D01*
X122030446Y-114036585D01*
X121956816Y-114164117D01*
X121918700Y-114306368D01*
X121918700Y-114453631D01*
X121918699Y-114453631D01*
X120751300Y-114453631D01*
X120751300Y-114306367D01*
X120713184Y-114164118D01*
X120639551Y-114036582D01*
X120639549Y-114036580D01*
X120639545Y-114036575D01*
X120535424Y-113932454D01*
X120535414Y-113932446D01*
X120407882Y-113858816D01*
X120265633Y-113820700D01*
X120118367Y-113820700D01*
X120023534Y-113846110D01*
X119976117Y-113858816D01*
X119848585Y-113932446D01*
X119848575Y-113932454D01*
X119744454Y-114036575D01*
X119744446Y-114036585D01*
X119670816Y-114164117D01*
X119632700Y-114306368D01*
X119632700Y-114453631D01*
X119632699Y-114453631D01*
X108956731Y-114453631D01*
X108941232Y-114423212D01*
X108904147Y-114372169D01*
X108839412Y-114283069D01*
X108716930Y-114160587D01*
X108576788Y-114058768D01*
X108422452Y-113980130D01*
X108422448Y-113980128D01*
X108422445Y-113980127D01*
X108257701Y-113926598D01*
X108086611Y-113899500D01*
X107913389Y-113899500D01*
X107742299Y-113926598D01*
X107742296Y-113926598D01*
X107742295Y-113926599D01*
X107724276Y-113932454D01*
X107577555Y-113980127D01*
X107577553Y-113980127D01*
X107577547Y-113980130D01*
X107423211Y-114058768D01*
X107283069Y-114160587D01*
X107160587Y-114283069D01*
X107058768Y-114423211D01*
X106980130Y-114577547D01*
X106980127Y-114577553D01*
X106980127Y-114577555D01*
X106926598Y-114742299D01*
X106899500Y-114913389D01*
X105508500Y-114913389D01*
X105508500Y-111734836D01*
X139308500Y-111734836D01*
X139308500Y-112453163D01*
X139320885Y-112515425D01*
X139341338Y-112618249D01*
X139405752Y-112773758D01*
X139499266Y-112913712D01*
X139618288Y-113032734D01*
X139758242Y-113126248D01*
X139913751Y-113190662D01*
X140078839Y-113223500D01*
X140078840Y-113223500D01*
X140247160Y-113223500D01*
X140247161Y-113223500D01*
X140412249Y-113190662D01*
X140567758Y-113126248D01*
X140707712Y-113032734D01*
X140826734Y-112913712D01*
X140920248Y-112773758D01*
X140984662Y-112618249D01*
X141017500Y-112453161D01*
X141017500Y-111734839D01*
X140984662Y-111569751D01*
X140922942Y-111420745D01*
X140922939Y-111420737D01*
X141308500Y-111420737D01*
X141308500Y-112767246D01*
X141308502Y-112767270D01*
X141314959Y-112827339D01*
X141314959Y-112827341D01*
X141365657Y-112963266D01*
X141365658Y-112963267D01*
X141452596Y-113079404D01*
X141568733Y-113166342D01*
X141704658Y-113217040D01*
X141764745Y-113223500D01*
X142561254Y-113223499D01*
X142621342Y-113217040D01*
X142757267Y-113166342D01*
X142873404Y-113079404D01*
X142960342Y-112963267D01*
X143011040Y-112827342D01*
X143017500Y-112767255D01*
X143017499Y-111776836D01*
X146325500Y-111776836D01*
X146325500Y-112495163D01*
X146344117Y-112588756D01*
X146358338Y-112660249D01*
X146422752Y-112815758D01*
X146516266Y-112955712D01*
X146635288Y-113074734D01*
X146775242Y-113168248D01*
X146930751Y-113232662D01*
X147095839Y-113265500D01*
X147095840Y-113265500D01*
X147264160Y-113265500D01*
X147264161Y-113265500D01*
X147429249Y-113232662D01*
X147584758Y-113168248D01*
X147724712Y-113074734D01*
X147843734Y-112955712D01*
X147937248Y-112815758D01*
X148001662Y-112660249D01*
X148034500Y-112495161D01*
X148034500Y-111776839D01*
X148034499Y-111776836D01*
X148325500Y-111776836D01*
X148325500Y-112495163D01*
X148344117Y-112588756D01*
X148358338Y-112660249D01*
X148422752Y-112815758D01*
X148516266Y-112955712D01*
X148635288Y-113074734D01*
X148775242Y-113168248D01*
X148930751Y-113232662D01*
X149095839Y-113265500D01*
X149095840Y-113265500D01*
X149264160Y-113265500D01*
X149264161Y-113265500D01*
X149429249Y-113232662D01*
X149584758Y-113168248D01*
X149724712Y-113074734D01*
X149843734Y-112955712D01*
X149937248Y-112815758D01*
X150001662Y-112660249D01*
X150034500Y-112495161D01*
X150034500Y-111776839D01*
X150034499Y-111776836D01*
X150325500Y-111776836D01*
X150325500Y-112495163D01*
X150344117Y-112588756D01*
X150358338Y-112660249D01*
X150422752Y-112815758D01*
X150516266Y-112955712D01*
X150635288Y-113074734D01*
X150775242Y-113168248D01*
X150930751Y-113232662D01*
X151095839Y-113265500D01*
X151095840Y-113265500D01*
X151264160Y-113265500D01*
X151264161Y-113265500D01*
X151429249Y-113232662D01*
X151584758Y-113168248D01*
X151724712Y-113074734D01*
X151843734Y-112955712D01*
X151937248Y-112815758D01*
X152001662Y-112660249D01*
X152034500Y-112495161D01*
X152034500Y-111776839D01*
X152001662Y-111611751D01*
X151939942Y-111462745D01*
X151939939Y-111462737D01*
X154325500Y-111462737D01*
X154325500Y-112809246D01*
X154325502Y-112809270D01*
X154331959Y-112869339D01*
X154331959Y-112869341D01*
X154382657Y-113005266D01*
X154382658Y-113005267D01*
X154469596Y-113121404D01*
X154585733Y-113208342D01*
X154721658Y-113259040D01*
X154781745Y-113265500D01*
X155578254Y-113265499D01*
X155638342Y-113259040D01*
X155774267Y-113208342D01*
X155890404Y-113121404D01*
X155977342Y-113005267D01*
X156028040Y-112869342D01*
X156034500Y-112809255D01*
X156034499Y-111868615D01*
X159995500Y-111868615D01*
X159995500Y-112131384D01*
X160029796Y-112391890D01*
X160029797Y-112391896D01*
X160029798Y-112391898D01*
X160097806Y-112645708D01*
X160198361Y-112888470D01*
X160198362Y-112888471D01*
X160198367Y-112888482D01*
X160329740Y-113116026D01*
X160329742Y-113116029D01*
X160329743Y-113116030D01*
X160368349Y-113166342D01*
X160489703Y-113324495D01*
X160489712Y-113324505D01*
X160675494Y-113510287D01*
X160675504Y-113510296D01*
X160675505Y-113510297D01*
X160860398Y-113652170D01*
X160883973Y-113670259D01*
X161111517Y-113801632D01*
X161111521Y-113801633D01*
X161111530Y-113801639D01*
X161354292Y-113902194D01*
X161608102Y-113970202D01*
X161608108Y-113970202D01*
X161608109Y-113970203D01*
X161637999Y-113974138D01*
X161868618Y-114004500D01*
X161868625Y-114004500D01*
X162131375Y-114004500D01*
X162131382Y-114004500D01*
X162391898Y-113970202D01*
X162645708Y-113902194D01*
X162888470Y-113801639D01*
X163116030Y-113670257D01*
X163324495Y-113510297D01*
X163510297Y-113324495D01*
X163670257Y-113116030D01*
X163801639Y-112888470D01*
X163902194Y-112645708D01*
X163970202Y-112391898D01*
X164004500Y-112131382D01*
X164004500Y-111868618D01*
X163970202Y-111608102D01*
X163902194Y-111354292D01*
X163801639Y-111111530D01*
X163801633Y-111111521D01*
X163801632Y-111111517D01*
X163670259Y-110883973D01*
X163510296Y-110675504D01*
X163510287Y-110675494D01*
X163324505Y-110489712D01*
X163324495Y-110489703D01*
X163116026Y-110329740D01*
X162888482Y-110198367D01*
X162888474Y-110198363D01*
X162888470Y-110198361D01*
X162645708Y-110097806D01*
X162391898Y-110029798D01*
X162391896Y-110029797D01*
X162391890Y-110029796D01*
X162131384Y-109995500D01*
X162131382Y-109995500D01*
X161868618Y-109995500D01*
X161868615Y-109995500D01*
X161608109Y-110029796D01*
X161354292Y-110097806D01*
X161111528Y-110198362D01*
X161111517Y-110198367D01*
X160883973Y-110329740D01*
X160675504Y-110489703D01*
X160675494Y-110489712D01*
X160489712Y-110675494D01*
X160489703Y-110675504D01*
X160329740Y-110883973D01*
X160198367Y-111111517D01*
X160198362Y-111111528D01*
X160198361Y-111111530D01*
X160180246Y-111155263D01*
X160097806Y-111354292D01*
X160029796Y-111608109D01*
X159995500Y-111868615D01*
X156034499Y-111868615D01*
X156034499Y-111462746D01*
X156028040Y-111402658D01*
X155977342Y-111266733D01*
X155890404Y-111150596D01*
X155774267Y-111063658D01*
X155774265Y-111063657D01*
X155774266Y-111063657D01*
X155638349Y-111012962D01*
X155638344Y-111012960D01*
X155638342Y-111012960D01*
X155608298Y-111009730D01*
X155578256Y-111006500D01*
X154781753Y-111006500D01*
X154781729Y-111006502D01*
X154721660Y-111012959D01*
X154721658Y-111012959D01*
X154585733Y-111063657D01*
X154469596Y-111150596D01*
X154382657Y-111266734D01*
X154331962Y-111402650D01*
X154331960Y-111402658D01*
X154325500Y-111462737D01*
X151939939Y-111462737D01*
X151937250Y-111456246D01*
X151937248Y-111456242D01*
X151909187Y-111414246D01*
X151843734Y-111316288D01*
X151724712Y-111197266D01*
X151584758Y-111103752D01*
X151429249Y-111039338D01*
X151264163Y-111006500D01*
X151264161Y-111006500D01*
X151095839Y-111006500D01*
X151095836Y-111006500D01*
X150930750Y-111039338D01*
X150930745Y-111039340D01*
X150775241Y-111103752D01*
X150635292Y-111197263D01*
X150635285Y-111197268D01*
X150516268Y-111316285D01*
X150516263Y-111316292D01*
X150422752Y-111456241D01*
X150358340Y-111611745D01*
X150358338Y-111611750D01*
X150325500Y-111776836D01*
X150034499Y-111776836D01*
X150001662Y-111611751D01*
X149937248Y-111456242D01*
X149843734Y-111316288D01*
X149724712Y-111197266D01*
X149584758Y-111103752D01*
X149429249Y-111039338D01*
X149264163Y-111006500D01*
X149264161Y-111006500D01*
X149095839Y-111006500D01*
X149095836Y-111006500D01*
X148930750Y-111039338D01*
X148930745Y-111039340D01*
X148775241Y-111103752D01*
X148635292Y-111197263D01*
X148635285Y-111197268D01*
X148516268Y-111316285D01*
X148516263Y-111316292D01*
X148422752Y-111456241D01*
X148358340Y-111611745D01*
X148358338Y-111611750D01*
X148325500Y-111776836D01*
X148034499Y-111776836D01*
X148001662Y-111611751D01*
X147937248Y-111456242D01*
X147843734Y-111316288D01*
X147724712Y-111197266D01*
X147584758Y-111103752D01*
X147429249Y-111039338D01*
X147264163Y-111006500D01*
X147264161Y-111006500D01*
X147095839Y-111006500D01*
X147095836Y-111006500D01*
X146930750Y-111039338D01*
X146930745Y-111039340D01*
X146775241Y-111103752D01*
X146635292Y-111197263D01*
X146635285Y-111197268D01*
X146516268Y-111316285D01*
X146516263Y-111316292D01*
X146422752Y-111456241D01*
X146358340Y-111611745D01*
X146358338Y-111611750D01*
X146325500Y-111776836D01*
X143017499Y-111776836D01*
X143017499Y-111420746D01*
X143011040Y-111360658D01*
X142960342Y-111224733D01*
X142873404Y-111108596D01*
X142757267Y-111021658D01*
X142757265Y-111021657D01*
X142757266Y-111021657D01*
X142621349Y-110970962D01*
X142621344Y-110970960D01*
X142621342Y-110970960D01*
X142591298Y-110967730D01*
X142561256Y-110964500D01*
X141764753Y-110964500D01*
X141764729Y-110964502D01*
X141704660Y-110970959D01*
X141704658Y-110970959D01*
X141568733Y-111021657D01*
X141452596Y-111108596D01*
X141365657Y-111224734D01*
X141314962Y-111360650D01*
X141314960Y-111360658D01*
X141308500Y-111420737D01*
X140922939Y-111420737D01*
X140920250Y-111414246D01*
X140920248Y-111414242D01*
X140912502Y-111402650D01*
X140826734Y-111274288D01*
X140707712Y-111155266D01*
X140567758Y-111061752D01*
X140449964Y-111012960D01*
X140412254Y-110997340D01*
X140412249Y-110997338D01*
X140247163Y-110964500D01*
X140247161Y-110964500D01*
X140078839Y-110964500D01*
X140078836Y-110964500D01*
X139913750Y-110997338D01*
X139913745Y-110997340D01*
X139758241Y-111061752D01*
X139618292Y-111155263D01*
X139618285Y-111155268D01*
X139499268Y-111274285D01*
X139499263Y-111274292D01*
X139405752Y-111414241D01*
X139341340Y-111569745D01*
X139341338Y-111569750D01*
X139308500Y-111734836D01*
X105508500Y-111734836D01*
X105508500Y-108471631D01*
X134986699Y-108471631D01*
X135024816Y-108613882D01*
X135098446Y-108741414D01*
X135098454Y-108741424D01*
X135202575Y-108845545D01*
X135202580Y-108845549D01*
X135202582Y-108845551D01*
X135330118Y-108919184D01*
X135472367Y-108957300D01*
X135472369Y-108957300D01*
X135619631Y-108957300D01*
X135619633Y-108957300D01*
X135761882Y-108919184D01*
X135889418Y-108845551D01*
X135993551Y-108741418D01*
X136067184Y-108613882D01*
X136105300Y-108471633D01*
X136105300Y-108324367D01*
X136067184Y-108182118D01*
X135993551Y-108054582D01*
X135993549Y-108054580D01*
X135993545Y-108054575D01*
X135889424Y-107950454D01*
X135889414Y-107950446D01*
X135761882Y-107876816D01*
X135619633Y-107838700D01*
X135472367Y-107838700D01*
X135377534Y-107864110D01*
X135330117Y-107876816D01*
X135202585Y-107950446D01*
X135202575Y-107950454D01*
X135098454Y-108054575D01*
X135098446Y-108054585D01*
X135024816Y-108182117D01*
X134986700Y-108324368D01*
X134986700Y-108471631D01*
X134986699Y-108471631D01*
X105508500Y-108471631D01*
X105508500Y-106853737D01*
X106193500Y-106853737D01*
X106193500Y-107650246D01*
X106193502Y-107650270D01*
X106199959Y-107710339D01*
X106199959Y-107710341D01*
X106250657Y-107846266D01*
X106250658Y-107846267D01*
X106337596Y-107962404D01*
X106453733Y-108049342D01*
X106589658Y-108100040D01*
X106649745Y-108106500D01*
X107996254Y-108106499D01*
X108056342Y-108100040D01*
X108192267Y-108049342D01*
X108308404Y-107962404D01*
X108395342Y-107846267D01*
X108446040Y-107710342D01*
X108452500Y-107650255D01*
X108452499Y-106853746D01*
X108446040Y-106793658D01*
X108395342Y-106657733D01*
X108308404Y-106541596D01*
X108192267Y-106454658D01*
X108192265Y-106454657D01*
X108192266Y-106454657D01*
X108056349Y-106403962D01*
X108056344Y-106403960D01*
X108056342Y-106403960D01*
X108026298Y-106400730D01*
X107996256Y-106397500D01*
X106649753Y-106397500D01*
X106649729Y-106397502D01*
X106589660Y-106403959D01*
X106589658Y-106403959D01*
X106453733Y-106454657D01*
X106337596Y-106541596D01*
X106250657Y-106657734D01*
X106199962Y-106793650D01*
X106199960Y-106793658D01*
X106193500Y-106853737D01*
X105508500Y-106853737D01*
X105508500Y-105167836D01*
X106193500Y-105167836D01*
X106193500Y-105336163D01*
X106210663Y-105422445D01*
X106226338Y-105501249D01*
X106290752Y-105656758D01*
X106384266Y-105796712D01*
X106503288Y-105915734D01*
X106643242Y-106009248D01*
X106798751Y-106073662D01*
X106963839Y-106106500D01*
X106963840Y-106106500D01*
X107682160Y-106106500D01*
X107682161Y-106106500D01*
X107847249Y-106073662D01*
X108002758Y-106009248D01*
X108142712Y-105915734D01*
X108261734Y-105796712D01*
X108355248Y-105656758D01*
X108419662Y-105501249D01*
X108452500Y-105336161D01*
X108452500Y-105167839D01*
X108428589Y-105047631D01*
X133983699Y-105047631D01*
X134021816Y-105189882D01*
X134095446Y-105317414D01*
X134095454Y-105317424D01*
X134199575Y-105421545D01*
X134199580Y-105421549D01*
X134199582Y-105421551D01*
X134199583Y-105421552D01*
X134199585Y-105421553D01*
X134231355Y-105439895D01*
X134327118Y-105495184D01*
X134469367Y-105533300D01*
X134469369Y-105533300D01*
X134616631Y-105533300D01*
X134616633Y-105533300D01*
X134758882Y-105495184D01*
X134886418Y-105421551D01*
X134940965Y-105367003D01*
X134968333Y-105352059D01*
X134994561Y-105335204D01*
X135000860Y-105334298D01*
X135003275Y-105332980D01*
X135030059Y-105330100D01*
X135120971Y-105330100D01*
X135189092Y-105350102D01*
X135190957Y-105351324D01*
X135210191Y-105364176D01*
X135392998Y-105439897D01*
X135587065Y-105478500D01*
X135784935Y-105478500D01*
X135979002Y-105439897D01*
X136161809Y-105364176D01*
X136243441Y-105309631D01*
X142365699Y-105309631D01*
X142403816Y-105451882D01*
X142477446Y-105579414D01*
X142477454Y-105579424D01*
X142581575Y-105683545D01*
X142581580Y-105683549D01*
X142581582Y-105683551D01*
X142709118Y-105757184D01*
X142851367Y-105795300D01*
X142851369Y-105795300D01*
X142998631Y-105795300D01*
X142998633Y-105795300D01*
X143140882Y-105757184D01*
X143268418Y-105683551D01*
X143372551Y-105579418D01*
X143446184Y-105451882D01*
X143484300Y-105309633D01*
X143484300Y-105162367D01*
X143446184Y-105020118D01*
X143384564Y-104913389D01*
X153899500Y-104913389D01*
X153899500Y-105086611D01*
X153926598Y-105257701D01*
X153980127Y-105422445D01*
X153980128Y-105422448D01*
X153980130Y-105422452D01*
X154058768Y-105576788D01*
X154160587Y-105716930D01*
X154283069Y-105839412D01*
X154283072Y-105839414D01*
X154423212Y-105941232D01*
X154577555Y-106019873D01*
X154742299Y-106073402D01*
X154913389Y-106100500D01*
X154913392Y-106100500D01*
X155086608Y-106100500D01*
X155086611Y-106100500D01*
X155257701Y-106073402D01*
X155422445Y-106019873D01*
X155576788Y-105941232D01*
X155716928Y-105839414D01*
X155839414Y-105716928D01*
X155941232Y-105576788D01*
X156019873Y-105422445D01*
X156073402Y-105257701D01*
X156100500Y-105086611D01*
X156100500Y-104913389D01*
X156073402Y-104742299D01*
X156019873Y-104577555D01*
X155941232Y-104423212D01*
X155839414Y-104283072D01*
X155839412Y-104283069D01*
X155716930Y-104160587D01*
X155576788Y-104058768D01*
X155422452Y-103980130D01*
X155422448Y-103980128D01*
X155422445Y-103980127D01*
X155257701Y-103926598D01*
X155086611Y-103899500D01*
X154913389Y-103899500D01*
X154742299Y-103926598D01*
X154742296Y-103926598D01*
X154742295Y-103926599D01*
X154663253Y-103952281D01*
X154577555Y-103980127D01*
X154577553Y-103980127D01*
X154577547Y-103980130D01*
X154423211Y-104058768D01*
X154283069Y-104160587D01*
X154160587Y-104283069D01*
X154058768Y-104423211D01*
X153980130Y-104577547D01*
X153980127Y-104577556D01*
X153926961Y-104741183D01*
X153926598Y-104742299D01*
X153899500Y-104913389D01*
X143384564Y-104913389D01*
X143372553Y-104892585D01*
X143372545Y-104892575D01*
X143268424Y-104788454D01*
X143268414Y-104788446D01*
X143140882Y-104714816D01*
X143112776Y-104707285D01*
X142998633Y-104676700D01*
X142851367Y-104676700D01*
X142756534Y-104702110D01*
X142709117Y-104714816D01*
X142581585Y-104788446D01*
X142581575Y-104788454D01*
X142477454Y-104892575D01*
X142477446Y-104892585D01*
X142403816Y-105020117D01*
X142365700Y-105162368D01*
X142365700Y-105309631D01*
X142365699Y-105309631D01*
X136243441Y-105309631D01*
X136326331Y-105254246D01*
X136466246Y-105114331D01*
X136576176Y-104949809D01*
X136651897Y-104767002D01*
X136690500Y-104572935D01*
X136690500Y-104375065D01*
X136651897Y-104180998D01*
X136576176Y-103998191D01*
X136466246Y-103833669D01*
X136326331Y-103693754D01*
X136161809Y-103583824D01*
X136089926Y-103554049D01*
X135979005Y-103508104D01*
X135979002Y-103508103D01*
X135784938Y-103469500D01*
X135784935Y-103469500D01*
X135587065Y-103469500D01*
X135587061Y-103469500D01*
X135392997Y-103508103D01*
X135392994Y-103508104D01*
X135210190Y-103583824D01*
X135045673Y-103693751D01*
X135045666Y-103693756D01*
X134905756Y-103833666D01*
X134905751Y-103833673D01*
X134795824Y-103998190D01*
X134720104Y-104180994D01*
X134720104Y-104180995D01*
X134720104Y-104180997D01*
X134693789Y-104313283D01*
X134660881Y-104376192D01*
X134599185Y-104411323D01*
X134570210Y-104414700D01*
X134469367Y-104414700D01*
X134390316Y-104435882D01*
X134327117Y-104452816D01*
X134199585Y-104526446D01*
X134199575Y-104526454D01*
X134095454Y-104630575D01*
X134095446Y-104630585D01*
X134021816Y-104758117D01*
X133983700Y-104900368D01*
X133983700Y-105047631D01*
X133983699Y-105047631D01*
X108428589Y-105047631D01*
X108419662Y-105002751D01*
X108355248Y-104847242D01*
X108261734Y-104707288D01*
X108142712Y-104588266D01*
X108002758Y-104494752D01*
X107901516Y-104452816D01*
X107847254Y-104430340D01*
X107847249Y-104430338D01*
X107682163Y-104397500D01*
X107682161Y-104397500D01*
X106963839Y-104397500D01*
X106963836Y-104397500D01*
X106798750Y-104430338D01*
X106798745Y-104430340D01*
X106643241Y-104494752D01*
X106503292Y-104588263D01*
X106503285Y-104588268D01*
X106384268Y-104707285D01*
X106384263Y-104707292D01*
X106290752Y-104847241D01*
X106226340Y-105002745D01*
X106226338Y-105002750D01*
X106193500Y-105167836D01*
X105508500Y-105167836D01*
X105508500Y-92863631D01*
X119632699Y-92863631D01*
X119670816Y-93005882D01*
X119744446Y-93133414D01*
X119744454Y-93133424D01*
X119848575Y-93237545D01*
X119848580Y-93237549D01*
X119848582Y-93237551D01*
X119976118Y-93311184D01*
X120118367Y-93349300D01*
X120118369Y-93349300D01*
X120265631Y-93349300D01*
X120265633Y-93349300D01*
X120407882Y-93311184D01*
X120535418Y-93237551D01*
X120639551Y-93133418D01*
X120713184Y-93005882D01*
X120751300Y-92863633D01*
X120751300Y-92863631D01*
X121918699Y-92863631D01*
X121956816Y-93005882D01*
X122030446Y-93133414D01*
X122030454Y-93133424D01*
X122134575Y-93237545D01*
X122134580Y-93237549D01*
X122134582Y-93237551D01*
X122262118Y-93311184D01*
X122404367Y-93349300D01*
X122404369Y-93349300D01*
X122551631Y-93349300D01*
X122551633Y-93349300D01*
X122693882Y-93311184D01*
X122821418Y-93237551D01*
X122925551Y-93133418D01*
X122999184Y-93005882D01*
X123037300Y-92863633D01*
X123037300Y-92863631D01*
X124204699Y-92863631D01*
X124242816Y-93005882D01*
X124316446Y-93133414D01*
X124316454Y-93133424D01*
X124420575Y-93237545D01*
X124420580Y-93237549D01*
X124420582Y-93237551D01*
X124548118Y-93311184D01*
X124690367Y-93349300D01*
X124690369Y-93349300D01*
X124837631Y-93349300D01*
X124837633Y-93349300D01*
X124979882Y-93311184D01*
X125107418Y-93237551D01*
X125211551Y-93133418D01*
X125285184Y-93005882D01*
X125323300Y-92863633D01*
X125323300Y-92716367D01*
X125285184Y-92574118D01*
X125211551Y-92446582D01*
X125211549Y-92446580D01*
X125211545Y-92446575D01*
X125107424Y-92342454D01*
X125107414Y-92342446D01*
X124979882Y-92268816D01*
X124837633Y-92230700D01*
X124690367Y-92230700D01*
X124603654Y-92253935D01*
X124548117Y-92268816D01*
X124420585Y-92342446D01*
X124420575Y-92342454D01*
X124316454Y-92446575D01*
X124316446Y-92446585D01*
X124242816Y-92574117D01*
X124242816Y-92574118D01*
X124211150Y-92692298D01*
X124204700Y-92716368D01*
X124204700Y-92863631D01*
X124204699Y-92863631D01*
X123037300Y-92863631D01*
X123037300Y-92716367D01*
X122999184Y-92574118D01*
X122925551Y-92446582D01*
X122925549Y-92446580D01*
X122925545Y-92446575D01*
X122821424Y-92342454D01*
X122821414Y-92342446D01*
X122693882Y-92268816D01*
X122551633Y-92230700D01*
X122404367Y-92230700D01*
X122317654Y-92253935D01*
X122262117Y-92268816D01*
X122134585Y-92342446D01*
X122134575Y-92342454D01*
X122030454Y-92446575D01*
X122030446Y-92446585D01*
X121956816Y-92574117D01*
X121956816Y-92574118D01*
X121925150Y-92692298D01*
X121918700Y-92716368D01*
X121918700Y-92863631D01*
X121918699Y-92863631D01*
X120751300Y-92863631D01*
X120751300Y-92716367D01*
X120713184Y-92574118D01*
X120639551Y-92446582D01*
X120639549Y-92446580D01*
X120639545Y-92446575D01*
X120535424Y-92342454D01*
X120535414Y-92342446D01*
X120407882Y-92268816D01*
X120265633Y-92230700D01*
X120118367Y-92230700D01*
X120031654Y-92253935D01*
X119976117Y-92268816D01*
X119848585Y-92342446D01*
X119848575Y-92342454D01*
X119744454Y-92446575D01*
X119744446Y-92446585D01*
X119670816Y-92574117D01*
X119670816Y-92574118D01*
X119639150Y-92692298D01*
X119632700Y-92716368D01*
X119632700Y-92863631D01*
X119632699Y-92863631D01*
X105508500Y-92863631D01*
X105508500Y-91339631D01*
X119632699Y-91339631D01*
X119670816Y-91481882D01*
X119744446Y-91609414D01*
X119744454Y-91609424D01*
X119848575Y-91713545D01*
X119848580Y-91713549D01*
X119848582Y-91713551D01*
X119976118Y-91787184D01*
X120118367Y-91825300D01*
X120118369Y-91825300D01*
X120265631Y-91825300D01*
X120265633Y-91825300D01*
X120407882Y-91787184D01*
X120535418Y-91713551D01*
X120639551Y-91609418D01*
X120713184Y-91481882D01*
X120751300Y-91339633D01*
X120751300Y-91339631D01*
X121918699Y-91339631D01*
X121956816Y-91481882D01*
X122030446Y-91609414D01*
X122030454Y-91609424D01*
X122134575Y-91713545D01*
X122134580Y-91713549D01*
X122134582Y-91713551D01*
X122262118Y-91787184D01*
X122404367Y-91825300D01*
X122404369Y-91825300D01*
X122551631Y-91825300D01*
X122551633Y-91825300D01*
X122693882Y-91787184D01*
X122821418Y-91713551D01*
X122925551Y-91609418D01*
X122999184Y-91481882D01*
X123037300Y-91339633D01*
X123037300Y-91339631D01*
X124204699Y-91339631D01*
X124242816Y-91481882D01*
X124316446Y-91609414D01*
X124316454Y-91609424D01*
X124420575Y-91713545D01*
X124420580Y-91713549D01*
X124420582Y-91713551D01*
X124548118Y-91787184D01*
X124690367Y-91825300D01*
X124690369Y-91825300D01*
X124837631Y-91825300D01*
X124837633Y-91825300D01*
X124979882Y-91787184D01*
X125107418Y-91713551D01*
X125211551Y-91609418D01*
X125285184Y-91481882D01*
X125323300Y-91339633D01*
X125323300Y-91192367D01*
X125285184Y-91050118D01*
X125211551Y-90922582D01*
X125211549Y-90922580D01*
X125211545Y-90922575D01*
X125107424Y-90818454D01*
X125107414Y-90818446D01*
X124979882Y-90744816D01*
X124979714Y-90744771D01*
X124837633Y-90706700D01*
X124690367Y-90706700D01*
X124595534Y-90732110D01*
X124548117Y-90744816D01*
X124420585Y-90818446D01*
X124420575Y-90818454D01*
X124316454Y-90922575D01*
X124316446Y-90922585D01*
X124242816Y-91050117D01*
X124242816Y-91050118D01*
X124205575Y-91189104D01*
X124204700Y-91192368D01*
X124204700Y-91339631D01*
X124204699Y-91339631D01*
X123037300Y-91339631D01*
X123037300Y-91192367D01*
X122999184Y-91050118D01*
X122925551Y-90922582D01*
X122925549Y-90922580D01*
X122925545Y-90922575D01*
X122821424Y-90818454D01*
X122821414Y-90818446D01*
X122693882Y-90744816D01*
X122693714Y-90744771D01*
X122551633Y-90706700D01*
X122404367Y-90706700D01*
X122309534Y-90732110D01*
X122262117Y-90744816D01*
X122134585Y-90818446D01*
X122134575Y-90818454D01*
X122030454Y-90922575D01*
X122030446Y-90922585D01*
X121956816Y-91050117D01*
X121956816Y-91050118D01*
X121919575Y-91189104D01*
X121918700Y-91192368D01*
X121918700Y-91339631D01*
X121918699Y-91339631D01*
X120751300Y-91339631D01*
X120751300Y-91192367D01*
X120713184Y-91050118D01*
X120639551Y-90922582D01*
X120639549Y-90922580D01*
X120639545Y-90922575D01*
X120535424Y-90818454D01*
X120535414Y-90818446D01*
X120407882Y-90744816D01*
X120407714Y-90744771D01*
X120265633Y-90706700D01*
X120118367Y-90706700D01*
X120023534Y-90732110D01*
X119976117Y-90744816D01*
X119848585Y-90818446D01*
X119848575Y-90818454D01*
X119744454Y-90922575D01*
X119744446Y-90922585D01*
X119670816Y-91050117D01*
X119670816Y-91050118D01*
X119633575Y-91189104D01*
X119632700Y-91192368D01*
X119632700Y-91339631D01*
X119632699Y-91339631D01*
X105508500Y-91339631D01*
X105508500Y-88558631D01*
X125461699Y-88558631D01*
X125499816Y-88700882D01*
X125573446Y-88828414D01*
X125573454Y-88828424D01*
X125677575Y-88932545D01*
X125677580Y-88932549D01*
X125677582Y-88932551D01*
X125677583Y-88932552D01*
X125677585Y-88932553D01*
X125692460Y-88941141D01*
X125805118Y-89006184D01*
X125947367Y-89044300D01*
X125947369Y-89044300D01*
X126094631Y-89044300D01*
X126094633Y-89044300D01*
X126236882Y-89006184D01*
X126364418Y-88932551D01*
X126468551Y-88828418D01*
X126542184Y-88700882D01*
X126580300Y-88558633D01*
X126580300Y-88411367D01*
X126542184Y-88269118D01*
X126480514Y-88162302D01*
X126468553Y-88141585D01*
X126468545Y-88141575D01*
X126364424Y-88037454D01*
X126364414Y-88037446D01*
X126236882Y-87963816D01*
X126219345Y-87959117D01*
X126094633Y-87925700D01*
X125947367Y-87925700D01*
X125852534Y-87951110D01*
X125805117Y-87963816D01*
X125677585Y-88037446D01*
X125677575Y-88037454D01*
X125573454Y-88141575D01*
X125573446Y-88141585D01*
X125499816Y-88269117D01*
X125461700Y-88411368D01*
X125461700Y-88558631D01*
X125461699Y-88558631D01*
X105508500Y-88558631D01*
X105508500Y-87790119D01*
X128725900Y-87790119D01*
X128725900Y-97662880D01*
X128750166Y-97753446D01*
X128750169Y-97753454D01*
X128797046Y-97834647D01*
X128797054Y-97834657D01*
X130466995Y-99504597D01*
X130501020Y-99566909D01*
X130503900Y-99593692D01*
X130503900Y-100329880D01*
X130528166Y-100420446D01*
X130528169Y-100420454D01*
X130575046Y-100501647D01*
X130575048Y-100501649D01*
X130575049Y-100501651D01*
X132094648Y-102021249D01*
X132094669Y-102021272D01*
X132165342Y-102091945D01*
X132165347Y-102091949D01*
X132165349Y-102091951D01*
X132246550Y-102138833D01*
X132337118Y-102163100D01*
X132337119Y-102163100D01*
X135613308Y-102163100D01*
X135681429Y-102183102D01*
X135702403Y-102200005D01*
X137322323Y-103819925D01*
X137356349Y-103882237D01*
X137351284Y-103953052D01*
X137342348Y-103972019D01*
X137323817Y-104004115D01*
X137323816Y-104004117D01*
X137323816Y-104004118D01*
X137285700Y-104146367D01*
X137285700Y-104146368D01*
X137285700Y-104146369D01*
X137285700Y-104293631D01*
X137285699Y-104293631D01*
X137323816Y-104435882D01*
X137397446Y-104563414D01*
X137397454Y-104563424D01*
X137501575Y-104667545D01*
X137501580Y-104667549D01*
X137501582Y-104667551D01*
X137501583Y-104667552D01*
X137501585Y-104667553D01*
X137551066Y-104696121D01*
X137629118Y-104741184D01*
X137771367Y-104779300D01*
X137771369Y-104779300D01*
X137918631Y-104779300D01*
X137918633Y-104779300D01*
X138060882Y-104741184D01*
X138188418Y-104667551D01*
X138292551Y-104563418D01*
X138366184Y-104435882D01*
X138404300Y-104293633D01*
X138404300Y-104146367D01*
X138366184Y-104004118D01*
X138292551Y-103876582D01*
X138222414Y-103806445D01*
X138189804Y-103749960D01*
X138176835Y-103701557D01*
X138176834Y-103701555D01*
X138176833Y-103701550D01*
X138129951Y-103620349D01*
X138063651Y-103554049D01*
X137979102Y-103469500D01*
X136031657Y-101522054D01*
X136031647Y-101522046D01*
X135950454Y-101475169D01*
X135950452Y-101475168D01*
X135950450Y-101475167D01*
X135859881Y-101450900D01*
X135859880Y-101450900D01*
X132583691Y-101450900D01*
X132515570Y-101430898D01*
X132494596Y-101413995D01*
X131253005Y-100172403D01*
X131218979Y-100110091D01*
X131216100Y-100083308D01*
X131216100Y-99451044D01*
X131216101Y-99451031D01*
X131216101Y-99347120D01*
X131191833Y-99256550D01*
X131144951Y-99175349D01*
X131144949Y-99175347D01*
X131122785Y-99153183D01*
X131078651Y-99109049D01*
X129475005Y-97505403D01*
X129440979Y-97443091D01*
X129438100Y-97416308D01*
X129438100Y-88036692D01*
X129458102Y-87968571D01*
X129475005Y-87947597D01*
X130131188Y-87291414D01*
X130869559Y-86553042D01*
X130931869Y-86519019D01*
X131002684Y-86524083D01*
X131059520Y-86566630D01*
X131084331Y-86633150D01*
X131075061Y-86690356D01*
X131037105Y-86781990D01*
X131037103Y-86781997D01*
X130998500Y-86976061D01*
X130998500Y-87173938D01*
X131037103Y-87368002D01*
X131037104Y-87368005D01*
X131112824Y-87550809D01*
X131222754Y-87715331D01*
X131362669Y-87855246D01*
X131527191Y-87965176D01*
X131709998Y-88040897D01*
X131904065Y-88079500D01*
X132101935Y-88079500D01*
X132296002Y-88040897D01*
X132337927Y-88023531D01*
X132358124Y-88021359D01*
X132377158Y-88014260D01*
X132392702Y-88017641D01*
X132408517Y-88015941D01*
X132426680Y-88025032D01*
X132446532Y-88029351D01*
X132469178Y-88046304D01*
X132472004Y-88047719D01*
X132475242Y-88050844D01*
X132549795Y-88125397D01*
X132583821Y-88187709D01*
X132586700Y-88214492D01*
X132586700Y-88291631D01*
X132586699Y-88291631D01*
X132624816Y-88433882D01*
X132698446Y-88561414D01*
X132698454Y-88561424D01*
X132724078Y-88587048D01*
X132724083Y-88587052D01*
X132802582Y-88665551D01*
X132930118Y-88739184D01*
X133072367Y-88777300D01*
X133072369Y-88777300D01*
X133219631Y-88777300D01*
X133219633Y-88777300D01*
X133361882Y-88739184D01*
X133489418Y-88665551D01*
X133593551Y-88561418D01*
X133667184Y-88433882D01*
X133705300Y-88291633D01*
X133705300Y-88144367D01*
X133667184Y-88002118D01*
X133622121Y-87924066D01*
X133593553Y-87874585D01*
X133593545Y-87874575D01*
X133489424Y-87770454D01*
X133489414Y-87770446D01*
X133361882Y-87696816D01*
X133219633Y-87658700D01*
X133219631Y-87658700D01*
X133142492Y-87658700D01*
X133112576Y-87649916D01*
X133082107Y-87643288D01*
X133077011Y-87639473D01*
X133074371Y-87638698D01*
X133053397Y-87621795D01*
X132978844Y-87547242D01*
X132969227Y-87529631D01*
X134870699Y-87529631D01*
X134908816Y-87671882D01*
X134982446Y-87799414D01*
X134982454Y-87799424D01*
X135086575Y-87903545D01*
X135086580Y-87903549D01*
X135086582Y-87903551D01*
X135214118Y-87977184D01*
X135356367Y-88015300D01*
X135356369Y-88015300D01*
X135503631Y-88015300D01*
X135503633Y-88015300D01*
X135645882Y-87977184D01*
X135773418Y-87903551D01*
X135877551Y-87799418D01*
X135951184Y-87671882D01*
X135989300Y-87529633D01*
X135989300Y-87382367D01*
X135951184Y-87240118D01*
X135877551Y-87112582D01*
X135877549Y-87112580D01*
X135877545Y-87112575D01*
X135773424Y-87008454D01*
X135773414Y-87008446D01*
X135645882Y-86934816D01*
X135503633Y-86896700D01*
X135356367Y-86896700D01*
X135261534Y-86922110D01*
X135214117Y-86934816D01*
X135086585Y-87008446D01*
X135086575Y-87008454D01*
X134982454Y-87112575D01*
X134982446Y-87112585D01*
X134908816Y-87240117D01*
X134908816Y-87240118D01*
X134874549Y-87368005D01*
X134870700Y-87382368D01*
X134870700Y-87529631D01*
X134870699Y-87529631D01*
X132969227Y-87529631D01*
X132944818Y-87484930D01*
X132949883Y-87414115D01*
X132951531Y-87409927D01*
X132968894Y-87368009D01*
X132968893Y-87368009D01*
X132968897Y-87368002D01*
X133007500Y-87173935D01*
X133007500Y-86976065D01*
X132968897Y-86781998D01*
X132893176Y-86599191D01*
X132783246Y-86434669D01*
X132724772Y-86376195D01*
X132690746Y-86313883D01*
X132695811Y-86243068D01*
X132738358Y-86186232D01*
X132804878Y-86161421D01*
X132813867Y-86161100D01*
X136502308Y-86161100D01*
X136570429Y-86181102D01*
X136591403Y-86198005D01*
X137248795Y-86855397D01*
X137282821Y-86917709D01*
X137285700Y-86944492D01*
X137285700Y-87021631D01*
X137285699Y-87021631D01*
X137323816Y-87163882D01*
X137397446Y-87291414D01*
X137397454Y-87291424D01*
X137506635Y-87400605D01*
X137540661Y-87462917D01*
X137535596Y-87533732D01*
X137493049Y-87590568D01*
X137426529Y-87615379D01*
X137417540Y-87615700D01*
X137410633Y-87615700D01*
X137263367Y-87615700D01*
X137174646Y-87639473D01*
X137121117Y-87653816D01*
X136993585Y-87727446D01*
X136993575Y-87727454D01*
X136889454Y-87831575D01*
X136889446Y-87831585D01*
X136815816Y-87959117D01*
X136800762Y-88015300D01*
X136783560Y-88079500D01*
X136777700Y-88101368D01*
X136777700Y-88248631D01*
X136777699Y-88248631D01*
X136815816Y-88390882D01*
X136889446Y-88518414D01*
X136889448Y-88518417D01*
X136889449Y-88518418D01*
X136943996Y-88572965D01*
X136978020Y-88635275D01*
X136980900Y-88662059D01*
X136980900Y-97748704D01*
X136960898Y-97816825D01*
X136943995Y-97837799D01*
X135881301Y-98900493D01*
X135818989Y-98934519D01*
X135792206Y-98937398D01*
X135715065Y-98937398D01*
X135624370Y-98961700D01*
X135572815Y-98975514D01*
X135445283Y-99049144D01*
X135445273Y-99049152D01*
X135341152Y-99153273D01*
X135341144Y-99153283D01*
X135267513Y-99280817D01*
X135253394Y-99333509D01*
X135216442Y-99394131D01*
X135152581Y-99425152D01*
X135082087Y-99416722D01*
X135042593Y-99389991D01*
X131634005Y-95981403D01*
X131599979Y-95919091D01*
X131597100Y-95892308D01*
X131597100Y-93251971D01*
X131617102Y-93183850D01*
X131670758Y-93137357D01*
X131741032Y-93127253D01*
X131747641Y-93128384D01*
X131904065Y-93159500D01*
X132101935Y-93159500D01*
X132296002Y-93120897D01*
X132478809Y-93045176D01*
X132643331Y-92935246D01*
X132783246Y-92795331D01*
X132893176Y-92630809D01*
X132968897Y-92448002D01*
X133007500Y-92253935D01*
X133007500Y-92056065D01*
X132968897Y-91861998D01*
X132893176Y-91679191D01*
X132783246Y-91514669D01*
X132643331Y-91374754D01*
X132478809Y-91264824D01*
X132296005Y-91189104D01*
X132296002Y-91189103D01*
X132101938Y-91150500D01*
X132101935Y-91150500D01*
X131904065Y-91150500D01*
X131904061Y-91150500D01*
X131709997Y-91189103D01*
X131709994Y-91189104D01*
X131527190Y-91264824D01*
X131362673Y-91374751D01*
X131362666Y-91374756D01*
X131222756Y-91514666D01*
X131222751Y-91514673D01*
X131192865Y-91559401D01*
X131138388Y-91604929D01*
X131067945Y-91613777D01*
X131003901Y-91583136D01*
X130966590Y-91522734D01*
X130962100Y-91489399D01*
X130962100Y-91211691D01*
X130982102Y-91143570D01*
X130998999Y-91122601D01*
X131530760Y-90590840D01*
X131593069Y-90556818D01*
X131663884Y-90561882D01*
X131668037Y-90563516D01*
X131709998Y-90580897D01*
X131904065Y-90619500D01*
X132101935Y-90619500D01*
X132296002Y-90580897D01*
X132478809Y-90505176D01*
X132643331Y-90395246D01*
X132783246Y-90255331D01*
X132893176Y-90090809D01*
X132968897Y-89908002D01*
X133007500Y-89713935D01*
X133007500Y-89516065D01*
X132968897Y-89321998D01*
X132893176Y-89139191D01*
X132783246Y-88974669D01*
X132643331Y-88834754D01*
X132564489Y-88782073D01*
X132564486Y-88782071D01*
X132478809Y-88724824D01*
X132296005Y-88649104D01*
X132296002Y-88649103D01*
X132101938Y-88610500D01*
X132101935Y-88610500D01*
X131904065Y-88610500D01*
X131904061Y-88610500D01*
X131709997Y-88649103D01*
X131709994Y-88649104D01*
X131527190Y-88724824D01*
X131362673Y-88834751D01*
X131362666Y-88834756D01*
X131222756Y-88974666D01*
X131222751Y-88974673D01*
X131112824Y-89139190D01*
X131037104Y-89321994D01*
X131037103Y-89321997D01*
X130998500Y-89516061D01*
X130998500Y-89713938D01*
X131037103Y-89908002D01*
X131037104Y-89908005D01*
X131054469Y-89949928D01*
X131062058Y-90020518D01*
X131030278Y-90084005D01*
X131027155Y-90087241D01*
X130369624Y-90744771D01*
X130369625Y-90744772D01*
X130321051Y-90793346D01*
X130321046Y-90793352D01*
X130274169Y-90874545D01*
X130274166Y-90874553D01*
X130249900Y-90965119D01*
X130249900Y-96172119D01*
X130249900Y-96265881D01*
X130257068Y-96292633D01*
X130274166Y-96356446D01*
X130274169Y-96356454D01*
X130321046Y-96437647D01*
X130321054Y-96437657D01*
X134888638Y-101005239D01*
X134888659Y-101005262D01*
X134959342Y-101075945D01*
X134959347Y-101075949D01*
X134959349Y-101075951D01*
X135040550Y-101122833D01*
X135131119Y-101147100D01*
X135131121Y-101147100D01*
X147924879Y-101147100D01*
X147924881Y-101147100D01*
X148015450Y-101122833D01*
X148096651Y-101075951D01*
X153182897Y-95989705D01*
X153245209Y-95955679D01*
X153252845Y-95954263D01*
X153262361Y-95952800D01*
X153349133Y-95952800D01*
X153465946Y-95921499D01*
X153472753Y-95920453D01*
X153501387Y-95924285D01*
X153530265Y-95924973D01*
X153536116Y-95928933D01*
X153543122Y-95929871D01*
X153565139Y-95948576D01*
X153589061Y-95964767D01*
X153591842Y-95971262D01*
X153597229Y-95975839D01*
X153605637Y-96003476D01*
X153617009Y-96030031D01*
X153617810Y-96043486D01*
X153617894Y-96043761D01*
X153617838Y-96043957D01*
X153617900Y-96044990D01*
X153617900Y-97035308D01*
X153597898Y-97103429D01*
X153580995Y-97124403D01*
X152669603Y-98035795D01*
X152607291Y-98069821D01*
X152580508Y-98072700D01*
X152503367Y-98072700D01*
X152408534Y-98098110D01*
X152361117Y-98110816D01*
X152233585Y-98184446D01*
X152233575Y-98184454D01*
X152129454Y-98288575D01*
X152129446Y-98288585D01*
X152055816Y-98416117D01*
X152053468Y-98424880D01*
X152023707Y-98535951D01*
X152017700Y-98558368D01*
X152017700Y-98705631D01*
X152017699Y-98705631D01*
X152055816Y-98847882D01*
X152129446Y-98975414D01*
X152129454Y-98975424D01*
X152233575Y-99079545D01*
X152233580Y-99079549D01*
X152233582Y-99079551D01*
X152361118Y-99153184D01*
X152503367Y-99191300D01*
X152503369Y-99191300D01*
X152650631Y-99191300D01*
X152650633Y-99191300D01*
X152792882Y-99153184D01*
X152920418Y-99079551D01*
X153024551Y-98975418D01*
X153098184Y-98847882D01*
X153136300Y-98705633D01*
X153136300Y-98628490D01*
X153156302Y-98560369D01*
X153173200Y-98539399D01*
X154182274Y-97530325D01*
X154182284Y-97530318D01*
X154258945Y-97453657D01*
X154258951Y-97453651D01*
X154305833Y-97372450D01*
X154330100Y-97281881D01*
X154330100Y-75639715D01*
X154350102Y-75571594D01*
X154403758Y-75525101D01*
X154474032Y-75514997D01*
X154512388Y-75528272D01*
X154512491Y-75528025D01*
X154516652Y-75529748D01*
X154519098Y-75530595D01*
X154520118Y-75531184D01*
X154662367Y-75569300D01*
X154662369Y-75569300D01*
X154809631Y-75569300D01*
X154809633Y-75569300D01*
X154951882Y-75531184D01*
X155079418Y-75457551D01*
X155183551Y-75353418D01*
X155257184Y-75225882D01*
X155295300Y-75083633D01*
X155295300Y-74936367D01*
X155257184Y-74794118D01*
X155212121Y-74716066D01*
X155183553Y-74666585D01*
X155183545Y-74666575D01*
X155129005Y-74612035D01*
X155094979Y-74549723D01*
X155092100Y-74522940D01*
X155092100Y-71545631D01*
X155428699Y-71545631D01*
X155466816Y-71687882D01*
X155540446Y-71815414D01*
X155540454Y-71815424D01*
X155644575Y-71919545D01*
X155644580Y-71919549D01*
X155644582Y-71919551D01*
X155644583Y-71919552D01*
X155644585Y-71919553D01*
X155667996Y-71933069D01*
X155772118Y-71993184D01*
X155914367Y-72031300D01*
X155914369Y-72031300D01*
X156061631Y-72031300D01*
X156061633Y-72031300D01*
X156203882Y-71993184D01*
X156331418Y-71919551D01*
X156435551Y-71815418D01*
X156509184Y-71687882D01*
X156547300Y-71545633D01*
X156547300Y-71398367D01*
X156509184Y-71256118D01*
X156435551Y-71128582D01*
X156435549Y-71128580D01*
X156435545Y-71128575D01*
X156331424Y-71024454D01*
X156331414Y-71024446D01*
X156203882Y-70950816D01*
X156061633Y-70912700D01*
X155914367Y-70912700D01*
X155820656Y-70937810D01*
X155772117Y-70950816D01*
X155644585Y-71024446D01*
X155644575Y-71024454D01*
X155540454Y-71128575D01*
X155540446Y-71128585D01*
X155466816Y-71256117D01*
X155466816Y-71256118D01*
X155434398Y-71377104D01*
X155428700Y-71398368D01*
X155428700Y-71545631D01*
X155428699Y-71545631D01*
X155092100Y-71545631D01*
X155092100Y-71280121D01*
X155092100Y-71280119D01*
X155067833Y-71189550D01*
X155035441Y-71133446D01*
X155020953Y-71108352D01*
X155020949Y-71108347D01*
X155015484Y-71102882D01*
X154954651Y-71042049D01*
X153932016Y-70019414D01*
X152795657Y-68883054D01*
X152795647Y-68883046D01*
X152714454Y-68836169D01*
X152714452Y-68836168D01*
X152714450Y-68836167D01*
X152623881Y-68811900D01*
X152623880Y-68811900D01*
X151568952Y-68811900D01*
X151500831Y-68791898D01*
X151454338Y-68738242D01*
X151452544Y-68734119D01*
X151435178Y-68692195D01*
X151435176Y-68692191D01*
X151423308Y-68674430D01*
X151325246Y-68527669D01*
X151185331Y-68387754D01*
X151020809Y-68277824D01*
X150877716Y-68218553D01*
X150838005Y-68202104D01*
X150838002Y-68202103D01*
X150643938Y-68163500D01*
X150643935Y-68163500D01*
X150446065Y-68163500D01*
X150446061Y-68163500D01*
X150251997Y-68202103D01*
X150251994Y-68202104D01*
X150069190Y-68277824D01*
X149904673Y-68387751D01*
X149904666Y-68387756D01*
X149764756Y-68527666D01*
X149764751Y-68527673D01*
X149697112Y-68628902D01*
X149642635Y-68674430D01*
X149592347Y-68684900D01*
X141608119Y-68684900D01*
X141517553Y-68709166D01*
X141517545Y-68709169D01*
X141436352Y-68756046D01*
X141436342Y-68756054D01*
X135108767Y-75083631D01*
X133054349Y-77138049D01*
X133021199Y-77171198D01*
X132988050Y-77204347D01*
X132988046Y-77204352D01*
X132941169Y-77285545D01*
X132941166Y-77285553D01*
X132916900Y-77376119D01*
X132916900Y-78644133D01*
X132896898Y-78712254D01*
X132843242Y-78758747D01*
X132772968Y-78768851D01*
X132708388Y-78739357D01*
X132701805Y-78733228D01*
X132643333Y-78674756D01*
X132643331Y-78674754D01*
X132478809Y-78564824D01*
X132296005Y-78489104D01*
X132296002Y-78489103D01*
X132101938Y-78450500D01*
X132101935Y-78450500D01*
X131904065Y-78450500D01*
X131904061Y-78450500D01*
X131709997Y-78489103D01*
X131709994Y-78489104D01*
X131527191Y-78564824D01*
X131367891Y-78671265D01*
X131300138Y-78692480D01*
X131297889Y-78692500D01*
X130680285Y-78692500D01*
X130532974Y-78721803D01*
X130532973Y-78721804D01*
X130394208Y-78779283D01*
X130269328Y-78862725D01*
X130269321Y-78862730D01*
X130163119Y-78968932D01*
X130163114Y-78968939D01*
X130079672Y-79093819D01*
X130022193Y-79232584D01*
X130022192Y-79232585D01*
X129992889Y-79379896D01*
X129992889Y-79530103D01*
X130022192Y-79677413D01*
X130079671Y-79816179D01*
X130163117Y-79941065D01*
X130269324Y-80047272D01*
X130394210Y-80130718D01*
X130532976Y-80188197D01*
X130680289Y-80217500D01*
X131297889Y-80217500D01*
X131366010Y-80237502D01*
X131367873Y-80238723D01*
X131527191Y-80345176D01*
X131709998Y-80420897D01*
X131904065Y-80459500D01*
X132101935Y-80459500D01*
X132296002Y-80420897D01*
X132478809Y-80345176D01*
X132643331Y-80235246D01*
X132701805Y-80176772D01*
X132764117Y-80142746D01*
X132834932Y-80147811D01*
X132891768Y-80190358D01*
X132916579Y-80256878D01*
X132916900Y-80265867D01*
X132916900Y-83065306D01*
X132896898Y-83133427D01*
X132879995Y-83154401D01*
X132475241Y-83559155D01*
X132412929Y-83593181D01*
X132342114Y-83588116D01*
X132337928Y-83586469D01*
X132296005Y-83569104D01*
X132296002Y-83569103D01*
X132101938Y-83530500D01*
X132101935Y-83530500D01*
X131904065Y-83530500D01*
X131904061Y-83530500D01*
X131709997Y-83569103D01*
X131709994Y-83569104D01*
X131527190Y-83644824D01*
X131362673Y-83754751D01*
X131362666Y-83754756D01*
X131222756Y-83894666D01*
X131222751Y-83894673D01*
X131112824Y-84059190D01*
X131037104Y-84241994D01*
X131037103Y-84241997D01*
X130998500Y-84436061D01*
X130998500Y-84633938D01*
X131023762Y-84760935D01*
X131037103Y-84828002D01*
X131112824Y-85010809D01*
X131222754Y-85175331D01*
X131222756Y-85175333D01*
X131281228Y-85233805D01*
X131315254Y-85296117D01*
X131310189Y-85366932D01*
X131267642Y-85423768D01*
X131201122Y-85448579D01*
X131192133Y-85448900D01*
X131067119Y-85448900D01*
X130976553Y-85473166D01*
X130976545Y-85473169D01*
X130895352Y-85520046D01*
X130895342Y-85520054D01*
X129302823Y-87112575D01*
X128863349Y-87552049D01*
X128830199Y-87585198D01*
X128797050Y-87618347D01*
X128797046Y-87618352D01*
X128750169Y-87699545D01*
X128750166Y-87699553D01*
X128725900Y-87790119D01*
X105508500Y-87790119D01*
X105508500Y-84563061D01*
X120838500Y-84563061D01*
X120838500Y-84760938D01*
X120851841Y-84828005D01*
X120877103Y-84955002D01*
X120952824Y-85137809D01*
X121062754Y-85302331D01*
X121202669Y-85442246D01*
X121367191Y-85552176D01*
X121549998Y-85627897D01*
X121744065Y-85666500D01*
X121948125Y-85666500D01*
X121948125Y-85668472D01*
X121973194Y-85673925D01*
X122006461Y-85680226D01*
X122008297Y-85681562D01*
X122009473Y-85681818D01*
X122038183Y-85703310D01*
X122180410Y-85845538D01*
X122207722Y-85886414D01*
X122210814Y-85893880D01*
X122284446Y-86021414D01*
X122284454Y-86021424D01*
X122388575Y-86125545D01*
X122388580Y-86125549D01*
X122388582Y-86125551D01*
X122516118Y-86199184D01*
X122658367Y-86237300D01*
X122658369Y-86237300D01*
X122805631Y-86237300D01*
X122805633Y-86237300D01*
X122947882Y-86199184D01*
X123075418Y-86125551D01*
X123179551Y-86021418D01*
X123253184Y-85893882D01*
X123291300Y-85751633D01*
X123291300Y-85751631D01*
X124458699Y-85751631D01*
X124496816Y-85893882D01*
X124570446Y-86021414D01*
X124570454Y-86021424D01*
X124674575Y-86125545D01*
X124674580Y-86125549D01*
X124674582Y-86125551D01*
X124802118Y-86199184D01*
X124944367Y-86237300D01*
X124944369Y-86237300D01*
X125091631Y-86237300D01*
X125091633Y-86237300D01*
X125233882Y-86199184D01*
X125361418Y-86125551D01*
X125465551Y-86021418D01*
X125539184Y-85893882D01*
X125577300Y-85751633D01*
X125577300Y-85604367D01*
X125539184Y-85462118D01*
X125465551Y-85334582D01*
X125465549Y-85334580D01*
X125465545Y-85334575D01*
X125361424Y-85230454D01*
X125361414Y-85230446D01*
X125233882Y-85156816D01*
X125204772Y-85149016D01*
X125091633Y-85118700D01*
X124944367Y-85118700D01*
X124849534Y-85144110D01*
X124802117Y-85156816D01*
X124674585Y-85230446D01*
X124674575Y-85230454D01*
X124570454Y-85334575D01*
X124570446Y-85334585D01*
X124496816Y-85462117D01*
X124458700Y-85604368D01*
X124458700Y-85751631D01*
X124458699Y-85751631D01*
X123291300Y-85751631D01*
X123291300Y-85604367D01*
X123253184Y-85462118D01*
X123179551Y-85334582D01*
X123179549Y-85334580D01*
X123179545Y-85334575D01*
X123075424Y-85230454D01*
X123075414Y-85230446D01*
X122947880Y-85156814D01*
X122940414Y-85153722D01*
X122933371Y-85149016D01*
X122928249Y-85147902D01*
X122899538Y-85126410D01*
X122843119Y-85069992D01*
X122809094Y-85007680D01*
X122808635Y-84956313D01*
X122808894Y-84955007D01*
X122808897Y-84955002D01*
X122847500Y-84760935D01*
X122847500Y-84563065D01*
X122808897Y-84368998D01*
X122733176Y-84186191D01*
X122707190Y-84147301D01*
X122685976Y-84079549D01*
X122704759Y-84011082D01*
X122757576Y-83963639D01*
X122797727Y-83954528D01*
X122797444Y-83952378D01*
X122805631Y-83951300D01*
X122805633Y-83951300D01*
X122947882Y-83913184D01*
X123075418Y-83839551D01*
X123179551Y-83735418D01*
X123253184Y-83607882D01*
X123291300Y-83465633D01*
X123291300Y-83465631D01*
X124458699Y-83465631D01*
X124496816Y-83607882D01*
X124570446Y-83735414D01*
X124570454Y-83735424D01*
X124674575Y-83839545D01*
X124674580Y-83839549D01*
X124674582Y-83839551D01*
X124802118Y-83913184D01*
X124944367Y-83951300D01*
X124944369Y-83951300D01*
X125091631Y-83951300D01*
X125091633Y-83951300D01*
X125233882Y-83913184D01*
X125361418Y-83839551D01*
X125465551Y-83735418D01*
X125539184Y-83607882D01*
X125577300Y-83465633D01*
X125577300Y-83318367D01*
X125539184Y-83176118D01*
X125465551Y-83048582D01*
X125465549Y-83048580D01*
X125465545Y-83048575D01*
X125361424Y-82944454D01*
X125361414Y-82944446D01*
X125233882Y-82870816D01*
X125091633Y-82832700D01*
X124944367Y-82832700D01*
X124849534Y-82858110D01*
X124802117Y-82870816D01*
X124674585Y-82944446D01*
X124674575Y-82944454D01*
X124570454Y-83048575D01*
X124570446Y-83048585D01*
X124496816Y-83176117D01*
X124458700Y-83318368D01*
X124458700Y-83465631D01*
X124458699Y-83465631D01*
X123291300Y-83465631D01*
X123291300Y-83318367D01*
X123253184Y-83176118D01*
X123179551Y-83048582D01*
X123179549Y-83048580D01*
X123179545Y-83048575D01*
X123075424Y-82944454D01*
X123075414Y-82944446D01*
X122947882Y-82870816D01*
X122805633Y-82832700D01*
X122658367Y-82832700D01*
X122563534Y-82858110D01*
X122516117Y-82870816D01*
X122388585Y-82944446D01*
X122388575Y-82944454D01*
X122284454Y-83048575D01*
X122284446Y-83048585D01*
X122210816Y-83176117D01*
X122172700Y-83318368D01*
X122172700Y-83465631D01*
X122172699Y-83465631D01*
X122187554Y-83521068D01*
X122185864Y-83592045D01*
X122146070Y-83650840D01*
X122080805Y-83678788D01*
X122041265Y-83677258D01*
X121941938Y-83657500D01*
X121941935Y-83657500D01*
X121744065Y-83657500D01*
X121744061Y-83657500D01*
X121549997Y-83696103D01*
X121549994Y-83696104D01*
X121367190Y-83771824D01*
X121202673Y-83881751D01*
X121202666Y-83881756D01*
X121062756Y-84021666D01*
X121062751Y-84021673D01*
X120952824Y-84186190D01*
X120877104Y-84368994D01*
X120877103Y-84368997D01*
X120838500Y-84563061D01*
X105508500Y-84563061D01*
X105508500Y-81433631D01*
X119886699Y-81433631D01*
X119924816Y-81575882D01*
X119998446Y-81703414D01*
X119998454Y-81703424D01*
X120102575Y-81807545D01*
X120102580Y-81807549D01*
X120102582Y-81807551D01*
X120230118Y-81881184D01*
X120372367Y-81919300D01*
X120372369Y-81919300D01*
X120519631Y-81919300D01*
X120519633Y-81919300D01*
X120661882Y-81881184D01*
X120789418Y-81807551D01*
X120893551Y-81703418D01*
X120967184Y-81575882D01*
X121005300Y-81433633D01*
X121005300Y-81433631D01*
X122172699Y-81433631D01*
X122210816Y-81575882D01*
X122284446Y-81703414D01*
X122284454Y-81703424D01*
X122388575Y-81807545D01*
X122388580Y-81807549D01*
X122388582Y-81807551D01*
X122516118Y-81881184D01*
X122658367Y-81919300D01*
X122658369Y-81919300D01*
X122805631Y-81919300D01*
X122805633Y-81919300D01*
X122947882Y-81881184D01*
X123075418Y-81807551D01*
X123179551Y-81703418D01*
X123253184Y-81575882D01*
X123291300Y-81433633D01*
X123291300Y-81433631D01*
X124458699Y-81433631D01*
X124496816Y-81575882D01*
X124570446Y-81703414D01*
X124570454Y-81703424D01*
X124674575Y-81807545D01*
X124674580Y-81807549D01*
X124674582Y-81807551D01*
X124802118Y-81881184D01*
X124944367Y-81919300D01*
X124944369Y-81919300D01*
X125091631Y-81919300D01*
X125091633Y-81919300D01*
X125233882Y-81881184D01*
X125361418Y-81807551D01*
X125465551Y-81703418D01*
X125539184Y-81575882D01*
X125577300Y-81433633D01*
X125577300Y-81286367D01*
X125539184Y-81144118D01*
X125493627Y-81065211D01*
X125465553Y-81016585D01*
X125465545Y-81016575D01*
X125361424Y-80912454D01*
X125361414Y-80912446D01*
X125233882Y-80838816D01*
X125091633Y-80800700D01*
X124944367Y-80800700D01*
X124849534Y-80826110D01*
X124802117Y-80838816D01*
X124674585Y-80912446D01*
X124674575Y-80912454D01*
X124570454Y-81016575D01*
X124570446Y-81016585D01*
X124496816Y-81144117D01*
X124458700Y-81286368D01*
X124458700Y-81433631D01*
X124458699Y-81433631D01*
X123291300Y-81433631D01*
X123291300Y-81286367D01*
X123253184Y-81144118D01*
X123207627Y-81065211D01*
X123179553Y-81016585D01*
X123179545Y-81016575D01*
X123075424Y-80912454D01*
X123075414Y-80912446D01*
X122947882Y-80838816D01*
X122805633Y-80800700D01*
X122658367Y-80800700D01*
X122563534Y-80826110D01*
X122516117Y-80838816D01*
X122388585Y-80912446D01*
X122388575Y-80912454D01*
X122284454Y-81016575D01*
X122284446Y-81016585D01*
X122210816Y-81144117D01*
X122172700Y-81286368D01*
X122172700Y-81433631D01*
X122172699Y-81433631D01*
X121005300Y-81433631D01*
X121005300Y-81286367D01*
X120967184Y-81144118D01*
X120921627Y-81065211D01*
X120893553Y-81016585D01*
X120893545Y-81016575D01*
X120789424Y-80912454D01*
X120789414Y-80912446D01*
X120661882Y-80838816D01*
X120519633Y-80800700D01*
X120372367Y-80800700D01*
X120277534Y-80826110D01*
X120230117Y-80838816D01*
X120102585Y-80912446D01*
X120102575Y-80912454D01*
X119998454Y-81016575D01*
X119998446Y-81016585D01*
X119924816Y-81144117D01*
X119886700Y-81286368D01*
X119886700Y-81433631D01*
X119886699Y-81433631D01*
X105508500Y-81433631D01*
X105508500Y-74520631D01*
X130387699Y-74520631D01*
X130425816Y-74662882D01*
X130499446Y-74790414D01*
X130499454Y-74790424D01*
X130603575Y-74894545D01*
X130603580Y-74894549D01*
X130603582Y-74894551D01*
X130731118Y-74968184D01*
X130873367Y-75006300D01*
X130873369Y-75006300D01*
X131020631Y-75006300D01*
X131020633Y-75006300D01*
X131162882Y-74968184D01*
X131290418Y-74894551D01*
X131394551Y-74790418D01*
X131468184Y-74662882D01*
X131506300Y-74520633D01*
X131506300Y-74373367D01*
X131468184Y-74231118D01*
X131394551Y-74103582D01*
X131394549Y-74103580D01*
X131394545Y-74103575D01*
X131290424Y-73999454D01*
X131290414Y-73999446D01*
X131162882Y-73925816D01*
X131020633Y-73887700D01*
X130873367Y-73887700D01*
X130778534Y-73913110D01*
X130731117Y-73925816D01*
X130603585Y-73999446D01*
X130603575Y-73999454D01*
X130499454Y-74103575D01*
X130499446Y-74103585D01*
X130425816Y-74231117D01*
X130387700Y-74373368D01*
X130387700Y-74520631D01*
X130387699Y-74520631D01*
X105508500Y-74520631D01*
X105508500Y-73496131D01*
X111187199Y-73496131D01*
X111225316Y-73638382D01*
X111298946Y-73765914D01*
X111298954Y-73765924D01*
X111403075Y-73870045D01*
X111403080Y-73870049D01*
X111403082Y-73870051D01*
X111530618Y-73943684D01*
X111672867Y-73981800D01*
X111672869Y-73981800D01*
X111820131Y-73981800D01*
X111820133Y-73981800D01*
X111962382Y-73943684D01*
X112089918Y-73870051D01*
X112194051Y-73765918D01*
X112267684Y-73638382D01*
X112305800Y-73496133D01*
X112305800Y-73348867D01*
X112267684Y-73206618D01*
X112222621Y-73128566D01*
X112194053Y-73079085D01*
X112194045Y-73079075D01*
X112089924Y-72974954D01*
X112089914Y-72974946D01*
X111962382Y-72901316D01*
X111820133Y-72863200D01*
X111672867Y-72863200D01*
X111578034Y-72888610D01*
X111530617Y-72901316D01*
X111403085Y-72974946D01*
X111403075Y-72974954D01*
X111298954Y-73079075D01*
X111298946Y-73079085D01*
X111225316Y-73206617D01*
X111208445Y-73269582D01*
X111187567Y-73347500D01*
X111187200Y-73348868D01*
X111187200Y-73496131D01*
X111187199Y-73496131D01*
X105508500Y-73496131D01*
X105508500Y-71588631D01*
X115375699Y-71588631D01*
X115413816Y-71730882D01*
X115487446Y-71858414D01*
X115487454Y-71858424D01*
X115591575Y-71962545D01*
X115591580Y-71962549D01*
X115591582Y-71962551D01*
X115719118Y-72036184D01*
X115861367Y-72074300D01*
X115861369Y-72074300D01*
X116008631Y-72074300D01*
X116008633Y-72074300D01*
X116150882Y-72036184D01*
X116278418Y-71962551D01*
X116382551Y-71858418D01*
X116456184Y-71730882D01*
X116494300Y-71588633D01*
X116494300Y-71588631D01*
X120013699Y-71588631D01*
X120051816Y-71730882D01*
X120125446Y-71858414D01*
X120125454Y-71858424D01*
X120229575Y-71962545D01*
X120229580Y-71962549D01*
X120229582Y-71962551D01*
X120357118Y-72036184D01*
X120499367Y-72074300D01*
X120499369Y-72074300D01*
X120646631Y-72074300D01*
X120646633Y-72074300D01*
X120788882Y-72036184D01*
X120916418Y-71962551D01*
X121020551Y-71858418D01*
X121094184Y-71730882D01*
X121132300Y-71588633D01*
X121132300Y-71441367D01*
X121094184Y-71299118D01*
X121020551Y-71171582D01*
X121020549Y-71171580D01*
X121020545Y-71171575D01*
X120916424Y-71067454D01*
X120916414Y-71067446D01*
X120788882Y-70993816D01*
X120665036Y-70960631D01*
X121410699Y-70960631D01*
X121448816Y-71102882D01*
X121522446Y-71230414D01*
X121522454Y-71230424D01*
X121626575Y-71334545D01*
X121626580Y-71334549D01*
X121626582Y-71334551D01*
X121626583Y-71334552D01*
X121626585Y-71334553D01*
X121676066Y-71363121D01*
X121754118Y-71408184D01*
X121896367Y-71446300D01*
X121896369Y-71446300D01*
X122043631Y-71446300D01*
X122043633Y-71446300D01*
X122185882Y-71408184D01*
X122313418Y-71334551D01*
X122417551Y-71230418D01*
X122491184Y-71102882D01*
X122529300Y-70960633D01*
X122529300Y-70813367D01*
X122491184Y-70671118D01*
X122417551Y-70543582D01*
X122417549Y-70543580D01*
X122417545Y-70543575D01*
X122313424Y-70439454D01*
X122313414Y-70439446D01*
X122185882Y-70365816D01*
X122043633Y-70327700D01*
X121896367Y-70327700D01*
X121816439Y-70349117D01*
X121754117Y-70365816D01*
X121626585Y-70439446D01*
X121626575Y-70439454D01*
X121522454Y-70543575D01*
X121522446Y-70543585D01*
X121448816Y-70671117D01*
X121448816Y-70671118D01*
X121419405Y-70780882D01*
X121410700Y-70813368D01*
X121410700Y-70960631D01*
X121410699Y-70960631D01*
X120665036Y-70960631D01*
X120646633Y-70955700D01*
X120499367Y-70955700D01*
X120404534Y-70981110D01*
X120357117Y-70993816D01*
X120229585Y-71067446D01*
X120229575Y-71067454D01*
X120125454Y-71171575D01*
X120125446Y-71171585D01*
X120051816Y-71299117D01*
X120042321Y-71334553D01*
X120022592Y-71408184D01*
X120013700Y-71441368D01*
X120013700Y-71588631D01*
X120013699Y-71588631D01*
X116494300Y-71588631D01*
X116494300Y-71441367D01*
X116456184Y-71299118D01*
X116382551Y-71171582D01*
X116382549Y-71171580D01*
X116382545Y-71171575D01*
X116278424Y-71067454D01*
X116278414Y-71067446D01*
X116150882Y-70993816D01*
X116008633Y-70955700D01*
X115861367Y-70955700D01*
X115766534Y-70981110D01*
X115719117Y-70993816D01*
X115591585Y-71067446D01*
X115591575Y-71067454D01*
X115487454Y-71171575D01*
X115487446Y-71171585D01*
X115413816Y-71299117D01*
X115404321Y-71334553D01*
X115384592Y-71408184D01*
X115375700Y-71441368D01*
X115375700Y-71588631D01*
X115375699Y-71588631D01*
X105508500Y-71588631D01*
X105508500Y-69069061D01*
X108392500Y-69069061D01*
X108392500Y-69266938D01*
X108431103Y-69461002D01*
X108431104Y-69461005D01*
X108489457Y-69601881D01*
X108506824Y-69643809D01*
X108616754Y-69808331D01*
X108756669Y-69948246D01*
X108921191Y-70058176D01*
X109103998Y-70133897D01*
X109298065Y-70172500D01*
X109495935Y-70172500D01*
X109690002Y-70133897D01*
X109872809Y-70058176D01*
X110037331Y-69948246D01*
X110177246Y-69808331D01*
X110287176Y-69643809D01*
X110362897Y-69461002D01*
X110401500Y-69266935D01*
X110401500Y-69069065D01*
X110383706Y-68979612D01*
X110390034Y-68908900D01*
X110403004Y-68884311D01*
X110409722Y-68874403D01*
X110438901Y-68845226D01*
X110490388Y-68756049D01*
X110505847Y-68729274D01*
X110540500Y-68599945D01*
X110540500Y-67844631D01*
X145794699Y-67844631D01*
X145832816Y-67986882D01*
X145906446Y-68114414D01*
X145906454Y-68114424D01*
X146010575Y-68218545D01*
X146010580Y-68218549D01*
X146010582Y-68218551D01*
X146138118Y-68292184D01*
X146280367Y-68330300D01*
X146280369Y-68330300D01*
X146427631Y-68330300D01*
X146427633Y-68330300D01*
X146569882Y-68292184D01*
X146697418Y-68218551D01*
X146801551Y-68114418D01*
X146875184Y-67986882D01*
X146880649Y-67966488D01*
X146917601Y-67905865D01*
X146981462Y-67874844D01*
X147002355Y-67873100D01*
X151290379Y-67873100D01*
X151290381Y-67873100D01*
X151380950Y-67848833D01*
X151462151Y-67801951D01*
X155470111Y-63793988D01*
X155532421Y-63759965D01*
X155603236Y-63765029D01*
X155607422Y-63766676D01*
X155624025Y-63773553D01*
X155648998Y-63783897D01*
X155843065Y-63822500D01*
X156040935Y-63822500D01*
X156235002Y-63783897D01*
X156417809Y-63708176D01*
X156582331Y-63598246D01*
X156722246Y-63458331D01*
X156832176Y-63293809D01*
X156907897Y-63111002D01*
X156946500Y-62916935D01*
X156946500Y-62719065D01*
X156907897Y-62524998D01*
X156832176Y-62342191D01*
X156722246Y-62177669D01*
X156582331Y-62037754D01*
X156417809Y-61927824D01*
X156375879Y-61910455D01*
X156320599Y-61865905D01*
X156298180Y-61798541D01*
X156298100Y-61794047D01*
X156298100Y-58997108D01*
X156318102Y-58928987D01*
X156354096Y-58892344D01*
X156486712Y-58803734D01*
X156605734Y-58684712D01*
X156699248Y-58544758D01*
X156763662Y-58389249D01*
X156796500Y-58224161D01*
X156796500Y-57868615D01*
X159995500Y-57868615D01*
X159995500Y-58131384D01*
X160029796Y-58391890D01*
X160029797Y-58391896D01*
X160029798Y-58391898D01*
X160097806Y-58645708D01*
X160198361Y-58888470D01*
X160198362Y-58888471D01*
X160198367Y-58888482D01*
X160329740Y-59116026D01*
X160489703Y-59324495D01*
X160489712Y-59324505D01*
X160675494Y-59510287D01*
X160675504Y-59510296D01*
X160883973Y-59670259D01*
X161111517Y-59801632D01*
X161111521Y-59801633D01*
X161111530Y-59801639D01*
X161354292Y-59902194D01*
X161608102Y-59970202D01*
X161608108Y-59970202D01*
X161608109Y-59970203D01*
X161637999Y-59974138D01*
X161868618Y-60004500D01*
X161868625Y-60004500D01*
X162131375Y-60004500D01*
X162131382Y-60004500D01*
X162391898Y-59970202D01*
X162645708Y-59902194D01*
X162888470Y-59801639D01*
X163116030Y-59670257D01*
X163324495Y-59510297D01*
X163510297Y-59324495D01*
X163670257Y-59116030D01*
X163801639Y-58888470D01*
X163902194Y-58645708D01*
X163970202Y-58391898D01*
X164004500Y-58131382D01*
X164004500Y-57868618D01*
X163970202Y-57608102D01*
X163902194Y-57354292D01*
X163801639Y-57111530D01*
X163801633Y-57111521D01*
X163801632Y-57111517D01*
X163670259Y-56883973D01*
X163666900Y-56879596D01*
X163510297Y-56675505D01*
X163510296Y-56675504D01*
X163510287Y-56675494D01*
X163324505Y-56489712D01*
X163324495Y-56489703D01*
X163147413Y-56353824D01*
X163116030Y-56329743D01*
X163116029Y-56329742D01*
X163116026Y-56329740D01*
X162888482Y-56198367D01*
X162888474Y-56198363D01*
X162888470Y-56198361D01*
X162645708Y-56097806D01*
X162391898Y-56029798D01*
X162391896Y-56029797D01*
X162391890Y-56029796D01*
X162131384Y-55995500D01*
X162131382Y-55995500D01*
X161868618Y-55995500D01*
X161868615Y-55995500D01*
X161608109Y-56029796D01*
X161608102Y-56029798D01*
X161354292Y-56097806D01*
X161275630Y-56130389D01*
X161111528Y-56198362D01*
X161111517Y-56198367D01*
X160883973Y-56329740D01*
X160675504Y-56489703D01*
X160675494Y-56489712D01*
X160489712Y-56675494D01*
X160489703Y-56675504D01*
X160329740Y-56883973D01*
X160198367Y-57111517D01*
X160198362Y-57111528D01*
X160097806Y-57354292D01*
X160029796Y-57608109D01*
X159995500Y-57868615D01*
X156796500Y-57868615D01*
X156796500Y-57505839D01*
X156763662Y-57340751D01*
X156699248Y-57185242D01*
X156605734Y-57045288D01*
X156486712Y-56926266D01*
X156346758Y-56832752D01*
X156191249Y-56768338D01*
X156026163Y-56735500D01*
X156026161Y-56735500D01*
X155857839Y-56735500D01*
X155857836Y-56735500D01*
X155692750Y-56768338D01*
X155692745Y-56768340D01*
X155537241Y-56832752D01*
X155397292Y-56926263D01*
X155397285Y-56926268D01*
X155278268Y-57045285D01*
X155278263Y-57045292D01*
X155184752Y-57185241D01*
X155120340Y-57340745D01*
X155120338Y-57340750D01*
X155087500Y-57505836D01*
X155087500Y-58224163D01*
X155120338Y-58389249D01*
X155184752Y-58544758D01*
X155278266Y-58684712D01*
X155397288Y-58803734D01*
X155529902Y-58892344D01*
X155575429Y-58946819D01*
X155585900Y-58997108D01*
X155585900Y-61794047D01*
X155565898Y-61862168D01*
X155512242Y-61908661D01*
X155508121Y-61910455D01*
X155466190Y-61927824D01*
X155301673Y-62037751D01*
X155301666Y-62037756D01*
X155161756Y-62177666D01*
X155161751Y-62177673D01*
X155051824Y-62342190D01*
X154976104Y-62524994D01*
X154976103Y-62524997D01*
X154937500Y-62719061D01*
X154937500Y-62916938D01*
X154976103Y-63111002D01*
X154976104Y-63111005D01*
X154993616Y-63153282D01*
X155001205Y-63223871D01*
X154969426Y-63287358D01*
X154966302Y-63290595D01*
X151132903Y-67123995D01*
X151070591Y-67158021D01*
X151043808Y-67160900D01*
X146561119Y-67160900D01*
X146470553Y-67185166D01*
X146470547Y-67185168D01*
X146453831Y-67194820D01*
X146390832Y-67211700D01*
X146280367Y-67211700D01*
X146185534Y-67237110D01*
X146138117Y-67249816D01*
X146010585Y-67323446D01*
X146010575Y-67323454D01*
X145906454Y-67427575D01*
X145906446Y-67427585D01*
X145832816Y-67555117D01*
X145832816Y-67555118D01*
X145805468Y-67657183D01*
X145794700Y-67697368D01*
X145794700Y-67844631D01*
X145794699Y-67844631D01*
X110540500Y-67844631D01*
X110540500Y-67407566D01*
X110550092Y-67359345D01*
X110553181Y-67351887D01*
X110553184Y-67351882D01*
X110591300Y-67209633D01*
X110591300Y-67209631D01*
X111504699Y-67209631D01*
X111542816Y-67351882D01*
X111616446Y-67479414D01*
X111616454Y-67479424D01*
X111720575Y-67583545D01*
X111720580Y-67583549D01*
X111720582Y-67583551D01*
X111848118Y-67657184D01*
X111990367Y-67695300D01*
X111990369Y-67695300D01*
X112137631Y-67695300D01*
X112137633Y-67695300D01*
X112279882Y-67657184D01*
X112407418Y-67583551D01*
X112511551Y-67479418D01*
X112585184Y-67351882D01*
X112623300Y-67209633D01*
X112623300Y-67209631D01*
X113282699Y-67209631D01*
X113320816Y-67351882D01*
X113394446Y-67479414D01*
X113394454Y-67479424D01*
X113498575Y-67583545D01*
X113498580Y-67583549D01*
X113498582Y-67583551D01*
X113626118Y-67657184D01*
X113768367Y-67695300D01*
X113768369Y-67695300D01*
X113915631Y-67695300D01*
X113915633Y-67695300D01*
X114057882Y-67657184D01*
X114185418Y-67583551D01*
X114289551Y-67479418D01*
X114363184Y-67351882D01*
X114401300Y-67209633D01*
X114401300Y-67209631D01*
X115060699Y-67209631D01*
X115098816Y-67351882D01*
X115172446Y-67479414D01*
X115172454Y-67479424D01*
X115276575Y-67583545D01*
X115276580Y-67583549D01*
X115276582Y-67583551D01*
X115404118Y-67657184D01*
X115546367Y-67695300D01*
X115546369Y-67695300D01*
X115693631Y-67695300D01*
X115693633Y-67695300D01*
X115835882Y-67657184D01*
X115963418Y-67583551D01*
X116067551Y-67479418D01*
X116141184Y-67351882D01*
X116179300Y-67209633D01*
X116179300Y-67062367D01*
X116141184Y-66920118D01*
X116096121Y-66842066D01*
X116067553Y-66792585D01*
X116067545Y-66792575D01*
X115963424Y-66688454D01*
X115963414Y-66688446D01*
X115835882Y-66614816D01*
X115693633Y-66576700D01*
X115546367Y-66576700D01*
X115451534Y-66602110D01*
X115404117Y-66614816D01*
X115276585Y-66688446D01*
X115276575Y-66688454D01*
X115172454Y-66792575D01*
X115172446Y-66792585D01*
X115098816Y-66920117D01*
X115060700Y-67062368D01*
X115060700Y-67209631D01*
X115060699Y-67209631D01*
X114401300Y-67209631D01*
X114401300Y-67062367D01*
X114363184Y-66920118D01*
X114318121Y-66842066D01*
X114289553Y-66792585D01*
X114289545Y-66792575D01*
X114185424Y-66688454D01*
X114185414Y-66688446D01*
X114057882Y-66614816D01*
X113915633Y-66576700D01*
X113768367Y-66576700D01*
X113673534Y-66602110D01*
X113626117Y-66614816D01*
X113498585Y-66688446D01*
X113498575Y-66688454D01*
X113394454Y-66792575D01*
X113394446Y-66792585D01*
X113320816Y-66920117D01*
X113282700Y-67062368D01*
X113282700Y-67209631D01*
X113282699Y-67209631D01*
X112623300Y-67209631D01*
X112623300Y-67062367D01*
X112585184Y-66920118D01*
X112540121Y-66842066D01*
X112511553Y-66792585D01*
X112511545Y-66792575D01*
X112407424Y-66688454D01*
X112407414Y-66688446D01*
X112279882Y-66614816D01*
X112137633Y-66576700D01*
X111990367Y-66576700D01*
X111895534Y-66602110D01*
X111848117Y-66614816D01*
X111720585Y-66688446D01*
X111720575Y-66688454D01*
X111616454Y-66792575D01*
X111616446Y-66792585D01*
X111542816Y-66920117D01*
X111504700Y-67062368D01*
X111504700Y-67209631D01*
X111504699Y-67209631D01*
X110591300Y-67209631D01*
X110591300Y-67062367D01*
X110553184Y-66920118D01*
X110549061Y-66912977D01*
X110544790Y-66897029D01*
X110545025Y-66887185D01*
X110540500Y-66864432D01*
X110540500Y-66815056D01*
X110534478Y-66792582D01*
X110505847Y-66685726D01*
X110480130Y-66641183D01*
X110438902Y-66569775D01*
X110438900Y-66569772D01*
X110344227Y-66475099D01*
X110344224Y-66475097D01*
X110228278Y-66408155D01*
X110228276Y-66408154D01*
X110228274Y-66408153D01*
X110228271Y-66408152D01*
X110228266Y-66408150D01*
X110179192Y-66395001D01*
X110118570Y-66358050D01*
X110087548Y-66294189D01*
X110095977Y-66223694D01*
X110120800Y-66193631D01*
X117854699Y-66193631D01*
X117892816Y-66335882D01*
X117966446Y-66463414D01*
X117966454Y-66463424D01*
X118070575Y-66567545D01*
X118070580Y-66567549D01*
X118070582Y-66567551D01*
X118070583Y-66567552D01*
X118070585Y-66567553D01*
X118120066Y-66596121D01*
X118198118Y-66641184D01*
X118340367Y-66679300D01*
X118340369Y-66679300D01*
X118487631Y-66679300D01*
X118487633Y-66679300D01*
X118629882Y-66641184D01*
X118757418Y-66567551D01*
X118861551Y-66463418D01*
X118935184Y-66335882D01*
X118973300Y-66193633D01*
X118973300Y-66193631D01*
X120140699Y-66193631D01*
X120178816Y-66335882D01*
X120252446Y-66463414D01*
X120252454Y-66463424D01*
X120356575Y-66567545D01*
X120356580Y-66567549D01*
X120356582Y-66567551D01*
X120356583Y-66567552D01*
X120356585Y-66567553D01*
X120406066Y-66596121D01*
X120484118Y-66641184D01*
X120626367Y-66679300D01*
X120626369Y-66679300D01*
X120773631Y-66679300D01*
X120773633Y-66679300D01*
X120915882Y-66641184D01*
X121043418Y-66567551D01*
X121147551Y-66463418D01*
X121221184Y-66335882D01*
X121259300Y-66193633D01*
X121259300Y-66046367D01*
X121221184Y-65904118D01*
X121147551Y-65776582D01*
X121147549Y-65776580D01*
X121147545Y-65776575D01*
X121043424Y-65672454D01*
X121043414Y-65672446D01*
X120915882Y-65598816D01*
X120773633Y-65560700D01*
X120626367Y-65560700D01*
X120531534Y-65586110D01*
X120484117Y-65598816D01*
X120356585Y-65672446D01*
X120356575Y-65672454D01*
X120252454Y-65776575D01*
X120252446Y-65776585D01*
X120178816Y-65904117D01*
X120140700Y-66046368D01*
X120140700Y-66193631D01*
X120140699Y-66193631D01*
X118973300Y-66193631D01*
X118973300Y-66046367D01*
X118935184Y-65904118D01*
X118861551Y-65776582D01*
X118861549Y-65776580D01*
X118861545Y-65776575D01*
X118757424Y-65672454D01*
X118757414Y-65672446D01*
X118629882Y-65598816D01*
X118487633Y-65560700D01*
X118340367Y-65560700D01*
X118245534Y-65586110D01*
X118198117Y-65598816D01*
X118070585Y-65672446D01*
X118070575Y-65672454D01*
X117966454Y-65776575D01*
X117966446Y-65776585D01*
X117892816Y-65904117D01*
X117854700Y-66046368D01*
X117854700Y-66193631D01*
X117854699Y-66193631D01*
X110120800Y-66193631D01*
X110141181Y-66168948D01*
X110179187Y-66151590D01*
X110247882Y-66133184D01*
X110375418Y-66059551D01*
X110479551Y-65955418D01*
X110553184Y-65827882D01*
X110591300Y-65685633D01*
X110591300Y-65538367D01*
X110553184Y-65396118D01*
X110479551Y-65268582D01*
X110479549Y-65268580D01*
X110479545Y-65268575D01*
X110388601Y-65177631D01*
X113028699Y-65177631D01*
X113066816Y-65319882D01*
X113140446Y-65447414D01*
X113140454Y-65447424D01*
X113244575Y-65551545D01*
X113244580Y-65551549D01*
X113244582Y-65551551D01*
X113244583Y-65551552D01*
X113244585Y-65551553D01*
X113294066Y-65580121D01*
X113372118Y-65625184D01*
X113514367Y-65663300D01*
X113514369Y-65663300D01*
X113661631Y-65663300D01*
X113661633Y-65663300D01*
X113803882Y-65625184D01*
X113931418Y-65551551D01*
X114035551Y-65447418D01*
X114109184Y-65319882D01*
X114147300Y-65177633D01*
X114147300Y-65030367D01*
X114109184Y-64888118D01*
X114055448Y-64795045D01*
X114035553Y-64760585D01*
X114035545Y-64760575D01*
X113931424Y-64656454D01*
X113931414Y-64656446D01*
X113803882Y-64582816D01*
X113661633Y-64544700D01*
X113514367Y-64544700D01*
X113444646Y-64563382D01*
X113372117Y-64582816D01*
X113244585Y-64656446D01*
X113244575Y-64656454D01*
X113140454Y-64760575D01*
X113140446Y-64760585D01*
X113066816Y-64888117D01*
X113028700Y-65030368D01*
X113028700Y-65177631D01*
X113028699Y-65177631D01*
X110388601Y-65177631D01*
X110375424Y-65164454D01*
X110375414Y-65164446D01*
X110317876Y-65131227D01*
X110247882Y-65090816D01*
X110105633Y-65052700D01*
X109958367Y-65052700D01*
X109863534Y-65078110D01*
X109816117Y-65090816D01*
X109688585Y-65164446D01*
X109688575Y-65164454D01*
X109584454Y-65268575D01*
X109584446Y-65268585D01*
X109510816Y-65396117D01*
X109472700Y-65538368D01*
X109472700Y-65685631D01*
X109472699Y-65685631D01*
X109510816Y-65827882D01*
X109584446Y-65955414D01*
X109584454Y-65955424D01*
X109688575Y-66059545D01*
X109688580Y-66059549D01*
X109688582Y-66059551D01*
X109816118Y-66133184D01*
X109884807Y-66151589D01*
X109945428Y-66188539D01*
X109976450Y-66252400D01*
X109968022Y-66322894D01*
X109922820Y-66377641D01*
X109884807Y-66395001D01*
X109835733Y-66408150D01*
X109835721Y-66408155D01*
X109719775Y-66475097D01*
X109719772Y-66475099D01*
X109625099Y-66569772D01*
X109625097Y-66569775D01*
X109558155Y-66685721D01*
X109558154Y-66685724D01*
X109558153Y-66685726D01*
X109529522Y-66792582D01*
X109523500Y-66815056D01*
X109523500Y-66864432D01*
X109513911Y-66912645D01*
X109510818Y-66920112D01*
X109510816Y-66920116D01*
X109510816Y-66920118D01*
X109472700Y-67062367D01*
X109472700Y-67062368D01*
X109472700Y-67062369D01*
X109472700Y-67209631D01*
X109472699Y-67209631D01*
X109510815Y-67351880D01*
X109513908Y-67359345D01*
X109523500Y-67407566D01*
X109523500Y-68037500D01*
X109503498Y-68105621D01*
X109449842Y-68152114D01*
X109397500Y-68163500D01*
X109298061Y-68163500D01*
X109103997Y-68202103D01*
X109103994Y-68202104D01*
X108921190Y-68277824D01*
X108756673Y-68387751D01*
X108756666Y-68387756D01*
X108616756Y-68527666D01*
X108616751Y-68527673D01*
X108506824Y-68692190D01*
X108431104Y-68874994D01*
X108431103Y-68874997D01*
X108392500Y-69069061D01*
X105508500Y-69069061D01*
X105508500Y-67209631D01*
X105916699Y-67209631D01*
X105954816Y-67351882D01*
X106028446Y-67479414D01*
X106028454Y-67479424D01*
X106132575Y-67583545D01*
X106132580Y-67583549D01*
X106132582Y-67583551D01*
X106260118Y-67657184D01*
X106402367Y-67695300D01*
X106402369Y-67695300D01*
X106549631Y-67695300D01*
X106549633Y-67695300D01*
X106691882Y-67657184D01*
X106819418Y-67583551D01*
X106923551Y-67479418D01*
X106997184Y-67351882D01*
X107035300Y-67209633D01*
X107035300Y-67209631D01*
X107694699Y-67209631D01*
X107732816Y-67351882D01*
X107806446Y-67479414D01*
X107806454Y-67479424D01*
X107910575Y-67583545D01*
X107910580Y-67583549D01*
X107910582Y-67583551D01*
X108038118Y-67657184D01*
X108180367Y-67695300D01*
X108180369Y-67695300D01*
X108327631Y-67695300D01*
X108327633Y-67695300D01*
X108469882Y-67657184D01*
X108597418Y-67583551D01*
X108701551Y-67479418D01*
X108775184Y-67351882D01*
X108813300Y-67209633D01*
X108813300Y-67062367D01*
X108775184Y-66920118D01*
X108730121Y-66842066D01*
X108701553Y-66792585D01*
X108701545Y-66792575D01*
X108597424Y-66688454D01*
X108597414Y-66688446D01*
X108469882Y-66614816D01*
X108327633Y-66576700D01*
X108180367Y-66576700D01*
X108085534Y-66602110D01*
X108038117Y-66614816D01*
X107910585Y-66688446D01*
X107910575Y-66688454D01*
X107806454Y-66792575D01*
X107806446Y-66792585D01*
X107732816Y-66920117D01*
X107694700Y-67062368D01*
X107694700Y-67209631D01*
X107694699Y-67209631D01*
X107035300Y-67209631D01*
X107035300Y-67062367D01*
X106997184Y-66920118D01*
X106952121Y-66842066D01*
X106923553Y-66792585D01*
X106923545Y-66792575D01*
X106819424Y-66688454D01*
X106819414Y-66688446D01*
X106691882Y-66614816D01*
X106549633Y-66576700D01*
X106402367Y-66576700D01*
X106307534Y-66602110D01*
X106260117Y-66614816D01*
X106132585Y-66688446D01*
X106132575Y-66688454D01*
X106028454Y-66792575D01*
X106028446Y-66792585D01*
X105954816Y-66920117D01*
X105916700Y-67062368D01*
X105916700Y-67209631D01*
X105916699Y-67209631D01*
X105508500Y-67209631D01*
X105508500Y-65685631D01*
X105916699Y-65685631D01*
X105954816Y-65827882D01*
X106028446Y-65955414D01*
X106028454Y-65955424D01*
X106132575Y-66059545D01*
X106132580Y-66059549D01*
X106132582Y-66059551D01*
X106260118Y-66133184D01*
X106402367Y-66171300D01*
X106402369Y-66171300D01*
X106549631Y-66171300D01*
X106549633Y-66171300D01*
X106691882Y-66133184D01*
X106819418Y-66059551D01*
X106923551Y-65955418D01*
X106997184Y-65827882D01*
X107035300Y-65685633D01*
X107035300Y-65685631D01*
X107694699Y-65685631D01*
X107732816Y-65827882D01*
X107806446Y-65955414D01*
X107806454Y-65955424D01*
X107910575Y-66059545D01*
X107910580Y-66059549D01*
X107910582Y-66059551D01*
X108038118Y-66133184D01*
X108180367Y-66171300D01*
X108180369Y-66171300D01*
X108327631Y-66171300D01*
X108327633Y-66171300D01*
X108469882Y-66133184D01*
X108597418Y-66059551D01*
X108701551Y-65955418D01*
X108775184Y-65827882D01*
X108813300Y-65685633D01*
X108813300Y-65538367D01*
X108775184Y-65396118D01*
X108701551Y-65268582D01*
X108701549Y-65268580D01*
X108701545Y-65268575D01*
X108597424Y-65164454D01*
X108597414Y-65164446D01*
X108469882Y-65090816D01*
X108327633Y-65052700D01*
X108180367Y-65052700D01*
X108085534Y-65078110D01*
X108038117Y-65090816D01*
X107910585Y-65164446D01*
X107910575Y-65164454D01*
X107806454Y-65268575D01*
X107806446Y-65268585D01*
X107732816Y-65396117D01*
X107694700Y-65538368D01*
X107694700Y-65685631D01*
X107694699Y-65685631D01*
X107035300Y-65685631D01*
X107035300Y-65538367D01*
X106997184Y-65396118D01*
X106923551Y-65268582D01*
X106923549Y-65268580D01*
X106923545Y-65268575D01*
X106819424Y-65164454D01*
X106819414Y-65164446D01*
X106691882Y-65090816D01*
X106549633Y-65052700D01*
X106402367Y-65052700D01*
X106307534Y-65078110D01*
X106260117Y-65090816D01*
X106132585Y-65164446D01*
X106132575Y-65164454D01*
X106028454Y-65268575D01*
X106028446Y-65268585D01*
X105954816Y-65396117D01*
X105916700Y-65538368D01*
X105916700Y-65685631D01*
X105916699Y-65685631D01*
X105508500Y-65685631D01*
X105508500Y-64415631D01*
X117854699Y-64415631D01*
X117892816Y-64557882D01*
X117966446Y-64685414D01*
X117966454Y-64685424D01*
X118070575Y-64789545D01*
X118070580Y-64789549D01*
X118070582Y-64789551D01*
X118070583Y-64789552D01*
X118070585Y-64789553D01*
X118120066Y-64818121D01*
X118198118Y-64863184D01*
X118340367Y-64901300D01*
X118340369Y-64901300D01*
X118487631Y-64901300D01*
X118487633Y-64901300D01*
X118629882Y-64863184D01*
X118757418Y-64789551D01*
X118861551Y-64685418D01*
X118935184Y-64557882D01*
X118971827Y-64421131D01*
X139185199Y-64421131D01*
X139223316Y-64563382D01*
X139296946Y-64690914D01*
X139296954Y-64690924D01*
X139401075Y-64795045D01*
X139401080Y-64795049D01*
X139401082Y-64795051D01*
X139528618Y-64868684D01*
X139670867Y-64906800D01*
X139670869Y-64906800D01*
X139818131Y-64906800D01*
X139818133Y-64906800D01*
X139960382Y-64868684D01*
X140087918Y-64795051D01*
X140192051Y-64690918D01*
X140265684Y-64563382D01*
X140303800Y-64421133D01*
X140303800Y-64273867D01*
X140265684Y-64131618D01*
X140192051Y-64004082D01*
X140192049Y-64004080D01*
X140192045Y-64004075D01*
X140087924Y-63899954D01*
X140087914Y-63899946D01*
X139960382Y-63826316D01*
X139818133Y-63788200D01*
X139670867Y-63788200D01*
X139576034Y-63813610D01*
X139528617Y-63826316D01*
X139401085Y-63899946D01*
X139401075Y-63899954D01*
X139296954Y-64004075D01*
X139296946Y-64004085D01*
X139223316Y-64131617D01*
X139223316Y-64131618D01*
X139186674Y-64268368D01*
X139185200Y-64273868D01*
X139185200Y-64421131D01*
X139185199Y-64421131D01*
X118971827Y-64421131D01*
X118973300Y-64415633D01*
X118973300Y-64268367D01*
X118935184Y-64126118D01*
X118864728Y-64004085D01*
X118861553Y-63998585D01*
X118861545Y-63998575D01*
X118757424Y-63894454D01*
X118757414Y-63894446D01*
X118629882Y-63820816D01*
X118487633Y-63782700D01*
X118340367Y-63782700D01*
X118245534Y-63808110D01*
X118198117Y-63820816D01*
X118070585Y-63894446D01*
X118070575Y-63894454D01*
X117966454Y-63998575D01*
X117966446Y-63998585D01*
X117892816Y-64126117D01*
X117854700Y-64268368D01*
X117854700Y-64415631D01*
X117854699Y-64415631D01*
X105508500Y-64415631D01*
X105508500Y-63399631D01*
X113028699Y-63399631D01*
X113066816Y-63541882D01*
X113140446Y-63669414D01*
X113140454Y-63669424D01*
X113244575Y-63773545D01*
X113244580Y-63773549D01*
X113244582Y-63773551D01*
X113244583Y-63773552D01*
X113244585Y-63773553D01*
X113269955Y-63788200D01*
X113372118Y-63847184D01*
X113514367Y-63885300D01*
X113514369Y-63885300D01*
X113661631Y-63885300D01*
X113661633Y-63885300D01*
X113803882Y-63847184D01*
X113931418Y-63773551D01*
X114035551Y-63669418D01*
X114109184Y-63541882D01*
X114147300Y-63399633D01*
X114147300Y-63252367D01*
X114109184Y-63110118D01*
X114054948Y-63016179D01*
X114035553Y-62982585D01*
X114035545Y-62982575D01*
X113931424Y-62878454D01*
X113931414Y-62878446D01*
X113803882Y-62804816D01*
X113661633Y-62766700D01*
X113514367Y-62766700D01*
X113419534Y-62792110D01*
X113372117Y-62804816D01*
X113244585Y-62878446D01*
X113244575Y-62878454D01*
X113140454Y-62982575D01*
X113140446Y-62982585D01*
X113066816Y-63110117D01*
X113055250Y-63153282D01*
X113030066Y-63247271D01*
X113028700Y-63252368D01*
X113028700Y-63399631D01*
X113028699Y-63399631D01*
X105508500Y-63399631D01*
X105508500Y-62637631D01*
X117854699Y-62637631D01*
X117892816Y-62779882D01*
X117966446Y-62907414D01*
X117966454Y-62907424D01*
X118070575Y-63011545D01*
X118070580Y-63011549D01*
X118070582Y-63011551D01*
X118070583Y-63011552D01*
X118070585Y-63011553D01*
X118120066Y-63040121D01*
X118198118Y-63085184D01*
X118340367Y-63123300D01*
X118340369Y-63123300D01*
X118487631Y-63123300D01*
X118487633Y-63123300D01*
X118629882Y-63085184D01*
X118757418Y-63011551D01*
X118861551Y-62907418D01*
X118935184Y-62779882D01*
X118973300Y-62637633D01*
X118973300Y-62637631D01*
X120140699Y-62637631D01*
X120178816Y-62779882D01*
X120252446Y-62907414D01*
X120252454Y-62907424D01*
X120356575Y-63011545D01*
X120356580Y-63011549D01*
X120356582Y-63011551D01*
X120356583Y-63011552D01*
X120356585Y-63011553D01*
X120406066Y-63040121D01*
X120484118Y-63085184D01*
X120626367Y-63123300D01*
X120626369Y-63123300D01*
X120773631Y-63123300D01*
X120773633Y-63123300D01*
X120915882Y-63085184D01*
X121043418Y-63011551D01*
X121147551Y-62907418D01*
X121221184Y-62779882D01*
X121234917Y-62728631D01*
X130046699Y-62728631D01*
X130084816Y-62870882D01*
X130158446Y-62998414D01*
X130158454Y-62998424D01*
X130262575Y-63102545D01*
X130262580Y-63102549D01*
X130262582Y-63102551D01*
X130262583Y-63102552D01*
X130262585Y-63102553D01*
X130298520Y-63123300D01*
X130390118Y-63176184D01*
X130532367Y-63214300D01*
X130532369Y-63214300D01*
X130679631Y-63214300D01*
X130679633Y-63214300D01*
X130821882Y-63176184D01*
X130949418Y-63102551D01*
X131053551Y-62998418D01*
X131127184Y-62870882D01*
X131165300Y-62728633D01*
X131165300Y-62581367D01*
X131127184Y-62439118D01*
X131053551Y-62311582D01*
X131053549Y-62311580D01*
X131053545Y-62311575D01*
X130949424Y-62207454D01*
X130949414Y-62207446D01*
X130821882Y-62133816D01*
X130679633Y-62095700D01*
X130532367Y-62095700D01*
X130454943Y-62116446D01*
X130390117Y-62133816D01*
X130262585Y-62207446D01*
X130262575Y-62207454D01*
X130158454Y-62311575D01*
X130158446Y-62311585D01*
X130084816Y-62439117D01*
X130084816Y-62439118D01*
X130047094Y-62579899D01*
X130046700Y-62581368D01*
X130046700Y-62728631D01*
X130046699Y-62728631D01*
X121234917Y-62728631D01*
X121259300Y-62637633D01*
X121259300Y-62490367D01*
X121221184Y-62348118D01*
X121147551Y-62220582D01*
X121147549Y-62220580D01*
X121147545Y-62220575D01*
X121043424Y-62116454D01*
X121043414Y-62116446D01*
X120915882Y-62042816D01*
X120896998Y-62037756D01*
X120773633Y-62004700D01*
X120626367Y-62004700D01*
X120531534Y-62030110D01*
X120484117Y-62042816D01*
X120356585Y-62116446D01*
X120356575Y-62116454D01*
X120252454Y-62220575D01*
X120252446Y-62220585D01*
X120178816Y-62348117D01*
X120140700Y-62490368D01*
X120140700Y-62637631D01*
X120140699Y-62637631D01*
X118973300Y-62637631D01*
X118973300Y-62490367D01*
X118935184Y-62348118D01*
X118861551Y-62220582D01*
X118861549Y-62220580D01*
X118861545Y-62220575D01*
X118757424Y-62116454D01*
X118757414Y-62116446D01*
X118629882Y-62042816D01*
X118610998Y-62037756D01*
X118487633Y-62004700D01*
X118340367Y-62004700D01*
X118245534Y-62030110D01*
X118198117Y-62042816D01*
X118070585Y-62116446D01*
X118070575Y-62116454D01*
X117966454Y-62220575D01*
X117966446Y-62220585D01*
X117892816Y-62348117D01*
X117854700Y-62490368D01*
X117854700Y-62637631D01*
X117854699Y-62637631D01*
X105508500Y-62637631D01*
X105508500Y-61113631D01*
X117854699Y-61113631D01*
X117892816Y-61255882D01*
X117966446Y-61383414D01*
X117966454Y-61383424D01*
X118070575Y-61487545D01*
X118070580Y-61487549D01*
X118070582Y-61487551D01*
X118198118Y-61561184D01*
X118340367Y-61599300D01*
X118340369Y-61599300D01*
X118487631Y-61599300D01*
X118487633Y-61599300D01*
X118629882Y-61561184D01*
X118757418Y-61487551D01*
X118861551Y-61383418D01*
X118935184Y-61255882D01*
X118973300Y-61113633D01*
X118973300Y-60966367D01*
X118935184Y-60824118D01*
X118911154Y-60782498D01*
X118894417Y-60713504D01*
X118917637Y-60646412D01*
X118973444Y-60602525D01*
X119020274Y-60593499D01*
X120093726Y-60593499D01*
X120161847Y-60613501D01*
X120208340Y-60667157D01*
X120218444Y-60737431D01*
X120202845Y-60782499D01*
X120178816Y-60824117D01*
X120140700Y-60966368D01*
X120140700Y-61113631D01*
X120140699Y-61113631D01*
X120178816Y-61255882D01*
X120252446Y-61383414D01*
X120252454Y-61383424D01*
X120356575Y-61487545D01*
X120356580Y-61487549D01*
X120356582Y-61487551D01*
X120484118Y-61561184D01*
X120626367Y-61599300D01*
X120626369Y-61599300D01*
X120773631Y-61599300D01*
X120773633Y-61599300D01*
X120915882Y-61561184D01*
X121043418Y-61487551D01*
X121147551Y-61383418D01*
X121221184Y-61255882D01*
X121259300Y-61113633D01*
X121259300Y-60966367D01*
X121221184Y-60824118D01*
X121186565Y-60764157D01*
X121169828Y-60695162D01*
X121193049Y-60628071D01*
X121248856Y-60584184D01*
X121260456Y-60580740D01*
X121265299Y-60578734D01*
X121265301Y-60578734D01*
X121349484Y-60522484D01*
X121405734Y-60438301D01*
X121420500Y-60364067D01*
X121420500Y-60351631D01*
X130046699Y-60351631D01*
X130084816Y-60493882D01*
X130158446Y-60621414D01*
X130158454Y-60621424D01*
X130262575Y-60725545D01*
X130262580Y-60725549D01*
X130262582Y-60725551D01*
X130262583Y-60725552D01*
X130262585Y-60725553D01*
X130312066Y-60754121D01*
X130390118Y-60799184D01*
X130532367Y-60837300D01*
X130532369Y-60837300D01*
X130679631Y-60837300D01*
X130679633Y-60837300D01*
X130821882Y-60799184D01*
X130949418Y-60725551D01*
X131053551Y-60621418D01*
X131127184Y-60493882D01*
X131165300Y-60351633D01*
X131165300Y-60306061D01*
X132268500Y-60306061D01*
X132268500Y-60503938D01*
X132307103Y-60698002D01*
X132307104Y-60698005D01*
X132318514Y-60725551D01*
X132382824Y-60880809D01*
X132492754Y-61045331D01*
X132632669Y-61185246D01*
X132797191Y-61295176D01*
X132979998Y-61370897D01*
X133174065Y-61409500D01*
X133309972Y-61409500D01*
X133378093Y-61429502D01*
X133399067Y-61446405D01*
X135199927Y-63247266D01*
X135199933Y-63247271D01*
X135199935Y-63247273D01*
X135324822Y-63330719D01*
X135463588Y-63388197D01*
X135610901Y-63417500D01*
X135761100Y-63417500D01*
X135908413Y-63388197D01*
X136047179Y-63330719D01*
X136172066Y-63247273D01*
X136278273Y-63141066D01*
X136361719Y-63016179D01*
X136419197Y-62877413D01*
X136448500Y-62730100D01*
X136448500Y-62728631D01*
X137666699Y-62728631D01*
X137704816Y-62870882D01*
X137778446Y-62998414D01*
X137778454Y-62998424D01*
X137882575Y-63102545D01*
X137882580Y-63102549D01*
X137882582Y-63102551D01*
X137882583Y-63102552D01*
X137882585Y-63102553D01*
X137918520Y-63123300D01*
X138010118Y-63176184D01*
X138152367Y-63214300D01*
X138152369Y-63214300D01*
X138299631Y-63214300D01*
X138299633Y-63214300D01*
X138441882Y-63176184D01*
X138569418Y-63102551D01*
X138673551Y-62998418D01*
X138747184Y-62870882D01*
X138785300Y-62728633D01*
X138785300Y-62728631D01*
X140206699Y-62728631D01*
X140244816Y-62870882D01*
X140318446Y-62998414D01*
X140318454Y-62998424D01*
X140422575Y-63102545D01*
X140422580Y-63102549D01*
X140422582Y-63102551D01*
X140422583Y-63102552D01*
X140422585Y-63102553D01*
X140458520Y-63123300D01*
X140550118Y-63176184D01*
X140692367Y-63214300D01*
X140692369Y-63214300D01*
X140839631Y-63214300D01*
X140839633Y-63214300D01*
X140981882Y-63176184D01*
X141109418Y-63102551D01*
X141213551Y-62998418D01*
X141287184Y-62870882D01*
X141325300Y-62728633D01*
X141325300Y-62581367D01*
X141287184Y-62439118D01*
X141213551Y-62311582D01*
X141213549Y-62311580D01*
X141213545Y-62311575D01*
X141109424Y-62207454D01*
X141109414Y-62207446D01*
X140981882Y-62133816D01*
X140839633Y-62095700D01*
X140692367Y-62095700D01*
X140614943Y-62116446D01*
X140550117Y-62133816D01*
X140422585Y-62207446D01*
X140422575Y-62207454D01*
X140318454Y-62311575D01*
X140318446Y-62311585D01*
X140244816Y-62439117D01*
X140244816Y-62439118D01*
X140207094Y-62579899D01*
X140206700Y-62581368D01*
X140206700Y-62728631D01*
X140206699Y-62728631D01*
X138785300Y-62728631D01*
X138785300Y-62581367D01*
X138747184Y-62439118D01*
X138673551Y-62311582D01*
X138673549Y-62311580D01*
X138673545Y-62311575D01*
X138569424Y-62207454D01*
X138569414Y-62207446D01*
X138441882Y-62133816D01*
X138299633Y-62095700D01*
X138152367Y-62095700D01*
X138074943Y-62116446D01*
X138010117Y-62133816D01*
X137882585Y-62207446D01*
X137882575Y-62207454D01*
X137778454Y-62311575D01*
X137778446Y-62311585D01*
X137704816Y-62439117D01*
X137704816Y-62439118D01*
X137667094Y-62579899D01*
X137666700Y-62581368D01*
X137666700Y-62728631D01*
X137666699Y-62728631D01*
X136448500Y-62728631D01*
X136448500Y-62579901D01*
X136419197Y-62432588D01*
X136361719Y-62293822D01*
X136278273Y-62168935D01*
X136278271Y-62168933D01*
X136278266Y-62168927D01*
X134460969Y-60351631D01*
X135126699Y-60351631D01*
X135164816Y-60493882D01*
X135238446Y-60621414D01*
X135238454Y-60621424D01*
X135342575Y-60725545D01*
X135342580Y-60725549D01*
X135342582Y-60725551D01*
X135342583Y-60725552D01*
X135342585Y-60725553D01*
X135392066Y-60754121D01*
X135470118Y-60799184D01*
X135612367Y-60837300D01*
X135612369Y-60837300D01*
X135759631Y-60837300D01*
X135759633Y-60837300D01*
X135901882Y-60799184D01*
X136029418Y-60725551D01*
X136133551Y-60621418D01*
X136207184Y-60493882D01*
X136245300Y-60351633D01*
X136245300Y-60351631D01*
X137666699Y-60351631D01*
X137704816Y-60493882D01*
X137778446Y-60621414D01*
X137778454Y-60621424D01*
X137882575Y-60725545D01*
X137882580Y-60725549D01*
X137882582Y-60725551D01*
X137882583Y-60725552D01*
X137882585Y-60725553D01*
X137932066Y-60754121D01*
X138010118Y-60799184D01*
X138152367Y-60837300D01*
X138152369Y-60837300D01*
X138299631Y-60837300D01*
X138299633Y-60837300D01*
X138441882Y-60799184D01*
X138569418Y-60725551D01*
X138673551Y-60621418D01*
X138747184Y-60493882D01*
X138785300Y-60351633D01*
X138785300Y-60351631D01*
X140206699Y-60351631D01*
X140244816Y-60493882D01*
X140318446Y-60621414D01*
X140318454Y-60621424D01*
X140422575Y-60725545D01*
X140422580Y-60725549D01*
X140422582Y-60725551D01*
X140422583Y-60725552D01*
X140422585Y-60725553D01*
X140472066Y-60754121D01*
X140550118Y-60799184D01*
X140692367Y-60837300D01*
X140692369Y-60837300D01*
X140839631Y-60837300D01*
X140839633Y-60837300D01*
X140981882Y-60799184D01*
X141109418Y-60725551D01*
X141213551Y-60621418D01*
X141287184Y-60493882D01*
X141325300Y-60351633D01*
X141325300Y-60204367D01*
X141287184Y-60062118D01*
X141213551Y-59934582D01*
X141213549Y-59934580D01*
X141213545Y-59934575D01*
X141109424Y-59830454D01*
X141109414Y-59830446D01*
X140981882Y-59756816D01*
X140839633Y-59718700D01*
X140692367Y-59718700D01*
X140597534Y-59744110D01*
X140550117Y-59756816D01*
X140422585Y-59830446D01*
X140422575Y-59830454D01*
X140318454Y-59934575D01*
X140318446Y-59934585D01*
X140244816Y-60062117D01*
X140206700Y-60204368D01*
X140206700Y-60351631D01*
X140206699Y-60351631D01*
X138785300Y-60351631D01*
X138785300Y-60204367D01*
X138747184Y-60062118D01*
X138673551Y-59934582D01*
X138673549Y-59934580D01*
X138673545Y-59934575D01*
X138569424Y-59830454D01*
X138569414Y-59830446D01*
X138441882Y-59756816D01*
X138299633Y-59718700D01*
X138152367Y-59718700D01*
X138057534Y-59744110D01*
X138010117Y-59756816D01*
X137882585Y-59830446D01*
X137882575Y-59830454D01*
X137778454Y-59934575D01*
X137778446Y-59934585D01*
X137704816Y-60062117D01*
X137666700Y-60204368D01*
X137666700Y-60351631D01*
X137666699Y-60351631D01*
X136245300Y-60351631D01*
X136245300Y-60204367D01*
X136207184Y-60062118D01*
X136133551Y-59934582D01*
X136133549Y-59934580D01*
X136133545Y-59934575D01*
X136029424Y-59830454D01*
X136029414Y-59830446D01*
X135901882Y-59756816D01*
X135759633Y-59718700D01*
X135612367Y-59718700D01*
X135517534Y-59744110D01*
X135470117Y-59756816D01*
X135342585Y-59830446D01*
X135342575Y-59830454D01*
X135238454Y-59934575D01*
X135238446Y-59934585D01*
X135164816Y-60062117D01*
X135126700Y-60204368D01*
X135126700Y-60351631D01*
X135126699Y-60351631D01*
X134460969Y-60351631D01*
X134394541Y-60285203D01*
X134268862Y-60159524D01*
X134243300Y-60116874D01*
X134241266Y-60117717D01*
X134194370Y-60004500D01*
X134163176Y-59929191D01*
X134053246Y-59764669D01*
X133913331Y-59624754D01*
X133748809Y-59514824D01*
X133737856Y-59510287D01*
X133566005Y-59439104D01*
X133566002Y-59439103D01*
X133371938Y-59400500D01*
X133371935Y-59400500D01*
X133174065Y-59400500D01*
X133174061Y-59400500D01*
X132979997Y-59439103D01*
X132979994Y-59439104D01*
X132797190Y-59514824D01*
X132632673Y-59624751D01*
X132632666Y-59624756D01*
X132492756Y-59764666D01*
X132492751Y-59764673D01*
X132382824Y-59929190D01*
X132307104Y-60111994D01*
X132307103Y-60111997D01*
X132268500Y-60306061D01*
X131165300Y-60306061D01*
X131165300Y-60204367D01*
X131127184Y-60062118D01*
X131053551Y-59934582D01*
X131053549Y-59934580D01*
X131053545Y-59934575D01*
X130949424Y-59830454D01*
X130949414Y-59830446D01*
X130821882Y-59756816D01*
X130679633Y-59718700D01*
X130532367Y-59718700D01*
X130437534Y-59744110D01*
X130390117Y-59756816D01*
X130262585Y-59830446D01*
X130262575Y-59830454D01*
X130158454Y-59934575D01*
X130158446Y-59934585D01*
X130084816Y-60062117D01*
X130046700Y-60204368D01*
X130046700Y-60351631D01*
X130046699Y-60351631D01*
X121420500Y-60351631D01*
X121420499Y-58065631D01*
X130046699Y-58065631D01*
X130084816Y-58207882D01*
X130158446Y-58335414D01*
X130158454Y-58335424D01*
X130262575Y-58439545D01*
X130262580Y-58439549D01*
X130262582Y-58439551D01*
X130390118Y-58513184D01*
X130532367Y-58551300D01*
X130532369Y-58551300D01*
X130679631Y-58551300D01*
X130679633Y-58551300D01*
X130821882Y-58513184D01*
X130949418Y-58439551D01*
X131053551Y-58335418D01*
X131127184Y-58207882D01*
X131165300Y-58065633D01*
X131165300Y-58065631D01*
X132586699Y-58065631D01*
X132624816Y-58207882D01*
X132698446Y-58335414D01*
X132698454Y-58335424D01*
X132802575Y-58439545D01*
X132802580Y-58439549D01*
X132802582Y-58439551D01*
X132930118Y-58513184D01*
X133072367Y-58551300D01*
X133072369Y-58551300D01*
X133219631Y-58551300D01*
X133219633Y-58551300D01*
X133361882Y-58513184D01*
X133489418Y-58439551D01*
X133593551Y-58335418D01*
X133667184Y-58207882D01*
X133705300Y-58065633D01*
X133705300Y-58065631D01*
X135126699Y-58065631D01*
X135164816Y-58207882D01*
X135238446Y-58335414D01*
X135238454Y-58335424D01*
X135342575Y-58439545D01*
X135342580Y-58439549D01*
X135342582Y-58439551D01*
X135470118Y-58513184D01*
X135612367Y-58551300D01*
X135612369Y-58551300D01*
X135759631Y-58551300D01*
X135759633Y-58551300D01*
X135901882Y-58513184D01*
X136029418Y-58439551D01*
X136133551Y-58335418D01*
X136207184Y-58207882D01*
X136245300Y-58065633D01*
X136245300Y-58065631D01*
X137666699Y-58065631D01*
X137704816Y-58207882D01*
X137778446Y-58335414D01*
X137778454Y-58335424D01*
X137882575Y-58439545D01*
X137882580Y-58439549D01*
X137882582Y-58439551D01*
X138010118Y-58513184D01*
X138152367Y-58551300D01*
X138152369Y-58551300D01*
X138299631Y-58551300D01*
X138299633Y-58551300D01*
X138441882Y-58513184D01*
X138569418Y-58439551D01*
X138673551Y-58335418D01*
X138747184Y-58207882D01*
X138785300Y-58065633D01*
X138785300Y-57918367D01*
X138747184Y-57776118D01*
X138673551Y-57648582D01*
X138673549Y-57648580D01*
X138673545Y-57648575D01*
X138569424Y-57544454D01*
X138569414Y-57544446D01*
X138441882Y-57470816D01*
X138299633Y-57432700D01*
X138152367Y-57432700D01*
X138057534Y-57458110D01*
X138010117Y-57470816D01*
X137882585Y-57544446D01*
X137882575Y-57544454D01*
X137778454Y-57648575D01*
X137778446Y-57648585D01*
X137704816Y-57776117D01*
X137666700Y-57918368D01*
X137666700Y-58065631D01*
X137666699Y-58065631D01*
X136245300Y-58065631D01*
X136245300Y-57918367D01*
X136207184Y-57776118D01*
X136133551Y-57648582D01*
X136133549Y-57648580D01*
X136133545Y-57648575D01*
X136029424Y-57544454D01*
X136029414Y-57544446D01*
X135901882Y-57470816D01*
X135759633Y-57432700D01*
X135612367Y-57432700D01*
X135517534Y-57458110D01*
X135470117Y-57470816D01*
X135342585Y-57544446D01*
X135342575Y-57544454D01*
X135238454Y-57648575D01*
X135238446Y-57648585D01*
X135164816Y-57776117D01*
X135126700Y-57918368D01*
X135126700Y-58065631D01*
X135126699Y-58065631D01*
X133705300Y-58065631D01*
X133705300Y-57918367D01*
X133667184Y-57776118D01*
X133593551Y-57648582D01*
X133593549Y-57648580D01*
X133593545Y-57648575D01*
X133489424Y-57544454D01*
X133489414Y-57544446D01*
X133361882Y-57470816D01*
X133219633Y-57432700D01*
X133072367Y-57432700D01*
X132977534Y-57458110D01*
X132930117Y-57470816D01*
X132802585Y-57544446D01*
X132802575Y-57544454D01*
X132698454Y-57648575D01*
X132698446Y-57648585D01*
X132624816Y-57776117D01*
X132586700Y-57918368D01*
X132586700Y-58065631D01*
X132586699Y-58065631D01*
X131165300Y-58065631D01*
X131165300Y-57918367D01*
X131127184Y-57776118D01*
X131053551Y-57648582D01*
X131053549Y-57648580D01*
X131053545Y-57648575D01*
X130949424Y-57544454D01*
X130949414Y-57544446D01*
X130821882Y-57470816D01*
X130679633Y-57432700D01*
X130532367Y-57432700D01*
X130437534Y-57458110D01*
X130390117Y-57470816D01*
X130262585Y-57544446D01*
X130262575Y-57544454D01*
X130158454Y-57648575D01*
X130158446Y-57648585D01*
X130084816Y-57776117D01*
X130046700Y-57918368D01*
X130046700Y-58065631D01*
X130046699Y-58065631D01*
X121420499Y-58065631D01*
X121420499Y-57713934D01*
X121420498Y-57713930D01*
X121420498Y-57713926D01*
X121405734Y-57639699D01*
X121349483Y-57555515D01*
X121265302Y-57499266D01*
X121191067Y-57484500D01*
X118540936Y-57484500D01*
X118540926Y-57484501D01*
X118466699Y-57499265D01*
X118382515Y-57555516D01*
X118326266Y-57639697D01*
X118311500Y-57713930D01*
X118311500Y-60364063D01*
X118311502Y-60364075D01*
X118311965Y-60366403D01*
X118311853Y-60367645D01*
X118312108Y-60370228D01*
X118311618Y-60370276D01*
X118305633Y-60437117D01*
X118262076Y-60493182D01*
X118221000Y-60512684D01*
X118198118Y-60518815D01*
X118070585Y-60592446D01*
X118070575Y-60592454D01*
X117966454Y-60696575D01*
X117966446Y-60696585D01*
X117892816Y-60824117D01*
X117854700Y-60966368D01*
X117854700Y-61113631D01*
X117854699Y-61113631D01*
X105508500Y-61113631D01*
X105508500Y-57191737D01*
X139689500Y-57191737D01*
X139689500Y-58538246D01*
X139689502Y-58538270D01*
X139695959Y-58598339D01*
X139695959Y-58598341D01*
X139746657Y-58734266D01*
X139746658Y-58734267D01*
X139833596Y-58850404D01*
X139949733Y-58937342D01*
X140085658Y-58988040D01*
X140145745Y-58994500D01*
X140942254Y-58994499D01*
X141002342Y-58988040D01*
X141138267Y-58937342D01*
X141254404Y-58850404D01*
X141341342Y-58734267D01*
X141392040Y-58598342D01*
X141398500Y-58538255D01*
X141398499Y-57505836D01*
X141689500Y-57505836D01*
X141689500Y-58224163D01*
X141722338Y-58389249D01*
X141786752Y-58544758D01*
X141880266Y-58684712D01*
X141999288Y-58803734D01*
X142139242Y-58897248D01*
X142294751Y-58961662D01*
X142459839Y-58994500D01*
X142459840Y-58994500D01*
X142628160Y-58994500D01*
X142628161Y-58994500D01*
X142793249Y-58961662D01*
X142948758Y-58897248D01*
X143088712Y-58803734D01*
X143207734Y-58684712D01*
X143301248Y-58544758D01*
X143365662Y-58389249D01*
X143398500Y-58224161D01*
X143398500Y-57505839D01*
X143365662Y-57340751D01*
X143303942Y-57191745D01*
X143303939Y-57191737D01*
X149087500Y-57191737D01*
X149087500Y-58538246D01*
X149087502Y-58538270D01*
X149093959Y-58598339D01*
X149093959Y-58598341D01*
X149144657Y-58734266D01*
X149144658Y-58734267D01*
X149231596Y-58850404D01*
X149347733Y-58937342D01*
X149483658Y-58988040D01*
X149543745Y-58994500D01*
X150340254Y-58994499D01*
X150400342Y-58988040D01*
X150536267Y-58937342D01*
X150652404Y-58850404D01*
X150739342Y-58734267D01*
X150790040Y-58598342D01*
X150796500Y-58538255D01*
X150796499Y-57505836D01*
X153087500Y-57505836D01*
X153087500Y-58224163D01*
X153120338Y-58389249D01*
X153184752Y-58544758D01*
X153278266Y-58684712D01*
X153397288Y-58803734D01*
X153537242Y-58897248D01*
X153692751Y-58961662D01*
X153857839Y-58994500D01*
X153857840Y-58994500D01*
X154026160Y-58994500D01*
X154026161Y-58994500D01*
X154191249Y-58961662D01*
X154346758Y-58897248D01*
X154486712Y-58803734D01*
X154605734Y-58684712D01*
X154699248Y-58544758D01*
X154763662Y-58389249D01*
X154796500Y-58224161D01*
X154796500Y-57505839D01*
X154763662Y-57340751D01*
X154699248Y-57185242D01*
X154605734Y-57045288D01*
X154486712Y-56926266D01*
X154346758Y-56832752D01*
X154191249Y-56768338D01*
X154026163Y-56735500D01*
X154026161Y-56735500D01*
X153857839Y-56735500D01*
X153857836Y-56735500D01*
X153692750Y-56768338D01*
X153692745Y-56768340D01*
X153537241Y-56832752D01*
X153397292Y-56926263D01*
X153397285Y-56926268D01*
X153278268Y-57045285D01*
X153278263Y-57045292D01*
X153184752Y-57185241D01*
X153120340Y-57340745D01*
X153120338Y-57340750D01*
X153087500Y-57505836D01*
X150796499Y-57505836D01*
X150796499Y-57191746D01*
X150790040Y-57131658D01*
X150739342Y-56995733D01*
X150652404Y-56879596D01*
X150536267Y-56792658D01*
X150536265Y-56792657D01*
X150536266Y-56792657D01*
X150400349Y-56741962D01*
X150400344Y-56741960D01*
X150400342Y-56741960D01*
X150370298Y-56738730D01*
X150340256Y-56735500D01*
X149543753Y-56735500D01*
X149543729Y-56735502D01*
X149483660Y-56741959D01*
X149483658Y-56741959D01*
X149347733Y-56792657D01*
X149231596Y-56879596D01*
X149144657Y-56995734D01*
X149093962Y-57131650D01*
X149093960Y-57131658D01*
X149087500Y-57191737D01*
X143303939Y-57191737D01*
X143301250Y-57185246D01*
X143301248Y-57185242D01*
X143275345Y-57146476D01*
X143207734Y-57045288D01*
X143088712Y-56926266D01*
X142948758Y-56832752D01*
X142793249Y-56768338D01*
X142628163Y-56735500D01*
X142628161Y-56735500D01*
X142459839Y-56735500D01*
X142459836Y-56735500D01*
X142294750Y-56768338D01*
X142294745Y-56768340D01*
X142139241Y-56832752D01*
X141999292Y-56926263D01*
X141999285Y-56926268D01*
X141880268Y-57045285D01*
X141880263Y-57045292D01*
X141786752Y-57185241D01*
X141722340Y-57340745D01*
X141722338Y-57340750D01*
X141689500Y-57505836D01*
X141398499Y-57505836D01*
X141398499Y-57191746D01*
X141392040Y-57131658D01*
X141341342Y-56995733D01*
X141254404Y-56879596D01*
X141138267Y-56792658D01*
X141138265Y-56792657D01*
X141138266Y-56792657D01*
X141002349Y-56741962D01*
X141002344Y-56741960D01*
X141002342Y-56741960D01*
X140972298Y-56738730D01*
X140942256Y-56735500D01*
X140145753Y-56735500D01*
X140145729Y-56735502D01*
X140085660Y-56741959D01*
X140085658Y-56741959D01*
X139949733Y-56792657D01*
X139833596Y-56879596D01*
X139746657Y-56995734D01*
X139695962Y-57131650D01*
X139695960Y-57131658D01*
X139689500Y-57191737D01*
X105508500Y-57191737D01*
X105508500Y-54913389D01*
X106899500Y-54913389D01*
X106899500Y-55086611D01*
X106926598Y-55257701D01*
X106980127Y-55422445D01*
X106980128Y-55422448D01*
X106980130Y-55422452D01*
X107058768Y-55576788D01*
X107160587Y-55716930D01*
X107283069Y-55839412D01*
X107283072Y-55839414D01*
X107423212Y-55941232D01*
X107577555Y-56019873D01*
X107742299Y-56073402D01*
X107913389Y-56100500D01*
X107913392Y-56100500D01*
X108086608Y-56100500D01*
X108086611Y-56100500D01*
X108257701Y-56073402D01*
X108422445Y-56019873D01*
X108576788Y-55941232D01*
X108716928Y-55839414D01*
X108839414Y-55716928D01*
X108941232Y-55576788D01*
X109019873Y-55422445D01*
X109073402Y-55257701D01*
X109100500Y-55086611D01*
X109100500Y-54913389D01*
X109073402Y-54742299D01*
X109019873Y-54577555D01*
X108941232Y-54423212D01*
X108839414Y-54283072D01*
X108839412Y-54283069D01*
X108716930Y-54160587D01*
X108576788Y-54058768D01*
X108422452Y-53980130D01*
X108422448Y-53980128D01*
X108422445Y-53980127D01*
X108257701Y-53926598D01*
X108086611Y-53899500D01*
X107913389Y-53899500D01*
X107742299Y-53926598D01*
X107742296Y-53926598D01*
X107742295Y-53926599D01*
X107663253Y-53952281D01*
X107577555Y-53980127D01*
X107577553Y-53980127D01*
X107577547Y-53980130D01*
X107423211Y-54058768D01*
X107283069Y-54160587D01*
X107160587Y-54283069D01*
X107058768Y-54423211D01*
X106980130Y-54577547D01*
X106980127Y-54577553D01*
X106980127Y-54577555D01*
X106926598Y-54742299D01*
X106899500Y-54913389D01*
X105508500Y-54913389D01*
X105508500Y-48003805D01*
X105508730Y-47996197D01*
X105516447Y-47868615D01*
X105995500Y-47868615D01*
X105995500Y-48131384D01*
X106029796Y-48391890D01*
X106029797Y-48391896D01*
X106029798Y-48391898D01*
X106097806Y-48645708D01*
X106198361Y-48888470D01*
X106198362Y-48888471D01*
X106198367Y-48888482D01*
X106329740Y-49116026D01*
X106489703Y-49324495D01*
X106489712Y-49324505D01*
X106675494Y-49510287D01*
X106675504Y-49510296D01*
X106883973Y-49670259D01*
X107111517Y-49801632D01*
X107111521Y-49801633D01*
X107111530Y-49801639D01*
X107354292Y-49902194D01*
X107608102Y-49970202D01*
X107608108Y-49970202D01*
X107608109Y-49970203D01*
X107637999Y-49974138D01*
X107868618Y-50004500D01*
X107868625Y-50004500D01*
X108131375Y-50004500D01*
X108131382Y-50004500D01*
X108391898Y-49970202D01*
X108645708Y-49902194D01*
X108888470Y-49801639D01*
X109116030Y-49670257D01*
X109324495Y-49510297D01*
X109510297Y-49324495D01*
X109670257Y-49116030D01*
X109801639Y-48888470D01*
X109902194Y-48645708D01*
X109970202Y-48391898D01*
X110004500Y-48131382D01*
X110004500Y-47868618D01*
X109970202Y-47608102D01*
X109902194Y-47354292D01*
X109801639Y-47111530D01*
X109801633Y-47111521D01*
X109801632Y-47111517D01*
X109670259Y-46883973D01*
X109633160Y-46835625D01*
X109510297Y-46675505D01*
X109510296Y-46675504D01*
X109510287Y-46675494D01*
X109324505Y-46489712D01*
X109324495Y-46489703D01*
X109147413Y-46353824D01*
X109116030Y-46329743D01*
X109116029Y-46329742D01*
X109116026Y-46329740D01*
X108888482Y-46198367D01*
X108888474Y-46198363D01*
X108888470Y-46198361D01*
X108645708Y-46097806D01*
X108391898Y-46029798D01*
X108391896Y-46029797D01*
X108391890Y-46029796D01*
X108131384Y-45995500D01*
X108131382Y-45995500D01*
X107868618Y-45995500D01*
X107868615Y-45995500D01*
X107608109Y-46029796D01*
X107608102Y-46029798D01*
X107354292Y-46097806D01*
X107275630Y-46130389D01*
X107111528Y-46198362D01*
X107111517Y-46198367D01*
X106883973Y-46329740D01*
X106675504Y-46489703D01*
X106675494Y-46489712D01*
X106489712Y-46675494D01*
X106489703Y-46675504D01*
X106329740Y-46883973D01*
X106198367Y-47111517D01*
X106198362Y-47111528D01*
X106097806Y-47354292D01*
X106029796Y-47608109D01*
X105995500Y-47868615D01*
X105516447Y-47868615D01*
X105517157Y-47856885D01*
X105517157Y-47856884D01*
X105518926Y-47827638D01*
X105526206Y-47707277D01*
X105528037Y-47692200D01*
X105579527Y-47411228D01*
X105583161Y-47396484D01*
X105668143Y-47123765D01*
X105673529Y-47109564D01*
X105790761Y-46849086D01*
X105797827Y-46835625D01*
X105809330Y-46816597D01*
X105945602Y-46591173D01*
X105954225Y-46578681D01*
X106130397Y-46353814D01*
X106140471Y-46342444D01*
X106342444Y-46140471D01*
X106353814Y-46130397D01*
X106578681Y-45954225D01*
X106591173Y-45945602D01*
X106835628Y-45797825D01*
X106849086Y-45790761D01*
X107109564Y-45673529D01*
X107123765Y-45668143D01*
X107396484Y-45583161D01*
X107411228Y-45579527D01*
X107692200Y-45528037D01*
X107707277Y-45526206D01*
X107969911Y-45510320D01*
X107996199Y-45508730D01*
X108003806Y-45508500D01*
X108066946Y-45508500D01*
X131933054Y-45508500D01*
X131996194Y-45508500D01*
X132003801Y-45508730D01*
G37*
%TD.AperFunction*%
%TD*%
M02*
