<?xml version="1.0" encoding="UTF-8" standalone="no"?>
<!DOCTYPE svg PUBLIC "-//W3C//DTD SVG 1.1//EN"
 "http://www.w3.org/Graphics/SVG/1.1/DTD/svg11.dtd">
<!-- Generated by graphviz version 15.0.0 (20260523.1842)
 -->
<!-- Title: mainboard Pages: 1 -->
<svg width="2133pt" height="669pt"
 viewBox="0.00 0.00 2133.00 669.00" xmlns="http://www.w3.org/2000/svg" xmlns:xlink="http://www.w3.org/1999/xlink">
<g id="graph0" class="graph" transform="scale(1 1) rotate(0) translate(4 665.43)">
<title>mainboard</title>
<polygon fill="white" stroke="none" points="-4,4 -4,-665.43 2129.25,-665.43 2129.25,4 -4,4"/>
<text xml:space="preserve" text-anchor="middle" x="1062.62" y="-646.98" font-family="Helvetica,sans-Serif" font-size="11.00">Main Board Connectivity (devkit&#45;level, GPIO&#45;annotated)</text>
<text xml:space="preserve" text-anchor="middle" x="1062.62" y="-634.98" font-family="Helvetica,sans-Serif" font-size="11.00">ESP32&#45;S3&#45;WROOM&#45;1&#45;N16R8 (U1). &#160;EE adds buck/P&#45;FET/PTC/shifter detail + per&#45;datasheet decoupling. &#160;Authority = 02&#45;technical&#45;spec.md pin map.</text>
<g id="clust1" class="cluster">
<title>cluster_pwr</title>
<polygon fill="none" stroke="#7f7f7f" stroke-dasharray="5,2" points="8,-312.68 8,-452.68 598.75,-452.68 598.75,-312.68 8,-312.68"/>
<text xml:space="preserve" text-anchor="middle" x="303.38" y="-438.23" font-family="Helvetica,sans-Serif" font-size="11.00">POWER &#160;(EE transcribes from TPS54331 datasheet)</text>
</g>
<!-- J1 -->
<g id="node1" class="node">
<title>J1</title>
<path fill="#f5f5f5" stroke="black" d="M64.25,-370.68C64.25,-370.68 28,-370.68 28,-370.68 22,-370.68 16,-364.68 16,-358.68 16,-358.68 16,-346.68 16,-346.68 16,-340.68 22,-334.68 28,-334.68 28,-334.68 64.25,-334.68 64.25,-334.68 70.25,-334.68 76.25,-340.68 76.25,-346.68 76.25,-346.68 76.25,-358.68 76.25,-358.68 76.25,-364.68 70.25,-370.68 64.25,-370.68"/>
<text xml:space="preserve" text-anchor="middle" x="46.12" y="-354.43" font-family="Helvetica,sans-Serif" font-size="10.00">J1</text>
<text xml:space="preserve" text-anchor="middle" x="46.12" y="-343.18" font-family="Helvetica,sans-Serif" font-size="10.00">12V barrel</text>
</g>
<!-- PROT -->
<g id="node2" class="node">
<title>PROT</title>
<path fill="#f5f5f5" stroke="black" d="M264.5,-373.55C264.5,-373.55 184.75,-373.55 184.75,-373.55 178.75,-373.55 172.75,-367.55 172.75,-361.55 172.75,-361.55 172.75,-343.8 172.75,-343.8 172.75,-337.8 178.75,-331.8 184.75,-331.8 184.75,-331.8 264.5,-331.8 264.5,-331.8 270.5,-331.8 276.5,-337.8 276.5,-343.8 276.5,-343.8 276.5,-361.55 276.5,-361.55 276.5,-367.55 270.5,-373.55 264.5,-373.55"/>
<text xml:space="preserve" text-anchor="middle" x="224.62" y="-360.05" font-family="Helvetica,sans-Serif" font-size="10.00">F1 PTC 3A &#160;+</text>
<text xml:space="preserve" text-anchor="middle" x="224.62" y="-348.8" font-family="Helvetica,sans-Serif" font-size="10.00">Q1 AO3401A P&#45;FET</text>
<text xml:space="preserve" text-anchor="middle" x="224.62" y="-337.55" font-family="Helvetica,sans-Serif" font-size="10.00">(reverse&#45;polarity)</text>
</g>
<!-- J1&#45;&gt;PROT -->
<g id="edge1" class="edge">
<title>J1&#45;&gt;PROT</title>
<path fill="none" stroke="black" d="M76.67,-352.68C99.71,-352.68 132.53,-352.68 161.31,-352.68"/>
<polygon fill="black" stroke="black" points="161.01,-356.18 171.01,-352.68 161.01,-349.18 161.01,-356.18"/>
<text xml:space="preserve" text-anchor="middle" x="124.5" y="-353.88" font-family="Helvetica,sans-Serif" font-size="9.00">12V</text>
</g>
<!-- B1 -->
<g id="node3" class="node">
<title>B1</title>
<path fill="#f5f5f5" stroke="black" d="M534.88,-356.68C534.88,-356.68 464.88,-356.68 464.88,-356.68 458.88,-356.68 452.88,-350.68 452.88,-344.68 452.88,-344.68 452.88,-332.68 452.88,-332.68 452.88,-326.68 458.88,-320.68 464.88,-320.68 464.88,-320.68 534.88,-320.68 534.88,-320.68 540.88,-320.68 546.88,-326.68 546.88,-332.68 546.88,-332.68 546.88,-344.68 546.88,-344.68 546.88,-350.68 540.88,-356.68 534.88,-356.68"/>
<text xml:space="preserve" text-anchor="middle" x="499.88" y="-340.43" font-family="Helvetica,sans-Serif" font-size="10.00">U3a Buck</text>
<text xml:space="preserve" text-anchor="middle" x="499.88" y="-329.18" font-family="Helvetica,sans-Serif" font-size="10.00">TPS54331 &#45;&gt; 3V3</text>
</g>
<!-- PROT&#45;&gt;B1 -->
<g id="edge2" class="edge">
<title>PROT&#45;&gt;B1</title>
<path fill="none" stroke="black" d="M276.7,-350.06C323.46,-347.67 392.6,-344.12 441.3,-341.63"/>
<polygon fill="black" stroke="black" points="441.28,-345.14 451.09,-341.13 440.92,-338.14 441.28,-345.14"/>
<text xml:space="preserve" text-anchor="middle" x="342.75" y="-348.95" font-family="Helvetica,sans-Serif" font-size="9.00">12V_FUSED</text>
</g>
<!-- B2 -->
<g id="node4" class="node">
<title>B2</title>
<path fill="#f5f5f5" stroke="black" d="M578.75,-424.68C578.75,-424.68 421,-424.68 421,-424.68 415,-424.68 409,-418.68 409,-412.68 409,-412.68 409,-400.68 409,-400.68 409,-394.68 415,-388.68 421,-388.68 421,-388.68 578.75,-388.68 578.75,-388.68 584.75,-388.68 590.75,-394.68 590.75,-400.68 590.75,-400.68 590.75,-412.68 590.75,-412.68 590.75,-418.68 584.75,-424.68 578.75,-424.68"/>
<text xml:space="preserve" text-anchor="middle" x="499.88" y="-408.43" font-family="Helvetica,sans-Serif" font-size="10.00">U3b Buck</text>
<text xml:space="preserve" text-anchor="middle" x="499.88" y="-397.18" font-family="Helvetica,sans-Serif" font-size="10.00">TPS54331 &#45;&gt; 5V (LEDs+shifters only)</text>
</g>
<!-- PROT&#45;&gt;B2 -->
<g id="edge3" class="edge">
<title>PROT&#45;&gt;B2</title>
<path fill="none" stroke="black" d="M276.7,-362.77C310.59,-369.47 356.23,-378.49 397.32,-386.61"/>
<polygon fill="black" stroke="black" points="396.53,-390.02 407.02,-388.53 397.88,-383.15 396.53,-390.02"/>
<text xml:space="preserve" text-anchor="middle" x="342.75" y="-380.88" font-family="Helvetica,sans-Serif" font-size="9.00">12V_FUSED</text>
</g>
<!-- AMP -->
<g id="node6" class="node">
<title>AMP</title>
<path fill="#d5e8d4" stroke="black" d="M853.62,-182.68C853.62,-182.68 767.88,-182.68 767.88,-182.68 761.88,-182.68 755.88,-176.68 755.88,-170.68 755.88,-170.68 755.88,-158.68 755.88,-158.68 755.88,-152.68 761.88,-146.68 767.88,-146.68 767.88,-146.68 853.62,-146.68 853.62,-146.68 859.62,-146.68 865.62,-152.68 865.62,-158.68 865.62,-158.68 865.62,-170.68 865.62,-170.68 865.62,-176.68 859.62,-182.68 853.62,-182.68"/>
<text xml:space="preserve" text-anchor="middle" x="810.75" y="-166.43" font-family="Helvetica,sans-Serif" font-size="10.00">U2 &#160;TAS5805M</text>
<text xml:space="preserve" text-anchor="middle" x="810.75" y="-155.18" font-family="Helvetica,sans-Serif" font-size="10.00">Class&#45;D, mono PBTL</text>
</g>
<!-- PROT&#45;&gt;AMP -->
<g id="edge6" class="edge">
<title>PROT&#45;&gt;AMP</title>
<path fill="none" stroke="#7a0000" d="M276.93,-333.1C353.33,-304.33 501.88,-249.91 630.75,-211.68 668.27,-200.55 710.62,-189.37 744.7,-180.71"/>
<polygon fill="#7a0000" stroke="#7a0000" points="745.15,-184.2 753.99,-178.36 743.43,-177.41 745.15,-184.2"/>
<text xml:space="preserve" text-anchor="middle" x="499.88" y="-295.69" font-family="Helvetica,sans-Serif" font-size="9.00" fill="#7a0000">12V_FUSED (PVDD)</text>
<text xml:space="preserve" text-anchor="middle" x="499.88" y="-285.94" font-family="Helvetica,sans-Serif" font-size="9.00" fill="#7a0000">+390uF bulk</text>
</g>
<!-- ESP -->
<g id="node5" class="node">
<title>ESP</title>
<path fill="#dae8fc" stroke="black" d="M1445,-276.68C1445,-276.68 1303,-276.68 1303,-276.68 1297,-276.68 1291,-270.68 1291,-264.68 1291,-264.68 1291,-252.68 1291,-252.68 1291,-246.68 1297,-240.68 1303,-240.68 1303,-240.68 1445,-240.68 1445,-240.68 1451,-240.68 1457,-246.68 1457,-252.68 1457,-252.68 1457,-264.68 1457,-264.68 1457,-270.68 1451,-276.68 1445,-276.68"/>
<text xml:space="preserve" text-anchor="middle" x="1374" y="-254.8" font-family="Helvetica,sans-Serif" font-size="10.00">U1 &#160;ESP32&#45;S3&#45;WROOM&#45;1&#45;N16R8</text>
</g>
<!-- B1&#45;&gt;ESP -->
<g id="edge4" class="edge">
<title>B1&#45;&gt;ESP</title>
<path fill="none" stroke="#cc0000" d="M547.11,-327.75C591.59,-317.7 660.87,-303.29 721.75,-295.93 955.56,-267.65 1016.06,-286.09 1251,-269.68 1260.23,-269.04 1269.84,-268.29 1279.44,-267.5"/>
<polygon fill="#cc0000" stroke="#cc0000" points="1279.5,-271.01 1289.17,-266.69 1278.91,-264.04 1279.5,-271.01"/>
<text xml:space="preserve" text-anchor="middle" x="810.75" y="-297.13" font-family="Helvetica,sans-Serif" font-size="9.00" fill="#cc0000">3V3</text>
</g>
<!-- B1&#45;&gt;AMP -->
<g id="edge5" class="edge">
<title>B1&#45;&gt;AMP</title>
<path fill="none" stroke="#cc0000" d="M523.37,-320.26C548.54,-300.18 591.01,-267.86 630.75,-244.93 669.55,-222.54 715.72,-201.98 751.46,-187.27"/>
<polygon fill="#cc0000" stroke="#cc0000" points="752.38,-190.68 760.32,-183.66 749.73,-184.19 752.38,-190.68"/>
<text xml:space="preserve" text-anchor="middle" x="656.25" y="-246.13" font-family="Helvetica,sans-Serif" font-size="9.00" fill="#cc0000">3V3 (DVDD)</text>
</g>
<!-- J3 -->
<g id="node8" class="node">
<title>J3</title>
<path fill="#ffe6cc" stroke="black" d="M1838.75,-229.68C1838.75,-229.68 1735.75,-229.68 1735.75,-229.68 1729.75,-229.68 1723.75,-223.68 1723.75,-217.68 1723.75,-217.68 1723.75,-205.68 1723.75,-205.68 1723.75,-199.68 1729.75,-193.68 1735.75,-193.68 1735.75,-193.68 1838.75,-193.68 1838.75,-193.68 1844.75,-193.68 1850.75,-199.68 1850.75,-205.68 1850.75,-205.68 1850.75,-217.68 1850.75,-217.68 1850.75,-223.68 1844.75,-229.68 1838.75,-229.68"/>
<text xml:space="preserve" text-anchor="middle" x="1787.25" y="-213.43" font-family="Helvetica,sans-Serif" font-size="10.00">J3 &#160;Mic daughterboard</text>
<text xml:space="preserve" text-anchor="middle" x="1787.25" y="-202.18" font-family="Helvetica,sans-Serif" font-size="10.00">3V3 / GND / CLK / DATA</text>
</g>
<!-- B1&#45;&gt;J3 -->
<g id="edge14" class="edge">
<title>B1&#45;&gt;J3</title>
<path fill="none" stroke="#cc0000" d="M546.91,-335.89C565.08,-332.58 584.88,-325.91 598.75,-312.68 632.82,-280.18 605.14,-251.19 630.75,-211.68 717.3,-78.17 784.29,-64.81 939.75,-30.93 1164.65,18.08 1235.93,7.41 1457,-56.68 1566.56,-88.44 1685.36,-152.5 1745.86,-187.5"/>
<polygon fill="#cc0000" stroke="#cc0000" points="1744.06,-190.5 1754.46,-192.51 1747.58,-184.45 1744.06,-190.5"/>
<text xml:space="preserve" text-anchor="middle" x="1095.38" y="-32.13" font-family="Helvetica,sans-Serif" font-size="9.00" fill="#cc0000">3V3</text>
</g>
<!-- J10 -->
<g id="node13" class="node">
<title>J10</title>
<path fill="#ffe6cc" stroke="black" d="M887.75,-357.68C887.75,-357.68 733.75,-357.68 733.75,-357.68 727.75,-357.68 721.75,-351.68 721.75,-345.68 721.75,-345.68 721.75,-333.68 721.75,-333.68 721.75,-327.68 727.75,-321.68 733.75,-321.68 733.75,-321.68 887.75,-321.68 887.75,-321.68 893.75,-321.68 899.75,-327.68 899.75,-333.68 899.75,-333.68 899.75,-345.68 899.75,-345.68 899.75,-351.68 893.75,-357.68 887.75,-357.68"/>
<text xml:space="preserve" text-anchor="middle" x="810.75" y="-341.43" font-family="Helvetica,sans-Serif" font-size="10.00">J10 &#160;Controls daughterboard</text>
<text xml:space="preserve" text-anchor="middle" x="810.75" y="-330.18" font-family="Helvetica,sans-Serif" font-size="10.00">3V3 / GND / POT1w / POT2w / BTN</text>
</g>
<!-- B1&#45;&gt;J10 -->
<g id="edge24" class="edge">
<title>B1&#45;&gt;J10</title>
<path fill="none" stroke="#cc0000" d="M547.12,-338.83C590.01,-338.97 655.28,-339.18 710.02,-339.36"/>
<polygon fill="#cc0000" stroke="#cc0000" points="710,-342.86 720.01,-339.39 710.03,-335.86 710,-342.86"/>
<text xml:space="preserve" text-anchor="middle" x="656.25" y="-340.44" font-family="Helvetica,sans-Serif" font-size="9.00" fill="#cc0000">3V3</text>
</g>
<!-- U5a -->
<g id="node9" class="node">
<title>U5a</title>
<path fill="#f5f5f5" stroke="black" d="M1835.75,-404.68C1835.75,-404.68 1738.75,-404.68 1738.75,-404.68 1732.75,-404.68 1726.75,-398.68 1726.75,-392.68 1726.75,-392.68 1726.75,-380.68 1726.75,-380.68 1726.75,-374.68 1732.75,-368.68 1738.75,-368.68 1738.75,-368.68 1835.75,-368.68 1835.75,-368.68 1841.75,-368.68 1847.75,-374.68 1847.75,-380.68 1847.75,-380.68 1847.75,-392.68 1847.75,-392.68 1847.75,-398.68 1841.75,-404.68 1835.75,-404.68"/>
<text xml:space="preserve" text-anchor="middle" x="1787.25" y="-388.43" font-family="Helvetica,sans-Serif" font-size="10.00">U5a &#160;SN74AHCT1G125</text>
<text xml:space="preserve" text-anchor="middle" x="1787.25" y="-377.18" font-family="Helvetica,sans-Serif" font-size="10.00">3.3&#45;&gt;5V</text>
</g>
<!-- B2&#45;&gt;U5a -->
<g id="edge20" class="edge">
<title>B2&#45;&gt;U5a</title>
<path fill="none" stroke="#e08000" d="M591,-405.28C833.58,-401.5 1496.7,-391.19 1715.3,-387.78"/>
<polygon fill="#e08000" stroke="#e08000" points="1715.15,-391.29 1725.09,-387.63 1715.04,-384.29 1715.15,-391.29"/>
<text xml:space="preserve" text-anchor="middle" x="1095.38" y="-400.84" font-family="Helvetica,sans-Serif" font-size="9.00" fill="#e08000">5V</text>
</g>
<!-- U5b -->
<g id="node10" class="node">
<title>U5b</title>
<path fill="#f5f5f5" stroke="black" d="M1835.75,-557.68C1835.75,-557.68 1738.75,-557.68 1738.75,-557.68 1732.75,-557.68 1726.75,-551.68 1726.75,-545.68 1726.75,-545.68 1726.75,-533.68 1726.75,-533.68 1726.75,-527.68 1732.75,-521.68 1738.75,-521.68 1738.75,-521.68 1835.75,-521.68 1835.75,-521.68 1841.75,-521.68 1847.75,-527.68 1847.75,-533.68 1847.75,-533.68 1847.75,-545.68 1847.75,-545.68 1847.75,-551.68 1841.75,-557.68 1835.75,-557.68"/>
<text xml:space="preserve" text-anchor="middle" x="1787.25" y="-541.43" font-family="Helvetica,sans-Serif" font-size="10.00">U5b &#160;SN74AHCT1G125</text>
<text xml:space="preserve" text-anchor="middle" x="1787.25" y="-530.18" font-family="Helvetica,sans-Serif" font-size="10.00">3.3&#45;&gt;5V</text>
</g>
<!-- B2&#45;&gt;U5b -->
<g id="edge22" class="edge">
<title>B2&#45;&gt;U5b</title>
<path fill="none" stroke="#e08000" d="M519.56,-425.16C543.16,-447.13 586.12,-482.7 630.75,-497.68 833.02,-565.56 1496.09,-549.67 1715.24,-542.32"/>
<polygon fill="#e08000" stroke="#e08000" points="1715.18,-545.83 1725.05,-541.99 1714.94,-538.83 1715.18,-545.83"/>
<text xml:space="preserve" text-anchor="middle" x="1095.38" y="-550.28" font-family="Helvetica,sans-Serif" font-size="9.00" fill="#e08000">5V</text>
</g>
<!-- J5 -->
<g id="node11" class="node">
<title>J5</title>
<path fill="#ffe6cc" stroke="black" d="M2086.25,-482.68C2086.25,-482.68 2011.75,-482.68 2011.75,-482.68 2005.75,-482.68 1999.75,-476.68 1999.75,-470.68 1999.75,-470.68 1999.75,-458.68 1999.75,-458.68 1999.75,-452.68 2005.75,-446.68 2011.75,-446.68 2011.75,-446.68 2086.25,-446.68 2086.25,-446.68 2092.25,-446.68 2098.25,-452.68 2098.25,-458.68 2098.25,-458.68 2098.25,-470.68 2098.25,-470.68 2098.25,-476.68 2092.25,-482.68 2086.25,-482.68"/>
<text xml:space="preserve" text-anchor="middle" x="2049" y="-466.43" font-family="Helvetica,sans-Serif" font-size="10.00">J5 &#160;COB LED strip</text>
<text xml:space="preserve" text-anchor="middle" x="2049" y="-455.18" font-family="Helvetica,sans-Serif" font-size="10.00">5V / DATA / GND</text>
</g>
<!-- B2&#45;&gt;J5 -->
<g id="edge19" class="edge">
<title>B2&#45;&gt;J5</title>
<path fill="none" stroke="#e08000" d="M553.98,-425.15C614.95,-444.68 718.31,-472.68 809.75,-472.68 809.75,-472.68 809.75,-472.68 1788.25,-472.68 1856.83,-472.68 1935.55,-469.86 1988.18,-467.57"/>
<polygon fill="#e08000" stroke="#e08000" points="1988.31,-471.07 1998.15,-467.13 1988,-464.07 1988.31,-471.07"/>
<text xml:space="preserve" text-anchor="middle" x="1374" y="-473.88" font-family="Helvetica,sans-Serif" font-size="9.00" fill="#e08000">5V</text>
</g>
<!-- J9 -->
<g id="node12" class="node">
<title>J9</title>
<path fill="#ffe6cc" stroke="black" d="M2113.25,-579.68C2113.25,-579.68 1984.75,-579.68 1984.75,-579.68 1978.75,-579.68 1972.75,-573.68 1972.75,-567.68 1972.75,-567.68 1972.75,-555.68 1972.75,-555.68 1972.75,-549.68 1978.75,-543.68 1984.75,-543.68 1984.75,-543.68 2113.25,-543.68 2113.25,-543.68 2119.25,-543.68 2125.25,-549.68 2125.25,-555.68 2125.25,-555.68 2125.25,-567.68 2125.25,-567.68 2125.25,-573.68 2119.25,-579.68 2113.25,-579.68"/>
<text xml:space="preserve" text-anchor="middle" x="2049" y="-563.43" font-family="Helvetica,sans-Serif" font-size="10.00">J9 &#160;Glow daughterboard</text>
<text xml:space="preserve" text-anchor="middle" x="2049" y="-552.18" font-family="Helvetica,sans-Serif" font-size="10.00">5V / DATA / GND (3x WS2812)</text>
</g>
<!-- B2&#45;&gt;J9 -->
<g id="edge21" class="edge">
<title>B2&#45;&gt;J9</title>
<path fill="none" stroke="#e08000" d="M513.96,-424.84C552.75,-476.35 672.96,-619.68 809.75,-619.68 809.75,-619.68 809.75,-619.68 1788.25,-619.68 1857.27,-619.68 1934.18,-599.93 1986.27,-583.48"/>
<polygon fill="#e08000" stroke="#e08000" points="1987.11,-586.89 1995.56,-580.49 1984.97,-580.23 1987.11,-586.89"/>
<text xml:space="preserve" text-anchor="middle" x="1374" y="-620.88" font-family="Helvetica,sans-Serif" font-size="9.00" fill="#e08000">5V</text>
</g>
<!-- ESP&#45;&gt;AMP -->
<g id="edge7" class="edge">
<title>ESP&#45;&gt;AMP</title>
<path fill="none" stroke="black" d="M1363.86,-240.27C1346.81,-208.28 1306.74,-143.38 1251,-117.93 1122.05,-59.05 950.31,-109.57 864.8,-142.21"/>
<polygon fill="black" stroke="black" points="863.78,-138.85 855.73,-145.74 866.32,-145.37 863.78,-138.85"/>
<text xml:space="preserve" text-anchor="middle" x="1095.38" y="-119.13" font-family="Helvetica,sans-Serif" font-size="9.00">I2S1: &#160;BCLK/GPIO6 · LRCLK/GPIO7 · DOUT&#45;&gt;SDIN/GPIO8</text>
</g>
<!-- ESP&#45;&gt;AMP -->
<g id="edge8" class="edge">
<title>ESP&#45;&gt;AMP</title>
<path fill="none" stroke="black" d="M1279.7,-254.66C1172.01,-249.36 1001.75,-238.79 939.75,-222.68 909.89,-214.92 878.31,-200.68 853.98,-188.25"/>
<polygon fill="black" stroke="black" points="1279.22,-258.14 1289.38,-255.13 1279.56,-251.15 1279.22,-258.14"/>
<polygon fill="black" stroke="black" points="855.85,-185.28 845.37,-183.76 852.62,-191.49 855.85,-185.28"/>
<text xml:space="preserve" text-anchor="middle" x="1095.38" y="-254.2" font-family="Helvetica,sans-Serif" font-size="9.00">I2C: &#160;SDA/GPIO47 · SCL/GPIO48 &#160;(+4.7k pull&#45;ups, addr 0x2C)</text>
</g>
<!-- ESP&#45;&gt;AMP -->
<g id="edge9" class="edge">
<title>ESP&#45;&gt;AMP</title>
<path fill="none" stroke="black" d="M1332.89,-240.29C1309.49,-230.33 1279.11,-218.71 1251,-211.93 1215.59,-203.39 990.84,-181.51 877.26,-170.78"/>
<polygon fill="black" stroke="black" points="877.76,-167.32 867.48,-169.86 877.1,-174.28 877.76,-167.32"/>
<text xml:space="preserve" text-anchor="middle" x="1095.38" y="-213.13" font-family="Helvetica,sans-Serif" font-size="9.00">PDN / GPIO21</text>
</g>
<!-- ESP&#45;&gt;J3 -->
<g id="edge12" class="edge">
<title>ESP&#45;&gt;J3</title>
<path fill="none" stroke="black" d="M1457.23,-249.28C1531.66,-240.78 1640.31,-228.36 1712.11,-220.15"/>
<polygon fill="black" stroke="black" points="1712.27,-223.66 1721.8,-219.05 1711.47,-216.7 1712.27,-223.66"/>
<text xml:space="preserve" text-anchor="middle" x="1590.38" y="-244.68" font-family="Helvetica,sans-Serif" font-size="9.00">MIC_PDM_CLK / GPIO9 &#160;(33&#45;100R at header)</text>
</g>
<!-- ESP&#45;&gt;U5a -->
<g id="edge15" class="edge">
<title>ESP&#45;&gt;U5a</title>
<path fill="none" stroke="black" d="M1438.46,-277.17C1501.02,-295.56 1599.23,-324.85 1683.75,-351.93 1696.26,-355.94 1709.59,-360.35 1722.34,-364.65"/>
<polygon fill="black" stroke="black" points="1720.87,-367.84 1731.46,-367.73 1723.11,-361.21 1720.87,-367.84"/>
<text xml:space="preserve" text-anchor="middle" x="1590.38" y="-353.13" font-family="Helvetica,sans-Serif" font-size="9.00">LED_COB / GPIO5 &#160;(100R)</text>
</g>
<!-- ESP&#45;&gt;U5b -->
<g id="edge17" class="edge">
<title>ESP&#45;&gt;U5b</title>
<path fill="none" stroke="black" d="M1392.58,-276.85C1415.42,-299.94 1457.11,-340.3 1497,-369.68 1577.75,-429.15 1680.71,-485.52 1739.48,-516.06"/>
<polygon fill="black" stroke="black" points="1737.74,-519.1 1748.23,-520.58 1740.96,-512.88 1737.74,-519.1"/>
<text xml:space="preserve" text-anchor="middle" x="1590.38" y="-485.21" font-family="Helvetica,sans-Serif" font-size="9.00">LED_GLOW / GPIO38 &#160;(~120R)</text>
</g>
<!-- AMP&#45;&gt;ESP -->
<g id="edge10" class="edge">
<title>AMP&#45;&gt;ESP</title>
<path fill="none" stroke="black" d="M865.95,-153.83C950.74,-139.22 1118.7,-119.93 1251,-164.93 1289.96,-178.18 1326.22,-209.44 1348.91,-232.23"/>
<polygon fill="black" stroke="black" points="1346.11,-234.37 1355.59,-239.11 1351.13,-229.5 1346.11,-234.37"/>
<text xml:space="preserve" text-anchor="middle" x="1095.38" y="-166.13" font-family="Helvetica,sans-Serif" font-size="9.00">FAULTZ / GPIO14</text>
</g>
<!-- J2 -->
<g id="node7" class="node">
<title>J2</title>
<path fill="#ffe6cc" stroke="black" d="M1417.25,-108.68C1417.25,-108.68 1330.75,-108.68 1330.75,-108.68 1324.75,-108.68 1318.75,-102.68 1318.75,-96.68 1318.75,-96.68 1318.75,-84.68 1318.75,-84.68 1318.75,-78.68 1324.75,-72.68 1330.75,-72.68 1330.75,-72.68 1417.25,-72.68 1417.25,-72.68 1423.25,-72.68 1429.25,-78.68 1429.25,-84.68 1429.25,-84.68 1429.25,-96.68 1429.25,-96.68 1429.25,-102.68 1423.25,-108.68 1417.25,-108.68"/>
<text xml:space="preserve" text-anchor="middle" x="1374" y="-92.43" font-family="Helvetica,sans-Serif" font-size="10.00">J2 Speaker</text>
<text xml:space="preserve" text-anchor="middle" x="1374" y="-81.18" font-family="Helvetica,sans-Serif" font-size="10.00">SPK+ / SPK&#45; (4 ohm)</text>
</g>
<!-- AMP&#45;&gt;J2 -->
<g id="edge11" class="edge">
<title>AMP&#45;&gt;J2</title>
<path fill="none" stroke="black" d="M828.71,-146.57C851.43,-123.78 894.2,-85.83 939.75,-70.93 1064.7,-30.07 1220.74,-54.13 1307.34,-73.56"/>
<polygon fill="black" stroke="black" points="1306.32,-76.92 1316.85,-75.75 1307.88,-70.1 1306.32,-76.92"/>
<text xml:space="preserve" text-anchor="middle" x="1095.38" y="-72.13" font-family="Helvetica,sans-Serif" font-size="9.00">PBTL out &#45;&gt; LC filter (10uH+0.68uF) &#45;&gt; 4 ohm, ~10&#45;15W</text>
</g>
<!-- J3&#45;&gt;ESP -->
<g id="edge13" class="edge">
<title>J3&#45;&gt;ESP</title>
<path fill="none" stroke="black" d="M1723.3,-205.2C1664.29,-200.67 1573.9,-197.67 1497,-211.93 1471.7,-216.62 1444.87,-226.34 1422.83,-235.7"/>
<polygon fill="black" stroke="black" points="1421.57,-232.43 1413.81,-239.64 1424.37,-238.84 1421.57,-232.43"/>
<text xml:space="preserve" text-anchor="middle" x="1590.38" y="-213.13" font-family="Helvetica,sans-Serif" font-size="9.00">MIC_PDM_DATA / GPIO11</text>
</g>
<!-- U5a&#45;&gt;J5 -->
<g id="edge16" class="edge">
<title>U5a&#45;&gt;J5</title>
<path fill="none" stroke="black" d="M1848.17,-404.67C1890.39,-417.35 1946.68,-434.25 1988.75,-446.89"/>
<polygon fill="black" stroke="black" points="1987.63,-450.21 1998.22,-449.73 1989.65,-443.5 1987.63,-450.21"/>
<text xml:space="preserve" text-anchor="middle" x="1911.75" y="-429.22" font-family="Helvetica,sans-Serif" font-size="9.00">DATA (5V)</text>
</g>
<!-- U5b&#45;&gt;J9 -->
<g id="edge18" class="edge">
<title>U5b&#45;&gt;J9</title>
<path fill="none" stroke="black" d="M1848.17,-544.75C1881.71,-547.6 1924.11,-551.19 1961.23,-554.33"/>
<polygon fill="black" stroke="black" points="1960.79,-557.81 1971.05,-555.16 1961.38,-550.83 1960.79,-557.81"/>
<text xml:space="preserve" text-anchor="middle" x="1911.75" y="-552.54" font-family="Helvetica,sans-Serif" font-size="9.00">DATA (5V)</text>
</g>
<!-- J10&#45;&gt;ESP -->
<g id="edge23" class="edge">
<title>J10&#45;&gt;ESP</title>
<path fill="none" stroke="black" d="M900.06,-341.62C989.65,-341.69 1131.71,-336.57 1251,-308.68 1276.78,-302.65 1304.18,-291.86 1326.46,-281.84"/>
<polygon fill="black" stroke="black" points="1327.64,-285.15 1335.26,-277.8 1324.71,-278.79 1327.64,-285.15"/>
<text xml:space="preserve" text-anchor="middle" x="1095.38" y="-342.51" font-family="Helvetica,sans-Serif" font-size="9.00">POT1w&#45;&gt;GPIO1 (ADC1_CH0) · POT2w&#45;&gt;GPIO2 (ADC1_CH1) · BTN&#45;&gt;GPIO4</text>
</g>
</g>
</svg>
